<?xml version="1.0" encoding="UTF-8"?>
<svg id="Capa_2" data-name="Capa 2" xmlns="http://www.w3.org/2000/svg" xmlns:xlink="http://www.w3.org/1999/xlink" viewBox="0 0 379 204">
  <defs>
    <style>
      .cls-1 {
        fill: url(#Degradado_sin_nombre_37-13);
      }

      .cls-2 {
        fill: url(#Degradado_sin_nombre_37-36);
      }

      .cls-3 {
        fill: url(#Degradado_sin_nombre_37-16);
      }

      .cls-4 {
        fill: url(#Degradado_sin_nombre_37-5);
      }

      .cls-5 {
        mask: url(#mask-3);
      }

      .cls-5, .cls-6, .cls-7, .cls-8, .cls-9, .cls-10, .cls-11, .cls-12, .cls-13, .cls-14, .cls-15, .cls-16, .cls-17, .cls-18, .cls-19, .cls-20, .cls-21, .cls-22, .cls-23, .cls-24, .cls-25, .cls-26, .cls-27, .cls-28, .cls-29, .cls-30, .cls-31, .cls-32, .cls-33, .cls-34, .cls-35, .cls-36, .cls-37, .cls-38, .cls-39, .cls-40, .cls-41, .cls-42 {
        fill: none;
      }

      .cls-6 {
        mask: url(#mask-25);
      }

      .cls-7 {
        mask: url(#mask-26);
      }

      .cls-43 {
        fill: url(#Degradado_sin_nombre_37-10);
      }

      .cls-8 {
        mask: url(#mask-11);
      }

      .cls-44 {
        fill: url(#Degradado_sin_nombre_37-35);
      }

      .cls-45 {
        fill: url(#Degradado_sin_nombre_37-20);
      }

      .cls-46 {
        fill: url(#Degradado_sin_nombre_37-23);
      }

      .cls-9 {
        mask: url(#mask-14);
      }

      .cls-10 {
        mask: url(#mask-2);
      }

      .cls-11 {
        mask: url(#mask-10);
      }

      .cls-47 {
        fill: url(#Degradado_sin_nombre_37-19);
      }

      .cls-12 {
        mask: url(#mask-31);
      }

      .cls-13 {
        mask: url(#mask-34);
      }

      .cls-48 {
        fill: url(#Degradado_sin_nombre_37-26);
      }

      .cls-49 {
        fill: url(#Degradado_sin_nombre_37-28);
      }

      .cls-14 {
        mask: url(#mask-33);
      }

      .cls-50 {
        fill: url(#Degradado_sin_nombre_37-30);
      }

      .cls-15 {
        mask: url(#mask-19);
      }

      .cls-51 {
        fill: url(#Degradado_sin_nombre_37-27);
      }

      .cls-16 {
        mask: url(#mask-35);
      }

      .cls-52 {
        fill: url(#Degradado_sin_nombre_37-9);
      }

      .cls-53 {
        fill: url(#Degradado_sin_nombre_37-25);
      }

      .cls-17 {
        mask: url(#mask-18);
      }

      .cls-54 {
        fill: url(#Degradado_sin_nombre_37-7);
      }

      .cls-18 {
        mask: url(#mask-27);
      }

      .cls-19 {
        mask: url(#mask-1);
      }

      .cls-55 {
        fill: url(#Degradado_sin_nombre_37-22);
      }

      .cls-56 {
        fill: url(#Degradado_sin_nombre_37-21);
      }

      .cls-20 {
        mask: url(#mask-5);
      }

      .cls-57 {
        fill: url(#Degradado_sin_nombre_37-33);
      }

      .cls-21 {
        mask: url(#mask-23);
      }

      .cls-22 {
        mask: url(#mask-13);
      }

      .cls-23 {
        mask: url(#mask-24);
      }

      .cls-58 {
        fill: url(#Degradado_sin_nombre_37-32);
      }

      .cls-59 {
        fill: url(#Degradado_sin_nombre_37-4);
      }

      .cls-60 {
        fill: url(#Degradado_sin_nombre_37-12);
      }

      .cls-61 {
        fill: url(#Degradado_sin_nombre_37-15);
      }

      .cls-24 {
        mask: url(#mask-22);
      }

      .cls-62 {
        fill: url(#Degradado_sin_nombre_37-8);
      }

      .cls-25 {
        mask: url(#mask-9);
      }

      .cls-63 {
        fill: url(#Degradado_sin_nombre_37-24);
      }

      .cls-26 {
        mask: url(#mask-17);
      }

      .cls-27 {
        mask: url(#mask-8);
      }

      .cls-28 {
        opacity: .5;
      }

      .cls-29 {
        mask: url(#mask-29);
      }

      .cls-64 {
        fill: url(#Degradado_sin_nombre_37-6);
      }

      .cls-65 {
        fill: url(#Degradado_sin_nombre_37-31);
      }

      .cls-66 {
        fill: url(#Degradado_sin_nombre_37-29);
      }

      .cls-67 {
        fill: url(#Degradado_sin_nombre_37-34);
      }

      .cls-68 {
        fill: url(#Degradado_sin_nombre_37-2);
      }

      .cls-69 {
        fill: url(#Degradado_sin_nombre_37-3);
      }

      .cls-31 {
        mask: url(#mask-6);
      }

      .cls-70 {
        fill: url(#Degradado_sin_nombre_37-11);
      }

      .cls-32 {
        mask: url(#mask-12);
      }

      .cls-33 {
        mask: url(#mask-15);
      }

      .cls-34 {
        mask: url(#mask);
      }

      .cls-71 {
        fill: url(#Degradado_sin_nombre_37-17);
      }

      .cls-35 {
        mask: url(#mask-30);
      }

      .cls-36 {
        mask: url(#mask-21);
      }

      .cls-37 {
        mask: url(#mask-16);
      }

      .cls-72 {
        fill: url(#Degradado_sin_nombre_37-18);
      }

      .cls-38 {
        mask: url(#mask-4);
      }

      .cls-39 {
        mask: url(#mask-32);
      }

      .cls-40 {
        mask: url(#mask-28);
      }

      .cls-73 {
        fill: #d9d9d9;
      }

      .cls-41 {
        mask: url(#mask-7);
      }

      .cls-74 {
        fill: url(#Degradado_sin_nombre_37-14);
      }

      .cls-75 {
        fill: url(#Degradado_sin_nombre_37);
      }

      .cls-42 {
        mask: url(#mask-20);
      }
    </style>
    <mask id="mask" x="151.29" y="162.44" width="31.53" height="31.53" maskUnits="userSpaceOnUse">
      <g id="mask0_1113_36608" data-name="mask0 1113 36608">
        <rect class="cls-73" x="151.29" y="162.44" width="31.53" height="31.53"/>
      </g>
    </mask>
    <linearGradient id="Degradado_sin_nombre_37" data-name="Degradado sin nombre 37" x1="367.48" y1="-3.09" x2="152.23" y2="191.61" gradientUnits="userSpaceOnUse">
      <stop offset="0" stop-color="#7ac7ff" stop-opacity=".5"/>
      <stop offset="1" stop-color="#fff" stop-opacity=".1"/>
    </linearGradient>
    <mask id="mask-1" x="188.58" y="163.03" width="31.53" height="31.53" maskUnits="userSpaceOnUse">
      <g id="mask0_1197_34963" data-name="mask0 1197 34963">
        <rect class="cls-73" x="188.58" y="163.03" width="31.53" height="31.53"/>
      </g>
    </mask>
    <linearGradient id="Degradado_sin_nombre_37-2" data-name="Degradado sin nombre 37" x1="382.57" y1="17.58" x2="167.32" y2="212.27" xlink:href="#Degradado_sin_nombre_37"/>
    <mask id="mask-2" x="225.86" y="162.44" width="31.53" height="31.53" maskUnits="userSpaceOnUse">
      <g id="mask0_1113_36608-2" data-name="mask0 1113 36608">
        <rect class="cls-73" x="225.86" y="162.44" width="31.53" height="31.53"/>
      </g>
    </mask>
    <linearGradient id="Degradado_sin_nombre_37-3" data-name="Degradado sin nombre 37" x1="397.14" y1="37.54" x2="181.89" y2="232.23" xlink:href="#Degradado_sin_nombre_37"/>
    <mask id="mask-3" x="263.15" y="163.03" width="31.53" height="31.53" maskUnits="userSpaceOnUse">
      <g id="mask0_1197_34963-2" data-name="mask0 1197 34963">
        <rect class="cls-73" x="263.15" y="163.03" width="31.53" height="31.53"/>
      </g>
    </mask>
    <linearGradient id="Degradado_sin_nombre_37-4" data-name="Degradado sin nombre 37" x1="412.23" y1="58.2" x2="196.99" y2="252.9" xlink:href="#Degradado_sin_nombre_37"/>
    <mask id="mask-4" x="300.44" y="162.44" width="31.53" height="31.53" maskUnits="userSpaceOnUse">
      <g id="mask0_1113_36608-3" data-name="mask0 1113 36608">
        <rect class="cls-73" x="300.44" y="162.44" width="31.53" height="31.53"/>
      </g>
    </mask>
    <linearGradient id="Degradado_sin_nombre_37-5" data-name="Degradado sin nombre 37" x1="426.81" y1="78.16" x2="211.56" y2="272.86" xlink:href="#Degradado_sin_nombre_37"/>
    <mask id="mask-5" x="337.73" y="163.03" width="31.53" height="31.53" maskUnits="userSpaceOnUse">
      <g id="mask0_1197_34963-3" data-name="mask0 1197 34963">
        <rect class="cls-73" x="337.73" y="163.03" width="31.53" height="31.53"/>
      </g>
    </mask>
    <linearGradient id="Degradado_sin_nombre_37-6" data-name="Degradado sin nombre 37" x1="441.9" y1="98.82" x2="226.65" y2="293.52" xlink:href="#Degradado_sin_nombre_37"/>
    <mask id="mask-6" x="188.07" y="132.23" width="31.53" height="31.53" maskUnits="userSpaceOnUse">
      <g id="mask0_1113_36608-4" data-name="mask0 1113 36608">
        <rect class="cls-73" x="188.07" y="132.23" width="31.53" height="31.53"/>
      </g>
    </mask>
    <linearGradient id="Degradado_sin_nombre_37-7" data-name="Degradado sin nombre 37" x1="368.71" y1="-1.14" x2="153.46" y2="193.56" xlink:href="#Degradado_sin_nombre_37"/>
    <mask id="mask-7" x="225.36" y="132.81" width="31.53" height="31.53" maskUnits="userSpaceOnUse">
      <g id="mask0_1197_34963-4" data-name="mask0 1197 34963">
        <rect class="cls-73" x="225.36" y="132.81" width="31.53" height="31.53"/>
      </g>
    </mask>
    <linearGradient id="Degradado_sin_nombre_37-8" data-name="Degradado sin nombre 37" x1="383.8" y1="19.52" x2="168.55" y2="214.22" xlink:href="#Degradado_sin_nombre_37"/>
    <mask id="mask-8" x="262.65" y="132.23" width="31.53" height="31.53" maskUnits="userSpaceOnUse">
      <g id="mask0_1113_36608-5" data-name="mask0 1113 36608">
        <rect class="cls-73" x="262.65" y="132.23" width="31.53" height="31.53"/>
      </g>
    </mask>
    <linearGradient id="Degradado_sin_nombre_37-9" data-name="Degradado sin nombre 37" x1="398.37" y1="39.48" x2="183.12" y2="234.18" xlink:href="#Degradado_sin_nombre_37"/>
    <mask id="mask-9" x="299.93" y="132.81" width="31.53" height="31.53" maskUnits="userSpaceOnUse">
      <g id="mask0_1197_34963-5" data-name="mask0 1197 34963">
        <rect class="cls-73" x="299.93" y="132.81" width="31.53" height="31.53"/>
      </g>
    </mask>
    <linearGradient id="Degradado_sin_nombre_37-10" data-name="Degradado sin nombre 37" x1="413.46" y1="60.15" x2="198.21" y2="254.84" xlink:href="#Degradado_sin_nombre_37"/>
    <mask id="mask-10" x="337.22" y="132.23" width="31.53" height="31.53" maskUnits="userSpaceOnUse">
      <g id="mask0_1113_36608-6" data-name="mask0 1113 36608">
        <rect class="cls-73" x="337.22" y="132.23" width="31.53" height="31.53"/>
      </g>
    </mask>
    <linearGradient id="Degradado_sin_nombre_37-11" data-name="Degradado sin nombre 37" x1="428.03" y1="80.11" x2="212.79" y2="274.8" xlink:href="#Degradado_sin_nombre_37"/>
    <mask id="mask-11" x="151.19" y="132.81" width="31.53" height="31.53" maskUnits="userSpaceOnUse">
      <g id="mask0_1197_34963-6" data-name="mask0 1197 34963">
        <rect class="cls-73" x="151.19" y="132.81" width="31.53" height="31.53"/>
      </g>
    </mask>
    <linearGradient id="Degradado_sin_nombre_37-12" data-name="Degradado sin nombre 37" x1="354.3" y1="-20.88" x2="139.05" y2="173.82" xlink:href="#Degradado_sin_nombre_37"/>
    <mask id="mask-12" x="151.29" y="100.7" width="31.53" height="31.53" maskUnits="userSpaceOnUse">
      <g id="mask0_1113_36608-7" data-name="mask0 1113 36608">
        <rect class="cls-73" x="151.29" y="100.7" width="31.53" height="31.53"/>
      </g>
    </mask>
    <linearGradient id="Degradado_sin_nombre_37-13" data-name="Degradado sin nombre 37" x1="340.09" y1="-40.05" x2="124.84" y2="154.64" xlink:href="#Degradado_sin_nombre_37"/>
    <mask id="mask-13" x="188.58" y="101.28" width="31.53" height="31.53" maskUnits="userSpaceOnUse">
      <g id="mask0_1197_34963-7" data-name="mask0 1197 34963">
        <rect class="cls-73" x="188.58" y="101.28" width="31.53" height="31.53"/>
      </g>
    </mask>
    <linearGradient id="Degradado_sin_nombre_37-14" data-name="Degradado sin nombre 37" x1="355.18" y1="-19.39" x2="139.93" y2="175.3" xlink:href="#Degradado_sin_nombre_37"/>
    <mask id="mask-14" x="225.86" y="100.7" width="31.53" height="31.53" maskUnits="userSpaceOnUse">
      <g id="mask0_1113_36608-8" data-name="mask0 1113 36608">
        <rect class="cls-73" x="225.86" y="100.7" width="31.53" height="31.53"/>
      </g>
    </mask>
    <linearGradient id="Degradado_sin_nombre_37-15" data-name="Degradado sin nombre 37" x1="369.75" y1=".57" x2="154.51" y2="195.27" xlink:href="#Degradado_sin_nombre_37"/>
    <mask id="mask-15" x="263.15" y="101.28" width="31.53" height="31.53" maskUnits="userSpaceOnUse">
      <g id="mask0_1197_34963-8" data-name="mask0 1197 34963">
        <rect class="cls-73" x="263.15" y="101.28" width="31.53" height="31.53"/>
      </g>
    </mask>
    <linearGradient id="Degradado_sin_nombre_37-16" data-name="Degradado sin nombre 37" x1="384.84" y1="21.23" x2="169.6" y2="215.93" xlink:href="#Degradado_sin_nombre_37"/>
    <mask id="mask-16" x="300.44" y="100.7" width="31.53" height="31.53" maskUnits="userSpaceOnUse">
      <g id="mask0_1113_36608-9" data-name="mask0 1113 36608">
        <rect class="cls-73" x="300.44" y="100.7" width="31.53" height="31.53"/>
      </g>
    </mask>
    <linearGradient id="Degradado_sin_nombre_37-17" data-name="Degradado sin nombre 37" x1="399.42" y1="41.19" x2="184.17" y2="235.89" xlink:href="#Degradado_sin_nombre_37"/>
    <mask id="mask-17" x="337.73" y="101.28" width="31.53" height="31.53" maskUnits="userSpaceOnUse">
      <g id="mask0_1197_34963-9" data-name="mask0 1197 34963">
        <rect class="cls-73" x="337.73" y="101.28" width="31.53" height="31.53"/>
      </g>
    </mask>
    <linearGradient id="Degradado_sin_nombre_37-18" data-name="Degradado sin nombre 37" x1="414.51" y1="61.86" x2="199.26" y2="256.55" xlink:href="#Degradado_sin_nombre_37"/>
    <mask id="mask-18" x="188.07" y="70.49" width="31.53" height="31.53" maskUnits="userSpaceOnUse">
      <g id="mask0_1113_36608-10" data-name="mask0 1113 36608">
        <rect class="cls-73" x="188.07" y="70.49" width="31.53" height="31.53"/>
      </g>
    </mask>
    <linearGradient id="Degradado_sin_nombre_37-19" data-name="Degradado sin nombre 37" x1="341.32" y1="-38.11" x2="126.07" y2="156.59" xlink:href="#Degradado_sin_nombre_37"/>
    <mask id="mask-19" x="225.36" y="71.07" width="31.53" height="31.53" maskUnits="userSpaceOnUse">
      <g id="mask0_1197_34963-10" data-name="mask0 1197 34963">
        <rect class="cls-73" x="225.36" y="71.07" width="31.53" height="31.53"/>
      </g>
    </mask>
    <linearGradient id="Degradado_sin_nombre_37-20" data-name="Degradado sin nombre 37" x1="356.41" y1="-17.45" x2="141.16" y2="177.25" xlink:href="#Degradado_sin_nombre_37"/>
    <mask id="mask-20" x="262.65" y="70.49" width="31.53" height="31.53" maskUnits="userSpaceOnUse">
      <g id="mask0_1113_36608-11" data-name="mask0 1113 36608">
        <rect class="cls-73" x="262.65" y="70.49" width="31.53" height="31.53"/>
      </g>
    </mask>
    <linearGradient id="Degradado_sin_nombre_37-21" data-name="Degradado sin nombre 37" x1="370.98" y1="2.52" x2="155.73" y2="197.21" xlink:href="#Degradado_sin_nombre_37"/>
    <mask id="mask-21" x="299.93" y="71.07" width="31.53" height="31.53" maskUnits="userSpaceOnUse">
      <g id="mask0_1197_34963-11" data-name="mask0 1197 34963">
        <rect class="cls-73" x="299.93" y="71.07" width="31.53" height="31.53"/>
      </g>
    </mask>
    <linearGradient id="Degradado_sin_nombre_37-22" data-name="Degradado sin nombre 37" x1="386.07" y1="23.18" x2="170.83" y2="217.87" xlink:href="#Degradado_sin_nombre_37"/>
    <mask id="mask-22" x="337.22" y="70.49" width="31.53" height="31.53" maskUnits="userSpaceOnUse">
      <g id="mask0_1113_36608-12" data-name="mask0 1113 36608">
        <rect class="cls-73" x="337.22" y="70.49" width="31.53" height="31.53"/>
      </g>
    </mask>
    <linearGradient id="Degradado_sin_nombre_37-23" data-name="Degradado sin nombre 37" x1="400.65" y1="43.14" x2="185.4" y2="237.84" xlink:href="#Degradado_sin_nombre_37"/>
    <mask id="mask-23" x="151.19" y="71.07" width="31.53" height="31.53" maskUnits="userSpaceOnUse">
      <g id="mask0_1197_34963-12" data-name="mask0 1197 34963">
        <rect class="cls-73" x="151.19" y="71.07" width="31.53" height="31.53"/>
      </g>
    </mask>
    <linearGradient id="Degradado_sin_nombre_37-24" data-name="Degradado sin nombre 37" x1="326.91" y1="-57.85" x2="111.66" y2="136.85" xlink:href="#Degradado_sin_nombre_37"/>
    <mask id="mask-24" x="151.29" y="38.96" width="31.53" height="31.53" maskUnits="userSpaceOnUse">
      <g id="mask0_1113_36608-13" data-name="mask0 1113 36608">
        <rect class="cls-73" x="151.29" y="38.96" width="31.53" height="31.53"/>
      </g>
    </mask>
    <linearGradient id="Degradado_sin_nombre_37-25" data-name="Degradado sin nombre 37" x1="312.7" y1="-77.02" x2="97.46" y2="117.67" xlink:href="#Degradado_sin_nombre_37"/>
    <mask id="mask-25" x="188.58" y="39.54" width="31.53" height="31.53" maskUnits="userSpaceOnUse">
      <g id="mask0_1197_34963-13" data-name="mask0 1197 34963">
        <rect class="cls-73" x="188.58" y="39.54" width="31.53" height="31.53"/>
      </g>
    </mask>
    <linearGradient id="Degradado_sin_nombre_37-26" data-name="Degradado sin nombre 37" x1="327.79" y1="-56.36" x2="112.55" y2="138.34" xlink:href="#Degradado_sin_nombre_37"/>
    <mask id="mask-26" x="225.86" y="38.96" width="31.53" height="31.53" maskUnits="userSpaceOnUse">
      <g id="mask0_1113_36608-14" data-name="mask0 1113 36608">
        <rect class="cls-73" x="225.86" y="38.96" width="31.53" height="31.53"/>
      </g>
    </mask>
    <linearGradient id="Degradado_sin_nombre_37-27" data-name="Degradado sin nombre 37" x1="342.37" y1="-36.4" x2="127.12" y2="158.3" xlink:href="#Degradado_sin_nombre_37"/>
    <mask id="mask-27" x="263.15" y="39.54" width="31.53" height="31.53" maskUnits="userSpaceOnUse">
      <g id="mask0_1197_34963-14" data-name="mask0 1197 34963">
        <rect class="cls-73" x="263.15" y="39.54" width="31.53" height="31.53"/>
      </g>
    </mask>
    <linearGradient id="Degradado_sin_nombre_37-28" data-name="Degradado sin nombre 37" x1="357.46" y1="-15.74" x2="142.21" y2="178.96" xlink:href="#Degradado_sin_nombre_37"/>
    <mask id="mask-28" x="300.44" y="38.96" width="31.53" height="31.53" maskUnits="userSpaceOnUse">
      <g id="mask0_1113_36608-15" data-name="mask0 1113 36608">
        <rect class="cls-73" x="300.44" y="38.96" width="31.53" height="31.53"/>
      </g>
    </mask>
    <linearGradient id="Degradado_sin_nombre_37-29" data-name="Degradado sin nombre 37" x1="372.03" y1="4.23" x2="156.78" y2="198.92" xlink:href="#Degradado_sin_nombre_37"/>
    <mask id="mask-29" x="337.73" y="39.54" width="31.53" height="31.53" maskUnits="userSpaceOnUse">
      <g id="mask0_1197_34963-15" data-name="mask0 1197 34963">
        <rect class="cls-73" x="337.73" y="39.54" width="31.53" height="31.53"/>
      </g>
    </mask>
    <linearGradient id="Degradado_sin_nombre_37-30" data-name="Degradado sin nombre 37" x1="387.12" y1="24.89" x2="171.87" y2="219.58" xlink:href="#Degradado_sin_nombre_37"/>
    <mask id="mask-30" x="188.07" y="8.75" width="31.53" height="31.53" maskUnits="userSpaceOnUse">
      <g id="mask0_1113_36608-16" data-name="mask0 1113 36608">
        <rect class="cls-73" x="188.07" y="8.75" width="31.53" height="31.53"/>
      </g>
    </mask>
    <linearGradient id="Degradado_sin_nombre_37-31" data-name="Degradado sin nombre 37" x1="313.93" y1="-75.08" x2="98.68" y2="119.62" xlink:href="#Degradado_sin_nombre_37"/>
    <mask id="mask-31" x="225.36" y="9.33" width="31.53" height="31.53" maskUnits="userSpaceOnUse">
      <g id="mask0_1197_34963-16" data-name="mask0 1197 34963">
        <rect class="cls-73" x="225.36" y="9.33" width="31.53" height="31.53"/>
      </g>
    </mask>
    <linearGradient id="Degradado_sin_nombre_37-32" data-name="Degradado sin nombre 37" x1="329.02" y1="-54.42" x2="113.77" y2="140.28" xlink:href="#Degradado_sin_nombre_37"/>
    <mask id="mask-32" x="262.65" y="8.75" width="31.53" height="31.53" maskUnits="userSpaceOnUse">
      <g id="mask0_1113_36608-17" data-name="mask0 1113 36608">
        <rect class="cls-73" x="262.65" y="8.75" width="31.53" height="31.53"/>
      </g>
    </mask>
    <linearGradient id="Degradado_sin_nombre_37-33" data-name="Degradado sin nombre 37" x1="343.59" y1="-34.45" x2="128.35" y2="160.24" xlink:href="#Degradado_sin_nombre_37"/>
    <mask id="mask-33" x="299.93" y="9.33" width="31.53" height="31.53" maskUnits="userSpaceOnUse">
      <g id="mask0_1197_34963-17" data-name="mask0 1197 34963">
        <rect class="cls-73" x="299.93" y="9.33" width="31.53" height="31.53"/>
      </g>
    </mask>
    <linearGradient id="Degradado_sin_nombre_37-34" data-name="Degradado sin nombre 37" x1="358.68" y1="-13.79" x2="143.44" y2="180.91" xlink:href="#Degradado_sin_nombre_37"/>
    <mask id="mask-34" x="337.22" y="8.75" width="31.53" height="31.53" maskUnits="userSpaceOnUse">
      <g id="mask0_1113_36608-18" data-name="mask0 1113 36608">
        <rect class="cls-73" x="337.22" y="8.75" width="31.53" height="31.53"/>
      </g>
    </mask>
    <linearGradient id="Degradado_sin_nombre_37-35" data-name="Degradado sin nombre 37" x1="373.26" y1="6.17" x2="158.01" y2="200.87" xlink:href="#Degradado_sin_nombre_37"/>
    <mask id="mask-35" x="151.19" y="9.33" width="31.53" height="31.53" maskUnits="userSpaceOnUse">
      <g id="mask0_1197_34963-18" data-name="mask0 1197 34963">
        <rect class="cls-73" x="151.19" y="9.33" width="31.53" height="31.53"/>
      </g>
    </mask>
    <linearGradient id="Degradado_sin_nombre_37-36" data-name="Degradado sin nombre 37" x1="299.52" y1="-94.82" x2="84.27" y2="99.88" xlink:href="#Degradado_sin_nombre_37"/>
  </defs>
  <g id="Capa_1-2" data-name="Capa 1">
    <g class="cls-28">
      <rect class="cls-30" width="379" height="204"/>
      <g>
        <g class="cls-34">
          <path class="cls-75" d="m161.95,184.17c.29,0,.53-.1.72-.29s.29-.43.29-.72-.1-.53-.29-.72c-.19-.19-.43-.29-.72-.29s-.53.1-.72.29c-.19.19-.29.43-.29.72s.1.53.29.72c.19.19.43.29.72.29Zm0-4.95c.29,0,.53-.1.72-.29s.29-.43.29-.72-.1-.53-.29-.72c-.19-.19-.43-.29-.72-.29s-.53.1-.72.29c-.19.19-.29.43-.29.72s.1.53.29.72c.19.19.43.29.72.29Zm0-4.95c.29,0,.53-.1.72-.29.19-.19.29-.43.29-.72s-.1-.53-.29-.72c-.19-.19-.43-.29-.72-.29s-.53.1-.72.29c-.19.19-.29.43-.29.72s.1.53.29.72c.19.19.43.29.72.29Zm4.04,9.55h7.07v-1.31h-7.07v1.31Zm0-4.95h7.07v-1.31h-7.07v1.31Zm0-4.95h7.07v-1.31h-7.07v1.31Zm-7.33,14.8c-.6,0-1.11-.2-1.51-.61s-.61-.91-.61-1.51v-16.77c0-.6.2-1.11.61-1.51s.91-.61,1.51-.61h16.77c.6,0,1.11.2,1.51.61s.61.91.61,1.51v16.77c0,.6-.2,1.11-.61,1.51s-.91.61-1.51.61h-16.77Zm0-1.31h16.77c.2,0,.39-.08.56-.25.17-.17.25-.35.25-.56v-16.77c0-.2-.08-.39-.25-.56-.17-.17-.35-.25-.56-.25h-16.77c-.2,0-.39.08-.56.25-.17.17-.25.35-.25.56v16.77c0,.2.08.39.25.56.17.17.35.25.56.25Z"/>
        </g>
        <g class="cls-19">
          <path class="cls-68" d="m199.24,184.75c.29,0,.53-.1.72-.29s.29-.43.29-.72-.1-.53-.29-.72c-.19-.19-.43-.29-.72-.29s-.53.1-.72.29c-.19.19-.29.43-.29.72s.1.53.29.72c.19.19.43.29.72.29Zm0-4.95c.29,0,.53-.1.72-.29s.29-.43.29-.72-.1-.53-.29-.72c-.19-.19-.43-.29-.72-.29s-.53.1-.72.29c-.19.19-.29.43-.29.72s.1.53.29.72c.19.19.43.29.72.29Zm0-4.95c.29,0,.53-.1.72-.29.19-.19.29-.43.29-.72s-.1-.53-.29-.72c-.19-.19-.43-.29-.72-.29s-.53.1-.72.29c-.19.19-.29.43-.29.72s.1.53.29.72c.19.19.43.29.72.29Zm4.04,9.55h7.07v-1.31h-7.07v1.31Zm0-4.95h7.07v-1.31h-7.07v1.31Zm0-4.95h7.07v-1.31h-7.07v1.31Zm-7.33,14.8c-.6,0-1.11-.2-1.51-.61s-.61-.91-.61-1.51v-16.77c0-.6.2-1.11.61-1.51s.91-.61,1.51-.61h16.77c.6,0,1.11.2,1.51.61s.61.91.61,1.51v16.77c0,.6-.2,1.11-.61,1.51s-.91.61-1.51.61h-16.77Z"/>
        </g>
        <g class="cls-10">
          <path class="cls-69" d="m236.53,184.17c.29,0,.53-.1.72-.29s.29-.43.29-.72-.1-.53-.29-.72c-.19-.19-.43-.29-.72-.29s-.53.1-.72.29c-.19.19-.29.43-.29.72s.1.53.29.72c.19.19.43.29.72.29Zm0-4.95c.29,0,.53-.1.72-.29s.29-.43.29-.72-.1-.53-.29-.72c-.19-.19-.43-.29-.72-.29s-.53.1-.72.29c-.19.19-.29.43-.29.72s.1.53.29.72c.19.19.43.29.72.29Zm0-4.95c.29,0,.53-.1.72-.29.19-.19.29-.43.29-.72s-.1-.53-.29-.72c-.19-.19-.43-.29-.72-.29s-.53.1-.72.29c-.19.19-.29.43-.29.72s.1.53.29.72c.19.19.43.29.72.29Zm4.04,9.55h7.07v-1.31h-7.07v1.31Zm0-4.95h7.07v-1.31h-7.07v1.31Zm0-4.95h7.07v-1.31h-7.07v1.31Zm-7.33,14.8c-.6,0-1.11-.2-1.51-.61s-.61-.91-.61-1.51v-16.77c0-.6.2-1.11.61-1.51s.91-.61,1.51-.61h16.77c.6,0,1.11.2,1.51.61s.61.91.61,1.51v16.77c0,.6-.2,1.11-.61,1.51s-.91.61-1.51.61h-16.77Zm0-1.31h16.77c.2,0,.39-.08.56-.25.17-.17.25-.35.25-.56v-16.77c0-.2-.08-.39-.25-.56-.17-.17-.35-.25-.56-.25h-16.77c-.2,0-.39.08-.56.25-.17.17-.25.35-.25.56v16.77c0,.2.08.39.25.56.17.17.35.25.56.25Z"/>
        </g>
        <g class="cls-5">
          <path class="cls-59" d="m273.81,184.75c.29,0,.53-.1.72-.29s.29-.43.29-.72-.1-.53-.29-.72c-.19-.19-.43-.29-.72-.29s-.53.1-.72.29c-.19.19-.29.43-.29.72s.1.53.29.72c.19.19.43.29.72.29Zm0-4.95c.29,0,.53-.1.72-.29s.29-.43.29-.72-.1-.53-.29-.72c-.19-.19-.43-.29-.72-.29s-.53.1-.72.29c-.19.19-.29.43-.29.72s.1.53.29.72c.19.19.43.29.72.29Zm0-4.95c.29,0,.53-.1.72-.29.19-.19.29-.43.29-.72s-.1-.53-.29-.72c-.19-.19-.43-.29-.72-.29s-.53.1-.72.29c-.19.19-.29.43-.29.72s.1.53.29.72c.19.19.43.29.72.29Zm4.04,9.55h7.07v-1.31h-7.07v1.31Zm0-4.95h7.07v-1.31h-7.07v1.31Zm0-4.95h7.07v-1.31h-7.07v1.31Zm-7.33,14.8c-.6,0-1.11-.2-1.51-.61s-.61-.91-.61-1.51v-16.77c0-.6.2-1.11.61-1.51s.91-.61,1.51-.61h16.77c.6,0,1.11.2,1.51.61s.61.91.61,1.51v16.77c0,.6-.2,1.11-.61,1.51s-.91.61-1.51.61h-16.77Z"/>
        </g>
        <g class="cls-38">
          <path class="cls-4" d="m311.1,184.17c.29,0,.53-.1.72-.29s.29-.43.29-.72-.1-.53-.29-.72c-.19-.19-.43-.29-.72-.29s-.53.1-.72.29c-.19.19-.29.43-.29.72s.1.53.29.72c.19.19.43.29.72.29Zm0-4.95c.29,0,.53-.1.72-.29s.29-.43.29-.72-.1-.53-.29-.72c-.19-.19-.43-.29-.72-.29s-.53.1-.72.29c-.19.19-.29.43-.29.72s.1.53.29.72c.19.19.43.29.72.29Zm0-4.95c.29,0,.53-.1.72-.29.19-.19.29-.43.29-.72s-.1-.53-.29-.72c-.19-.19-.43-.29-.72-.29s-.53.1-.72.29c-.19.19-.29.43-.29.72s.1.53.29.72c.19.19.43.29.72.29Zm4.04,9.55h7.07v-1.31h-7.07v1.31Zm0-4.95h7.07v-1.31h-7.07v1.31Zm0-4.95h7.07v-1.31h-7.07v1.31Zm-7.33,14.8c-.6,0-1.11-.2-1.51-.61s-.61-.91-.61-1.51v-16.77c0-.6.2-1.11.61-1.51s.91-.61,1.51-.61h16.77c.6,0,1.11.2,1.51.61s.61.91.61,1.51v16.77c0,.6-.2,1.11-.61,1.51s-.91.61-1.51.61h-16.77Zm0-1.31h16.77c.2,0,.39-.08.56-.25.17-.17.25-.35.25-.56v-16.77c0-.2-.08-.39-.25-.56-.17-.17-.35-.25-.56-.25h-16.77c-.2,0-.39.08-.56.25-.17.17-.25.35-.25.56v16.77c0,.2.08.39.25.56.17.17.35.25.56.25Z"/>
        </g>
        <g class="cls-20">
          <path class="cls-64" d="m348.39,184.75c.29,0,.53-.1.72-.29s.29-.43.29-.72-.1-.53-.29-.72c-.19-.19-.43-.29-.72-.29s-.53.1-.72.29c-.19.19-.29.43-.29.72s.1.53.29.72c.19.19.43.29.72.29Zm0-4.95c.29,0,.53-.1.72-.29s.29-.43.29-.72-.1-.53-.29-.72c-.19-.19-.43-.29-.72-.29s-.53.1-.72.29c-.19.19-.29.43-.29.72s.1.53.29.72c.19.19.43.29.72.29Zm0-4.95c.29,0,.53-.1.72-.29.19-.19.29-.43.29-.72s-.1-.53-.29-.72c-.19-.19-.43-.29-.72-.29s-.53.1-.72.29c-.19.19-.29.43-.29.72s.1.53.29.72c.19.19.43.29.72.29Zm4.04,9.55h7.07v-1.31h-7.07v1.31Zm0-4.95h7.07v-1.31h-7.07v1.31Zm0-4.95h7.07v-1.31h-7.07v1.31Zm-7.33,14.8c-.6,0-1.11-.2-1.51-.61s-.61-.91-.61-1.51v-16.77c0-.6.2-1.11.61-1.51s.91-.61,1.51-.61h16.77c.6,0,1.11.2,1.51.61s.61.91.61,1.51v16.77c0,.6-.2,1.11-.61,1.51s-.91.61-1.51.61h-16.77Z"/>
        </g>
        <g class="cls-31">
          <path class="cls-54" d="m198.73,153.95c.29,0,.53-.1.72-.29s.29-.43.29-.72-.1-.53-.29-.72c-.19-.19-.43-.29-.72-.29s-.53.1-.72.29c-.19.19-.29.43-.29.72s.1.53.29.72c.19.19.43.29.72.29Zm0-4.95c.29,0,.53-.1.72-.29s.29-.43.29-.72-.1-.53-.29-.72c-.19-.19-.43-.29-.72-.29s-.53.1-.72.29c-.19.19-.29.43-.29.72s.1.53.29.72c.19.19.43.29.72.29Zm0-4.95c.29,0,.53-.1.72-.29.19-.19.29-.43.29-.72s-.1-.53-.29-.72c-.19-.19-.43-.29-.72-.29s-.53.1-.72.29c-.19.19-.29.43-.29.72s.1.53.29.72c.19.19.43.29.72.29Zm4.04,9.55h7.07v-1.31h-7.07v1.31Zm0-4.95h7.07v-1.31h-7.07v1.31Zm0-4.95h7.07v-1.31h-7.07v1.31Zm-7.33,14.8c-.6,0-1.11-.2-1.51-.61s-.61-.91-.61-1.51v-16.77c0-.6.2-1.11.61-1.51s.91-.61,1.51-.61h16.77c.6,0,1.11.2,1.51.61s.61.91.61,1.51v16.77c0,.6-.2,1.11-.61,1.51s-.91.61-1.51.61h-16.77Zm0-1.31h16.77c.2,0,.39-.08.56-.25.17-.17.25-.35.25-.56v-16.77c0-.2-.08-.39-.25-.56-.17-.17-.35-.25-.56-.25h-16.77c-.2,0-.39.08-.56.25-.17.17-.25.35-.25.56v16.77c0,.2.08.39.25.56.17.17.35.25.56.25Z"/>
        </g>
        <g class="cls-41">
          <path class="cls-62" d="m236.02,154.54c.29,0,.53-.1.72-.29s.29-.43.29-.72-.1-.53-.29-.72c-.19-.19-.43-.29-.72-.29s-.53.1-.72.29c-.19.19-.29.43-.29.72s.1.53.29.72c.19.19.43.29.72.29Zm0-4.95c.29,0,.53-.1.72-.29s.29-.43.29-.72-.1-.53-.29-.72c-.19-.19-.43-.29-.72-.29s-.53.1-.72.29c-.19.19-.29.43-.29.72s.1.53.29.72c.19.19.43.29.72.29Zm0-4.95c.29,0,.53-.1.72-.29.19-.19.29-.43.29-.72s-.1-.53-.29-.72c-.19-.19-.43-.29-.72-.29s-.53.1-.72.29c-.19.19-.29.43-.29.72s.1.53.29.72c.19.19.43.29.72.29Zm4.04,9.55h7.07v-1.31h-7.07v1.31Zm0-4.95h7.07v-1.31h-7.07v1.31Zm0-4.95h7.07v-1.31h-7.07v1.31Zm-7.33,14.8c-.6,0-1.11-.2-1.51-.61s-.61-.91-.61-1.51v-16.77c0-.6.2-1.11.61-1.51s.91-.61,1.51-.61h16.77c.6,0,1.11.2,1.51.61s.61.91.61,1.51v16.77c0,.6-.2,1.11-.61,1.51s-.91.61-1.51.61h-16.77Z"/>
        </g>
        <g class="cls-27">
          <path class="cls-52" d="m273.31,153.95c.29,0,.53-.1.72-.29s.29-.43.29-.72-.1-.53-.29-.72c-.19-.19-.43-.29-.72-.29s-.53.1-.72.29c-.19.19-.29.43-.29.72s.1.53.29.72c.19.19.43.29.72.29Zm0-4.95c.29,0,.53-.1.72-.29s.29-.43.29-.72-.1-.53-.29-.72c-.19-.19-.43-.29-.72-.29s-.53.1-.72.29c-.19.19-.29.43-.29.72s.1.53.29.72c.19.19.43.29.72.29Zm0-4.95c.29,0,.53-.1.72-.29.19-.19.29-.43.29-.72s-.1-.53-.29-.72c-.19-.19-.43-.29-.72-.29s-.53.1-.72.29c-.19.19-.29.43-.29.72s.1.53.29.72c.19.19.43.29.72.29Zm4.04,9.55h7.07v-1.31h-7.07v1.31Zm0-4.95h7.07v-1.31h-7.07v1.31Zm0-4.95h7.07v-1.31h-7.07v1.31Zm-7.33,14.8c-.6,0-1.11-.2-1.51-.61s-.61-.91-.61-1.51v-16.77c0-.6.2-1.11.61-1.51s.91-.61,1.51-.61h16.77c.6,0,1.11.2,1.51.61s.61.91.61,1.51v16.77c0,.6-.2,1.11-.61,1.51s-.91.61-1.51.61h-16.77Zm0-1.31h16.77c.2,0,.39-.08.56-.25.17-.17.25-.35.25-.56v-16.77c0-.2-.08-.39-.25-.56-.17-.17-.35-.25-.56-.25h-16.77c-.2,0-.39.08-.56.25-.17.17-.25.35-.25.56v16.77c0,.2.08.39.25.56.17.17.35.25.56.25Z"/>
        </g>
        <g class="cls-25">
          <path class="cls-43" d="m310.6,154.54c.29,0,.53-.1.72-.29s.29-.43.29-.72-.1-.53-.29-.72c-.19-.19-.43-.29-.72-.29s-.53.1-.72.29c-.19.19-.29.43-.29.72s.1.53.29.72c.19.19.43.29.72.29Zm0-4.95c.29,0,.53-.1.72-.29s.29-.43.29-.72-.1-.53-.29-.72c-.19-.19-.43-.29-.72-.29s-.53.1-.72.29c-.19.19-.29.43-.29.72s.1.53.29.72c.19.19.43.29.72.29Zm0-4.95c.29,0,.53-.1.72-.29.19-.19.29-.43.29-.72s-.1-.53-.29-.72c-.19-.19-.43-.29-.72-.29s-.53.1-.72.29c-.19.19-.29.43-.29.72s.1.53.29.72c.19.19.43.29.72.29Zm4.04,9.55h7.07v-1.31h-7.07v1.31Zm0-4.95h7.07v-1.31h-7.07v1.31Zm0-4.95h7.07v-1.31h-7.07v1.31Zm-7.33,14.8c-.6,0-1.11-.2-1.51-.61s-.61-.91-.61-1.51v-16.77c0-.6.2-1.11.61-1.51s.91-.61,1.51-.61h16.77c.6,0,1.11.2,1.51.61s.61.91.61,1.51v16.77c0,.6-.2,1.11-.61,1.51s-.91.61-1.51.61h-16.77Z"/>
        </g>
        <g class="cls-11">
          <path class="cls-70" d="m347.88,153.95c.29,0,.53-.1.72-.29s.29-.43.29-.72-.1-.53-.29-.72c-.19-.19-.43-.29-.72-.29s-.53.1-.72.29c-.19.19-.29.43-.29.72s.1.53.29.72c.19.19.43.29.72.29Zm0-4.95c.29,0,.53-.1.72-.29s.29-.43.29-.72-.1-.53-.29-.72c-.19-.19-.43-.29-.72-.29s-.53.1-.72.29c-.19.19-.29.43-.29.72s.1.53.29.72c.19.19.43.29.72.29Zm0-4.95c.29,0,.53-.1.72-.29.19-.19.29-.43.29-.72s-.1-.53-.29-.72c-.19-.19-.43-.29-.72-.29s-.53.1-.72.29c-.19.19-.29.43-.29.72s.1.53.29.72c.19.19.43.29.72.29Zm4.04,9.55h7.07v-1.31h-7.07v1.31Zm0-4.95h7.07v-1.31h-7.07v1.31Zm0-4.95h7.07v-1.31h-7.07v1.31Zm-7.33,14.8c-.6,0-1.11-.2-1.51-.61s-.61-.91-.61-1.51v-16.77c0-.6.2-1.11.61-1.51s.91-.61,1.51-.61h16.77c.6,0,1.11.2,1.51.61s.61.91.61,1.51v16.77c0,.6-.2,1.11-.61,1.51s-.91.61-1.51.61h-16.77Zm0-1.31h16.77c.2,0,.39-.08.56-.25.17-.17.25-.35.25-.56v-16.77c0-.2-.08-.39-.25-.56-.17-.17-.35-.25-.56-.25h-16.77c-.2,0-.39.08-.56.25-.17.17-.25.35-.25.56v16.77c0,.2.08.39.25.56.17.17.35.25.56.25Z"/>
        </g>
        <g class="cls-8">
          <path class="cls-60" d="m161.85,154.54c.29,0,.53-.1.72-.29s.29-.43.29-.72-.1-.53-.29-.72c-.19-.19-.43-.29-.72-.29s-.53.1-.72.29c-.19.19-.29.43-.29.72s.1.53.29.72c.19.19.43.29.72.29Zm0-4.95c.29,0,.53-.1.72-.29s.29-.43.29-.72-.1-.53-.29-.72c-.19-.19-.43-.29-.72-.29s-.53.1-.72.29c-.19.19-.29.43-.29.72s.1.53.29.72c.19.19.43.29.72.29Zm0-4.95c.29,0,.53-.1.72-.29.19-.19.29-.43.29-.72s-.1-.53-.29-.72c-.19-.19-.43-.29-.72-.29s-.53.1-.72.29c-.19.19-.29.43-.29.72s.1.53.29.72c.19.19.43.29.72.29Zm4.04,9.55h7.07v-1.31h-7.07v1.31Zm0-4.95h7.07v-1.31h-7.07v1.31Zm0-4.95h7.07v-1.31h-7.07v1.31Zm-7.33,14.8c-.6,0-1.11-.2-1.51-.61s-.61-.91-.61-1.51v-16.77c0-.6.2-1.11.61-1.51s.91-.61,1.51-.61h16.77c.6,0,1.11.2,1.51.61s.61.91.61,1.51v16.77c0,.6-.2,1.11-.61,1.51s-.91.61-1.51.61h-16.77Z"/>
        </g>
        <g class="cls-32">
          <path class="cls-1" d="m161.95,122.43c.29,0,.53-.1.72-.29s.29-.43.29-.72-.1-.53-.29-.72c-.19-.19-.43-.29-.72-.29s-.53.1-.72.29c-.19.19-.29.43-.29.72s.1.53.29.72c.19.19.43.29.72.29Zm0-4.95c.29,0,.53-.1.72-.29s.29-.43.29-.72-.1-.53-.29-.72c-.19-.19-.43-.29-.72-.29s-.53.1-.72.29c-.19.19-.29.43-.29.72s.1.53.29.72c.19.19.43.29.72.29Zm0-4.95c.29,0,.53-.1.72-.29.19-.19.29-.43.29-.72s-.1-.53-.29-.72c-.19-.19-.43-.29-.72-.29s-.53.1-.72.29c-.19.19-.29.43-.29.72s.1.53.29.72c.19.19.43.29.72.29Zm4.04,9.55h7.07v-1.31h-7.07v1.31Zm0-4.95h7.07v-1.31h-7.07v1.31Zm0-4.95h7.07v-1.31h-7.07v1.31Zm-7.33,14.8c-.6,0-1.11-.2-1.51-.61s-.61-.91-.61-1.51v-16.77c0-.6.2-1.11.61-1.51s.91-.61,1.51-.61h16.77c.6,0,1.11.2,1.51.61s.61.91.61,1.51v16.77c0,.6-.2,1.11-.61,1.51s-.91.61-1.51.61h-16.77Zm0-1.31h16.77c.2,0,.39-.08.56-.25.17-.17.25-.35.25-.56v-16.77c0-.2-.08-.39-.25-.56-.17-.17-.35-.25-.56-.25h-16.77c-.2,0-.39.08-.56.25-.17.17-.25.35-.25.56v16.77c0,.2.08.39.25.56.17.17.35.25.56.25Z"/>
        </g>
        <g class="cls-22">
          <path class="cls-74" d="m199.24,123.01c.29,0,.53-.1.72-.29s.29-.43.29-.72-.1-.53-.29-.72c-.19-.19-.43-.29-.72-.29s-.53.1-.72.29c-.19.19-.29.43-.29.72s.1.53.29.72c.19.19.43.29.72.29Zm0-4.95c.29,0,.53-.1.72-.29s.29-.43.29-.72-.1-.53-.29-.72c-.19-.19-.43-.29-.72-.29s-.53.1-.72.29c-.19.19-.29.43-.29.72s.1.53.29.72c.19.19.43.29.72.29Zm0-4.95c.29,0,.53-.1.72-.29.19-.19.29-.43.29-.72s-.1-.53-.29-.72c-.19-.19-.43-.29-.72-.29s-.53.1-.72.29c-.19.19-.29.43-.29.72s.1.53.29.72c.19.19.43.29.72.29Zm4.04,9.55h7.07v-1.31h-7.07v1.31Zm0-4.95h7.07v-1.31h-7.07v1.31Zm0-4.95h7.07v-1.31h-7.07v1.31Zm-7.33,14.8c-.6,0-1.11-.2-1.51-.61s-.61-.91-.61-1.51v-16.77c0-.6.2-1.11.61-1.51s.91-.61,1.51-.61h16.77c.6,0,1.11.2,1.51.61s.61.91.61,1.51v16.77c0,.6-.2,1.11-.61,1.51s-.91.61-1.51.61h-16.77Z"/>
        </g>
        <g class="cls-9">
          <path class="cls-61" d="m236.53,122.43c.29,0,.53-.1.72-.29s.29-.43.29-.72-.1-.53-.29-.72c-.19-.19-.43-.29-.72-.29s-.53.1-.72.29c-.19.19-.29.43-.29.72s.1.53.29.72c.19.19.43.29.72.29Zm0-4.95c.29,0,.53-.1.72-.29s.29-.43.29-.72-.1-.53-.29-.72c-.19-.19-.43-.29-.72-.29s-.53.1-.72.29c-.19.19-.29.43-.29.72s.1.53.29.72c.19.19.43.29.72.29Zm0-4.95c.29,0,.53-.1.72-.29.19-.19.29-.43.29-.72s-.1-.53-.29-.72c-.19-.19-.43-.29-.72-.29s-.53.1-.72.29c-.19.19-.29.43-.29.72s.1.53.29.72c.19.19.43.29.72.29Zm4.04,9.55h7.07v-1.31h-7.07v1.31Zm0-4.95h7.07v-1.31h-7.07v1.31Zm0-4.95h7.07v-1.31h-7.07v1.31Zm-7.33,14.8c-.6,0-1.11-.2-1.51-.61s-.61-.91-.61-1.51v-16.77c0-.6.2-1.11.61-1.51s.91-.61,1.51-.61h16.77c.6,0,1.11.2,1.51.61s.61.91.61,1.51v16.77c0,.6-.2,1.11-.61,1.51s-.91.61-1.51.61h-16.77Zm0-1.31h16.77c.2,0,.39-.08.56-.25.17-.17.25-.35.25-.56v-16.77c0-.2-.08-.39-.25-.56-.17-.17-.35-.25-.56-.25h-16.77c-.2,0-.39.08-.56.25-.17.17-.25.35-.25.56v16.77c0,.2.08.39.25.56.17.17.35.25.56.25Z"/>
        </g>
        <g class="cls-33">
          <path class="cls-3" d="m273.81,123.01c.29,0,.53-.1.72-.29s.29-.43.29-.72-.1-.53-.29-.72c-.19-.19-.43-.29-.72-.29s-.53.1-.72.29c-.19.19-.29.43-.29.72s.1.53.29.72c.19.19.43.29.72.29Zm0-4.95c.29,0,.53-.1.72-.29s.29-.43.29-.72-.1-.53-.29-.72c-.19-.19-.43-.29-.72-.29s-.53.1-.72.29c-.19.19-.29.43-.29.72s.1.53.29.72c.19.19.43.29.72.29Zm0-4.95c.29,0,.53-.1.72-.29.19-.19.29-.43.29-.72s-.1-.53-.29-.72c-.19-.19-.43-.29-.72-.29s-.53.1-.72.29c-.19.19-.29.43-.29.72s.1.53.29.72c.19.19.43.29.72.29Zm4.04,9.55h7.07v-1.31h-7.07v1.31Zm0-4.95h7.07v-1.31h-7.07v1.31Zm0-4.95h7.07v-1.31h-7.07v1.31Zm-7.33,14.8c-.6,0-1.11-.2-1.51-.61s-.61-.91-.61-1.51v-16.77c0-.6.2-1.11.61-1.51s.91-.61,1.51-.61h16.77c.6,0,1.11.2,1.51.61s.61.91.61,1.51v16.77c0,.6-.2,1.11-.61,1.51s-.91.61-1.51.61h-16.77Z"/>
        </g>
        <g class="cls-37">
          <path class="cls-71" d="m311.1,122.43c.29,0,.53-.1.72-.29s.29-.43.29-.72-.1-.53-.29-.72c-.19-.19-.43-.29-.72-.29s-.53.1-.72.29c-.19.19-.29.43-.29.72s.1.53.29.72c.19.19.43.29.72.29Zm0-4.95c.29,0,.53-.1.72-.29s.29-.43.29-.72-.1-.53-.29-.72c-.19-.19-.43-.29-.72-.29s-.53.1-.72.29c-.19.19-.29.43-.29.72s.1.53.29.72c.19.19.43.29.72.29Zm0-4.95c.29,0,.53-.1.72-.29.19-.19.29-.43.29-.72s-.1-.53-.29-.72c-.19-.19-.43-.29-.72-.29s-.53.1-.72.29c-.19.19-.29.43-.29.72s.1.53.29.72c.19.19.43.29.72.29Zm4.04,9.55h7.07v-1.31h-7.07v1.31Zm0-4.95h7.07v-1.31h-7.07v1.31Zm0-4.95h7.07v-1.31h-7.07v1.31Zm-7.33,14.8c-.6,0-1.11-.2-1.51-.61s-.61-.91-.61-1.51v-16.77c0-.6.2-1.11.61-1.51s.91-.61,1.51-.61h16.77c.6,0,1.11.2,1.51.61s.61.91.61,1.51v16.77c0,.6-.2,1.11-.61,1.51s-.91.61-1.51.61h-16.77Zm0-1.31h16.77c.2,0,.39-.08.56-.25.17-.17.25-.35.25-.56v-16.77c0-.2-.08-.39-.25-.56-.17-.17-.35-.25-.56-.25h-16.77c-.2,0-.39.08-.56.25-.17.17-.25.35-.25.56v16.77c0,.2.08.39.25.56.17.17.35.25.56.25Z"/>
        </g>
        <g class="cls-26">
          <path class="cls-72" d="m348.39,123.01c.29,0,.53-.1.72-.29s.29-.43.29-.72-.1-.53-.29-.72c-.19-.19-.43-.29-.72-.29s-.53.1-.72.29c-.19.19-.29.43-.29.72s.1.53.29.72c.19.19.43.29.72.29Zm0-4.95c.29,0,.53-.1.72-.29s.29-.43.29-.72-.1-.53-.29-.72c-.19-.19-.43-.29-.72-.29s-.53.1-.72.29c-.19.19-.29.43-.29.72s.1.53.29.72c.19.19.43.29.72.29Zm0-4.95c.29,0,.53-.1.72-.29.19-.19.29-.43.29-.72s-.1-.53-.29-.72c-.19-.19-.43-.29-.72-.29s-.53.1-.72.29c-.19.19-.29.43-.29.72s.1.53.29.72c.19.19.43.29.72.29Zm4.04,9.55h7.07v-1.31h-7.07v1.31Zm0-4.95h7.07v-1.31h-7.07v1.31Zm0-4.95h7.07v-1.31h-7.07v1.31Zm-7.33,14.8c-.6,0-1.11-.2-1.51-.61s-.61-.91-.61-1.51v-16.77c0-.6.2-1.11.61-1.51s.91-.61,1.51-.61h16.77c.6,0,1.11.2,1.51.61s.61.91.61,1.51v16.77c0,.6-.2,1.11-.61,1.51s-.91.61-1.51.61h-16.77Z"/>
        </g>
        <g class="cls-17">
          <path class="cls-47" d="m198.73,92.21c.29,0,.53-.1.72-.29s.29-.43.29-.72-.1-.53-.29-.72c-.19-.19-.43-.29-.72-.29s-.53.1-.72.29c-.19.19-.29.43-.29.72s.1.53.29.72c.19.19.43.29.72.29Zm0-4.95c.29,0,.53-.1.72-.29s.29-.43.29-.72-.1-.53-.29-.72c-.19-.19-.43-.29-.72-.29s-.53.1-.72.29c-.19.19-.29.43-.29.72s.1.53.29.72c.19.19.43.29.72.29Zm0-4.95c.29,0,.53-.1.72-.29.19-.19.29-.43.29-.72s-.1-.53-.29-.72c-.19-.19-.43-.29-.72-.29s-.53.1-.72.29c-.19.19-.29.43-.29.72s.1.53.29.72c.19.19.43.29.72.29Zm4.04,9.55h7.07v-1.31h-7.07v1.31Zm0-4.95h7.07v-1.31h-7.07v1.31Zm0-4.95h7.07v-1.31h-7.07v1.31Zm-7.33,14.8c-.6,0-1.11-.2-1.51-.61s-.61-.91-.61-1.51v-16.77c0-.6.2-1.11.61-1.51s.91-.61,1.51-.61h16.77c.6,0,1.11.2,1.51.61s.61.91.61,1.51v16.77c0,.6-.2,1.11-.61,1.51s-.91.61-1.51.61h-16.77Zm0-1.31h16.77c.2,0,.39-.08.56-.25.17-.17.25-.35.25-.56v-16.77c0-.2-.08-.39-.25-.56-.17-.17-.35-.25-.56-.25h-16.77c-.2,0-.39.08-.56.25-.17.17-.25.35-.25.56v16.77c0,.2.08.39.25.56.17.17.35.25.56.25Z"/>
        </g>
        <g class="cls-15">
          <path class="cls-45" d="m236.02,92.8c.29,0,.53-.1.72-.29s.29-.43.29-.72-.1-.53-.29-.72c-.19-.19-.43-.29-.72-.29s-.53.1-.72.29c-.19.19-.29.43-.29.72s.1.53.29.72c.19.19.43.29.72.29Zm0-4.95c.29,0,.53-.1.72-.29s.29-.43.29-.72-.1-.53-.29-.72c-.19-.19-.43-.29-.72-.29s-.53.1-.72.29c-.19.19-.29.43-.29.72s.1.53.29.72c.19.19.43.29.72.29Zm0-4.95c.29,0,.53-.1.72-.29.19-.19.29-.43.29-.72s-.1-.53-.29-.72c-.19-.19-.43-.29-.72-.29s-.53.1-.72.29c-.19.19-.29.43-.29.72s.1.53.29.72c.19.19.43.29.72.29Zm4.04,9.55h7.07v-1.31h-7.07v1.31Zm0-4.95h7.07v-1.31h-7.07v1.31Zm0-4.95h7.07v-1.31h-7.07v1.31Zm-7.33,14.8c-.6,0-1.11-.2-1.51-.61s-.61-.91-.61-1.51v-16.77c0-.6.2-1.11.61-1.51s.91-.61,1.51-.61h16.77c.6,0,1.11.2,1.51.61s.61.91.61,1.51v16.77c0,.6-.2,1.11-.61,1.51s-.91.61-1.51.61h-16.77Z"/>
        </g>
        <g class="cls-42">
          <path class="cls-56" d="m273.31,92.21c.29,0,.53-.1.72-.29s.29-.43.29-.72-.1-.53-.29-.72c-.19-.19-.43-.29-.72-.29s-.53.1-.72.29c-.19.19-.29.43-.29.72s.1.53.29.72c.19.19.43.29.72.29Zm0-4.95c.29,0,.53-.1.72-.29s.29-.43.29-.72-.1-.53-.29-.72c-.19-.19-.43-.29-.72-.29s-.53.1-.72.29c-.19.19-.29.43-.29.72s.1.53.29.72c.19.19.43.29.72.29Zm0-4.95c.29,0,.53-.1.72-.29.19-.19.29-.43.29-.72s-.1-.53-.29-.72c-.19-.19-.43-.29-.72-.29s-.53.1-.72.29c-.19.19-.29.43-.29.72s.1.53.29.72c.19.19.43.29.72.29Zm4.04,9.55h7.07v-1.31h-7.07v1.31Zm0-4.95h7.07v-1.31h-7.07v1.31Zm0-4.95h7.07v-1.31h-7.07v1.31Zm-7.33,14.8c-.6,0-1.11-.2-1.51-.61s-.61-.91-.61-1.51v-16.77c0-.6.2-1.11.61-1.51s.91-.61,1.51-.61h16.77c.6,0,1.11.2,1.51.61s.61.91.61,1.51v16.77c0,.6-.2,1.11-.61,1.51s-.91.61-1.51.61h-16.77Zm0-1.31h16.77c.2,0,.39-.08.56-.25.17-.17.25-.35.25-.56v-16.77c0-.2-.08-.39-.25-.56-.17-.17-.35-.25-.56-.25h-16.77c-.2,0-.39.08-.56.25-.17.17-.25.35-.25.56v16.77c0,.2.08.39.25.56.17.17.35.25.56.25Z"/>
        </g>
        <g class="cls-36">
          <path class="cls-55" d="m310.6,92.8c.29,0,.53-.1.72-.29s.29-.43.29-.72-.1-.53-.29-.72c-.19-.19-.43-.29-.72-.29s-.53.1-.72.29c-.19.19-.29.43-.29.72s.1.53.29.72c.19.19.43.29.72.29Zm0-4.95c.29,0,.53-.1.72-.29s.29-.43.29-.72-.1-.53-.29-.72c-.19-.19-.43-.29-.72-.29s-.53.1-.72.29c-.19.19-.29.43-.29.72s.1.53.29.72c.19.19.43.29.72.29Zm0-4.95c.29,0,.53-.1.72-.29.19-.19.29-.43.29-.72s-.1-.53-.29-.72c-.19-.19-.43-.29-.72-.29s-.53.1-.72.29c-.19.19-.29.43-.29.72s.1.53.29.72c.19.19.43.29.72.29Zm4.04,9.55h7.07v-1.31h-7.07v1.31Zm0-4.95h7.07v-1.31h-7.07v1.31Zm0-4.95h7.07v-1.31h-7.07v1.31Zm-7.33,14.8c-.6,0-1.11-.2-1.51-.61s-.61-.91-.61-1.51v-16.77c0-.6.2-1.11.61-1.51s.91-.61,1.51-.61h16.77c.6,0,1.11.2,1.51.61s.61.91.61,1.51v16.77c0,.6-.2,1.11-.61,1.51s-.91.61-1.51.61h-16.77Z"/>
        </g>
        <g class="cls-24">
          <path class="cls-46" d="m347.88,92.21c.29,0,.53-.1.72-.29s.29-.43.29-.72-.1-.53-.29-.72c-.19-.19-.43-.29-.72-.29s-.53.1-.72.29c-.19.19-.29.43-.29.72s.1.53.29.72c.19.19.43.29.72.29Zm0-4.95c.29,0,.53-.1.72-.29s.29-.43.29-.72-.1-.53-.29-.72c-.19-.19-.43-.29-.72-.29s-.53.1-.72.29c-.19.19-.29.43-.29.72s.1.53.29.72c.19.19.43.29.72.29Zm0-4.95c.29,0,.53-.1.72-.29.19-.19.29-.43.29-.72s-.1-.53-.29-.72c-.19-.19-.43-.29-.72-.29s-.53.1-.72.29c-.19.19-.29.43-.29.72s.1.53.29.72c.19.19.43.29.72.29Zm4.04,9.55h7.07v-1.31h-7.07v1.31Zm0-4.95h7.07v-1.31h-7.07v1.31Zm0-4.95h7.07v-1.31h-7.07v1.31Zm-7.33,14.8c-.6,0-1.11-.2-1.51-.61s-.61-.91-.61-1.51v-16.77c0-.6.2-1.11.61-1.51s.91-.61,1.51-.61h16.77c.6,0,1.11.2,1.51.61s.61.91.61,1.51v16.77c0,.6-.2,1.11-.61,1.51s-.91.61-1.51.61h-16.77Zm0-1.31h16.77c.2,0,.39-.08.56-.25.17-.17.25-.35.25-.56v-16.77c0-.2-.08-.39-.25-.56-.17-.17-.35-.25-.56-.25h-16.77c-.2,0-.39.08-.56.25-.17.17-.25.35-.25.56v16.77c0,.2.08.39.25.56.17.17.35.25.56.25Z"/>
        </g>
        <g class="cls-21">
          <path class="cls-63" d="m161.85,92.8c.29,0,.53-.1.72-.29s.29-.43.29-.72-.1-.53-.29-.72c-.19-.19-.43-.29-.72-.29s-.53.1-.72.29c-.19.19-.29.43-.29.72s.1.53.29.72c.19.19.43.29.72.29Zm0-4.95c.29,0,.53-.1.72-.29s.29-.43.29-.72-.1-.53-.29-.72c-.19-.19-.43-.29-.72-.29s-.53.1-.72.29c-.19.19-.29.43-.29.72s.1.53.29.72c.19.19.43.29.72.29Zm0-4.95c.29,0,.53-.1.72-.29.19-.19.29-.43.29-.72s-.1-.53-.29-.72c-.19-.19-.43-.29-.72-.29s-.53.1-.72.29c-.19.19-.29.43-.29.72s.1.53.29.72c.19.19.43.29.72.29Zm4.04,9.55h7.07v-1.31h-7.07v1.31Zm0-4.95h7.07v-1.31h-7.07v1.31Zm0-4.95h7.07v-1.31h-7.07v1.31Zm-7.33,14.8c-.6,0-1.11-.2-1.51-.61s-.61-.91-.61-1.51v-16.77c0-.6.2-1.11.61-1.51s.91-.61,1.51-.61h16.77c.6,0,1.11.2,1.51.61s.61.91.61,1.51v16.77c0,.6-.2,1.11-.61,1.51s-.91.61-1.51.61h-16.77Z"/>
        </g>
        <g class="cls-23">
          <path class="cls-53" d="m161.95,60.68c.29,0,.53-.1.72-.29s.29-.43.29-.72-.1-.53-.29-.72c-.19-.19-.43-.29-.72-.29s-.53.1-.72.29c-.19.19-.29.43-.29.72s.1.53.29.72c.19.19.43.29.72.29Zm0-4.95c.29,0,.53-.1.72-.29s.29-.43.29-.72-.1-.53-.29-.72c-.19-.19-.43-.29-.72-.29s-.53.1-.72.29c-.19.19-.29.43-.29.72s.1.53.29.72c.19.19.43.29.72.29Zm0-4.95c.29,0,.53-.1.72-.29.19-.19.29-.43.29-.72s-.1-.53-.29-.72c-.19-.19-.43-.29-.72-.29s-.53.1-.72.29c-.19.19-.29.43-.29.72s.1.53.29.72c.19.19.43.29.72.29Zm4.04,9.55h7.07v-1.31h-7.07v1.31Zm0-4.95h7.07v-1.31h-7.07v1.31Zm0-4.95h7.07v-1.31h-7.07v1.31Zm-7.33,14.8c-.6,0-1.11-.2-1.51-.61s-.61-.91-.61-1.51v-16.77c0-.6.2-1.11.61-1.51s.91-.61,1.51-.61h16.77c.6,0,1.11.2,1.51.61s.61.91.61,1.51v16.77c0,.6-.2,1.11-.61,1.51s-.91.61-1.51.61h-16.77Zm0-1.31h16.77c.2,0,.39-.08.56-.25.17-.17.25-.35.25-.56v-16.77c0-.2-.08-.39-.25-.56-.17-.17-.35-.25-.56-.25h-16.77c-.2,0-.39.08-.56.25-.17.17-.25.35-.25.56v16.77c0,.2.08.39.25.56.17.17.35.25.56.25Z"/>
        </g>
        <g class="cls-6">
          <path class="cls-48" d="m199.24,61.27c.29,0,.53-.1.72-.29s.29-.43.29-.72-.1-.53-.29-.72c-.19-.19-.43-.29-.72-.29s-.53.1-.72.29c-.19.19-.29.43-.29.72s.1.53.29.72c.19.19.43.29.72.29Zm0-4.95c.29,0,.53-.1.72-.29s.29-.43.29-.72-.1-.53-.29-.72c-.19-.19-.43-.29-.72-.29s-.53.1-.72.29c-.19.19-.29.43-.29.72s.1.53.29.72c.19.19.43.29.72.29Zm0-4.95c.29,0,.53-.1.72-.29.19-.19.29-.43.29-.72s-.1-.53-.29-.72c-.19-.19-.43-.29-.72-.29s-.53.1-.72.29c-.19.19-.29.43-.29.72s.1.53.29.72c.19.19.43.29.72.29Zm4.04,9.55h7.07v-1.31h-7.07v1.31Zm0-4.95h7.07v-1.31h-7.07v1.31Zm0-4.95h7.07v-1.31h-7.07v1.31Zm-7.33,14.8c-.6,0-1.11-.2-1.51-.61s-.61-.91-.61-1.51v-16.77c0-.6.2-1.11.61-1.51s.91-.61,1.51-.61h16.77c.6,0,1.11.2,1.51.61s.61.91.61,1.51v16.77c0,.6-.2,1.11-.61,1.51s-.91.61-1.51.61h-16.77Z"/>
        </g>
        <g class="cls-7">
          <path class="cls-51" d="m236.53,60.68c.29,0,.53-.1.72-.29s.29-.43.29-.72-.1-.53-.29-.72c-.19-.19-.43-.29-.72-.29s-.53.1-.72.29c-.19.19-.29.43-.29.72s.1.53.29.72c.19.19.43.29.72.29Zm0-4.95c.29,0,.53-.1.72-.29s.29-.43.29-.72-.1-.53-.29-.72c-.19-.19-.43-.29-.72-.29s-.53.1-.72.29c-.19.19-.29.43-.29.72s.1.53.29.72c.19.19.43.29.72.29Zm0-4.95c.29,0,.53-.1.72-.29.19-.19.29-.43.29-.72s-.1-.53-.29-.72c-.19-.19-.43-.29-.72-.29s-.53.1-.72.29c-.19.19-.29.43-.29.72s.1.53.29.72c.19.19.43.29.72.29Zm4.04,9.55h7.07v-1.31h-7.07v1.31Zm0-4.95h7.07v-1.31h-7.07v1.31Zm0-4.95h7.07v-1.31h-7.07v1.31Zm-7.33,14.8c-.6,0-1.11-.2-1.51-.61s-.61-.91-.61-1.51v-16.77c0-.6.2-1.11.61-1.51s.91-.61,1.51-.61h16.77c.6,0,1.11.2,1.51.61s.61.91.61,1.51v16.77c0,.6-.2,1.11-.61,1.51s-.91.61-1.51.61h-16.77Zm0-1.31h16.77c.2,0,.39-.08.56-.25.17-.17.25-.35.25-.56v-16.77c0-.2-.08-.39-.25-.56-.17-.17-.35-.25-.56-.25h-16.77c-.2,0-.39.08-.56.25-.17.17-.25.35-.25.56v16.77c0,.2.08.39.25.56.17.17.35.25.56.25Z"/>
        </g>
        <g class="cls-18">
          <path class="cls-49" d="m273.81,61.27c.29,0,.53-.1.72-.29s.29-.43.29-.72-.1-.53-.29-.72c-.19-.19-.43-.29-.72-.29s-.53.1-.72.29c-.19.19-.29.43-.29.72s.1.53.29.72c.19.19.43.29.72.29Zm0-4.95c.29,0,.53-.1.72-.29s.29-.43.29-.72-.1-.53-.29-.72c-.19-.19-.43-.29-.72-.29s-.53.1-.72.29c-.19.19-.29.43-.29.72s.1.53.29.72c.19.19.43.29.72.29Zm0-4.95c.29,0,.53-.1.72-.29.19-.19.29-.43.29-.72s-.1-.53-.29-.72c-.19-.19-.43-.29-.72-.29s-.53.1-.72.29c-.19.19-.29.43-.29.72s.1.53.29.72c.19.19.43.29.72.29Zm4.04,9.55h7.07v-1.31h-7.07v1.31Zm0-4.95h7.07v-1.31h-7.07v1.31Zm0-4.95h7.07v-1.31h-7.07v1.31Zm-7.33,14.8c-.6,0-1.11-.2-1.51-.61s-.61-.91-.61-1.51v-16.77c0-.6.2-1.11.61-1.51s.91-.61,1.51-.61h16.77c.6,0,1.11.2,1.51.61s.61.91.61,1.51v16.77c0,.6-.2,1.11-.61,1.51s-.91.61-1.51.61h-16.77Z"/>
        </g>
        <g class="cls-40">
          <path class="cls-66" d="m311.1,60.68c.29,0,.53-.1.72-.29s.29-.43.29-.72-.1-.53-.29-.72c-.19-.19-.43-.29-.72-.29s-.53.1-.72.29c-.19.19-.29.43-.29.72s.1.53.29.72c.19.19.43.29.72.29Zm0-4.95c.29,0,.53-.1.72-.29s.29-.43.29-.72-.1-.53-.29-.72c-.19-.19-.43-.29-.72-.29s-.53.1-.72.29c-.19.19-.29.43-.29.72s.1.53.29.72c.19.19.43.29.72.29Zm0-4.95c.29,0,.53-.1.72-.29.19-.19.29-.43.29-.72s-.1-.53-.29-.72c-.19-.19-.43-.29-.72-.29s-.53.1-.72.29c-.19.19-.29.43-.29.72s.1.53.29.72c.19.19.43.29.72.29Zm4.04,9.55h7.07v-1.31h-7.07v1.31Zm0-4.95h7.07v-1.31h-7.07v1.31Zm0-4.95h7.07v-1.31h-7.07v1.31Zm-7.33,14.8c-.6,0-1.11-.2-1.51-.61s-.61-.91-.61-1.51v-16.77c0-.6.2-1.11.61-1.51s.91-.61,1.51-.61h16.77c.6,0,1.11.2,1.51.61s.61.91.61,1.51v16.77c0,.6-.2,1.11-.61,1.51s-.91.61-1.51.61h-16.77Zm0-1.31h16.77c.2,0,.39-.08.56-.25.17-.17.25-.35.25-.56v-16.77c0-.2-.08-.39-.25-.56-.17-.17-.35-.25-.56-.25h-16.77c-.2,0-.39.08-.56.25-.17.17-.25.35-.25.56v16.77c0,.2.08.39.25.56.17.17.35.25.56.25Z"/>
        </g>
        <g class="cls-29">
          <path class="cls-50" d="m348.39,61.27c.29,0,.53-.1.72-.29s.29-.43.29-.72-.1-.53-.29-.72c-.19-.19-.43-.29-.72-.29s-.53.1-.72.29c-.19.19-.29.43-.29.72s.1.53.29.72c.19.19.43.29.72.29Zm0-4.95c.29,0,.53-.1.72-.29s.29-.43.29-.72-.1-.53-.29-.72c-.19-.19-.43-.29-.72-.29s-.53.1-.72.29c-.19.19-.29.43-.29.72s.1.53.29.72c.19.19.43.29.72.29Zm0-4.95c.29,0,.53-.1.72-.29.19-.19.29-.43.29-.72s-.1-.53-.29-.72c-.19-.19-.43-.29-.72-.29s-.53.1-.72.29c-.19.19-.29.43-.29.72s.1.53.29.72c.19.19.43.29.72.29Zm4.04,9.55h7.07v-1.31h-7.07v1.31Zm0-4.95h7.07v-1.31h-7.07v1.31Zm0-4.95h7.07v-1.31h-7.07v1.31Zm-7.33,14.8c-.6,0-1.11-.2-1.51-.61s-.61-.91-.61-1.51v-16.77c0-.6.2-1.11.61-1.51s.91-.61,1.51-.61h16.77c.6,0,1.11.2,1.51.61s.61.91.61,1.51v16.77c0,.6-.2,1.11-.61,1.51s-.91.61-1.51.61h-16.77Z"/>
        </g>
        <g class="cls-35">
          <path class="cls-65" d="m198.73,30.47c.29,0,.53-.1.72-.29s.29-.43.29-.72-.1-.53-.29-.72c-.19-.19-.43-.29-.72-.29s-.53.1-.72.29c-.19.19-.29.43-.29.72s.1.53.29.72c.19.19.43.29.72.29Zm0-4.95c.29,0,.53-.1.72-.29s.29-.43.29-.72-.1-.53-.29-.72c-.19-.19-.43-.29-.72-.29s-.53.1-.72.29c-.19.19-.29.43-.29.72s.1.53.29.72c.19.19.43.29.72.29Zm0-4.95c.29,0,.53-.1.72-.29.19-.19.29-.43.29-.72s-.1-.53-.29-.72c-.19-.19-.43-.29-.72-.29s-.53.1-.72.29c-.19.19-.29.43-.29.72s.1.53.29.72c.19.19.43.29.72.29Zm4.04,9.55h7.07v-1.31h-7.07v1.31Zm0-4.95h7.07v-1.31h-7.07v1.31Zm0-4.95h7.07v-1.31h-7.07v1.31Zm-7.33,14.8c-.6,0-1.11-.2-1.51-.61s-.61-.91-.61-1.51v-16.77c0-.6.2-1.11.61-1.51s.91-.61,1.51-.61h16.77c.6,0,1.11.2,1.51.61s.61.91.61,1.51v16.77c0,.6-.2,1.11-.61,1.51s-.91.61-1.51.61h-16.77Zm0-1.31h16.77c.2,0,.39-.08.56-.25.17-.17.25-.35.25-.56v-16.77c0-.2-.08-.39-.25-.56-.17-.17-.35-.25-.56-.25h-16.77c-.2,0-.39.08-.56.25-.17.17-.25.35-.25.56v16.77c0,.2.08.39.25.56.17.17.35.25.56.25Z"/>
        </g>
        <g class="cls-12">
          <path class="cls-58" d="m236.02,31.05c.29,0,.53-.1.72-.29s.29-.43.29-.72-.1-.53-.29-.72c-.19-.19-.43-.29-.72-.29s-.53.1-.72.29c-.19.19-.29.43-.29.72s.1.53.29.72c.19.19.43.29.72.29Zm0-4.95c.29,0,.53-.1.72-.29s.29-.43.29-.72-.1-.53-.29-.72c-.19-.19-.43-.29-.72-.29s-.53.1-.72.29c-.19.19-.29.43-.29.72s.1.53.29.72c.19.19.43.29.72.29Zm0-4.95c.29,0,.53-.1.72-.29.19-.19.29-.43.29-.72s-.1-.53-.29-.72c-.19-.19-.43-.29-.72-.29s-.53.1-.72.29c-.19.19-.29.43-.29.72s.1.53.29.72c.19.19.43.29.72.29Zm4.04,9.55h7.07v-1.31h-7.07v1.31Zm0-4.95h7.07v-1.31h-7.07v1.31Zm0-4.95h7.07v-1.31h-7.07v1.31Zm-7.33,14.8c-.6,0-1.11-.2-1.51-.61s-.61-.91-.61-1.51v-16.77c0-.6.2-1.11.61-1.51s.91-.61,1.51-.61h16.77c.6,0,1.11.2,1.51.61s.61.91.61,1.51v16.77c0,.6-.2,1.11-.61,1.51s-.91.61-1.51.61h-16.77Z"/>
        </g>
        <g class="cls-39">
          <path class="cls-57" d="m273.31,30.47c.29,0,.53-.1.72-.29s.29-.43.29-.72-.1-.53-.29-.72c-.19-.19-.43-.29-.72-.29s-.53.1-.72.29c-.19.19-.29.43-.29.72s.1.53.29.72c.19.19.43.29.72.29Zm0-4.95c.29,0,.53-.1.72-.29s.29-.43.29-.72-.1-.53-.29-.72c-.19-.19-.43-.29-.72-.29s-.53.1-.72.29c-.19.19-.29.43-.29.72s.1.53.29.72c.19.19.43.29.72.29Zm0-4.95c.29,0,.53-.1.72-.29.19-.19.29-.43.29-.72s-.1-.53-.29-.72c-.19-.19-.43-.29-.72-.29s-.53.1-.72.29c-.19.19-.29.43-.29.72s.1.53.29.72c.19.19.43.29.72.29Zm4.04,9.55h7.07v-1.31h-7.07v1.31Zm0-4.95h7.07v-1.31h-7.07v1.31Zm0-4.95h7.07v-1.31h-7.07v1.31Zm-7.33,14.8c-.6,0-1.11-.2-1.51-.61s-.61-.91-.61-1.51v-16.77c0-.6.2-1.11.61-1.51s.91-.61,1.51-.61h16.77c.6,0,1.11.2,1.51.61s.61.91.61,1.51v16.77c0,.6-.2,1.11-.61,1.51s-.91.61-1.51.61h-16.77Zm0-1.31h16.77c.2,0,.39-.08.56-.25.17-.17.25-.35.25-.56v-16.77c0-.2-.08-.39-.25-.56-.17-.17-.35-.25-.56-.25h-16.77c-.2,0-.39.08-.56.25-.17.17-.25.35-.25.56v16.77c0,.2.08.39.25.56.17.17.35.25.56.25Z"/>
        </g>
        <g class="cls-14">
          <path class="cls-67" d="m310.6,31.05c.29,0,.53-.1.72-.29s.29-.43.29-.72-.1-.53-.29-.72c-.19-.19-.43-.29-.72-.29s-.53.1-.72.29c-.19.19-.29.43-.29.72s.1.53.29.72c.19.19.43.29.72.29Zm0-4.95c.29,0,.53-.1.72-.29s.29-.43.29-.72-.1-.53-.29-.72c-.19-.19-.43-.29-.72-.29s-.53.1-.72.29c-.19.19-.29.43-.29.72s.1.53.29.72c.19.19.43.29.72.29Zm0-4.95c.29,0,.53-.1.72-.29.19-.19.29-.43.29-.72s-.1-.53-.29-.72c-.19-.19-.43-.29-.72-.29s-.53.1-.72.29c-.19.19-.29.43-.29.72s.1.53.29.72c.19.19.43.29.72.29Zm4.04,9.55h7.07v-1.31h-7.07v1.31Zm0-4.95h7.07v-1.31h-7.07v1.31Zm0-4.95h7.07v-1.31h-7.07v1.31Zm-7.33,14.8c-.6,0-1.11-.2-1.51-.61s-.61-.91-.61-1.51v-16.77c0-.6.2-1.11.61-1.51s.91-.61,1.51-.61h16.77c.6,0,1.11.2,1.51.61s.61.91.61,1.51v16.77c0,.6-.2,1.11-.61,1.51s-.91.61-1.51.61h-16.77Z"/>
        </g>
        <g class="cls-13">
          <path class="cls-44" d="m347.88,30.47c.29,0,.53-.1.72-.29s.29-.43.29-.72-.1-.53-.29-.72c-.19-.19-.43-.29-.72-.29s-.53.1-.72.29c-.19.19-.29.43-.29.72s.1.53.29.72c.19.19.43.29.72.29Zm0-4.95c.29,0,.53-.1.72-.29s.29-.43.29-.72-.1-.53-.29-.72c-.19-.19-.43-.29-.72-.29s-.53.1-.72.29c-.19.19-.29.43-.29.72s.1.53.29.72c.19.19.43.29.72.29Zm0-4.95c.29,0,.53-.1.72-.29.19-.19.29-.43.29-.72s-.1-.53-.29-.72c-.19-.19-.43-.29-.72-.29s-.53.1-.72.29c-.19.19-.29.43-.29.72s.1.53.29.72c.19.19.43.29.72.29Zm4.04,9.55h7.07v-1.31h-7.07v1.31Zm0-4.95h7.07v-1.31h-7.07v1.31Zm0-4.95h7.07v-1.31h-7.07v1.31Zm-7.33,14.8c-.6,0-1.11-.2-1.51-.61s-.61-.91-.61-1.51v-16.77c0-.6.2-1.11.61-1.51s.91-.61,1.51-.61h16.77c.6,0,1.11.2,1.51.61s.61.91.61,1.51v16.77c0,.6-.2,1.11-.61,1.51s-.91.61-1.51.61h-16.77Zm0-1.31h16.77c.2,0,.39-.08.56-.25.17-.17.25-.35.25-.56v-16.77c0-.2-.08-.39-.25-.56-.17-.17-.35-.25-.56-.25h-16.77c-.2,0-.39.08-.56.25-.17.17-.25.35-.25.56v16.77c0,.2.08.39.25.56.17.17.35.25.56.25Z"/>
        </g>
        <g class="cls-16">
          <path class="cls-2" d="m161.85,31.05c.29,0,.53-.1.72-.29s.29-.43.29-.72-.1-.53-.29-.72c-.19-.19-.43-.29-.72-.29s-.53.1-.72.29c-.19.19-.29.43-.29.72s.1.53.29.72c.19.19.43.29.72.29Zm0-4.95c.29,0,.53-.1.72-.29s.29-.43.29-.72-.1-.53-.29-.72c-.19-.19-.43-.29-.72-.29s-.53.1-.72.29c-.19.19-.29.43-.29.72s.1.53.29.72c.19.19.43.29.72.29Zm0-4.95c.29,0,.53-.1.72-.29.19-.19.29-.43.29-.72s-.1-.53-.29-.72c-.19-.19-.43-.29-.72-.29s-.53.1-.72.29c-.19.19-.29.43-.29.72s.1.53.29.72c.19.19.43.29.72.29Zm4.04,9.55h7.07v-1.31h-7.07v1.31Zm0-4.95h7.07v-1.31h-7.07v1.31Zm0-4.95h7.07v-1.31h-7.07v1.31Zm-7.33,14.8c-.6,0-1.11-.2-1.51-.61s-.61-.91-.61-1.51v-16.77c0-.6.2-1.11.61-1.51s.91-.61,1.51-.61h16.77c.6,0,1.11.2,1.51.61s.61.91.61,1.51v16.77c0,.6-.2,1.11-.61,1.51s-.91.61-1.51.61h-16.77Z"/>
        </g>
      </g>
    </g>
  </g>
</svg>