<svg width="18" height="18" viewBox="0 0 18 18" fill="none" xmlns="http://www.w3.org/2000/svg">
<g clip-path="url(#clip0_5668_61559)">
<path d="M10.6543 13.544V12.401C10.6543 12.1713 10.4687 11.9851 10.2397 11.9851H9.10781C8.87882 11.9851 8.69319 12.1713 8.69319 12.401V13.544C8.69319 13.7737 8.87882 13.9599 9.10781 13.9599H10.2397C10.4687 13.9599 10.6543 13.7737 10.6543 13.544Z" fill="#4E4D4F"/>
<path d="M10.6533 11.1109V9.96787C10.6533 9.73819 10.4677 9.552 10.2387 9.552H9.10684C8.87784 9.552 8.69221 9.73819 8.69221 9.96787V11.1109C8.69221 11.3406 8.87784 11.5267 9.10684 11.5267H10.2387C10.4677 11.5267 10.6533 11.3406 10.6533 11.1109Z" fill="#4E4D4F"/>
<path d="M10.6543 8.67899V7.53599C10.6543 7.30631 10.4687 7.12012 10.2397 7.12012H9.10781C8.87882 7.12012 8.69318 7.30631 8.69318 7.53599V8.67899C8.69318 8.90867 8.87882 9.09486 9.10781 9.09486H10.2397C10.4687 9.09486 10.6543 8.90867 10.6543 8.67899Z" fill="#4E4D4F"/>
<path d="M10.6543 6.24564V5.10264C10.6543 4.87296 10.4687 4.68677 10.2397 4.68677H9.10781C8.87882 4.68677 8.69318 4.87296 8.69318 5.10264V6.24564C8.69318 6.47532 8.87882 6.66151 9.10781 6.66151H10.2397C10.4687 6.66151 10.6543 6.47532 10.6543 6.24564Z" fill="#4E4D4F"/>
<path d="M5.83398 3.81376V2.67075C5.83398 2.44107 5.64835 2.25488 5.41936 2.25488L4.2875 2.25488C4.05851 2.25488 3.87287 2.44107 3.87287 2.67075V3.81376C3.87287 4.04343 4.05851 4.22963 4.2875 4.22963H5.41936C5.64835 4.22963 5.83398 4.04343 5.83398 3.81376Z" fill="#4E4D4F"/>
<path d="M8.24414 3.81498V2.67198C8.24414 2.4423 8.05851 2.2561 7.82951 2.2561H6.69766C6.46866 2.2561 6.28303 2.4423 6.28303 2.67198V3.81498C6.28303 4.04466 6.46866 4.23085 6.69766 4.23085H7.82951C8.05851 4.23085 8.24414 4.04466 8.24414 3.81498Z" fill="#4E4D4F"/>
<path d="M10.6543 3.81375V2.67075C10.6543 2.44107 10.4687 2.25488 10.2397 2.25488L9.10781 2.25488C8.87882 2.25488 8.69318 2.44107 8.69318 2.67075V3.81375C8.69318 4.04343 8.87882 4.22963 9.10781 4.22963H10.2397C10.4687 4.22963 10.6543 4.04343 10.6543 3.81375Z" fill="#4E4D4F"/>
<path d="M13.0645 3.81498V2.67197C13.0645 2.44229 12.8788 2.2561 12.6498 2.2561H11.518C11.289 2.2561 11.1033 2.44229 11.1033 2.67197V3.81498C11.1033 4.04466 11.289 4.23085 11.518 4.23085H12.6498C12.8788 4.23085 13.0645 4.04466 13.0645 3.81498Z" fill="#4E4D4F"/>
<path d="M15.4736 3.81375V2.67075C15.4736 2.44107 15.288 2.25488 15.059 2.25488L13.9271 2.25488C13.6982 2.25488 13.5125 2.44107 13.5125 2.67075V3.81375C13.5125 4.04343 13.6982 4.22963 13.9271 4.22963H15.059C15.288 4.22963 15.4736 4.04343 15.4736 3.81375Z" fill="#4E4D4F"/>
<path d="M1.80381 0.241455L0.811024 1.30567C0.731189 1.3935 0.669381 1.46195 0.643627 1.49165C0.419574 1.75771 0.248315 2.0483 0.243164 2.37247V17.1553C0.243164 17.3761 0.329438 17.5763 0.468505 17.7261L1.88365 15.989L1.80381 0.241455Z" fill="#F29F81"/>
<path d="M1.95214 15.9065L0.46875 17.7263C0.58464 17.8515 0.834446 18.0001 1.08554 18.0001H15.5679C15.8138 18.0001 16.1332 17.7766 16.2787 17.601C16.4396 17.4047 17.5998 15.9078 17.5998 15.9078H1.95214V15.9065Z" fill="#F7BCAD"/>
<path d="M17.7568 0.780082C17.7568 0.348712 17.4091 0 16.979 0H2.36662C1.93654 0 1.58887 0.348712 1.58887 0.780082V15.4363C1.58887 15.8677 1.93654 16.2164 2.36662 16.2164H16.9803C17.4104 16.2164 17.7581 15.8677 17.7581 15.4363V0.780082H17.7568ZM2.74261 1.1585H16.603V15.0579H2.74261V1.1585Z" fill="#4E4D4F"/>
</g>
<defs>
<clipPath id="clip0_5668_61559">
<rect width="17.5135" height="18" fill="white" transform="translate(0.243164)"/>
</clipPath>
</defs>
</svg>
