<?xml version="1.0" encoding="UTF-8"?>
<svg id="Capa_2" data-name="Capa 2" xmlns="http://www.w3.org/2000/svg" xmlns:xlink="http://www.w3.org/1999/xlink" viewBox="0 0 379 204">
  <defs>
    <style>
      .cls-1 {
        fill: url(#Degradado_sin_nombre_37-13);
      }

      .cls-2 {
        fill: url(#Degradado_sin_nombre_37-36);
      }

      .cls-3 {
        fill: url(#Degradado_sin_nombre_37-16);
      }

      .cls-4 {
        fill: url(#Degradado_sin_nombre_37-5);
      }

      .cls-5 {
        mask: url(#mask-3);
      }

      .cls-5, .cls-6, .cls-7, .cls-8, .cls-9, .cls-10, .cls-11, .cls-12, .cls-13, .cls-14, .cls-15, .cls-16, .cls-17, .cls-18, .cls-19, .cls-20, .cls-21, .cls-22, .cls-23, .cls-24, .cls-25, .cls-26, .cls-27, .cls-28, .cls-29, .cls-30, .cls-31, .cls-32, .cls-33, .cls-34, .cls-35, .cls-36, .cls-37, .cls-38, .cls-39, .cls-40, .cls-41, .cls-42 {
        fill: none;
      }

      .cls-6 {
        mask: url(#mask-25);
      }

      .cls-7 {
        mask: url(#mask-26);
      }

      .cls-43 {
        fill: url(#Degradado_sin_nombre_37-10);
      }

      .cls-8 {
        mask: url(#mask-11);
      }

      .cls-44 {
        fill: url(#Degradado_sin_nombre_37-35);
      }

      .cls-45 {
        fill: url(#Degradado_sin_nombre_37-20);
      }

      .cls-46 {
        fill: url(#Degradado_sin_nombre_37-23);
      }

      .cls-9 {
        mask: url(#mask-14);
      }

      .cls-10 {
        mask: url(#mask-2);
      }

      .cls-11 {
        mask: url(#mask-10);
      }

      .cls-47 {
        fill: url(#Degradado_sin_nombre_37-19);
      }

      .cls-12 {
        mask: url(#mask-31);
      }

      .cls-13 {
        mask: url(#mask-34);
      }

      .cls-48 {
        fill: url(#Degradado_sin_nombre_37-26);
      }

      .cls-49 {
        fill: url(#Degradado_sin_nombre_37-28);
      }

      .cls-14 {
        mask: url(#mask-33);
      }

      .cls-50 {
        fill: url(#Degradado_sin_nombre_37-30);
      }

      .cls-15 {
        mask: url(#mask-19);
      }

      .cls-51 {
        fill: url(#Degradado_sin_nombre_37-27);
      }

      .cls-16 {
        mask: url(#mask-35);
      }

      .cls-52 {
        fill: url(#Degradado_sin_nombre_37-9);
      }

      .cls-53 {
        fill: url(#Degradado_sin_nombre_37-25);
      }

      .cls-17 {
        mask: url(#mask-18);
      }

      .cls-54 {
        fill: url(#Degradado_sin_nombre_37-7);
      }

      .cls-18 {
        mask: url(#mask-27);
      }

      .cls-19 {
        mask: url(#mask-1);
      }

      .cls-55 {
        fill: url(#Degradado_sin_nombre_37-22);
      }

      .cls-56 {
        fill: url(#Degradado_sin_nombre_37-21);
      }

      .cls-20 {
        mask: url(#mask-5);
      }

      .cls-57 {
        fill: url(#Degradado_sin_nombre_37-33);
      }

      .cls-21 {
        mask: url(#mask-23);
      }

      .cls-22 {
        mask: url(#mask-13);
      }

      .cls-23 {
        mask: url(#mask-24);
      }

      .cls-58 {
        fill: url(#Degradado_sin_nombre_37-32);
      }

      .cls-59 {
        fill: url(#Degradado_sin_nombre_37-4);
      }

      .cls-60 {
        fill: url(#Degradado_sin_nombre_37-12);
      }

      .cls-61 {
        fill: url(#Degradado_sin_nombre_37-15);
      }

      .cls-24 {
        mask: url(#mask-22);
      }

      .cls-62 {
        fill: url(#Degradado_sin_nombre_37-8);
      }

      .cls-25 {
        mask: url(#mask-9);
      }

      .cls-63 {
        fill: url(#Degradado_sin_nombre_37-24);
      }

      .cls-26 {
        mask: url(#mask-17);
      }

      .cls-27 {
        mask: url(#mask-8);
      }

      .cls-28 {
        opacity: .5;
      }

      .cls-29 {
        mask: url(#mask-29);
      }

      .cls-64 {
        fill: url(#Degradado_sin_nombre_37-6);
      }

      .cls-65 {
        fill: url(#Degradado_sin_nombre_37-31);
      }

      .cls-66 {
        fill: url(#Degradado_sin_nombre_37-29);
      }

      .cls-67 {
        fill: url(#Degradado_sin_nombre_37-34);
      }

      .cls-68 {
        fill: url(#Degradado_sin_nombre_37-2);
      }

      .cls-69 {
        fill: url(#Degradado_sin_nombre_37-3);
      }

      .cls-31 {
        mask: url(#mask-6);
      }

      .cls-70 {
        fill: url(#Degradado_sin_nombre_37-11);
      }

      .cls-32 {
        mask: url(#mask-12);
      }

      .cls-33 {
        mask: url(#mask-15);
      }

      .cls-34 {
        mask: url(#mask);
      }

      .cls-71 {
        fill: url(#Degradado_sin_nombre_37-17);
      }

      .cls-35 {
        mask: url(#mask-30);
      }

      .cls-36 {
        mask: url(#mask-21);
      }

      .cls-37 {
        mask: url(#mask-16);
      }

      .cls-72 {
        fill: url(#Degradado_sin_nombre_37-18);
      }

      .cls-38 {
        mask: url(#mask-4);
      }

      .cls-39 {
        mask: url(#mask-32);
      }

      .cls-40 {
        mask: url(#mask-28);
      }

      .cls-73 {
        fill: #d9d9d9;
      }

      .cls-41 {
        mask: url(#mask-7);
      }

      .cls-74 {
        fill: url(#Degradado_sin_nombre_37-14);
      }

      .cls-75 {
        fill: url(#Degradado_sin_nombre_37);
      }

      .cls-42 {
        mask: url(#mask-20);
      }
    </style>
    <mask id="mask" x="239.23" y="166.25" width="26.87" height="26.87" maskUnits="userSpaceOnUse">
      <g id="mask0_1098_50299" data-name="mask0 1098 50299">
        <rect class="cls-73" x="239.23" y="166.25" width="26.87" height="26.87"/>
      </g>
    </mask>
    <linearGradient id="Degradado_sin_nombre_37" data-name="Degradado sin nombre 37" x1="409.65" y1="37.69" x2="211.62" y2="216.81" gradientUnits="userSpaceOnUse">
      <stop offset="0" stop-color="#7ac7ff" stop-opacity=".5"/>
      <stop offset="1" stop-color="#fff" stop-opacity=".1"/>
    </linearGradient>
    <mask id="mask-1" x="206.76" y="104.68" width="26.87" height="26.87" maskUnits="userSpaceOnUse">
      <g id="mask0_1098_50299-2" data-name="mask0 1098 50299">
        <rect class="cls-73" x="206.76" y="104.68" width="26.87" height="26.87"/>
      </g>
    </mask>
    <linearGradient id="Degradado_sin_nombre_37-2" data-name="Degradado sin nombre 37" x1="364.41" y1="-12.33" x2="166.38" y2="166.79" xlink:href="#Degradado_sin_nombre_37"/>
    <mask id="mask-2" x="174.3" y="136.03" width="26.87" height="26.87" maskUnits="userSpaceOnUse">
      <g id="mask0_1098_50299-3" data-name="mask0 1098 50299">
        <rect class="cls-73" x="174.3" y="136.03" width="26.87" height="26.87"/>
      </g>
    </mask>
    <linearGradient id="Degradado_sin_nombre_37-3" data-name="Degradado sin nombre 37" x1="365.39" y1="-11.24" x2="167.37" y2="167.88" xlink:href="#Degradado_sin_nombre_37"/>
    <mask id="mask-3" x="207.74" y="166.95" width="26.87" height="26.87" maskUnits="userSpaceOnUse">
      <g id="mask0_1098_49071" data-name="mask0 1098 49071">
        <rect class="cls-73" x="207.74" y="166.95" width="26.87" height="26.87"/>
      </g>
    </mask>
    <linearGradient id="Degradado_sin_nombre_37-4" data-name="Degradado sin nombre 37" x1="395.82" y1="22.41" x2="197.8" y2="201.53" xlink:href="#Degradado_sin_nombre_37"/>
    <mask id="mask-4" x="240.35" y="135.61" width="26.87" height="26.87" maskUnits="userSpaceOnUse">
      <g id="mask0_1098_49071-2" data-name="mask0 1098 49071">
        <rect class="cls-73" x="240.35" y="135.61" width="26.87" height="26.87"/>
      </g>
    </mask>
    <linearGradient id="Degradado_sin_nombre_37-5" data-name="Degradado sin nombre 37" x1="394.91" y1="21.39" x2="196.88" y2="200.51" xlink:href="#Degradado_sin_nombre_37"/>
    <mask id="mask-5" x="174.3" y="105.38" width="26.87" height="26.87" maskUnits="userSpaceOnUse">
      <g id="mask0_1098_49071-3" data-name="mask0 1098 49071">
        <rect class="cls-73" x="174.3" y="105.38" width="26.87" height="26.87"/>
      </g>
    </mask>
    <linearGradient id="Degradado_sin_nombre_37-6" data-name="Degradado sin nombre 37" x1="350.15" y1="-28.09" x2="152.12" y2="151.03" xlink:href="#Degradado_sin_nombre_37"/>
    <mask id="mask-6" x="174.46" y="167.93" width="26.87" height="26.87" maskUnits="userSpaceOnUse">
      <g id="mask0_1098_49078" data-name="mask0 1098 49078">
        <rect class="cls-73" x="174.46" y="167.93" width="26.87" height="26.87"/>
      </g>
    </mask>
    <linearGradient id="Degradado_sin_nombre_37-7" data-name="Degradado sin nombre 37" x1="382.32" y1="7.47" x2="184.29" y2="186.59" xlink:href="#Degradado_sin_nombre_37"/>
    <mask id="mask-7" x="207.32" y="136.58" width="26.87" height="26.87" maskUnits="userSpaceOnUse">
      <g id="mask0_1098_49078-2" data-name="mask0 1098 49078">
        <rect class="cls-73" x="207.32" y="136.58" width="26.87" height="26.87"/>
      </g>
    </mask>
    <linearGradient id="Degradado_sin_nombre_37-8" data-name="Degradado sin nombre 37" x1="381.51" y1="6.58" x2="183.48" y2="185.7" xlink:href="#Degradado_sin_nombre_37"/>
    <mask id="mask-8" x="239.79" y="105.24" width="26.87" height="26.87" maskUnits="userSpaceOnUse">
      <g id="mask0_1098_49078-3" data-name="mask0 1098 49078">
        <rect class="cls-73" x="239.79" y="105.24" width="26.87" height="26.87"/>
      </g>
    </mask>
    <linearGradient id="Degradado_sin_nombre_37-9" data-name="Degradado sin nombre 37" x1="380.52" y1="5.49" x2="182.5" y2="184.61" xlink:href="#Degradado_sin_nombre_37"/>
    <mask id="mask-9" x="338.87" y="165.13" width="26.87" height="26.87" maskUnits="userSpaceOnUse">
      <g id="mask0_1098_50299-4" data-name="mask0 1098 50299">
        <rect class="cls-73" x="338.87" y="165.13" width="26.87" height="26.87"/>
      </g>
    </mask>
    <linearGradient id="Degradado_sin_nombre_37-10" data-name="Degradado sin nombre 37" x1="453.93" y1="86.64" x2="255.9" y2="265.76" xlink:href="#Degradado_sin_nombre_37"/>
    <mask id="mask-10" x="306.4" y="103.56" width="26.87" height="26.87" maskUnits="userSpaceOnUse">
      <g id="mask0_1098_50299-5" data-name="mask0 1098 50299">
        <rect class="cls-73" x="306.4" y="103.56" width="26.87" height="26.87"/>
      </g>
    </mask>
    <linearGradient id="Degradado_sin_nombre_37-11" data-name="Degradado sin nombre 37" x1="408.69" y1="36.63" x2="210.66" y2="215.74" xlink:href="#Degradado_sin_nombre_37"/>
    <mask id="mask-11" x="273.93" y="134.91" width="26.87" height="26.87" maskUnits="userSpaceOnUse">
      <g id="mask0_1098_50299-6" data-name="mask0 1098 50299">
        <rect class="cls-73" x="273.93" y="134.91" width="26.87" height="26.87"/>
      </g>
    </mask>
    <linearGradient id="Degradado_sin_nombre_37-12" data-name="Degradado sin nombre 37" x1="409.67" y1="37.71" x2="211.64" y2="216.83" xlink:href="#Degradado_sin_nombre_37"/>
    <mask id="mask-12" x="307.37" y="165.83" width="26.87" height="26.87" maskUnits="userSpaceOnUse">
      <g id="mask0_1098_49071-4" data-name="mask0 1098 49071">
        <rect class="cls-73" x="307.37" y="165.83" width="26.87" height="26.87"/>
      </g>
    </mask>
    <linearGradient id="Degradado_sin_nombre_37-13" data-name="Degradado sin nombre 37" x1="440.1" y1="71.36" x2="242.08" y2="250.48" xlink:href="#Degradado_sin_nombre_37"/>
    <mask id="mask-13" x="339.98" y="134.49" width="26.87" height="26.87" maskUnits="userSpaceOnUse">
      <g id="mask0_1098_49071-5" data-name="mask0 1098 49071">
        <rect class="cls-73" x="339.98" y="134.49" width="26.87" height="26.87"/>
      </g>
    </mask>
    <linearGradient id="Degradado_sin_nombre_37-14" data-name="Degradado sin nombre 37" x1="439.18" y1="70.34" x2="241.16" y2="249.46" xlink:href="#Degradado_sin_nombre_37"/>
    <mask id="mask-14" x="273.93" y="104.26" width="26.87" height="26.87" maskUnits="userSpaceOnUse">
      <g id="mask0_1098_49071-6" data-name="mask0 1098 49071">
        <rect class="cls-73" x="273.93" y="104.26" width="26.87" height="26.87"/>
      </g>
    </mask>
    <linearGradient id="Degradado_sin_nombre_37-15" data-name="Degradado sin nombre 37" x1="394.42" y1="20.86" x2="196.4" y2="199.98" xlink:href="#Degradado_sin_nombre_37"/>
    <mask id="mask-15" x="274.1" y="166.81" width="26.87" height="26.87" maskUnits="userSpaceOnUse">
      <g id="mask0_1098_49078-4" data-name="mask0 1098 49078">
        <rect class="cls-73" x="274.1" y="166.81" width="26.87" height="26.87"/>
      </g>
    </mask>
    <linearGradient id="Degradado_sin_nombre_37-16" data-name="Degradado sin nombre 37" x1="426.59" y1="56.43" x2="228.57" y2="235.54" xlink:href="#Degradado_sin_nombre_37"/>
    <mask id="mask-16" x="306.96" y="135.47" width="26.87" height="26.87" maskUnits="userSpaceOnUse">
      <g id="mask0_1098_49078-5" data-name="mask0 1098 49078">
        <rect class="cls-73" x="306.96" y="135.47" width="26.87" height="26.87"/>
      </g>
    </mask>
    <linearGradient id="Degradado_sin_nombre_37-17" data-name="Degradado sin nombre 37" x1="425.79" y1="55.53" x2="227.76" y2="234.65" xlink:href="#Degradado_sin_nombre_37"/>
    <mask id="mask-17" x="339.42" y="104.12" width="26.87" height="26.87" maskUnits="userSpaceOnUse">
      <g id="mask0_1098_49078-6" data-name="mask0 1098 49078">
        <rect class="cls-73" x="339.42" y="104.12" width="26.87" height="26.87"/>
      </g>
    </mask>
    <linearGradient id="Degradado_sin_nombre_37-18" data-name="Degradado sin nombre 37" x1="424.8" y1="54.44" x2="226.78" y2="233.56" xlink:href="#Degradado_sin_nombre_37"/>
    <mask id="mask-18" x="239.23" y="75.57" width="26.87" height="26.87" maskUnits="userSpaceOnUse">
      <g id="mask0_1098_50299-7" data-name="mask0 1098 50299">
        <rect class="cls-73" x="239.23" y="75.57" width="26.87" height="26.87"/>
      </g>
    </mask>
    <linearGradient id="Degradado_sin_nombre_37-19" data-name="Degradado sin nombre 37" x1="364.54" y1="-12.18" x2="166.51" y2="166.94" xlink:href="#Degradado_sin_nombre_37"/>
    <mask id="mask-19" x="206.76" y="14" width="26.87" height="26.87" maskUnits="userSpaceOnUse">
      <g id="mask0_1098_50299-8" data-name="mask0 1098 50299">
        <rect class="cls-73" x="206.76" y="14" width="26.87" height="26.87"/>
      </g>
    </mask>
    <linearGradient id="Degradado_sin_nombre_37-20" data-name="Degradado sin nombre 37" x1="319.29" y1="-62.2" x2="121.27" y2="116.92" xlink:href="#Degradado_sin_nombre_37"/>
    <mask id="mask-20" x="174.3" y="45.35" width="26.87" height="26.87" maskUnits="userSpaceOnUse">
      <g id="mask0_1098_50299-9" data-name="mask0 1098 50299">
        <rect class="cls-73" x="174.3" y="45.35" width="26.87" height="26.87"/>
      </g>
    </mask>
    <linearGradient id="Degradado_sin_nombre_37-21" data-name="Degradado sin nombre 37" x1="320.28" y1="-61.11" x2="122.25" y2="118.01" xlink:href="#Degradado_sin_nombre_37"/>
    <mask id="mask-21" x="207.74" y="76.27" width="26.87" height="26.87" maskUnits="userSpaceOnUse">
      <g id="mask0_1098_49071-7" data-name="mask0 1098 49071">
        <rect class="cls-73" x="207.74" y="76.27" width="26.87" height="26.87"/>
      </g>
    </mask>
    <linearGradient id="Degradado_sin_nombre_37-22" data-name="Degradado sin nombre 37" x1="350.71" y1="-27.47" x2="152.68" y2="151.65" xlink:href="#Degradado_sin_nombre_37"/>
    <mask id="mask-22" x="240.35" y="44.93" width="26.87" height="26.87" maskUnits="userSpaceOnUse">
      <g id="mask0_1098_49071-8" data-name="mask0 1098 49071">
        <rect class="cls-73" x="240.35" y="44.93" width="26.87" height="26.87"/>
      </g>
    </mask>
    <linearGradient id="Degradado_sin_nombre_37-23" data-name="Degradado sin nombre 37" x1="349.79" y1="-28.48" x2="151.77" y2="150.64" xlink:href="#Degradado_sin_nombre_37"/>
    <mask id="mask-23" x="174.3" y="14.7" width="26.87" height="26.87" maskUnits="userSpaceOnUse">
      <g id="mask0_1098_49071-9" data-name="mask0 1098 49071">
        <rect class="cls-73" x="174.3" y="14.7" width="26.87" height="26.87"/>
      </g>
    </mask>
    <linearGradient id="Degradado_sin_nombre_37-24" data-name="Degradado sin nombre 37" x1="305.03" y1="-77.97" x2="107.01" y2="101.15" xlink:href="#Degradado_sin_nombre_37"/>
    <mask id="mask-24" x="174.46" y="77.25" width="26.87" height="26.87" maskUnits="userSpaceOnUse">
      <g id="mask0_1098_49078-7" data-name="mask0 1098 49078">
        <rect class="cls-73" x="174.46" y="77.25" width="26.87" height="26.87"/>
      </g>
    </mask>
    <linearGradient id="Degradado_sin_nombre_37-25" data-name="Degradado sin nombre 37" x1="337.2" y1="-42.4" x2="139.18" y2="136.72" xlink:href="#Degradado_sin_nombre_37"/>
    <mask id="mask-25" x="207.32" y="45.91" width="26.87" height="26.87" maskUnits="userSpaceOnUse">
      <g id="mask0_1098_49078-8" data-name="mask0 1098 49078">
        <rect class="cls-73" x="207.32" y="45.91" width="26.87" height="26.87"/>
      </g>
    </mask>
    <linearGradient id="Degradado_sin_nombre_37-26" data-name="Degradado sin nombre 37" x1="336.4" y1="-43.29" x2="138.37" y2="135.83" xlink:href="#Degradado_sin_nombre_37"/>
    <mask id="mask-26" x="239.79" y="14.56" width="26.87" height="26.87" maskUnits="userSpaceOnUse">
      <g id="mask0_1098_49078-9" data-name="mask0 1098 49078">
        <rect class="cls-73" x="239.79" y="14.56" width="26.87" height="26.87"/>
      </g>
    </mask>
    <linearGradient id="Degradado_sin_nombre_37-27" data-name="Degradado sin nombre 37" x1="335.41" y1="-44.38" x2="137.38" y2="134.74" xlink:href="#Degradado_sin_nombre_37"/>
    <mask id="mask-27" x="338.87" y="74.45" width="26.87" height="26.87" maskUnits="userSpaceOnUse">
      <g id="mask0_1098_50299-10" data-name="mask0 1098 50299">
        <rect class="cls-73" x="338.87" y="74.45" width="26.87" height="26.87"/>
      </g>
    </mask>
    <linearGradient id="Degradado_sin_nombre_37-28" data-name="Degradado sin nombre 37" x1="408.81" y1="36.77" x2="210.79" y2="215.89" xlink:href="#Degradado_sin_nombre_37"/>
    <mask id="mask-28" x="306.4" y="12.88" width="26.87" height="26.87" maskUnits="userSpaceOnUse">
      <g id="mask0_1098_50299-11" data-name="mask0 1098 50299">
        <rect class="cls-73" x="306.4" y="12.88" width="26.87" height="26.87"/>
      </g>
    </mask>
    <linearGradient id="Degradado_sin_nombre_37-29" data-name="Degradado sin nombre 37" x1="363.57" y1="-13.25" x2="165.55" y2="165.87" xlink:href="#Degradado_sin_nombre_37"/>
    <mask id="mask-29" x="273.93" y="44.23" width="26.87" height="26.87" maskUnits="userSpaceOnUse">
      <g id="mask0_1098_50299-12" data-name="mask0 1098 50299">
        <rect class="cls-73" x="273.93" y="44.23" width="26.87" height="26.87"/>
      </g>
    </mask>
    <linearGradient id="Degradado_sin_nombre_37-30" data-name="Degradado sin nombre 37" x1="364.56" y1="-12.16" x2="166.53" y2="166.96" xlink:href="#Degradado_sin_nombre_37"/>
    <mask id="mask-30" x="307.37" y="75.15" width="26.87" height="26.87" maskUnits="userSpaceOnUse">
      <g id="mask0_1098_49071-10" data-name="mask0 1098 49071">
        <rect class="cls-73" x="307.37" y="75.15" width="26.87" height="26.87"/>
      </g>
    </mask>
    <linearGradient id="Degradado_sin_nombre_37-31" data-name="Degradado sin nombre 37" x1="394.99" y1="21.48" x2="196.96" y2="200.6" xlink:href="#Degradado_sin_nombre_37"/>
    <mask id="mask-31" x="339.98" y="43.81" width="26.87" height="26.87" maskUnits="userSpaceOnUse">
      <g id="mask0_1098_49071-11" data-name="mask0 1098 49071">
        <rect class="cls-73" x="339.98" y="43.81" width="26.87" height="26.87"/>
      </g>
    </mask>
    <linearGradient id="Degradado_sin_nombre_37-32" data-name="Degradado sin nombre 37" x1="394.07" y1="20.47" x2="196.04" y2="199.59" xlink:href="#Degradado_sin_nombre_37"/>
    <mask id="mask-32" x="273.93" y="13.58" width="26.87" height="26.87" maskUnits="userSpaceOnUse">
      <g id="mask0_1098_49071-12" data-name="mask0 1098 49071">
        <rect class="cls-73" x="273.93" y="13.58" width="26.87" height="26.87"/>
      </g>
    </mask>
    <linearGradient id="Degradado_sin_nombre_37-33" data-name="Degradado sin nombre 37" x1="349.31" y1="-29.02" x2="151.29" y2="150.1" xlink:href="#Degradado_sin_nombre_37"/>
    <mask id="mask-33" x="274.1" y="76.13" width="26.87" height="26.87" maskUnits="userSpaceOnUse">
      <g id="mask0_1098_49078-10" data-name="mask0 1098 49078">
        <rect class="cls-73" x="274.1" y="76.13" width="26.87" height="26.87"/>
      </g>
    </mask>
    <linearGradient id="Degradado_sin_nombre_37-34" data-name="Degradado sin nombre 37" x1="381.48" y1="6.55" x2="183.46" y2="185.67" xlink:href="#Degradado_sin_nombre_37"/>
    <mask id="mask-34" x="306.96" y="44.79" width="26.87" height="26.87" maskUnits="userSpaceOnUse">
      <g id="mask0_1098_49078-11" data-name="mask0 1098 49078">
        <rect class="cls-73" x="306.96" y="44.79" width="26.87" height="26.87"/>
      </g>
    </mask>
    <linearGradient id="Degradado_sin_nombre_37-35" data-name="Degradado sin nombre 37" x1="380.67" y1="5.66" x2="182.65" y2="184.78" xlink:href="#Degradado_sin_nombre_37"/>
    <mask id="mask-35" x="339.42" y="13.44" width="26.87" height="26.87" maskUnits="userSpaceOnUse">
      <g id="mask0_1098_49078-12" data-name="mask0 1098 49078">
        <rect class="cls-73" x="339.42" y="13.44" width="26.87" height="26.87"/>
      </g>
    </mask>
    <linearGradient id="Degradado_sin_nombre_37-36" data-name="Degradado sin nombre 37" x1="379.69" y1="4.57" x2="181.66" y2="183.69" xlink:href="#Degradado_sin_nombre_37"/>
  </defs>
  <g id="Capa_1-2" data-name="Capa 1">
    <g class="cls-28">
      <rect class="cls-30" width="379" height="204"/>
      <g>
        <g class="cls-34">
          <path class="cls-75" d="m256.48,178.35c.41,0,.75-.14,1.04-.43.28-.29.43-.63.43-1.04s-.14-.75-.43-1.04c-.29-.28-.63-.43-1.04-.43s-.75.14-1.04.43c-.28.29-.43.63-.43,1.04s.14.75.43,1.04c.29.28.63.43,1.04.43Zm-7.62,0c.41,0,.75-.14,1.04-.43.28-.29.43-.63.43-1.04s-.14-.75-.43-1.04c-.29-.28-.63-.43-1.04-.43s-.75.14-1.04.43c-.28.29-.43.63-.43,1.04s.14.75.43,1.04c.29.28.63.43,1.04.43Zm3.81,7.15c1.17,0,2.24-.33,3.2-.98s1.68-1.52,2.14-2.59h-10.69c.46,1.07,1.17,1.94,2.14,2.59.97.65,2.04.98,3.2.98Zm0,4.82c-1.47,0-2.85-.28-4.15-.84-1.29-.56-2.42-1.32-3.38-2.27-.96-.96-1.72-2.08-2.27-3.38-.56-1.29-.84-2.68-.84-4.15s.28-2.85.84-4.15c.56-1.29,1.32-2.42,2.27-3.38.96-.96,2.08-1.72,3.38-2.27,1.29-.56,2.68-.84,4.15-.84s2.85.28,4.15.84c1.29.56,2.42,1.32,3.38,2.27.96.96,1.72,2.08,2.27,3.38.56,1.29.84,2.68.84,4.15s-.28,2.85-.84,4.15c-.56,1.29-1.32,2.42-2.27,3.38-.96.96-2.08,1.72-3.38,2.27-1.29.56-2.68.84-4.15.84Zm0-1.68c2.5,0,4.62-.87,6.35-2.6,1.74-1.74,2.6-3.85,2.6-6.35s-.87-4.62-2.6-6.35c-1.74-1.74-3.85-2.6-6.35-2.6s-4.62.87-6.35,2.6c-1.74,1.74-2.6,3.85-2.6,6.35s.87,4.62,2.6,6.35c1.74,1.74,3.85,2.6,6.35,2.6Z"/>
        </g>
        <g class="cls-19">
          <path class="cls-68" d="m224.01,116.78c.41,0,.75-.14,1.04-.43.28-.29.43-.63.43-1.04s-.14-.75-.43-1.04c-.29-.28-.63-.43-1.04-.43s-.75.14-1.04.43c-.28.29-.43.63-.43,1.04s.14.75.43,1.04c.29.28.63.43,1.04.43Zm-7.62,0c.41,0,.75-.14,1.04-.43.28-.29.43-.63.43-1.04s-.14-.75-.43-1.04c-.29-.28-.63-.43-1.04-.43s-.75.14-1.04.43c-.28.29-.43.63-.43,1.04s.14.75.43,1.04c.29.28.63.43,1.04.43Zm3.81,7.15c1.17,0,2.24-.33,3.2-.98s1.68-1.52,2.14-2.59h-10.69c.46,1.07,1.17,1.94,2.14,2.59.97.65,2.04.98,3.2.98Zm0,4.82c-1.47,0-2.85-.28-4.15-.84-1.29-.56-2.42-1.32-3.38-2.27-.96-.96-1.72-2.08-2.27-3.38-.56-1.29-.84-2.68-.84-4.15s.28-2.85.84-4.15c.56-1.29,1.32-2.42,2.27-3.38.96-.96,2.08-1.72,3.38-2.27,1.29-.56,2.68-.84,4.15-.84s2.85.28,4.15.84c1.29.56,2.42,1.32,3.38,2.27.96.96,1.72,2.08,2.27,3.38.56,1.29.84,2.68.84,4.15s-.28,2.85-.84,4.15c-.56,1.29-1.32,2.42-2.27,3.38-.96.96-2.08,1.72-3.38,2.27-1.29.56-2.68.84-4.15.84Zm0-1.68c2.5,0,4.62-.87,6.35-2.6,1.74-1.74,2.6-3.85,2.6-6.35s-.87-4.62-2.6-6.35c-1.74-1.74-3.85-2.6-6.35-2.6s-4.62.87-6.35,2.6c-1.74,1.74-2.6,3.85-2.6,6.35s.87,4.62,2.6,6.35c1.74,1.74,3.85,2.6,6.35,2.6Z"/>
        </g>
        <g class="cls-10">
          <path class="cls-69" d="m191.55,148.12c.41,0,.75-.14,1.04-.43.28-.29.43-.63.43-1.04s-.14-.75-.43-1.04c-.29-.28-.63-.43-1.04-.43s-.75.14-1.04.43c-.28.29-.43.63-.43,1.04s.14.75.43,1.04c.29.28.63.43,1.04.43Zm-7.62,0c.41,0,.75-.14,1.04-.43.28-.29.43-.63.43-1.04s-.14-.75-.43-1.04c-.29-.28-.63-.43-1.04-.43s-.75.14-1.04.43c-.28.29-.43.63-.43,1.04s.14.75.43,1.04c.29.28.63.43,1.04.43Zm3.81,7.15c1.17,0,2.24-.33,3.2-.98s1.68-1.52,2.14-2.59h-10.69c.46,1.07,1.17,1.94,2.14,2.59.97.65,2.04.98,3.2.98Zm0,4.82c-1.47,0-2.85-.28-4.15-.84-1.29-.56-2.42-1.32-3.38-2.27-.96-.96-1.72-2.08-2.27-3.38-.56-1.29-.84-2.68-.84-4.15s.28-2.85.84-4.15c.56-1.29,1.32-2.42,2.27-3.38.96-.96,2.08-1.72,3.38-2.27,1.29-.56,2.68-.84,4.15-.84s2.85.28,4.15.84c1.29.56,2.42,1.32,3.38,2.27.96.96,1.72,2.08,2.27,3.38.56,1.29.84,2.68.84,4.15s-.28,2.85-.84,4.15c-.56,1.29-1.32,2.42-2.27,3.38-.96.96-2.08,1.72-3.38,2.27-1.29.56-2.68.84-4.15.84Zm0-1.68c2.5,0,4.62-.87,6.35-2.6,1.74-1.74,2.6-3.85,2.6-6.35s-.87-4.62-2.6-6.35c-1.74-1.74-3.85-2.6-6.35-2.6s-4.62.87-6.35,2.6c-1.74,1.74-2.6,3.85-2.6,6.35s.87,4.62,2.6,6.35c1.74,1.74,3.85,2.6,6.35,2.6Z"/>
        </g>
        <g class="cls-5">
          <path class="cls-59" d="m217.81,182.9c-.39,0-.72-.14-.99-.41-.27-.27-.41-.6-.41-.99s.14-.72.41-.99c.27-.27.6-.41.99-.41s.72.14.99.41.41.6.41.99-.14.72-.41.99c-.27.27-.6.41-.99.41Zm6.72,0c-.39,0-.72-.14-.99-.41s-.41-.6-.41-.99.14-.72.41-.99c.27-.27.6-.41.99-.41s.72.14.99.41c.27.27.41.6.41.99s-.14.72-.41.99c-.27.27-.6.41-.99.41Zm-3.36,6.44c2.5,0,4.62-.87,6.35-2.6,1.74-1.74,2.6-3.85,2.6-6.35,0-.45-.03-.88-.08-1.3-.06-.42-.16-.83-.31-1.22-.39.09-.78.16-1.18.21-.39.05-.8.07-1.23.07-1.7,0-3.3-.36-4.81-1.09-1.51-.73-2.8-1.74-3.86-3.05-.6,1.46-1.45,2.72-2.56,3.79-1.11,1.07-2.4,1.88-3.88,2.42v.17c0,2.5.87,4.62,2.6,6.35,1.74,1.74,3.85,2.6,6.35,2.6Zm0,1.68c-1.47,0-2.85-.28-4.15-.84-1.29-.56-2.42-1.32-3.38-2.27-.96-.96-1.72-2.08-2.27-3.38-.56-1.29-.84-2.68-.84-4.15s.28-2.85.84-4.15c.56-1.29,1.32-2.42,2.27-3.38.96-.96,2.08-1.72,3.38-2.27,1.29-.56,2.68-.84,4.15-.84s2.85.28,4.15.84c1.29.56,2.42,1.32,3.38,2.27.96.96,1.72,2.08,2.27,3.38.56,1.29.84,2.68.84,4.15s-.28,2.85-.84,4.15c-.56,1.29-1.32,2.42-2.27,3.38-.96.96-2.08,1.72-3.38,2.27-1.29.56-2.68.84-4.15.84Z"/>
        </g>
        <g class="cls-38">
          <path class="cls-4" d="m250.42,151.56c-.39,0-.72-.14-.99-.41-.27-.27-.41-.6-.41-.99s.14-.72.41-.99c.27-.27.6-.41.99-.41s.72.14.99.41.41.6.41.99-.14.72-.41.99c-.27.27-.6.41-.99.41Zm6.72,0c-.39,0-.72-.14-.99-.41s-.41-.6-.41-.99.14-.72.41-.99c.27-.27.6-.41.99-.41s.72.14.99.41c.27.27.41.6.41.99s-.14.72-.41.99c-.27.27-.6.41-.99.41Zm-3.36,6.44c2.5,0,4.62-.87,6.35-2.6,1.74-1.74,2.6-3.85,2.6-6.35,0-.45-.03-.88-.08-1.3-.06-.42-.16-.83-.31-1.22-.39.09-.78.16-1.18.21-.39.05-.8.07-1.23.07-1.7,0-3.3-.36-4.81-1.09-1.51-.73-2.8-1.74-3.86-3.05-.6,1.46-1.45,2.72-2.56,3.79-1.11,1.07-2.4,1.88-3.88,2.42v.17c0,2.5.87,4.62,2.6,6.35,1.74,1.74,3.85,2.6,6.35,2.6Zm0,1.68c-1.47,0-2.85-.28-4.15-.84-1.29-.56-2.42-1.32-3.38-2.27-.96-.96-1.72-2.08-2.27-3.38-.56-1.29-.84-2.68-.84-4.15s.28-2.85.84-4.15c.56-1.29,1.32-2.42,2.27-3.38.96-.96,2.08-1.72,3.38-2.27,1.29-.56,2.68-.84,4.15-.84s2.85.28,4.15.84c1.29.56,2.42,1.32,3.38,2.27.96.96,1.72,2.08,2.27,3.38.56,1.29.84,2.68.84,4.15s-.28,2.85-.84,4.15c-.56,1.29-1.32,2.42-2.27,3.38-.96.96-2.08,1.72-3.38,2.27-1.29.56-2.68.84-4.15.84Z"/>
        </g>
        <g class="cls-20">
          <path class="cls-64" d="m184.37,121.33c-.39,0-.72-.14-.99-.41-.27-.27-.41-.6-.41-.99s.14-.72.41-.99c.27-.27.6-.41.99-.41s.72.14.99.41.41.6.41.99-.14.72-.41.99c-.27.27-.6.41-.99.41Zm6.72,0c-.39,0-.72-.14-.99-.41s-.41-.6-.41-.99.14-.72.41-.99c.27-.27.6-.41.99-.41s.72.14.99.41c.27.27.41.6.41.99s-.14.72-.41.99c-.27.27-.6.41-.99.41Zm-3.36,6.44c2.5,0,4.62-.87,6.35-2.6,1.74-1.74,2.6-3.85,2.6-6.35,0-.45-.03-.88-.08-1.3-.06-.42-.16-.83-.31-1.22-.39.09-.78.16-1.18.21-.39.05-.8.07-1.23.07-1.7,0-3.3-.36-4.81-1.09-1.51-.73-2.8-1.74-3.86-3.05-.6,1.46-1.45,2.72-2.56,3.79-1.11,1.07-2.4,1.88-3.88,2.42v.17c0,2.5.87,4.62,2.6,6.35,1.74,1.74,3.85,2.6,6.35,2.6Zm0,1.68c-1.47,0-2.85-.28-4.15-.84-1.29-.56-2.42-1.32-3.38-2.27-.96-.96-1.72-2.08-2.27-3.38-.56-1.29-.84-2.68-.84-4.15s.28-2.85.84-4.15c.56-1.29,1.32-2.42,2.27-3.38.96-.96,2.08-1.72,3.38-2.27,1.29-.56,2.68-.84,4.15-.84s2.85.28,4.15.84c1.29.56,2.42,1.32,3.38,2.27.96.96,1.72,2.08,2.27,3.38.56,1.29.84,2.68.84,4.15s-.28,2.85-.84,4.15c-.56,1.29-1.32,2.42-2.27,3.38-.96.96-2.08,1.72-3.38,2.27-1.29.56-2.68.84-4.15.84Z"/>
        </g>
        <g class="cls-31">
          <path class="cls-54" d="m187.9,188.08c2.5,0,4.62-.87,6.35-2.62,1.74-1.74,2.6-3.86,2.6-6.34,0-.65-.06-1.27-.19-1.86-.13-.59-.31-1.16-.56-1.7-.48.3-.98.53-1.51.7-.53.16-1.09.24-1.65.24-1.04,0-2-.25-2.89-.75-.89-.5-1.61-1.2-2.15-2.09-.54.89-1.25,1.58-2.14,2.09-.89.5-1.86.75-2.89.75-.57,0-1.12-.08-1.65-.24-.53-.16-1.03-.39-1.51-.68-.25.55-.44,1.12-.57,1.71-.13.59-.19,1.21-.19,1.84,0,2.48.87,4.59,2.62,6.34,1.74,1.74,3.86,2.62,6.34,2.62Zm-3.36-6.44c.39,0,.72-.14.99-.41s.41-.6.41-.99-.14-.72-.41-.99c-.27-.27-.6-.41-.99-.41s-.72.14-.99.41c-.27.27-.41.6-.41.99s.14.72.41.99c.27.27.6.41.99.41Zm6.72,0c.39,0,.72-.14.99-.41.27-.27.41-.6.41-.99s-.14-.72-.41-.99c-.27-.27-.6-.41-.99-.41s-.72.14-.99.41c-.27.27-.41.6-.41.99s.14.72.41.99c.27.27.6.41.99.41Zm-13.74,10.36c-.59,0-1.09-.22-1.49-.66-.4-.44-.58-.95-.53-1.54l.98-10.68c.14-1.49.54-2.88,1.19-4.18.65-1.3,1.48-2.42,2.5-3.38,1.02-.96,2.19-1.71,3.51-2.25,1.32-.55,2.73-.82,4.22-.82s2.9.27,4.22.82c1.32.55,2.49,1.3,3.51,2.25s1.85,2.08,2.5,3.38c.65,1.3,1.05,2.69,1.19,4.18l.98,10.68c.05.59-.13,1.1-.53,1.54-.4.44-.9.66-1.49.66h-20.76Z"/>
        </g>
        <g class="cls-41">
          <path class="cls-62" d="m220.76,156.74c2.5,0,4.62-.87,6.35-2.62,1.74-1.74,2.6-3.86,2.6-6.34,0-.65-.06-1.27-.19-1.86-.13-.59-.31-1.16-.56-1.7-.48.3-.98.53-1.51.7-.53.16-1.09.24-1.65.24-1.04,0-2-.25-2.89-.75-.89-.5-1.61-1.2-2.15-2.09-.54.89-1.25,1.58-2.14,2.09-.89.5-1.86.75-2.89.75-.57,0-1.12-.08-1.65-.24-.53-.16-1.03-.39-1.51-.68-.25.55-.44,1.12-.57,1.71-.13.59-.19,1.21-.19,1.84,0,2.48.87,4.59,2.62,6.34,1.74,1.74,3.86,2.62,6.34,2.62Zm-3.36-6.44c.39,0,.72-.14.99-.41s.41-.6.41-.99-.14-.72-.41-.99c-.27-.27-.6-.41-.99-.41s-.72.14-.99.41c-.27.27-.41.6-.41.99s.14.72.41.99c.27.27.6.41.99.41Zm6.72,0c.39,0,.72-.14.99-.41.27-.27.41-.6.41-.99s-.14-.72-.41-.99c-.27-.27-.6-.41-.99-.41s-.72.14-.99.41c-.27.27-.41.6-.41.99s.14.72.41.99c.27.27.6.41.99.41Zm-13.74,10.36c-.59,0-1.09-.22-1.49-.66-.4-.44-.58-.95-.53-1.54l.98-10.68c.14-1.49.54-2.88,1.19-4.18.65-1.3,1.48-2.42,2.5-3.38,1.02-.96,2.19-1.71,3.51-2.25,1.32-.55,2.73-.82,4.22-.82s2.9.27,4.22.82c1.32.55,2.49,1.3,3.51,2.25s1.85,2.08,2.5,3.38c.65,1.3,1.05,2.69,1.19,4.18l.98,10.68c.05.59-.13,1.1-.53,1.54-.4.44-.9.66-1.49.66h-20.76Z"/>
        </g>
        <g class="cls-27">
          <path class="cls-52" d="m253.22,125.39c2.5,0,4.62-.87,6.35-2.62,1.74-1.74,2.6-3.86,2.6-6.34,0-.65-.06-1.27-.19-1.86-.13-.59-.31-1.16-.56-1.7-.48.3-.98.53-1.51.7-.53.16-1.09.24-1.65.24-1.04,0-2-.25-2.89-.75-.89-.5-1.61-1.2-2.15-2.09-.54.89-1.25,1.58-2.14,2.09-.89.5-1.86.75-2.89.75-.57,0-1.12-.08-1.65-.24-.53-.16-1.03-.39-1.51-.68-.25.55-.44,1.12-.57,1.71-.13.59-.19,1.21-.19,1.84,0,2.48.87,4.59,2.62,6.34,1.74,1.74,3.86,2.62,6.34,2.62Zm-3.36-6.44c.39,0,.72-.14.99-.41s.41-.6.41-.99-.14-.72-.41-.99c-.27-.27-.6-.41-.99-.41s-.72.14-.99.41c-.27.27-.41.6-.41.99s.14.72.41.99c.27.27.6.41.99.41Zm6.72,0c.39,0,.72-.14.99-.41.27-.27.41-.6.41-.99s-.14-.72-.41-.99c-.27-.27-.6-.41-.99-.41s-.72.14-.99.41c-.27.27-.41.6-.41.99s.14.72.41.99c.27.27.6.41.99.41Zm-13.74,10.36c-.59,0-1.09-.22-1.49-.66-.4-.44-.58-.95-.53-1.54l.98-10.68c.14-1.49.54-2.88,1.19-4.18.65-1.3,1.48-2.42,2.5-3.38,1.02-.96,2.19-1.71,3.51-2.25,1.32-.55,2.73-.82,4.22-.82s2.9.27,4.22.82c1.32.55,2.49,1.3,3.51,2.25s1.85,2.08,2.5,3.38c.65,1.3,1.05,2.69,1.19,4.18l.98,10.68c.05.59-.13,1.1-.53,1.54-.4.44-.9.66-1.49.66h-20.76Z"/>
        </g>
        <g class="cls-25">
          <path class="cls-43" d="m356.11,177.23c.41,0,.75-.14,1.04-.43.28-.29.43-.63.43-1.04s-.14-.75-.43-1.04c-.29-.28-.63-.43-1.04-.43s-.75.14-1.04.43c-.28.29-.43.63-.43,1.04s.14.75.43,1.04c.29.28.63.43,1.04.43Zm-7.62,0c.41,0,.75-.14,1.04-.43.28-.29.43-.63.43-1.04s-.14-.75-.43-1.04c-.29-.28-.63-.43-1.04-.43s-.75.14-1.04.43c-.28.29-.43.63-.43,1.04s.14.75.43,1.04c.29.28.63.43,1.04.43Zm3.81,7.15c1.17,0,2.24-.33,3.2-.98s1.68-1.52,2.14-2.59h-10.69c.46,1.07,1.17,1.94,2.14,2.59.97.65,2.04.98,3.2.98Zm0,4.82c-1.47,0-2.85-.28-4.15-.84-1.29-.56-2.42-1.32-3.38-2.27-.96-.96-1.72-2.08-2.27-3.38-.56-1.29-.84-2.68-.84-4.15s.28-2.85.84-4.15c.56-1.29,1.32-2.42,2.27-3.38.96-.96,2.08-1.72,3.38-2.27,1.29-.56,2.68-.84,4.15-.84s2.85.28,4.15.84c1.29.56,2.42,1.32,3.38,2.27.96.96,1.72,2.08,2.27,3.38.56,1.29.84,2.68.84,4.15s-.28,2.85-.84,4.15c-.56,1.29-1.32,2.42-2.27,3.38-.96.96-2.08,1.72-3.38,2.27-1.29.56-2.68.84-4.15.84Zm0-1.68c2.5,0,4.62-.87,6.35-2.6,1.74-1.74,2.6-3.85,2.6-6.35s-.87-4.62-2.6-6.35c-1.74-1.74-3.85-2.6-6.35-2.6s-4.62.87-6.35,2.6c-1.74,1.74-2.6,3.85-2.6,6.35s.87,4.62,2.6,6.35c1.74,1.74,3.85,2.6,6.35,2.6Z"/>
        </g>
        <g class="cls-11">
          <path class="cls-70" d="m323.65,115.66c.41,0,.75-.14,1.04-.43.28-.29.43-.63.43-1.04s-.14-.75-.43-1.04c-.29-.28-.63-.43-1.04-.43s-.75.14-1.04.43c-.28.29-.43.63-.43,1.04s.14.75.43,1.04c.29.28.63.43,1.04.43Zm-7.62,0c.41,0,.75-.14,1.04-.43.28-.29.43-.63.43-1.04s-.14-.75-.43-1.04c-.29-.28-.63-.43-1.04-.43s-.75.14-1.04.43c-.28.29-.43.63-.43,1.04s.14.75.43,1.04c.29.28.63.43,1.04.43Zm3.81,7.15c1.17,0,2.24-.33,3.2-.98s1.68-1.52,2.14-2.59h-10.69c.46,1.07,1.17,1.94,2.14,2.59.97.65,2.04.98,3.2.98Zm0,4.82c-1.47,0-2.85-.28-4.15-.84-1.29-.56-2.42-1.32-3.38-2.27-.96-.96-1.72-2.08-2.27-3.38-.56-1.29-.84-2.68-.84-4.15s.28-2.85.84-4.15c.56-1.29,1.32-2.42,2.27-3.38.96-.96,2.08-1.72,3.38-2.27,1.29-.56,2.68-.84,4.15-.84s2.85.28,4.15.84c1.29.56,2.42,1.32,3.38,2.27.96.96,1.72,2.08,2.27,3.38.56,1.29.84,2.68.84,4.15s-.28,2.85-.84,4.15c-.56,1.29-1.32,2.42-2.27,3.38-.96.96-2.08,1.72-3.38,2.27-1.29.56-2.68.84-4.15.84Zm0-1.68c2.5,0,4.62-.87,6.35-2.6,1.74-1.74,2.6-3.85,2.6-6.35s-.87-4.62-2.6-6.35c-1.74-1.74-3.85-2.6-6.35-2.6s-4.62.87-6.35,2.6c-1.74,1.74-2.6,3.85-2.6,6.35s.87,4.62,2.6,6.35c1.74,1.74,3.85,2.6,6.35,2.6Z"/>
        </g>
        <g class="cls-8">
          <path class="cls-60" d="m291.18,147c.41,0,.75-.14,1.04-.43.28-.29.43-.63.43-1.04s-.14-.75-.43-1.04c-.29-.28-.63-.43-1.04-.43s-.75.14-1.04.43c-.28.29-.43.63-.43,1.04s.14.75.43,1.04c.29.28.63.43,1.04.43Zm-7.62,0c.41,0,.75-.14,1.04-.43.28-.29.43-.63.43-1.04s-.14-.75-.43-1.04c-.29-.28-.63-.43-1.04-.43s-.75.14-1.04.43c-.28.29-.43.63-.43,1.04s.14.75.43,1.04c.29.28.63.43,1.04.43Zm3.81,7.15c1.17,0,2.24-.33,3.2-.98s1.68-1.52,2.14-2.59h-10.69c.46,1.07,1.17,1.94,2.14,2.59.97.65,2.04.98,3.2.98Zm0,4.82c-1.47,0-2.85-.28-4.15-.84-1.29-.56-2.42-1.32-3.38-2.27-.96-.96-1.72-2.08-2.27-3.38-.56-1.29-.84-2.68-.84-4.15s.28-2.85.84-4.15c.56-1.29,1.32-2.42,2.27-3.38.96-.96,2.08-1.72,3.38-2.27,1.29-.56,2.68-.84,4.15-.84s2.85.28,4.15.84c1.29.56,2.42,1.32,3.38,2.27.96.96,1.72,2.08,2.27,3.38.56,1.29.84,2.68.84,4.15s-.28,2.85-.84,4.15c-.56,1.29-1.32,2.42-2.27,3.38-.96.96-2.08,1.72-3.38,2.27-1.29.56-2.68.84-4.15.84Zm0-1.68c2.5,0,4.62-.87,6.35-2.6,1.74-1.74,2.6-3.85,2.6-6.35s-.87-4.62-2.6-6.35c-1.74-1.74-3.85-2.6-6.35-2.6s-4.62.87-6.35,2.6c-1.74,1.74-2.6,3.85-2.6,6.35s.87,4.62,2.6,6.35c1.74,1.74,3.85,2.6,6.35,2.6Z"/>
        </g>
        <g class="cls-32">
          <path class="cls-1" d="m317.45,181.78c-.39,0-.72-.14-.99-.41-.27-.27-.41-.6-.41-.99s.14-.72.41-.99c.27-.27.6-.41.99-.41s.72.14.99.41.41.6.41.99-.14.72-.41.99c-.27.27-.6.41-.99.41Zm6.72,0c-.39,0-.72-.14-.99-.41s-.41-.6-.41-.99.14-.72.41-.99c.27-.27.6-.41.99-.41s.72.14.99.41c.27.27.41.6.41.99s-.14.72-.41.99c-.27.27-.6.41-.99.41Zm-3.36,6.44c2.5,0,4.62-.87,6.35-2.6,1.74-1.74,2.6-3.85,2.6-6.35,0-.45-.03-.88-.08-1.3-.06-.42-.16-.83-.31-1.22-.39.09-.78.16-1.18.21-.39.05-.8.07-1.23.07-1.7,0-3.3-.36-4.81-1.09-1.51-.73-2.8-1.74-3.86-3.05-.6,1.46-1.45,2.72-2.56,3.79-1.11,1.07-2.4,1.88-3.88,2.42v.17c0,2.5.87,4.62,2.6,6.35,1.74,1.74,3.85,2.6,6.35,2.6Zm0,1.68c-1.47,0-2.85-.28-4.15-.84-1.29-.56-2.42-1.32-3.38-2.27-.96-.96-1.72-2.08-2.27-3.38-.56-1.29-.84-2.68-.84-4.15s.28-2.85.84-4.15c.56-1.29,1.32-2.42,2.27-3.38.96-.96,2.08-1.72,3.38-2.27,1.29-.56,2.68-.84,4.15-.84s2.85.28,4.15.84c1.29.56,2.42,1.32,3.38,2.27.96.96,1.72,2.08,2.27,3.38.56,1.29.84,2.68.84,4.15s-.28,2.85-.84,4.15c-.56,1.29-1.32,2.42-2.27,3.38-.96.96-2.08,1.72-3.38,2.27-1.29.56-2.68.84-4.15.84Z"/>
        </g>
        <g class="cls-22">
          <path class="cls-74" d="m350.06,150.44c-.39,0-.72-.14-.99-.41-.27-.27-.41-.6-.41-.99s.14-.72.41-.99c.27-.27.6-.41.99-.41s.72.14.99.41.41.6.41.99-.14.72-.41.99c-.27.27-.6.41-.99.41Zm6.72,0c-.39,0-.72-.14-.99-.41s-.41-.6-.41-.99.14-.72.41-.99c.27-.27.6-.41.99-.41s.72.14.99.41c.27.27.41.6.41.99s-.14.72-.41.99c-.27.27-.6.41-.99.41Zm-3.36,6.44c2.5,0,4.62-.87,6.35-2.6,1.74-1.74,2.6-3.85,2.6-6.35,0-.45-.03-.88-.08-1.3-.06-.42-.16-.83-.31-1.22-.39.09-.78.16-1.18.21-.39.05-.8.07-1.23.07-1.7,0-3.3-.36-4.81-1.09-1.51-.73-2.8-1.74-3.86-3.05-.6,1.46-1.45,2.72-2.56,3.79-1.11,1.07-2.4,1.88-3.88,2.42v.17c0,2.5.87,4.62,2.6,6.35,1.74,1.74,3.85,2.6,6.35,2.6Zm0,1.68c-1.47,0-2.85-.28-4.15-.84-1.29-.56-2.42-1.32-3.38-2.27-.96-.96-1.72-2.08-2.27-3.38-.56-1.29-.84-2.68-.84-4.15s.28-2.85.84-4.15c.56-1.29,1.32-2.42,2.27-3.38.96-.96,2.08-1.72,3.38-2.27,1.29-.56,2.68-.84,4.15-.84s2.85.28,4.15.84c1.29.56,2.42,1.32,3.38,2.27.96.96,1.72,2.08,2.27,3.38.56,1.29.84,2.68.84,4.15s-.28,2.85-.84,4.15c-.56,1.29-1.32,2.42-2.27,3.38-.96.96-2.08,1.72-3.38,2.27-1.29.56-2.68.84-4.15.84Z"/>
        </g>
        <g class="cls-9">
          <path class="cls-61" d="m284.01,120.21c-.39,0-.72-.14-.99-.41-.27-.27-.41-.6-.41-.99s.14-.72.41-.99c.27-.27.6-.41.99-.41s.72.14.99.41.41.6.41.99-.14.72-.41.99c-.27.27-.6.41-.99.41Zm6.72,0c-.39,0-.72-.14-.99-.41s-.41-.6-.41-.99.14-.72.41-.99c.27-.27.6-.41.99-.41s.72.14.99.41c.27.27.41.6.41.99s-.14.72-.41.99c-.27.27-.6.41-.99.41Zm-3.36,6.44c2.5,0,4.62-.87,6.35-2.6,1.74-1.74,2.6-3.85,2.6-6.35,0-.45-.03-.88-.08-1.3-.06-.42-.16-.83-.31-1.22-.39.09-.78.16-1.18.21-.39.05-.8.07-1.23.07-1.7,0-3.3-.36-4.81-1.09-1.51-.73-2.8-1.74-3.86-3.05-.6,1.46-1.45,2.72-2.56,3.79-1.11,1.07-2.4,1.88-3.88,2.42v.17c0,2.5.87,4.62,2.6,6.35,1.74,1.74,3.85,2.6,6.35,2.6Zm0,1.68c-1.47,0-2.85-.28-4.15-.84-1.29-.56-2.42-1.32-3.38-2.27-.96-.96-1.72-2.08-2.27-3.38-.56-1.29-.84-2.68-.84-4.15s.28-2.85.84-4.15c.56-1.29,1.32-2.42,2.27-3.38.96-.96,2.08-1.72,3.38-2.27,1.29-.56,2.68-.84,4.15-.84s2.85.28,4.15.84c1.29.56,2.42,1.32,3.38,2.27.96.96,1.72,2.08,2.27,3.38.56,1.29.84,2.68.84,4.15s-.28,2.85-.84,4.15c-.56,1.29-1.32,2.42-2.27,3.38-.96.96-2.08,1.72-3.38,2.27-1.29.56-2.68.84-4.15.84Z"/>
        </g>
        <g class="cls-33">
          <path class="cls-3" d="m287.53,186.96c2.5,0,4.62-.87,6.35-2.62,1.74-1.74,2.6-3.86,2.6-6.34,0-.65-.06-1.27-.19-1.86-.13-.59-.31-1.16-.56-1.7-.48.3-.98.53-1.51.7-.53.16-1.09.24-1.65.24-1.04,0-2-.25-2.89-.75-.89-.5-1.61-1.2-2.15-2.09-.54.89-1.25,1.58-2.14,2.09-.89.5-1.86.75-2.89.75-.57,0-1.12-.08-1.65-.24-.53-.16-1.03-.39-1.51-.68-.25.55-.44,1.12-.57,1.71-.13.59-.19,1.21-.19,1.84,0,2.48.87,4.59,2.62,6.34,1.74,1.74,3.86,2.62,6.34,2.62Zm-3.36-6.44c.39,0,.72-.14.99-.41s.41-.6.41-.99-.14-.72-.41-.99c-.27-.27-.6-.41-.99-.41s-.72.14-.99.41c-.27.27-.41.6-.41.99s.14.72.41.99c.27.27.6.41.99.41Zm6.72,0c.39,0,.72-.14.99-.41.27-.27.41-.6.41-.99s-.14-.72-.41-.99c-.27-.27-.6-.41-.99-.41s-.72.14-.99.41c-.27.27-.41.6-.41.99s.14.72.41.99c.27.27.6.41.99.41Zm-13.74,10.36c-.59,0-1.09-.22-1.49-.66-.4-.44-.58-.95-.53-1.54l.98-10.68c.14-1.49.54-2.88,1.19-4.18.65-1.3,1.48-2.42,2.5-3.38,1.02-.96,2.19-1.71,3.51-2.25,1.32-.55,2.73-.82,4.22-.82s2.9.27,4.22.82c1.32.55,2.49,1.3,3.51,2.25s1.85,2.08,2.5,3.38c.65,1.3,1.05,2.69,1.19,4.18l.98,10.68c.05.59-.13,1.1-.53,1.54-.4.44-.9.66-1.49.66h-20.76Z"/>
        </g>
        <g class="cls-37">
          <path class="cls-71" d="m320.39,155.62c2.5,0,4.62-.87,6.35-2.62,1.74-1.74,2.6-3.86,2.6-6.34,0-.65-.06-1.27-.19-1.86-.13-.59-.31-1.16-.56-1.7-.48.3-.98.53-1.51.7-.53.16-1.09.24-1.65.24-1.04,0-2-.25-2.89-.75-.89-.5-1.61-1.2-2.15-2.09-.54.89-1.25,1.58-2.14,2.09-.89.5-1.86.75-2.89.75-.57,0-1.12-.08-1.65-.24-.53-.16-1.03-.39-1.51-.68-.25.55-.44,1.12-.57,1.71-.13.59-.19,1.21-.19,1.84,0,2.48.87,4.59,2.62,6.34,1.74,1.74,3.86,2.62,6.34,2.62Zm-3.36-6.44c.39,0,.72-.14.99-.41s.41-.6.41-.99-.14-.72-.41-.99c-.27-.27-.6-.41-.99-.41s-.72.14-.99.41c-.27.27-.41.6-.41.99s.14.72.41.99c.27.27.6.41.99.41Zm6.72,0c.39,0,.72-.14.99-.41.27-.27.41-.6.41-.99s-.14-.72-.41-.99c-.27-.27-.6-.41-.99-.41s-.72.14-.99.41c-.27.27-.41.6-.41.99s.14.72.41.99c.27.27.6.41.99.41Zm-13.74,10.36c-.59,0-1.09-.22-1.49-.66-.4-.44-.58-.95-.53-1.54l.98-10.68c.14-1.49.54-2.88,1.19-4.18.65-1.3,1.48-2.42,2.5-3.38,1.02-.96,2.19-1.71,3.51-2.25,1.32-.55,2.73-.82,4.22-.82s2.9.27,4.22.82c1.32.55,2.49,1.3,3.51,2.25s1.85,2.08,2.5,3.38c.65,1.3,1.05,2.69,1.19,4.18l.98,10.68c.05.59-.13,1.1-.53,1.54-.4.44-.9.66-1.49.66h-20.76Z"/>
        </g>
        <g class="cls-26">
          <path class="cls-72" d="m352.86,124.27c2.5,0,4.62-.87,6.35-2.62,1.74-1.74,2.6-3.86,2.6-6.34,0-.65-.06-1.27-.19-1.86-.13-.59-.31-1.16-.56-1.7-.48.3-.98.53-1.51.7-.53.16-1.09.24-1.65.24-1.04,0-2-.25-2.89-.75-.89-.5-1.61-1.2-2.15-2.09-.54.89-1.25,1.58-2.14,2.09-.89.5-1.86.75-2.89.75-.57,0-1.12-.08-1.65-.24-.53-.16-1.03-.39-1.51-.68-.25.55-.44,1.12-.57,1.71-.13.59-.19,1.21-.19,1.84,0,2.48.87,4.59,2.62,6.34,1.74,1.74,3.86,2.62,6.34,2.62Zm-3.36-6.44c.39,0,.72-.14.99-.41s.41-.6.41-.99-.14-.72-.41-.99c-.27-.27-.6-.41-.99-.41s-.72.14-.99.41c-.27.27-.41.6-.41.99s.14.72.41.99c.27.27.6.41.99.41Zm6.72,0c.39,0,.72-.14.99-.41.27-.27.41-.6.41-.99s-.14-.72-.41-.99c-.27-.27-.6-.41-.99-.41s-.72.14-.99.41c-.27.27-.41.6-.41.99s.14.72.41.99c.27.27.6.41.99.41Zm-13.74,10.36c-.59,0-1.09-.22-1.49-.66-.4-.44-.58-.95-.53-1.54l.98-10.68c.14-1.49.54-2.88,1.19-4.18.65-1.3,1.48-2.42,2.5-3.38,1.02-.96,2.19-1.71,3.51-2.25,1.32-.55,2.73-.82,4.22-.82s2.9.27,4.22.82c1.32.55,2.49,1.3,3.51,2.25s1.85,2.08,2.5,3.38c.65,1.3,1.05,2.69,1.19,4.18l.98,10.68c.05.59-.13,1.1-.53,1.54-.4.44-.9.66-1.49.66h-20.76Z"/>
        </g>
        <g class="cls-17">
          <path class="cls-47" d="m256.48,87.67c.41,0,.75-.14,1.04-.43.28-.29.43-.63.43-1.04s-.14-.75-.43-1.04c-.29-.28-.63-.43-1.04-.43s-.75.14-1.04.43c-.28.29-.43.63-.43,1.04s.14.75.43,1.04c.29.28.63.43,1.04.43Zm-7.62,0c.41,0,.75-.14,1.04-.43.28-.29.43-.63.43-1.04s-.14-.75-.43-1.04c-.29-.28-.63-.43-1.04-.43s-.75.14-1.04.43c-.28.29-.43.63-.43,1.04s.14.75.43,1.04c.29.28.63.43,1.04.43Zm3.81,7.15c1.17,0,2.24-.33,3.2-.98s1.68-1.52,2.14-2.59h-10.69c.46,1.07,1.17,1.94,2.14,2.59.97.65,2.04.98,3.2.98Zm0,4.82c-1.47,0-2.85-.28-4.15-.84-1.29-.56-2.42-1.32-3.38-2.27-.96-.96-1.72-2.08-2.27-3.38-.56-1.29-.84-2.68-.84-4.15s.28-2.85.84-4.15c.56-1.29,1.32-2.42,2.27-3.38.96-.96,2.08-1.72,3.38-2.27,1.29-.56,2.68-.84,4.15-.84s2.85.28,4.15.84c1.29.56,2.42,1.32,3.38,2.27.96.96,1.72,2.08,2.27,3.38.56,1.29.84,2.68.84,4.15s-.28,2.85-.84,4.15c-.56,1.29-1.32,2.42-2.27,3.38-.96.96-2.08,1.72-3.38,2.27-1.29.56-2.68.84-4.15.84Zm0-1.68c2.5,0,4.62-.87,6.35-2.6,1.74-1.74,2.6-3.85,2.6-6.35s-.87-4.62-2.6-6.35c-1.74-1.74-3.85-2.6-6.35-2.6s-4.62.87-6.35,2.6c-1.74,1.74-2.6,3.85-2.6,6.35s.87,4.62,2.6,6.35c1.74,1.74,3.85,2.6,6.35,2.6Z"/>
        </g>
        <g class="cls-15">
          <path class="cls-45" d="m224.01,26.1c.41,0,.75-.14,1.04-.43.28-.29.43-.63.43-1.04s-.14-.75-.43-1.04c-.29-.28-.63-.43-1.04-.43s-.75.14-1.04.43c-.28.29-.43.63-.43,1.04s.14.75.43,1.04c.29.28.63.43,1.04.43Zm-7.62,0c.41,0,.75-.14,1.04-.43.28-.29.43-.63.43-1.04s-.14-.75-.43-1.04c-.29-.28-.63-.43-1.04-.43s-.75.14-1.04.43c-.28.29-.43.63-.43,1.04s.14.75.43,1.04c.29.28.63.43,1.04.43Zm3.81,7.15c1.17,0,2.24-.33,3.2-.98s1.68-1.52,2.14-2.59h-10.69c.46,1.07,1.17,1.94,2.14,2.59.97.65,2.04.98,3.2.98Zm0,4.82c-1.47,0-2.85-.28-4.15-.84-1.29-.56-2.42-1.32-3.38-2.27-.96-.96-1.72-2.08-2.27-3.38-.56-1.29-.84-2.68-.84-4.15s.28-2.85.84-4.15c.56-1.29,1.32-2.42,2.27-3.38.96-.96,2.08-1.72,3.38-2.27,1.29-.56,2.68-.84,4.15-.84s2.85.28,4.15.84c1.29.56,2.42,1.32,3.38,2.27.96.96,1.72,2.08,2.27,3.38.56,1.29.84,2.68.84,4.15s-.28,2.85-.84,4.15c-.56,1.29-1.32,2.42-2.27,3.38-.96.96-2.08,1.72-3.38,2.27-1.29.56-2.68.84-4.15.84Zm0-1.68c2.5,0,4.62-.87,6.35-2.6,1.74-1.74,2.6-3.85,2.6-6.35s-.87-4.62-2.6-6.35c-1.74-1.74-3.85-2.6-6.35-2.6s-4.62.87-6.35,2.6c-1.74,1.74-2.6,3.85-2.6,6.35s.87,4.62,2.6,6.35c1.74,1.74,3.85,2.6,6.35,2.6Z"/>
        </g>
        <g class="cls-42">
          <path class="cls-56" d="m191.55,57.45c.41,0,.75-.14,1.04-.43.28-.29.43-.63.43-1.04s-.14-.75-.43-1.04c-.29-.28-.63-.43-1.04-.43s-.75.14-1.04.43c-.28.29-.43.63-.43,1.04s.14.75.43,1.04c.29.28.63.43,1.04.43Zm-7.62,0c.41,0,.75-.14,1.04-.43.28-.29.43-.63.43-1.04s-.14-.75-.43-1.04c-.29-.28-.63-.43-1.04-.43s-.75.14-1.04.43c-.28.29-.43.63-.43,1.04s.14.75.43,1.04c.29.28.63.43,1.04.43Zm3.81,7.15c1.17,0,2.24-.33,3.2-.98s1.68-1.52,2.14-2.59h-10.69c.46,1.07,1.17,1.94,2.14,2.59.97.65,2.04.98,3.2.98Zm0,4.82c-1.47,0-2.85-.28-4.15-.84-1.29-.56-2.42-1.32-3.38-2.27-.96-.96-1.72-2.08-2.27-3.38-.56-1.29-.84-2.68-.84-4.15s.28-2.85.84-4.15c.56-1.29,1.32-2.42,2.27-3.38.96-.96,2.08-1.72,3.38-2.27,1.29-.56,2.68-.84,4.15-.84s2.85.28,4.15.84c1.29.56,2.42,1.32,3.38,2.27.96.96,1.72,2.08,2.27,3.38.56,1.29.84,2.68.84,4.15s-.28,2.85-.84,4.15c-.56,1.29-1.32,2.42-2.27,3.38-.96.96-2.08,1.72-3.38,2.27-1.29.56-2.68.84-4.15.84Zm0-1.68c2.5,0,4.62-.87,6.35-2.6,1.74-1.74,2.6-3.85,2.6-6.35s-.87-4.62-2.6-6.35c-1.74-1.74-3.85-2.6-6.35-2.6s-4.62.87-6.35,2.6c-1.74,1.74-2.6,3.85-2.6,6.35s.87,4.62,2.6,6.35c1.74,1.74,3.85,2.6,6.35,2.6Z"/>
        </g>
        <g class="cls-36">
          <path class="cls-55" d="m217.81,92.22c-.39,0-.72-.14-.99-.41-.27-.27-.41-.6-.41-.99s.14-.72.41-.99c.27-.27.6-.41.99-.41s.72.14.99.41.41.6.41.99-.14.72-.41.99c-.27.27-.6.41-.99.41Zm6.72,0c-.39,0-.72-.14-.99-.41s-.41-.6-.41-.99.14-.72.41-.99c.27-.27.6-.41.99-.41s.72.14.99.41c.27.27.41.6.41.99s-.14.72-.41.99c-.27.27-.6.41-.99.41Zm-3.36,6.44c2.5,0,4.62-.87,6.35-2.6,1.74-1.74,2.6-3.85,2.6-6.35,0-.45-.03-.88-.08-1.3-.06-.42-.16-.83-.31-1.22-.39.09-.78.16-1.18.21-.39.05-.8.07-1.23.07-1.7,0-3.3-.36-4.81-1.09-1.51-.73-2.8-1.74-3.86-3.05-.6,1.46-1.45,2.72-2.56,3.79-1.11,1.07-2.4,1.88-3.88,2.42v.17c0,2.5.87,4.62,2.6,6.35,1.74,1.74,3.85,2.6,6.35,2.6Zm0,1.68c-1.47,0-2.85-.28-4.15-.84-1.29-.56-2.42-1.32-3.38-2.27-.96-.96-1.72-2.08-2.27-3.38-.56-1.29-.84-2.68-.84-4.15s.28-2.85.84-4.15c.56-1.29,1.32-2.42,2.27-3.38.96-.96,2.08-1.72,3.38-2.27,1.29-.56,2.68-.84,4.15-.84s2.85.28,4.15.84c1.29.56,2.42,1.32,3.38,2.27.96.96,1.72,2.08,2.27,3.38.56,1.29.84,2.68.84,4.15s-.28,2.85-.84,4.15c-.56,1.29-1.32,2.42-2.27,3.38-.96.96-2.08,1.72-3.38,2.27-1.29.56-2.68.84-4.15.84Z"/>
        </g>
        <g class="cls-24">
          <path class="cls-46" d="m250.42,60.88c-.39,0-.72-.14-.99-.41-.27-.27-.41-.6-.41-.99s.14-.72.41-.99c.27-.27.6-.41.99-.41s.72.14.99.41.41.6.41.99-.14.72-.41.99c-.27.27-.6.41-.99.41Zm6.72,0c-.39,0-.72-.14-.99-.41s-.41-.6-.41-.99.14-.72.41-.99c.27-.27.6-.41.99-.41s.72.14.99.41c.27.27.41.6.41.99s-.14.72-.41.99c-.27.27-.6.41-.99.41Zm-3.36,6.44c2.5,0,4.62-.87,6.35-2.6,1.74-1.74,2.6-3.85,2.6-6.35,0-.45-.03-.88-.08-1.3-.06-.42-.16-.83-.31-1.22-.39.09-.78.16-1.18.21-.39.05-.8.07-1.23.07-1.7,0-3.3-.36-4.81-1.09-1.51-.73-2.8-1.74-3.86-3.05-.6,1.46-1.45,2.72-2.56,3.79-1.11,1.07-2.4,1.88-3.88,2.42v.17c0,2.5.87,4.62,2.6,6.35,1.74,1.74,3.85,2.6,6.35,2.6Zm0,1.68c-1.47,0-2.85-.28-4.15-.84-1.29-.56-2.42-1.32-3.38-2.27-.96-.96-1.72-2.08-2.27-3.38-.56-1.29-.84-2.68-.84-4.15s.28-2.85.84-4.15c.56-1.29,1.32-2.42,2.27-3.38.96-.96,2.08-1.72,3.38-2.27,1.29-.56,2.68-.84,4.15-.84s2.85.28,4.15.84c1.29.56,2.42,1.32,3.38,2.27.96.96,1.72,2.08,2.27,3.38.56,1.29.84,2.68.84,4.15s-.28,2.85-.84,4.15c-.56,1.29-1.32,2.42-2.27,3.38-.96.96-2.08,1.72-3.38,2.27-1.29.56-2.68.84-4.15.84Z"/>
        </g>
        <g class="cls-21">
          <path class="cls-63" d="m184.37,30.65c-.39,0-.72-.14-.99-.41-.27-.27-.41-.6-.41-.99s.14-.72.41-.99c.27-.27.6-.41.99-.41s.72.14.99.41.41.6.41.99-.14.72-.41.99c-.27.27-.6.41-.99.41Zm6.72,0c-.39,0-.72-.14-.99-.41s-.41-.6-.41-.99.14-.72.41-.99c.27-.27.6-.41.99-.41s.72.14.99.41c.27.27.41.6.41.99s-.14.72-.41.99c-.27.27-.6.41-.99.41Zm-3.36,6.44c2.5,0,4.62-.87,6.35-2.6,1.74-1.74,2.6-3.85,2.6-6.35,0-.45-.03-.88-.08-1.3-.06-.42-.16-.83-.31-1.22-.39.09-.78.16-1.18.21-.39.05-.8.07-1.23.07-1.7,0-3.3-.36-4.81-1.09-1.51-.73-2.8-1.74-3.86-3.05-.6,1.46-1.45,2.72-2.56,3.79-1.11,1.07-2.4,1.88-3.88,2.42v.17c0,2.5.87,4.62,2.6,6.35,1.74,1.74,3.85,2.6,6.35,2.6Zm0,1.68c-1.47,0-2.85-.28-4.15-.84-1.29-.56-2.42-1.32-3.38-2.27-.96-.96-1.72-2.08-2.27-3.38-.56-1.29-.84-2.68-.84-4.15s.28-2.85.84-4.15c.56-1.29,1.32-2.42,2.27-3.38.96-.96,2.08-1.72,3.38-2.27,1.29-.56,2.68-.84,4.15-.84s2.85.28,4.15.84c1.29.56,2.42,1.32,3.38,2.27.96.96,1.72,2.08,2.27,3.38.56,1.29.84,2.68.84,4.15s-.28,2.85-.84,4.15c-.56,1.29-1.32,2.42-2.27,3.38-.96.96-2.08,1.72-3.38,2.27-1.29.56-2.68.84-4.15.84Z"/>
        </g>
        <g class="cls-23">
          <path class="cls-53" d="m187.9,97.4c2.5,0,4.62-.87,6.35-2.62,1.74-1.74,2.6-3.86,2.6-6.34,0-.65-.06-1.27-.19-1.86-.13-.59-.31-1.16-.56-1.7-.48.3-.98.53-1.51.7-.53.16-1.09.24-1.65.24-1.04,0-2-.25-2.89-.75-.89-.5-1.61-1.2-2.15-2.09-.54.89-1.25,1.58-2.14,2.09-.89.5-1.86.75-2.89.75-.57,0-1.12-.08-1.65-.24-.53-.16-1.03-.39-1.51-.68-.25.55-.44,1.12-.57,1.71-.13.59-.19,1.21-.19,1.84,0,2.48.87,4.59,2.62,6.34,1.74,1.74,3.86,2.62,6.34,2.62Zm-3.36-6.44c.39,0,.72-.14.99-.41s.41-.6.41-.99-.14-.72-.41-.99c-.27-.27-.6-.41-.99-.41s-.72.14-.99.41c-.27.27-.41.6-.41.99s.14.72.41.99c.27.27.6.41.99.41Zm6.72,0c.39,0,.72-.14.99-.41.27-.27.41-.6.41-.99s-.14-.72-.41-.99c-.27-.27-.6-.41-.99-.41s-.72.14-.99.41c-.27.27-.41.6-.41.99s.14.72.41.99c.27.27.6.41.99.41Zm-13.74,10.36c-.59,0-1.09-.22-1.49-.66-.4-.44-.58-.95-.53-1.54l.98-10.68c.14-1.49.54-2.88,1.19-4.18.65-1.3,1.48-2.42,2.5-3.38,1.02-.96,2.19-1.71,3.51-2.25,1.32-.55,2.73-.82,4.22-.82s2.9.27,4.22.82c1.32.55,2.49,1.3,3.51,2.25s1.85,2.08,2.5,3.38c.65,1.3,1.05,2.69,1.19,4.18l.98,10.68c.05.59-.13,1.1-.53,1.54-.4.44-.9.66-1.49.66h-20.76Z"/>
        </g>
        <g class="cls-6">
          <path class="cls-48" d="m220.76,66.06c2.5,0,4.62-.87,6.35-2.62,1.74-1.74,2.6-3.86,2.6-6.34,0-.65-.06-1.27-.19-1.86-.13-.59-.31-1.16-.56-1.7-.48.3-.98.53-1.51.7-.53.16-1.09.24-1.65.24-1.04,0-2-.25-2.89-.75-.89-.5-1.61-1.2-2.15-2.09-.54.89-1.25,1.58-2.14,2.09-.89.5-1.86.75-2.89.75-.57,0-1.12-.08-1.65-.24-.53-.16-1.03-.39-1.51-.68-.25.55-.44,1.12-.57,1.71-.13.59-.19,1.21-.19,1.84,0,2.48.87,4.59,2.62,6.34,1.74,1.74,3.86,2.62,6.34,2.62Zm-3.36-6.44c.39,0,.72-.14.99-.41s.41-.6.41-.99-.14-.72-.41-.99c-.27-.27-.6-.41-.99-.41s-.72.14-.99.41c-.27.27-.41.6-.41.99s.14.72.41.99c.27.27.6.41.99.41Zm6.72,0c.39,0,.72-.14.99-.41.27-.27.41-.6.41-.99s-.14-.72-.41-.99c-.27-.27-.6-.41-.99-.41s-.72.14-.99.41c-.27.27-.41.6-.41.99s.14.72.41.99c.27.27.6.41.99.41Zm-13.74,10.36c-.59,0-1.09-.22-1.49-.66-.4-.44-.58-.95-.53-1.54l.98-10.68c.14-1.49.54-2.88,1.19-4.18.65-1.3,1.48-2.42,2.5-3.38,1.02-.96,2.19-1.71,3.51-2.25,1.32-.55,2.73-.82,4.22-.82s2.9.27,4.22.82c1.32.55,2.49,1.3,3.51,2.25s1.85,2.08,2.5,3.38c.65,1.3,1.05,2.69,1.19,4.18l.98,10.68c.05.59-.13,1.1-.53,1.54-.4.44-.9.66-1.49.66h-20.76Z"/>
        </g>
        <g class="cls-7">
          <path class="cls-51" d="m253.22,34.71c2.5,0,4.62-.87,6.35-2.62,1.74-1.74,2.6-3.86,2.6-6.34,0-.65-.06-1.27-.19-1.86-.13-.59-.31-1.16-.56-1.7-.48.3-.98.53-1.51.7-.53.16-1.09.24-1.65.24-1.04,0-2-.25-2.89-.75-.89-.5-1.61-1.2-2.15-2.09-.54.89-1.25,1.58-2.14,2.09-.89.5-1.86.75-2.89.75-.57,0-1.12-.08-1.65-.24-.53-.16-1.03-.39-1.51-.68-.25.55-.44,1.12-.57,1.71-.13.59-.19,1.21-.19,1.84,0,2.48.87,4.59,2.62,6.34,1.74,1.74,3.86,2.62,6.34,2.62Zm-3.36-6.44c.39,0,.72-.14.99-.41s.41-.6.41-.99-.14-.72-.41-.99c-.27-.27-.6-.41-.99-.41s-.72.14-.99.41c-.27.27-.41.6-.41.99s.14.72.41.99c.27.27.6.41.99.41Zm6.72,0c.39,0,.72-.14.99-.41.27-.27.41-.6.41-.99s-.14-.72-.41-.99c-.27-.27-.6-.41-.99-.41s-.72.14-.99.41c-.27.27-.41.6-.41.99s.14.72.41.99c.27.27.6.41.99.41Zm-13.74,10.36c-.59,0-1.09-.22-1.49-.66-.4-.44-.58-.95-.53-1.54l.98-10.68c.14-1.49.54-2.88,1.19-4.18.65-1.3,1.48-2.42,2.5-3.38,1.02-.96,2.19-1.71,3.51-2.25,1.32-.55,2.73-.82,4.22-.82s2.9.27,4.22.82c1.32.55,2.49,1.3,3.51,2.25s1.85,2.08,2.5,3.38c.65,1.3,1.05,2.69,1.19,4.18l.98,10.68c.05.59-.13,1.1-.53,1.54-.4.44-.9.66-1.49.66h-20.76Z"/>
        </g>
        <g class="cls-18">
          <path class="cls-49" d="m356.11,86.55c.41,0,.75-.14,1.04-.43.28-.29.43-.63.43-1.04s-.14-.75-.43-1.04c-.29-.28-.63-.43-1.04-.43s-.75.14-1.04.43c-.28.29-.43.63-.43,1.04s.14.75.43,1.04c.29.28.63.43,1.04.43Zm-7.62,0c.41,0,.75-.14,1.04-.43.28-.29.43-.63.43-1.04s-.14-.75-.43-1.04c-.29-.28-.63-.43-1.04-.43s-.75.14-1.04.43c-.28.29-.43.63-.43,1.04s.14.75.43,1.04c.29.28.63.43,1.04.43Zm3.81,7.15c1.17,0,2.24-.33,3.2-.98s1.68-1.52,2.14-2.59h-10.69c.46,1.07,1.17,1.94,2.14,2.59.97.65,2.04.98,3.2.98Zm0,4.82c-1.47,0-2.85-.28-4.15-.84-1.29-.56-2.42-1.32-3.38-2.27-.96-.96-1.72-2.08-2.27-3.38-.56-1.29-.84-2.68-.84-4.15s.28-2.85.84-4.15c.56-1.29,1.32-2.42,2.27-3.38.96-.96,2.08-1.72,3.38-2.27,1.29-.56,2.68-.84,4.15-.84s2.85.28,4.15.84c1.29.56,2.42,1.32,3.38,2.27.96.96,1.72,2.08,2.27,3.38.56,1.29.84,2.68.84,4.15s-.28,2.85-.84,4.15c-.56,1.29-1.32,2.42-2.27,3.38-.96.96-2.08,1.72-3.38,2.27-1.29.56-2.68.84-4.15.84Zm0-1.68c2.5,0,4.62-.87,6.35-2.6,1.74-1.74,2.6-3.85,2.6-6.35s-.87-4.62-2.6-6.35c-1.74-1.74-3.85-2.6-6.35-2.6s-4.62.87-6.35,2.6c-1.74,1.74-2.6,3.85-2.6,6.35s.87,4.62,2.6,6.35c1.74,1.74,3.85,2.6,6.35,2.6Z"/>
        </g>
        <g class="cls-40">
          <path class="cls-66" d="m323.65,24.98c.41,0,.75-.14,1.04-.43.28-.29.43-.63.43-1.04s-.14-.75-.43-1.04c-.29-.28-.63-.43-1.04-.43s-.75.14-1.04.43c-.28.29-.43.63-.43,1.04s.14.75.43,1.04c.29.28.63.43,1.04.43Zm-7.62,0c.41,0,.75-.14,1.04-.43.28-.29.43-.63.43-1.04s-.14-.75-.43-1.04c-.29-.28-.63-.43-1.04-.43s-.75.14-1.04.43c-.28.29-.43.63-.43,1.04s.14.75.43,1.04c.29.28.63.43,1.04.43Zm3.81,7.15c1.17,0,2.24-.33,3.2-.98s1.68-1.52,2.14-2.59h-10.69c.46,1.07,1.17,1.94,2.14,2.59.97.65,2.04.98,3.2.98Zm0,4.82c-1.47,0-2.85-.28-4.15-.84-1.29-.56-2.42-1.32-3.38-2.27-.96-.96-1.72-2.08-2.27-3.38-.56-1.29-.84-2.68-.84-4.15s.28-2.85.84-4.15c.56-1.29,1.32-2.42,2.27-3.38.96-.96,2.08-1.72,3.38-2.27,1.29-.56,2.68-.84,4.15-.84s2.85.28,4.15.84c1.29.56,2.42,1.32,3.38,2.27.96.96,1.72,2.08,2.27,3.38.56,1.29.84,2.68.84,4.15s-.28,2.85-.84,4.15c-.56,1.29-1.32,2.42-2.27,3.38-.96.96-2.08,1.72-3.38,2.27-1.29.56-2.68.84-4.15.84Zm0-1.68c2.5,0,4.62-.87,6.35-2.6,1.74-1.74,2.6-3.85,2.6-6.35s-.87-4.62-2.6-6.35c-1.74-1.74-3.85-2.6-6.35-2.6s-4.62.87-6.35,2.6c-1.74,1.74-2.6,3.85-2.6,6.35s.87,4.62,2.6,6.35c1.74,1.74,3.85,2.6,6.35,2.6Z"/>
        </g>
        <g class="cls-29">
          <path class="cls-50" d="m291.18,56.33c.41,0,.75-.14,1.04-.43.28-.29.43-.63.43-1.04s-.14-.75-.43-1.04c-.29-.28-.63-.43-1.04-.43s-.75.14-1.04.43c-.28.29-.43.63-.43,1.04s.14.75.43,1.04c.29.28.63.43,1.04.43Zm-7.62,0c.41,0,.75-.14,1.04-.43.28-.29.43-.63.43-1.04s-.14-.75-.43-1.04c-.29-.28-.63-.43-1.04-.43s-.75.14-1.04.43c-.28.29-.43.63-.43,1.04s.14.75.43,1.04c.29.28.63.43,1.04.43Zm3.81,7.15c1.17,0,2.24-.33,3.2-.98s1.68-1.52,2.14-2.59h-10.69c.46,1.07,1.17,1.94,2.14,2.59.97.65,2.04.98,3.2.98Zm0,4.82c-1.47,0-2.85-.28-4.15-.84-1.29-.56-2.42-1.32-3.38-2.27-.96-.96-1.72-2.08-2.27-3.38-.56-1.29-.84-2.68-.84-4.15s.28-2.85.84-4.15c.56-1.29,1.32-2.42,2.27-3.38.96-.96,2.08-1.72,3.38-2.27,1.29-.56,2.68-.84,4.15-.84s2.85.28,4.15.84c1.29.56,2.42,1.32,3.38,2.27.96.96,1.72,2.08,2.27,3.38.56,1.29.84,2.68.84,4.15s-.28,2.85-.84,4.15c-.56,1.29-1.32,2.42-2.27,3.38-.96.96-2.08,1.72-3.38,2.27-1.29.56-2.68.84-4.15.84Zm0-1.68c2.5,0,4.62-.87,6.35-2.6,1.74-1.74,2.6-3.85,2.6-6.35s-.87-4.62-2.6-6.35c-1.74-1.74-3.85-2.6-6.35-2.6s-4.62.87-6.35,2.6c-1.74,1.74-2.6,3.85-2.6,6.35s.87,4.62,2.6,6.35c1.74,1.74,3.85,2.6,6.35,2.6Z"/>
        </g>
        <g class="cls-35">
          <path class="cls-65" d="m317.45,91.11c-.39,0-.72-.14-.99-.41-.27-.27-.41-.6-.41-.99s.14-.72.41-.99c.27-.27.6-.41.99-.41s.72.14.99.41.41.6.41.99-.14.72-.41.99c-.27.27-.6.41-.99.41Zm6.72,0c-.39,0-.72-.14-.99-.41s-.41-.6-.41-.99.14-.72.41-.99c.27-.27.6-.41.99-.41s.72.14.99.41c.27.27.41.6.41.99s-.14.72-.41.99c-.27.27-.6.41-.99.41Zm-3.36,6.44c2.5,0,4.62-.87,6.35-2.6,1.74-1.74,2.6-3.85,2.6-6.35,0-.45-.03-.88-.08-1.3-.06-.42-.16-.83-.31-1.22-.39.09-.78.16-1.18.21-.39.05-.8.07-1.23.07-1.7,0-3.3-.36-4.81-1.09-1.51-.73-2.8-1.74-3.86-3.05-.6,1.46-1.45,2.72-2.56,3.79-1.11,1.07-2.4,1.88-3.88,2.42v.17c0,2.5.87,4.62,2.6,6.35,1.74,1.74,3.85,2.6,6.35,2.6Zm0,1.68c-1.47,0-2.85-.28-4.15-.84-1.29-.56-2.42-1.32-3.38-2.27-.96-.96-1.72-2.08-2.27-3.38-.56-1.29-.84-2.68-.84-4.15s.28-2.85.84-4.15c.56-1.29,1.32-2.42,2.27-3.38.96-.96,2.08-1.72,3.38-2.27,1.29-.56,2.68-.84,4.15-.84s2.85.28,4.15.84c1.29.56,2.42,1.32,3.38,2.27.96.96,1.72,2.08,2.27,3.38.56,1.29.84,2.68.84,4.15s-.28,2.85-.84,4.15c-.56,1.29-1.32,2.42-2.27,3.38-.96.96-2.08,1.72-3.38,2.27-1.29.56-2.68.84-4.15.84Z"/>
        </g>
        <g class="cls-12">
          <path class="cls-58" d="m350.06,59.76c-.39,0-.72-.14-.99-.41-.27-.27-.41-.6-.41-.99s.14-.72.41-.99c.27-.27.6-.41.99-.41s.72.14.99.41.41.6.41.99-.14.72-.41.99c-.27.27-.6.41-.99.41Zm6.72,0c-.39,0-.72-.14-.99-.41s-.41-.6-.41-.99.14-.72.41-.99c.27-.27.6-.41.99-.41s.72.14.99.41c.27.27.41.6.41.99s-.14.72-.41.99c-.27.27-.6.41-.99.41Zm-3.36,6.44c2.5,0,4.62-.87,6.35-2.6,1.74-1.74,2.6-3.85,2.6-6.35,0-.45-.03-.88-.08-1.3-.06-.42-.16-.83-.31-1.22-.39.09-.78.16-1.18.21-.39.05-.8.07-1.23.07-1.7,0-3.3-.36-4.81-1.09-1.51-.73-2.8-1.74-3.86-3.05-.6,1.46-1.45,2.72-2.56,3.79-1.11,1.07-2.4,1.88-3.88,2.42v.17c0,2.5.87,4.62,2.6,6.35,1.74,1.74,3.85,2.6,6.35,2.6Zm0,1.68c-1.47,0-2.85-.28-4.15-.84-1.29-.56-2.42-1.32-3.38-2.27-.96-.96-1.72-2.08-2.27-3.38-.56-1.29-.84-2.68-.84-4.15s.28-2.85.84-4.15c.56-1.29,1.32-2.42,2.27-3.38.96-.96,2.08-1.72,3.38-2.27,1.29-.56,2.68-.84,4.15-.84s2.85.28,4.15.84c1.29.56,2.42,1.32,3.38,2.27.96.96,1.72,2.08,2.27,3.38.56,1.29.84,2.68.84,4.15s-.28,2.85-.84,4.15c-.56,1.29-1.32,2.42-2.27,3.38-.96.96-2.08,1.72-3.38,2.27-1.29.56-2.68.84-4.15.84Z"/>
        </g>
        <g class="cls-39">
          <path class="cls-57" d="m284.01,29.53c-.39,0-.72-.14-.99-.41-.27-.27-.41-.6-.41-.99s.14-.72.41-.99c.27-.27.6-.41.99-.41s.72.14.99.41.41.6.41.99-.14.72-.41.99c-.27.27-.6.41-.99.41Zm6.72,0c-.39,0-.72-.14-.99-.41s-.41-.6-.41-.99.14-.72.41-.99c.27-.27.6-.41.99-.41s.72.14.99.41c.27.27.41.6.41.99s-.14.72-.41.99c-.27.27-.6.41-.99.41Zm-3.36,6.44c2.5,0,4.62-.87,6.35-2.6,1.74-1.74,2.6-3.85,2.6-6.35,0-.45-.03-.88-.08-1.3-.06-.42-.16-.83-.31-1.22-.39.09-.78.16-1.18.21-.39.05-.8.07-1.23.07-1.7,0-3.3-.36-4.81-1.09-1.51-.73-2.8-1.74-3.86-3.05-.6,1.46-1.45,2.72-2.56,3.79-1.11,1.07-2.4,1.88-3.88,2.42v.17c0,2.5.87,4.62,2.6,6.35,1.74,1.74,3.85,2.6,6.35,2.6Zm0,1.68c-1.47,0-2.85-.28-4.15-.84-1.29-.56-2.42-1.32-3.38-2.27-.96-.96-1.72-2.08-2.27-3.38-.56-1.29-.84-2.68-.84-4.15s.28-2.85.84-4.15c.56-1.29,1.32-2.42,2.27-3.38.96-.96,2.08-1.72,3.38-2.27,1.29-.56,2.68-.84,4.15-.84s2.85.28,4.15.84c1.29.56,2.42,1.32,3.38,2.27.96.96,1.72,2.08,2.27,3.38.56,1.29.84,2.68.84,4.15s-.28,2.85-.84,4.15c-.56,1.29-1.32,2.42-2.27,3.38-.96.96-2.08,1.72-3.38,2.27-1.29.56-2.68.84-4.15.84Z"/>
        </g>
        <g class="cls-14">
          <path class="cls-67" d="m287.53,96.28c2.5,0,4.62-.87,6.35-2.62,1.74-1.74,2.6-3.86,2.6-6.34,0-.65-.06-1.27-.19-1.86-.13-.59-.31-1.16-.56-1.7-.48.3-.98.53-1.51.7-.53.16-1.09.24-1.65.24-1.04,0-2-.25-2.89-.75-.89-.5-1.61-1.2-2.15-2.09-.54.89-1.25,1.58-2.14,2.09-.89.5-1.86.75-2.89.75-.57,0-1.12-.08-1.65-.24-.53-.16-1.03-.39-1.51-.68-.25.55-.44,1.12-.57,1.71-.13.59-.19,1.21-.19,1.84,0,2.48.87,4.59,2.62,6.34,1.74,1.74,3.86,2.62,6.34,2.62Zm-3.36-6.44c.39,0,.72-.14.99-.41s.41-.6.41-.99-.14-.72-.41-.99c-.27-.27-.6-.41-.99-.41s-.72.14-.99.41c-.27.27-.41.6-.41.99s.14.72.41.99c.27.27.6.41.99.41Zm6.72,0c.39,0,.72-.14.99-.41.27-.27.41-.6.41-.99s-.14-.72-.41-.99c-.27-.27-.6-.41-.99-.41s-.72.14-.99.41c-.27.27-.41.6-.41.99s.14.72.41.99c.27.27.6.41.99.41Zm-13.74,10.36c-.59,0-1.09-.22-1.49-.66-.4-.44-.58-.95-.53-1.54l.98-10.68c.14-1.49.54-2.88,1.19-4.18.65-1.3,1.48-2.42,2.5-3.38,1.02-.96,2.19-1.71,3.51-2.25,1.32-.55,2.73-.82,4.22-.82s2.9.27,4.22.82c1.32.55,2.49,1.3,3.51,2.25s1.85,2.08,2.5,3.38c.65,1.3,1.05,2.69,1.19,4.18l.98,10.68c.05.59-.13,1.1-.53,1.54-.4.44-.9.66-1.49.66h-20.76Z"/>
        </g>
        <g class="cls-13">
          <path class="cls-44" d="m320.39,64.94c2.5,0,4.62-.87,6.35-2.62,1.74-1.74,2.6-3.86,2.6-6.34,0-.65-.06-1.27-.19-1.86-.13-.59-.31-1.16-.56-1.7-.48.3-.98.53-1.51.7-.53.16-1.09.24-1.65.24-1.04,0-2-.25-2.89-.75-.89-.5-1.61-1.2-2.15-2.09-.54.89-1.25,1.58-2.14,2.09-.89.5-1.86.75-2.89.75-.57,0-1.12-.08-1.65-.24-.53-.16-1.03-.39-1.51-.68-.25.55-.44,1.12-.57,1.71-.13.59-.19,1.21-.19,1.84,0,2.48.87,4.59,2.62,6.34,1.74,1.74,3.86,2.62,6.34,2.62Zm-3.36-6.44c.39,0,.72-.14.99-.41s.41-.6.41-.99-.14-.72-.41-.99c-.27-.27-.6-.41-.99-.41s-.72.14-.99.41c-.27.27-.41.6-.41.99s.14.72.41.99c.27.27.6.41.99.41Zm6.72,0c.39,0,.72-.14.99-.41.27-.27.41-.6.41-.99s-.14-.72-.41-.99c-.27-.27-.6-.41-.99-.41s-.72.14-.99.41c-.27.27-.41.6-.41.99s.14.72.41.99c.27.27.6.41.99.41Zm-13.74,10.36c-.59,0-1.09-.22-1.49-.66-.4-.44-.58-.95-.53-1.54l.98-10.68c.14-1.49.54-2.88,1.19-4.18.65-1.3,1.48-2.42,2.5-3.38,1.02-.96,2.19-1.71,3.51-2.25,1.32-.55,2.73-.82,4.22-.82s2.9.27,4.22.82c1.32.55,2.49,1.3,3.51,2.25s1.85,2.08,2.5,3.38c.65,1.3,1.05,2.69,1.19,4.18l.98,10.68c.05.59-.13,1.1-.53,1.54-.4.44-.9.66-1.49.66h-20.76Z"/>
        </g>
        <g class="cls-16">
          <path class="cls-2" d="m352.86,33.59c2.5,0,4.62-.87,6.35-2.62,1.74-1.74,2.6-3.86,2.6-6.34,0-.65-.06-1.27-.19-1.86-.13-.59-.31-1.16-.56-1.7-.48.3-.98.53-1.51.7-.53.16-1.09.24-1.65.24-1.04,0-2-.25-2.89-.75-.89-.5-1.61-1.2-2.15-2.09-.54.89-1.25,1.58-2.14,2.09-.89.5-1.86.75-2.89.75-.57,0-1.12-.08-1.65-.24-.53-.16-1.03-.39-1.51-.68-.25.55-.44,1.12-.57,1.71-.13.59-.19,1.21-.19,1.84,0,2.48.87,4.59,2.62,6.34,1.74,1.74,3.86,2.62,6.34,2.62Zm-3.36-6.44c.39,0,.72-.14.99-.41s.41-.6.41-.99-.14-.72-.41-.99c-.27-.27-.6-.41-.99-.41s-.72.14-.99.41c-.27.27-.41.6-.41.99s.14.72.41.99c.27.27.6.41.99.41Zm6.72,0c.39,0,.72-.14.99-.41.27-.27.41-.6.41-.99s-.14-.72-.41-.99c-.27-.27-.6-.41-.99-.41s-.72.14-.99.41c-.27.27-.41.6-.41.99s.14.72.41.99c.27.27.6.41.99.41Zm-13.74,10.36c-.59,0-1.09-.22-1.49-.66-.4-.44-.58-.95-.53-1.54l.98-10.68c.14-1.49.54-2.88,1.19-4.18.65-1.3,1.48-2.42,2.5-3.38,1.02-.96,2.19-1.71,3.51-2.25,1.32-.55,2.73-.82,4.22-.82s2.9.27,4.22.82c1.32.55,2.49,1.3,3.51,2.25s1.85,2.08,2.5,3.38c.65,1.3,1.05,2.69,1.19,4.18l.98,10.68c.05.59-.13,1.1-.53,1.54-.4.44-.9.66-1.49.66h-20.76Z"/>
        </g>
      </g>
    </g>
  </g>
</svg>