<svg width="12" height="8" viewBox="0 0 12 8" fill="none" xmlns="http://www.w3.org/2000/svg">
<mask id="mask0_6380_78058" style="mask-type:alpha" maskUnits="userSpaceOnUse" x="0" y="0" width="12" height="8">
<path d="M10.1333 0H1.06667C0.477563 0 0 0.477563 0 1.06667V6.93333C0 7.52244 0.477563 8 1.06667 8H10.1333C10.7224 8 11.2 7.52244 11.2 6.93333V1.06667C11.2 0.477563 10.7224 0 10.1333 0Z" fill="white"/>
</mask>
<g mask="url(#mask0_6380_78058)">
<path d="M10.1333 0H1.06667C0.477563 0 0 0.477563 0 1.06667V6.93333C0 7.52244 0.477563 8 1.06667 8H10.1333C10.7224 8 11.2 7.52244 11.2 6.93333V1.06667C11.2 0.477563 10.7224 0 10.1333 0Z" fill="white"/>
<path fill-rule="evenodd" clip-rule="evenodd" d="M0 0H4.8V4.26667H0V0Z" fill="#0034A9"/>
<path fill-rule="evenodd" clip-rule="evenodd" d="M2.4001 2.78776L1.6161 3.20003L1.76544 2.3275L1.13184 1.70883L2.0081 1.5819L2.4001 0.787231L2.7921 1.5819L3.66837 1.7099L3.0337 2.3275L3.1841 3.20003" fill="white"/>
<path fill-rule="evenodd" clip-rule="evenodd" d="M0 4.26672H11.2V8.00006H0V4.26672Z" fill="#D7280F"/>
<path d="M10.1333 0.266724H1.0666C0.624774 0.266724 0.266602 0.624896 0.266602 1.06672V6.93339C0.266602 7.37522 0.624774 7.73339 1.0666 7.73339H10.1333C10.5751 7.73339 10.9333 7.37522 10.9333 6.93339V1.06672C10.9333 0.624896 10.5751 0.266724 10.1333 0.266724Z" stroke="black" stroke-opacity="0.1"/>
</g>
</svg>
