<svg width="25" height="24" viewBox="0 0 25 24" fill="none" xmlns="http://www.w3.org/2000/svg">
<mask id="mask0_2_680" style="mask-type:alpha" maskUnits="userSpaceOnUse" x="0" y="0" width="25" height="24">
<rect x="0.5" width="24" height="24" fill="#D9D9D9"/>
</mask>
<g mask="url(#mask0_2_680)">
<path d="M12.5045 15.1538C13.5207 15.1538 14.383 14.7982 15.0913 14.0868C15.7997 13.3755 16.1538 12.5117 16.1538 11.4955C16.1538 10.4793 15.7982 9.61698 15.0868 8.90865C14.3755 8.20032 13.5117 7.84615 12.4955 7.84615C11.4792 7.84615 10.617 8.20183 9.90863 8.91318C9.2003 9.62453 8.84613 10.4883 8.84613 11.5045C8.84613 12.5207 9.2018 13.383 9.91315 14.0913C10.6245 14.7997 11.4883 15.1538 12.5045 15.1538ZM12.5 14.2C11.75 14.2 11.1125 13.9375 10.5875 13.4125C10.0625 12.8875 9.79998 12.25 9.79998 11.5C9.79998 10.75 10.0625 10.1125 10.5875 9.5875C11.1125 9.0625 11.75 8.8 12.5 8.8C13.25 8.8 13.8875 9.0625 14.4125 9.5875C14.9375 10.1125 15.2 10.75 15.2 11.5C15.2 12.25 14.9375 12.8875 14.4125 13.4125C13.8875 13.9375 13.25 14.2 12.5 14.2ZM12.5027 18C10.3368 18 8.3628 17.4106 6.58075 16.2317C4.79869 15.0529 3.46407 13.4756 2.5769 11.5C3.46407 9.52435 4.79777 7.94711 6.578 6.76827C8.35822 5.58942 10.3313 5 12.4972 5C14.6632 5 16.6372 5.58942 18.4192 6.76827C20.2013 7.94711 21.5359 9.52435 22.4231 11.5C21.5359 13.4756 20.2022 15.0529 18.422 16.2317C16.6417 17.4106 14.6687 18 12.5027 18ZM12.5 17C14.3833 17 16.1125 16.5042 17.6875 15.5125C19.2625 14.5208 20.4666 13.1833 21.3 11.5C20.4666 9.81667 19.2625 8.47917 17.6875 7.4875C16.1125 6.49583 14.3833 6 12.5 6C10.6166 6 8.88748 6.49583 7.31248 7.4875C5.73748 8.47917 4.53331 9.81667 3.69998 11.5C4.53331 13.1833 5.73748 14.5208 7.31248 15.5125C8.88748 16.5042 10.6166 17 12.5 17Z" fill="#34343F"/>
</g>
</svg>
