<svg width="16" height="17" viewBox="0 0 16 17" fill="none" xmlns="http://www.w3.org/2000/svg">
<mask id="mask0_5459_79607" style="mask-type:alpha" maskUnits="userSpaceOnUse" x="0" y="0" width="16" height="17">
<rect y="0.5" width="16" height="16" fill="#D9D9D9"/>
</mask>
<g mask="url(#mask0_5459_79607)">
<path d="M10.2975 8.93019L9.76669 8.39942C9.86669 7.81737 9.70174 7.31352 9.27183 6.88789C8.84191 6.46225 8.34019 6.29942 7.76669 6.39942L7.23593 5.86866C7.34789 5.8225 7.46477 5.78788 7.58656 5.76481C7.70836 5.74173 7.84618 5.73019 8.00003 5.73019C8.67952 5.73019 9.25537 5.9663 9.72759 6.43852C10.1998 6.91075 10.4359 7.4866 10.4359 8.16609C10.4359 8.31993 10.4244 8.46203 10.4013 8.59237C10.3782 8.72272 10.3436 8.83532 10.2975 8.93019ZM12.4052 10.9789L11.9 10.5328C12.3222 10.2105 12.6972 9.85776 13.025 9.47442C13.3528 9.09109 13.6334 8.65498 13.8667 8.16609C13.3111 7.04387 12.5139 6.1522 11.475 5.49109C10.4361 4.82998 9.27781 4.49942 8.00003 4.49942C7.67781 4.49942 7.36114 4.52165 7.05003 4.56609C6.73892 4.61053 6.43336 4.6772 6.13336 4.76609L5.61284 4.24557C6.00002 4.09942 6.39404 3.99407 6.79489 3.92954C7.19575 3.86502 7.59746 3.83276 8.00003 3.83276C9.44704 3.83276 10.7705 4.23041 11.9705 5.02571C13.1705 5.82101 14.0522 6.8678 14.6154 8.16609C14.377 8.70199 14.075 9.20562 13.7096 9.67699C13.3443 10.1484 12.9094 10.5823 12.4052 10.9789ZM13.1487 14.5917L10.5539 12.0046C10.259 12.1353 9.89297 12.2505 9.45579 12.3501C9.01862 12.4496 8.53336 12.4994 8.00003 12.4994C6.54447 12.4994 5.22097 12.1018 4.02951 11.3065C2.83805 10.5112 1.95643 9.46438 1.38464 8.16609C1.64361 7.5772 1.98506 7.02571 2.40899 6.51161C2.83293 5.99751 3.28549 5.5661 3.76669 5.21737L1.90771 3.35071L2.37951 2.87891L13.6205 14.1199L13.1487 14.5917ZM4.23848 5.68917C3.85643 5.96096 3.46584 6.31822 3.06669 6.76096C2.66755 7.2037 2.35644 7.67208 2.13336 8.16609C2.68892 9.28831 3.48614 10.18 4.52503 10.8411C5.56392 11.5022 6.72225 11.8328 8.00003 11.8328C8.38464 11.8328 8.77224 11.7954 9.16284 11.7206C9.55344 11.6458 9.84703 11.5704 10.0436 11.4943L8.95644 10.3994C8.85131 10.4584 8.70473 10.5069 8.51669 10.5449C8.32866 10.583 8.15644 10.602 8.00003 10.602C7.32054 10.602 6.74468 10.3659 6.27246 9.89366C5.80024 9.42143 5.56413 8.84558 5.56413 8.16609C5.56413 8.01822 5.58314 7.85241 5.62118 7.66866C5.65921 7.48489 5.70772 7.3319 5.76669 7.20967L4.23848 5.68917Z" fill="#707477"/>
</g>
</svg>
