<svg width="25" height="24" viewBox="0 0 25 24" fill="none" xmlns="http://www.w3.org/2000/svg">
<g id="iconos">
<mask id="mask0_7389_24086" style="mask-type:alpha" maskUnits="userSpaceOnUse" x="0" y="0" width="25" height="24">
<rect id="Bounding box" x="0.5" width="24" height="24" fill="#D9D9D9"/>
</mask>
<g mask="url(#mask0_7389_24086)">
<path id="receipt_long" d="M6.49997 21.5C5.80127 21.5 5.20993 21.258 4.72595 20.7741C4.24198 20.2901 4 19.7002 4 19.0046V16.5001H7V2.69238L8.38462 3.88468L9.78845 2.69238L11.1923 3.88468L12.5961 2.69238L14 3.88468L15.4038 2.69238L16.8077 3.88468L18.2115 2.69238L19.6153 3.88468L21 2.69238V19C21 19.6987 20.758 20.2901 20.274 20.7741C19.79 21.258 19.1987 21.5 18.5 21.5H6.49997ZM18.5 20C18.7833 20 19.0208 19.9042 19.2125 19.7125C19.4041 19.5209 19.5 19.2834 19.5 19V5.00003H8.49998V16.5001H17.5V19C17.5 19.2834 17.5958 19.5209 17.7875 19.7125C17.9791 19.9042 18.2166 20 18.5 20ZM9.6923 8.75001V7.25006H15.3654V8.75001H9.6923ZM9.6923 11.75V10.2501H15.3654V11.75H9.6923ZM17.4423 8.88463C17.1974 8.88463 16.9888 8.79842 16.8163 8.62598C16.6439 8.45355 16.5577 8.2449 16.5577 8.00003C16.5577 7.75517 16.6439 7.54652 16.8163 7.37408C16.9888 7.20165 17.1974 7.11543 17.4423 7.11543C17.6871 7.11543 17.8958 7.20165 18.0682 7.37408C18.2407 7.54652 18.3269 7.75517 18.3269 8.00003C18.3269 8.2449 18.2407 8.45355 18.0682 8.62598C17.8958 8.79842 17.6871 8.88463 17.4423 8.88463ZM17.4423 11.8846C17.1974 11.8846 16.9888 11.7984 16.8163 11.626C16.6439 11.4536 16.5577 11.2449 16.5577 11C16.5577 10.7552 16.6439 10.5465 16.8163 10.3741C16.9888 10.2016 17.1974 10.1154 17.4423 10.1154C17.6871 10.1154 17.8958 10.2016 18.0682 10.3741C18.2407 10.5465 18.3269 10.7552 18.3269 11C18.3269 11.2449 18.2407 11.4536 18.0682 11.626C17.8958 11.7984 17.6871 11.8846 17.4423 11.8846ZM6.49997 20H16V18H5.49997V19C5.49997 19.2834 5.59581 19.5209 5.78747 19.7125C5.97914 19.9042 6.21664 20 6.49997 20Z" fill="#2E90FA"/>
</g>
</g>
</svg>
