<svg width="18" height="18" viewBox="0 0 18 18" fill="none" xmlns="http://www.w3.org/2000/svg">
<mask id="mask0_9178_65937" style="mask-type:alpha" maskUnits="userSpaceOnUse" x="0" y="0" width="18" height="18">
<rect width="18" height="18" fill="#D9D9D9"/>
</mask>
<g mask="url(#mask0_9178_65937)">
<path d="M5.48077 15.3753C5.10674 15.3753 4.78727 15.2429 4.52237 14.978C4.25746 14.7131 4.125 14.3936 4.125 14.0196V4.50035H3.375V3.37536H6.74998V2.71191H11.25V3.37536H14.625V4.50035H13.875V14.0196C13.875 14.3984 13.7437 14.7191 13.4812 14.9816C13.2187 15.2441 12.898 15.3753 12.5192 15.3753H5.48077ZM12.75 4.50035H5.24998V14.0196C5.24998 14.0869 5.27162 14.1422 5.31489 14.1854C5.35817 14.2287 5.41346 14.2503 5.48077 14.2503H12.5192C12.5769 14.2503 12.6298 14.2263 12.6779 14.1782C12.7259 14.1301 12.75 14.0773 12.75 14.0196V4.50035ZM7.05289 12.7503H8.17787V6.00035H7.05289V12.7503ZM9.82209 12.7503H10.9471V6.00035H9.82209V12.7503Z" fill="#98A2B3"/>
</g>
</svg>
