<svg width="28" height="29" viewBox="0 0 28 29" fill="none" xmlns="http://www.w3.org/2000/svg">
<g id="iconos">
<mask id="mask0_7164_80560" style="mask-type:alpha" maskUnits="userSpaceOnUse" x="0" y="0" width="28" height="29">
<rect id="Bounding box" y="0.5" width="28" height="28" fill="#D9D9D9"/>
</mask>
<g mask="url(#mask0_7164_80560)">
<path id="moving" d="M3.91013 21.0962L2.68066 19.8667L8.66205 13.8853C9.29026 13.2646 10.0475 12.9524 10.9337 12.9486C11.8199 12.9449 12.5771 13.2571 13.2053 13.8853L14.547 15.227C14.8401 15.5202 15.1864 15.6649 15.5857 15.6611C15.9851 15.6574 16.3314 15.5127 16.6245 15.227L22.3211 9.54169H18.9018V7.79175H25.3184V14.2084H23.5685V10.7891L17.854 16.4744C17.2258 17.0951 16.4667 17.4074 15.5768 17.4111C14.6868 17.4148 13.9315 17.1063 13.3108 16.4856L11.9399 15.1148C11.6587 14.8336 11.3173 14.6949 10.9157 14.6986C10.5141 14.7023 10.1727 14.8411 9.89151 15.1148L3.91013 21.0962Z" fill="#475467"/>
</g>
</g>
</svg>
