<svg width="24" height="24" viewBox="0 0 24 24" fill="none" xmlns="http://www.w3.org/2000/svg">
<g id="iconos">
<mask id="mask0_7450_7862" style="mask-type:alpha" maskUnits="userSpaceOnUse" x="0" y="0" width="24" height="24">
<rect id="Bounding box" width="24" height="24" fill="#D9D9D9"/>
</mask>
<g mask="url(#mask0_7450_7862)">
<path id="moving" d="M3.35168 17.6538L2.29785 16.6L7.42475 11.4731C7.96322 10.941 8.61225 10.6734 9.37185 10.6702C10.1315 10.667 10.7805 10.9346 11.319 11.4731L12.469 12.6231C12.7203 12.8744 13.0171 12.9984 13.3594 12.9952C13.7017 12.992 13.9985 12.8679 14.2498 12.6231L19.1325 7.74995H16.2017V6.25H21.7017V11.75H20.2017V8.81915L15.3036 13.6923C14.7651 14.2243 14.1145 14.492 13.3517 14.4952C12.5889 14.4984 11.9414 14.2339 11.4094 13.7019L10.2344 12.5269C9.99334 12.2859 9.70071 12.167 9.35648 12.1702C9.01224 12.1734 8.71961 12.2923 8.47858 12.5269L3.35168 17.6538Z" fill="#475467"/>
</g>
</g>
</svg>
