<svg width="22" height="21" viewBox="0 0 22 21" fill="none" xmlns="http://www.w3.org/2000/svg">
<g id="Group">
<g id="Group_2">
<path id="Vector" d="M18.25 6L19.19 3.94L21.25 3L19.19 2.06L18.25 0L17.31 2.06L15.25 3L17.31 3.94L18.25 6Z" fill="#475467"/>
<path id="Vector_2" d="M18.25 19L19.19 16.94L21.25 16L19.19 15.06L18.25 13L17.31 15.06L15.25 16L17.31 16.94L18.25 19Z" fill="#475467"/>
<path id="Vector_3" d="M5.25 6L6.19 3.94L8.25 3L6.19 2.06L5.25 0L4.31 2.06L2.25 3L4.31 3.94L5.25 6Z" fill="#475467"/>
<path id="Vector_4" d="M15.9596 8.12L13.1296 5.29C12.9296 5.1 12.6796 5 12.4196 5C12.1596 5 11.9096 5.1 11.7096 5.29L0.53957 16.46C0.14957 16.85 0.14957 17.48 0.53957 17.87L3.36957 20.7C3.56957 20.9 3.81957 21 4.07957 21C4.33957 21 4.58957 20.9 4.78957 20.71L15.9596 9.54C16.3496 9.15 16.3496 8.51 15.9596 8.12ZM12.2495 6.5L14.7495 9L12.7495 11L10.2495 8.5L12.2495 6.5ZM4.24951 19.5L1.74951 17L9.24951 9.5L11.7495 11.9099L4.24951 19.5Z" fill="#475467"/>
</g>
</g>
</svg>
