<svg xmlns="http://www.w3.org/2000/svg" width="25" height="26" viewBox="0 0 25 26" fill="none">
  <path d="M21.333 7.66675L22.4297 5.26341L24.833 4.16675L22.4297 3.07008L21.333 0.666748L20.2363 3.07008L17.833 4.16675L20.2363 5.26341L21.333 7.66675Z" fill="#475467"/>
  <path d="M21.333 22.8335L22.4297 20.4302L24.833 19.3335L22.4297 18.2368L21.333 15.8335L20.2363 18.2368L17.833 19.3335L20.2363 20.4302L21.333 22.8335Z" fill="#475467"/>
  <path d="M6.16602 7.66675L7.26268 5.26341L9.66602 4.16675L7.26268 3.07008L6.16602 0.666748L5.06935 3.07008L2.66602 4.16675L5.06935 5.26341L6.16602 7.66675Z" fill="#475467"/>
  <path d="M18.6613 10.14L15.3597 6.83833C15.1263 6.61667 14.8347 6.5 14.5313 6.5C14.228 6.5 13.9363 6.61667 13.703 6.83833L0.671328 19.87C0.216328 20.325 0.216328 21.06 0.671328 21.515L3.973 24.8167C4.20633 25.05 4.49799 25.1667 4.80133 25.1667C5.10466 25.1667 5.39633 25.05 5.62966 24.8283L18.6613 11.7967C19.1163 11.3417 19.1163 10.595 18.6613 10.14ZM14.3329 8.25L17.2496 11.1667L14.9163 13.5L11.9996 10.5833L14.3329 8.25ZM4.99959 23.4167L2.08293 20.5L10.8329 11.75L13.7496 14.5616L4.99959 23.4167Z" fill="#475467"/>
</svg>