<svg width="39" height="38" viewBox="0 0 39 38" fill="none" xmlns="http://www.w3.org/2000/svg">
<g id="iconos">
<mask id="mask0_8232_48549" style="mask-type:alpha" maskUnits="userSpaceOnUse" x="0" y="0" width="39" height="38">
<rect id="Bounding box" x="0.5" width="38" height="38" fill="#D9D9D9"/>
</mask>
<g mask="url(#mask0_8232_48549)">
<path id="moving" d="M5.80723 27.9518L4.13867 26.2832L12.2563 18.1656C13.1088 17.3232 14.1365 16.8995 15.3392 16.8944C16.5419 16.8893 17.5695 17.3131 18.4221 18.1656L20.243 19.9865C20.6408 20.3843 21.1107 20.5807 21.6527 20.5756C22.1947 20.5705 22.6646 20.3742 23.0625 19.9865L30.7935 12.2707H26.1531V9.89575H34.8614V18.604H32.4864V13.9636L24.7311 21.6794C23.8785 22.5218 22.8484 22.9455 21.6406 22.9506C20.4328 22.9556 19.4077 22.537 18.5653 21.6946L16.7048 19.8341C16.3232 19.4525 15.8599 19.2643 15.3148 19.2693C14.7698 19.2744 14.3065 19.4627 13.9248 19.8341L5.80723 27.9518Z" fill="#475467"/>
</g>
</g>
</svg>
