<svg width="24" height="24" viewBox="0 0 24 24" fill="none" xmlns="http://www.w3.org/2000/svg">
<g id="iconos">
<mask id="mask0_7450_7893" style="mask-type:alpha" maskUnits="userSpaceOnUse" x="0" y="0" width="24" height="24">
<rect id="Bounding box" width="24" height="24" fill="#D9D9D9"/>
</mask>
<g mask="url(#mask0_7450_7893)">
<path id="quiz" d="M13.7499 14.7692C13.9948 14.7692 14.2086 14.6779 14.3913 14.4952C14.574 14.3125 14.6653 14.0987 14.6653 13.8538C14.6653 13.6089 14.574 13.3952 14.3913 13.2125C14.2086 13.0298 13.9948 12.9385 13.7499 12.9385C13.5051 12.9385 13.2913 13.0298 13.1086 13.2125C12.9259 13.3952 12.8345 13.6089 12.8345 13.8538C12.8345 14.0987 12.9259 14.3125 13.1086 14.4952C13.2913 14.6779 13.5051 14.7692 13.7499 14.7692ZM13.1538 11.7615H14.3461C14.3589 11.3102 14.4169 10.9753 14.5201 10.7567C14.6233 10.5381 14.8679 10.2423 15.2538 9.8692C15.7153 9.4269 16.0294 9.05318 16.1961 8.74805C16.3627 8.44293 16.4461 8.08845 16.4461 7.6846C16.4461 6.97307 16.1948 6.38621 15.6922 5.92403C15.1897 5.46184 14.5422 5.23075 13.7499 5.23075C13.1307 5.23075 12.5862 5.40158 12.1163 5.74325C11.6464 6.08492 11.3051 6.54357 11.0922 7.1192L12.173 7.57305C12.3422 7.1692 12.5592 6.86632 12.824 6.6644C13.0887 6.46247 13.3974 6.3615 13.7499 6.3615C14.1884 6.3615 14.5486 6.48843 14.8307 6.74228C15.1128 6.99613 15.2538 7.33074 15.2538 7.74613C15.2538 7.99869 15.1823 8.23556 15.0394 8.45673C14.8964 8.67788 14.6487 8.94999 14.2961 9.27308C13.8102 9.69871 13.4983 10.057 13.3605 10.3481C13.2227 10.6391 13.1538 11.1102 13.1538 11.7615ZM8.05765 17.5C7.55252 17.5 7.12496 17.325 6.77498 16.975C6.42498 16.625 6.24998 16.1974 6.24998 15.6923V4.3077C6.24998 3.80257 6.42498 3.375 6.77498 3.025C7.12496 2.675 7.55252 2.5 8.05765 2.5H19.4422C19.9473 2.5 20.3749 2.675 20.7249 3.025C21.0749 3.375 21.2499 3.80257 21.2499 4.3077V15.6923C21.2499 16.1974 21.0749 16.625 20.7249 16.975C20.3749 17.325 19.9473 17.5 19.4422 17.5H8.05765ZM8.05765 16H19.4422C19.5191 16 19.5897 15.9679 19.6538 15.9038C19.7179 15.8397 19.7499 15.7692 19.7499 15.6923V4.3077C19.7499 4.23077 19.7179 4.16024 19.6538 4.09613C19.5897 4.03203 19.5191 3.99998 19.4422 3.99998H8.05765C7.98072 3.99998 7.9102 4.03203 7.8461 4.09613C7.78198 4.16024 7.74993 4.23077 7.74993 4.3077V15.6923C7.74993 15.7692 7.78198 15.8397 7.8461 15.9038C7.9102 15.9679 7.98072 16 8.05765 16ZM4.55768 20.9999C4.05256 20.9999 3.625 20.8249 3.275 20.4749C2.925 20.1249 2.75 19.6973 2.75 19.1922V6.3077H4.24998V19.1922C4.24998 19.2692 4.28202 19.3397 4.34613 19.4038C4.41024 19.4679 4.48076 19.5 4.55768 19.5H17.4422V20.9999H4.55768Z" fill="#475467"/>
</g>
</g>
</svg>
