<svg width="34" height="34" viewBox="0 0 34 34" fill="none" xmlns="http://www.w3.org/2000/svg">
<g id="Group">
<g id="Group_2">
<path id="Vector" d="M29.167 10.0833L30.6553 6.82159L33.917 5.33325L30.6553 3.84492L29.167 0.583252L27.6787 3.84492L24.417 5.33325L27.6787 6.82159L29.167 10.0833Z" fill="#475467"/>
<path id="Vector_2" d="M29.167 30.6665L30.6553 27.4048L33.917 25.9165L30.6553 24.4282L29.167 21.1665L27.6787 24.4282L24.417 25.9165L27.6787 27.4048L29.167 30.6665Z" fill="#475467"/>
<path id="Vector_3" d="M8.58398 10.0833L10.0723 6.82159L13.334 5.33325L10.0723 3.84492L8.58398 0.583252L7.09565 3.84492L3.83398 5.33325L7.09565 6.82159L8.58398 10.0833Z" fill="#475467"/>
<path id="Vector_4" d="M25.5412 13.44L21.0604 8.95917C20.7437 8.65833 20.3479 8.5 19.9362 8.5C19.5245 8.5 19.1287 8.65833 18.812 8.95917L1.12621 26.645C0.508711 27.2625 0.508711 28.26 1.12621 28.8775L5.60704 33.3583C5.92371 33.675 6.31954 33.8333 6.73121 33.8333C7.14288 33.8333 7.53871 33.675 7.85538 33.3742L25.5412 15.6883C26.1587 15.0708 26.1587 14.0575 25.5412 13.44ZM19.667 10.875L23.6253 14.8333L20.4586 18L16.5003 14.0417L19.667 10.875ZM7.00029 31.4583L3.04195 27.5L14.917 15.625L18.8753 19.4407L7.00029 31.4583Z" fill="#475467"/>
</g>
</g>
</svg>
