<svg width="21" height="21" viewBox="0 0 21 21" fill="none" xmlns="http://www.w3.org/2000/svg">
<g id="Group">
<g id="Group_2">
<path id="Vector" d="M18 6L18.94 3.94L21 3L18.94 2.06L18 0L17.06 2.06L15 3L17.06 3.94L18 6Z" fill="#475467"/>
<path id="Vector_2" d="M18 19L18.94 16.94L21 16L18.94 15.06L18 13L17.06 15.06L15 16L17.06 16.94L18 19Z" fill="#475467"/>
<path id="Vector_3" d="M5 6L5.94 3.94L8 3L5.94 2.06L5 0L4.06 2.06L2 3L4.06 3.94L5 6Z" fill="#475467"/>
<path id="Vector_4" d="M15.7096 8.12L12.8796 5.29C12.6796 5.1 12.4296 5 12.1696 5C11.9096 5 11.6596 5.1 11.4596 5.29L0.28957 16.46C-0.10043 16.85 -0.10043 17.48 0.28957 17.87L3.11957 20.7C3.31957 20.9 3.56957 21 3.82957 21C4.08957 21 4.33957 20.9 4.53957 20.71L15.7096 9.54C16.0996 9.15 16.0996 8.51 15.7096 8.12ZM11.9995 6.5L14.4995 9L12.4995 11L9.99951 8.5L11.9995 6.5ZM3.99951 19.5L1.49951 17L8.99951 9.5L11.4995 11.9099L3.99951 19.5Z" fill="#475467"/>
</g>
</g>
</svg>
