<svg width="25" height="24" viewBox="0 0 25 24" fill="none" xmlns="http://www.w3.org/2000/svg">
<g id="iconos">
<mask id="mask0_7389_24094" style="mask-type:alpha" maskUnits="userSpaceOnUse" x="0" y="0" width="25" height="24">
<rect id="Bounding box" x="0.5" width="24" height="24" fill="#D9D9D9"/>
</mask>
<g mask="url(#mask0_7389_24094)">
<path id="apartment" d="M3.75 20.5769V7.0769H7.75V3.0769H17.25V11.0769H21.25V20.5769H13.75V16.5769H11.25V20.5769H3.75ZM5.24995 19.0769H7.75V16.5769H5.24995V19.0769ZM5.24995 15.0769H7.75V12.5769H5.24995V15.0769ZM5.24995 11.0769H7.75V8.57688H5.24995V11.0769ZM9.24995 15.0769H11.75V12.5769H9.24995V15.0769ZM9.24995 11.0769H11.75V8.57688H9.24995V11.0769ZM9.24995 7.0769H11.75V4.57688H9.24995V7.0769ZM13.25 15.0769H15.75V12.5769H13.25V15.0769ZM13.25 11.0769H15.75V8.57688H13.25V11.0769ZM13.25 7.0769H15.75V4.57688H13.25V7.0769ZM17.25 19.0769H19.75V16.5769H17.25V19.0769ZM17.25 15.0769H19.75V12.5769H17.25V15.0769Z" fill="#2E90FA"/>
</g>
</g>
</svg>
