<svg width="25" height="24" viewBox="0 0 25 24" fill="none" xmlns="http://www.w3.org/2000/svg">
<g id="iconos">
<mask id="mask0_3716_4674" style="mask-type:alpha" maskUnits="userSpaceOnUse" x="0" y="0" width="25" height="24">
<rect id="Bounding box" x="0.5" width="24" height="24" fill="#D9D9D9"/>
</mask>
<g mask="url(#mask0_3716_4674)">
<path id="plagiarism" d="M11.5654 15.9231C11.891 15.9231 12.2029 15.8728 12.501 15.7721C12.799 15.6715 13.0795 15.5333 13.3423 15.3577L16.0615 18.0769L16.7692 17.3692L14.05 14.65C14.2513 14.4 14.3958 14.1228 14.4837 13.8183C14.5715 13.5138 14.6154 13.1987 14.6154 12.8731C14.6154 12.0474 14.325 11.3494 13.7442 10.7789C13.1635 10.2083 12.4538 9.92307 11.6154 9.92307C10.7769 9.92307 10.0673 10.2135 9.48655 10.7942C8.90577 11.375 8.61537 12.0846 8.61537 12.9231C8.61537 13.7615 8.90063 14.4712 9.47115 15.0519C10.0417 15.6327 10.7397 15.9231 11.5654 15.9231ZM11.6154 14.9231C11.0705 14.9231 10.601 14.726 10.2067 14.3317C9.81251 13.9375 9.6154 13.4679 9.6154 12.9231C9.6154 12.3782 9.81251 11.9087 10.2067 11.5144C10.601 11.1202 11.0705 10.9231 11.6154 10.9231C12.1603 10.9231 12.6298 11.1202 13.0241 11.5144C13.4183 11.9087 13.6154 12.3782 13.6154 12.9231C13.6154 13.4679 13.4183 13.9375 13.0241 14.3317C12.6298 14.726 12.1603 14.9231 11.6154 14.9231ZM7.11537 21C6.65512 21 6.27083 20.8458 5.9625 20.5375C5.65417 20.2292 5.5 19.8449 5.5 19.3846V4.61537C5.5 4.15512 5.65417 3.77083 5.9625 3.4625C6.27083 3.15417 6.65512 3 7.11537 3H15L19.5 7.5V19.3846C19.5 19.8449 19.3458 20.2292 19.0375 20.5375C18.7292 20.8458 18.3449 21 17.8846 21H7.11537ZM14.5 8V4H7.11537C6.96154 4 6.82052 4.0641 6.6923 4.1923C6.5641 4.32052 6.5 4.46154 6.5 4.61537V19.3846C6.5 19.5385 6.5641 19.6795 6.6923 19.8077C6.82052 19.9359 6.96154 20 7.11537 20H17.8846C18.0385 20 18.1795 19.9359 18.3077 19.8077C18.4359 19.6795 18.5 19.5385 18.5 19.3846V8H14.5Z" fill="#FFA800"/>
</g>
</g>
</svg>
