<svg width="153" height="152" viewBox="0 0 153 152" fill="none" xmlns="http://www.w3.org/2000/svg">
<g id="Advantages-amico 1">
<g id="freepik--Floor--inject-87">
<path id="freepik--floor--inject-87" d="M25.8931 75.1669C-2.05664 91.3033 -2.0536 117.466 25.8931 133.602C53.8398 149.738 99.1571 149.738 127.104 133.602C155.051 117.466 155.051 91.3033 127.104 75.1669C99.1571 59.0306 53.8429 59.0306 25.8931 75.1669Z" fill="#FAFAFA"/>
</g>
<g id="freepik--Shadows--inject-87">
<path id="freepik--Shadow--inject-87" d="M122.088 138.749C133.834 138.749 143.356 133.251 143.356 126.47C143.356 119.689 133.834 114.191 122.088 114.191C110.342 114.191 100.82 119.689 100.82 126.47C100.82 133.251 110.342 138.749 122.088 138.749Z" fill="#E0E0E0"/>
<path id="freepik--shadow--inject-87" d="M70.8334 102.913L16.9981 133.979C16.463 134.283 16.463 134.79 16.9981 135.101L24.1664 139.232C24.4673 139.383 24.7994 139.462 25.1362 139.462C25.4729 139.462 25.805 139.383 26.1059 139.232L79.9443 108.163C80.4794 107.859 80.4794 107.351 79.9443 107.041L72.776 102.913C72.4746 102.762 72.142 102.683 71.8047 102.683C71.4674 102.683 71.1348 102.762 70.8334 102.913Z" fill="#E0E0E0"/>
</g>
<g id="freepik--Gears--inject-87">
<g id="freepik--gears--inject-87">
<path id="Vector" d="M73.8978 128.091L71.5053 129.2C71.3313 129.27 71.1393 129.282 70.9581 129.234C70.3497 129.045 69.7291 128.897 69.1006 128.793C69.0169 128.775 68.9399 128.734 68.8785 128.674C68.8172 128.615 68.774 128.539 68.7541 128.455L68.4501 126.881C68.435 126.798 68.3921 126.723 68.3286 126.667C68.265 126.612 68.1846 126.58 68.1005 126.577H64.644C64.5601 126.58 64.4797 126.612 64.4166 126.667C64.3535 126.722 64.3114 126.798 64.2974 126.881L63.9934 128.455C63.9735 128.539 63.9303 128.615 63.869 128.674C63.8076 128.734 63.7306 128.775 63.6469 128.793C63.0194 128.897 62.3998 129.044 61.7925 129.234C61.6102 129.282 61.4173 129.27 61.2422 129.2L58.8528 128.094C58.7692 128.059 58.6793 128.044 58.589 128.047C58.4988 128.051 58.4104 128.074 58.3299 128.115L55.9678 129.477C55.9405 129.491 55.9174 129.512 55.9008 129.538C55.8842 129.564 55.8746 129.594 55.8731 129.624C55.8715 129.655 55.8781 129.686 55.892 129.713C55.906 129.741 55.9269 129.764 55.9526 129.781L57.8222 131.128C57.8532 131.148 57.8791 131.175 57.8983 131.206C57.9174 131.238 57.9291 131.273 57.9326 131.31C57.9361 131.347 57.9313 131.384 57.9185 131.419C57.9057 131.454 57.8853 131.485 57.8587 131.511C57.5999 131.792 57.3754 132.103 57.1899 132.438C57.1452 132.514 57.0836 132.579 57.0099 132.628C56.9361 132.677 56.8521 132.709 56.7643 132.72L53.621 132.918C53.5418 132.922 53.4669 132.956 53.4108 133.012C53.3548 133.068 53.3213 133.143 53.317 133.222V134.976C53.317 135.057 53.349 135.134 53.406 135.191C53.463 135.248 53.5403 135.28 53.621 135.28L56.7643 135.481C56.8523 135.492 56.9364 135.523 57.0103 135.572C57.0841 135.621 57.1456 135.687 57.1899 135.764C57.3756 136.093 57.6001 136.399 57.8587 136.676C57.8848 136.702 57.9048 136.733 57.9173 136.768C57.9298 136.803 57.9344 136.84 57.9309 136.877C57.9275 136.914 57.9159 136.95 57.8971 136.981C57.8783 137.013 57.8528 137.041 57.8222 137.062L55.9526 138.405C55.9229 138.421 55.8983 138.445 55.8816 138.474C55.865 138.503 55.857 138.536 55.8586 138.57C55.8602 138.603 55.8713 138.636 55.8907 138.663C55.91 138.69 55.9368 138.712 55.9678 138.724L58.3299 140.089C58.4106 140.13 58.4989 140.152 58.5891 140.156C58.6792 140.16 58.7691 140.144 58.8528 140.111L61.2422 139.004C61.4162 138.934 61.6082 138.922 61.7894 138.971C62.3978 139.16 63.0184 139.307 63.6469 139.412C63.7306 139.429 63.8076 139.47 63.869 139.53C63.9303 139.59 63.9735 139.666 63.9934 139.749L64.2974 141.324C64.312 141.407 64.3547 141.482 64.4184 141.538C64.482 141.593 64.5627 141.625 64.647 141.628H68.1187C68.203 141.625 68.2837 141.593 68.3474 141.538C68.411 141.482 68.4537 141.407 68.4683 141.324L68.7723 139.749C68.7923 139.666 68.8354 139.59 68.8968 139.53C68.9581 139.47 69.0351 139.429 69.1189 139.412C69.7473 139.307 70.3679 139.16 70.9763 138.971C71.1575 138.922 71.3495 138.934 71.5235 139.004L73.916 140.111C73.9992 140.144 74.0886 140.16 74.1782 140.156C74.2678 140.152 74.3557 140.13 74.4358 140.089L76.7979 138.724C76.829 138.712 76.8557 138.69 76.8751 138.663C76.8944 138.636 76.9056 138.603 76.9072 138.57C76.9088 138.536 76.9008 138.503 76.8841 138.474C76.8674 138.445 76.8428 138.421 76.8131 138.405L74.9253 137.104C74.8947 137.083 74.8692 137.056 74.8504 137.024C74.8316 136.992 74.8201 136.957 74.8166 136.92C74.8131 136.883 74.8178 136.846 74.8302 136.811C74.8427 136.776 74.8627 136.744 74.8888 136.718C75.1474 136.442 75.3719 136.136 75.5576 135.806C75.6021 135.729 75.6636 135.664 75.7374 135.615C75.8112 135.566 75.8953 135.535 75.9832 135.523L79.1266 135.323C79.2072 135.323 79.2845 135.291 79.3415 135.234C79.3985 135.177 79.4306 135.099 79.4306 135.019V133.265C79.4269 133.185 79.3936 133.11 79.3374 133.054C79.2812 132.998 79.206 132.964 79.1266 132.961L75.9832 132.763C75.8953 132.752 75.8112 132.72 75.7374 132.671C75.6636 132.622 75.6021 132.557 75.5576 132.48C75.3721 132.146 75.1476 131.835 74.8888 131.553C74.8622 131.527 74.8418 131.496 74.829 131.461C74.8162 131.427 74.8114 131.39 74.8149 131.353C74.8184 131.316 74.8301 131.281 74.8493 131.249C74.8684 131.217 74.8943 131.19 74.9253 131.17L76.804 129.808C76.8298 129.791 76.8507 129.768 76.8646 129.741C76.8786 129.713 76.8851 129.683 76.8836 129.652C76.882 129.621 76.8725 129.591 76.8559 129.565C76.8392 129.539 76.8161 129.518 76.7888 129.504L74.4267 128.142C74.3476 128.096 74.2593 128.067 74.1679 128.058C74.0766 128.049 73.9844 128.06 73.8978 128.091ZM70.3592 131.824C72.5602 133.094 72.5602 135.168 70.3592 136.426C68.1582 137.685 64.5832 137.697 62.3853 136.426C60.1874 135.156 60.1813 133.082 62.3853 131.824C64.5893 130.565 68.1552 130.553 70.3592 131.824Z" fill="#E6E6E6"/>
<path id="Vector_2" d="M92.308 122.12L90.5357 122.941C90.4061 122.993 90.2632 123.001 90.1283 122.965C89.6781 122.826 89.219 122.717 88.7543 122.64C88.6924 122.626 88.6355 122.596 88.5899 122.552C88.5443 122.508 88.5117 122.452 88.4959 122.391L88.277 121.223C88.263 121.164 88.2299 121.11 88.1827 121.071C88.1355 121.032 88.0767 121.01 88.0155 121.007H85.4467C85.3858 121.009 85.3272 121.032 85.2804 121.071C85.2336 121.11 85.2012 121.164 85.1883 121.223L84.9664 122.391C84.9505 122.452 84.918 122.508 84.8724 122.552C84.8268 122.596 84.7699 122.626 84.708 122.64C84.2432 122.717 83.7842 122.826 83.3339 122.965C83.2001 123.001 83.0581 122.993 82.9296 122.941L81.1573 122.12C81.0947 122.096 81.0278 122.085 80.9608 122.088C80.8938 122.091 80.8282 122.108 80.7682 122.138L79.0202 123.147C78.9976 123.158 78.9784 123.175 78.965 123.196C78.9516 123.217 78.9445 123.241 78.9445 123.266C78.9445 123.291 78.9516 123.315 78.965 123.336C78.9784 123.357 78.9976 123.374 79.0202 123.385L80.4064 124.382C80.429 124.397 80.4478 124.417 80.4616 124.44C80.4754 124.464 80.4838 124.49 80.4861 124.517C80.4884 124.544 80.4847 124.572 80.4751 124.597C80.4655 124.623 80.4504 124.646 80.4307 124.664C80.2401 124.873 80.0748 125.104 79.9383 125.351C79.9061 125.407 79.8622 125.454 79.8096 125.49C79.7571 125.527 79.6972 125.551 79.6343 125.561L77.3056 125.707C77.2465 125.712 77.1912 125.738 77.1506 125.782C77.1101 125.825 77.0873 125.882 77.0867 125.941V127.239C77.0874 127.298 77.1103 127.355 77.1509 127.398C77.1915 127.441 77.2467 127.467 77.3056 127.47L79.6343 127.619C79.6974 127.629 79.7576 127.653 79.8102 127.69C79.8628 127.726 79.9066 127.774 79.9383 127.829C80.0742 128.076 80.2395 128.306 80.4307 128.513C80.4504 128.532 80.4656 128.555 80.4752 128.581C80.4847 128.607 80.4885 128.634 80.4862 128.662C80.4839 128.689 80.4755 128.716 80.4617 128.739C80.4479 128.763 80.429 128.783 80.4064 128.799L78.9959 129.808C78.9733 129.819 78.9541 129.835 78.9407 129.856C78.9273 129.877 78.9202 129.902 78.9202 129.927C78.9202 129.952 78.9273 129.976 78.9407 129.997C78.9541 130.018 78.9733 130.035 78.9959 130.045L80.7439 131.055C80.8034 131.084 80.8685 131.101 80.935 131.104C81.0015 131.108 81.0679 131.097 81.1299 131.073L82.9023 130.249C83.0325 130.2 83.1745 130.191 83.3096 130.225C83.7594 130.366 84.2185 130.476 84.6837 130.553C84.7456 130.567 84.8025 130.597 84.8481 130.641C84.8937 130.685 84.9262 130.741 84.9421 130.802L85.164 131.97C85.1769 132.029 85.2093 132.083 85.2561 132.122C85.3029 132.161 85.3614 132.183 85.4224 132.185H87.9912C88.0524 132.183 88.1111 132.161 88.1584 132.122C88.2056 132.083 88.2387 132.029 88.2527 131.97L88.4715 130.802C88.4874 130.741 88.52 130.685 88.5656 130.641C88.6112 130.597 88.6681 130.567 88.7299 130.553C89.1951 130.476 89.6542 130.366 90.104 130.225C90.2391 130.191 90.3811 130.2 90.5114 130.249L92.2837 131.073C92.3457 131.097 92.4122 131.108 92.4787 131.105C92.5452 131.102 92.6103 131.085 92.6698 131.055L94.4178 130.045C94.4404 130.035 94.4595 130.018 94.4729 129.997C94.4863 129.976 94.4934 129.952 94.4934 129.927C94.4934 129.902 94.4863 129.877 94.4729 129.856C94.4595 129.835 94.4404 129.819 94.4178 129.808L93.0315 128.811C93.0089 128.795 92.99 128.775 92.9762 128.751C92.9624 128.728 92.9541 128.701 92.9518 128.674C92.9494 128.647 92.9532 128.619 92.9628 128.593C92.9724 128.568 92.9875 128.544 93.0072 128.525C93.1984 128.318 93.3638 128.088 93.4997 127.841C93.5314 127.786 93.5751 127.738 93.6278 127.702C93.6804 127.665 93.7405 127.641 93.8037 127.631L96.1323 127.483C96.1912 127.479 96.2465 127.453 96.2871 127.41C96.3277 127.367 96.3506 127.31 96.3512 127.251V125.953C96.3506 125.894 96.3278 125.837 96.2873 125.794C96.2468 125.75 96.1915 125.724 96.1323 125.719L93.828 125.552C93.7648 125.542 93.7045 125.519 93.6519 125.482C93.5992 125.446 93.5555 125.398 93.524 125.342C93.3863 125.095 93.22 124.864 93.0285 124.655C93.0089 124.636 92.9937 124.613 92.9841 124.588C92.9746 124.563 92.9708 124.535 92.9731 124.508C92.9755 124.481 92.9838 124.455 92.9976 124.431C93.0114 124.408 93.0303 124.388 93.0528 124.373L94.4391 123.375C94.4617 123.365 94.4808 123.348 94.4942 123.327C94.5076 123.306 94.5147 123.282 94.5147 123.257C94.5147 123.232 94.5076 123.208 94.4942 123.187C94.4808 123.166 94.4617 123.149 94.4391 123.138L92.6911 122.129C92.6314 122.101 92.5665 122.086 92.5005 122.084C92.4345 122.083 92.369 122.095 92.308 122.12ZM89.6845 124.883C91.317 125.826 91.317 127.355 89.6845 128.294C88.052 129.234 85.4103 129.237 83.7778 128.294C82.1453 127.352 82.1453 125.826 83.7778 124.883C85.4103 123.941 88.052 123.944 89.6723 124.883H89.6845Z" fill="#E6E6E6"/>
</g>
</g>
<g id="freepik--Plants--inject-87">
<g id="freepik--plants--inject-87">
<path id="Vector_3" d="M31.1312 136.317L34.5177 134.368C34.5177 134.368 36.5363 125.987 35.7337 118.445C34.6059 107.844 27.6261 103.853 24.9721 104.765C22.3182 105.677 21.5491 108.765 25.9419 115.079C28.5289 118.8 31.7118 126.558 31.1312 136.317Z" fill="#FFAD15"/>
<g id="Group" opacity="0.65">
<path id="Vector_4" d="M31.1312 136.317L34.5177 134.368C34.5177 134.368 36.5363 125.987 35.7337 118.445C34.6059 107.844 27.6261 103.853 24.9721 104.765C22.3182 105.677 21.5491 108.765 25.9419 115.079C28.5289 118.8 31.7118 126.558 31.1312 136.317Z" fill="white"/>
</g>
<path id="Vector_5" d="M32.5356 132.198H32.5022C32.4718 132.192 32.4428 132.181 32.4168 132.164C32.3909 132.147 32.3685 132.125 32.351 132.1C32.3335 132.075 32.3212 132.046 32.3148 132.016C32.3084 131.985 32.308 131.954 32.3137 131.924C34.1712 122.144 30.7572 111.155 26.5377 106.582C26.5159 106.561 26.4986 106.535 26.4869 106.506C26.4751 106.478 26.469 106.448 26.469 106.417C26.469 106.386 26.4751 106.356 26.4869 106.327C26.4986 106.299 26.5159 106.273 26.5377 106.251C26.5821 106.207 26.6423 106.182 26.7049 106.182C26.7676 106.182 26.8277 106.207 26.8721 106.251C31.1798 110.908 34.6606 122.077 32.7758 132C32.7669 132.057 32.7375 132.108 32.6933 132.144C32.649 132.181 32.5929 132.2 32.5356 132.198Z" fill="white"/>
<path id="Vector_6" d="M22.6009 141.239C22.0963 141.497 20.7496 140.345 20.3726 140.065C19.7303 139.577 19.2237 138.932 18.9013 138.192C18.5428 137.354 18.4535 136.424 18.6459 135.532C18.7457 135.061 18.8777 134.597 19.0411 134.143C19.1931 133.696 19.3451 133.246 19.5032 132.8C19.6828 132.367 19.7738 131.903 19.7707 131.435C19.6977 130.495 18.9043 129.799 18.1808 129.197C17.3782 128.531 16.5544 127.677 16.6152 126.543C16.6608 125.677 17.1502 124.896 17.7217 124.242C18.2933 123.588 18.9621 123.026 19.4819 122.327C19.8913 121.847 20.1222 121.24 20.1355 120.609C20.1031 120.221 19.9924 119.844 19.8102 119.5C19.4515 118.749 18.9621 118.052 18.728 117.253C18.4939 116.453 18.5821 115.481 19.2235 114.949C19.7494 114.511 20.5003 114.487 21.1813 114.566C21.8145 114.676 22.4161 114.923 22.9445 115.289C24.6773 116.368 25.5893 118.533 27.4437 119.39C28.1581 119.721 28.9637 119.825 29.7054 120.065C30.4472 120.305 31.2254 120.734 31.5294 121.454C32.1374 122.877 30.7785 124.522 31.192 126.014C31.5568 127.34 32.8001 127.902 33.4507 129.112C33.7155 129.645 33.8019 130.25 33.6969 130.836C33.5844 131.829 33.2919 132.793 32.8336 133.681C32.317 134.593 31.7454 135.472 31.1221 136.314C31.1221 136.314 22.6891 141.199 22.6009 141.239Z" fill="#FFAD15"/>
<g id="Group_2" opacity="0.3">
<path id="Vector_7" d="M22.6009 141.239C22.0963 141.497 20.7496 140.345 20.3726 140.065C19.7303 139.577 19.2237 138.932 18.9013 138.192C18.5428 137.354 18.4535 136.424 18.6459 135.532C18.7457 135.061 18.8777 134.597 19.0411 134.143C19.1931 133.696 19.3451 133.246 19.5032 132.8C19.6828 132.367 19.7738 131.903 19.7707 131.435C19.6977 130.495 18.9043 129.799 18.1808 129.197C17.3782 128.531 16.5544 127.677 16.6152 126.543C16.6608 125.677 17.1502 124.896 17.7217 124.242C18.2933 123.588 18.9621 123.026 19.4819 122.327C19.8913 121.847 20.1222 121.24 20.1355 120.609C20.1031 120.221 19.9924 119.844 19.8102 119.5C19.4515 118.749 18.9621 118.052 18.728 117.253C18.4939 116.453 18.5821 115.481 19.2235 114.949C19.7494 114.511 20.5003 114.487 21.1813 114.566C21.8145 114.676 22.4161 114.923 22.9445 115.289C24.6773 116.368 25.5893 118.533 27.4437 119.39C28.1581 119.721 28.9637 119.825 29.7054 120.065C30.4472 120.305 31.2254 120.734 31.5294 121.454C32.1374 122.877 30.7785 124.522 31.192 126.014C31.5568 127.34 32.8001 127.902 33.4507 129.112C33.7155 129.645 33.8019 130.25 33.6969 130.836C33.5844 131.829 33.2919 132.793 32.8336 133.681C32.317 134.593 31.7454 135.472 31.1221 136.314C31.1221 136.314 22.6891 141.199 22.6009 141.239Z" fill="white"/>
</g>
<path id="Vector_8" d="M27.5075 138.682C27.4782 138.68 27.4495 138.672 27.4233 138.659C27.397 138.646 27.3737 138.627 27.3547 138.605C27.3357 138.583 27.3214 138.557 27.3126 138.529C27.3039 138.501 27.3009 138.471 27.3038 138.442C28.1124 129.647 24.4523 119.706 21.5734 116.727C21.5354 116.686 21.5143 116.631 21.5143 116.575C21.5143 116.519 21.5354 116.465 21.5734 116.423C21.6146 116.384 21.6689 116.363 21.7254 116.363C21.7819 116.363 21.8362 116.384 21.8774 116.423C24.814 119.463 28.5654 129.568 27.7294 138.487C27.7233 138.542 27.6972 138.592 27.6562 138.628C27.6151 138.664 27.5621 138.683 27.5075 138.682Z" fill="white"/>
<path id="Vector_9" d="M26.6411 127.838C26.6199 127.841 26.5984 127.841 26.5773 127.838C23.7805 126.808 20.2571 126.464 20.2237 126.464C20.1946 126.462 20.1663 126.454 20.1404 126.44C20.1145 126.427 20.0915 126.409 20.0728 126.386C20.0541 126.364 20.0401 126.338 20.0315 126.31C20.023 126.282 20.0201 126.253 20.023 126.224C20.0244 126.195 20.0319 126.166 20.045 126.139C20.0581 126.113 20.0766 126.09 20.0991 126.071C20.1217 126.052 20.1479 126.038 20.1762 126.03C20.2044 126.022 20.234 126.019 20.2632 126.023C20.2997 126.023 23.8777 126.364 26.7201 127.4C26.7716 127.418 26.8149 127.453 26.842 127.5C26.8691 127.547 26.8781 127.602 26.8672 127.655C26.8564 127.708 26.8265 127.756 26.7831 127.788C26.7398 127.821 26.686 127.836 26.632 127.832L26.6411 127.838Z" fill="white"/>
</g>
</g>
<g id="freepik--List--inject-87">
<g id="freepik--Clipboard--inject-87">
<g id="freepik--Board--inject-87">
<g id="freepik--Window--inject-87">
<path id="Vector_10" d="M90.3016 8.37528L38.5547 38.2159C38.2727 38.3989 38.0381 38.6461 37.8701 38.9373C37.7021 39.2284 37.6054 39.5553 37.588 39.891V134.763C37.6062 135.099 37.7036 135.425 37.8721 135.716C38.0407 136.006 38.2756 136.253 38.5578 136.435L38.7523 136.548C39.0532 136.699 39.3853 136.778 39.7221 136.778C40.0589 136.778 40.391 136.699 40.6919 136.548L92.4387 106.665C92.7211 106.481 92.956 106.234 93.1241 105.942C93.2921 105.65 93.3886 105.323 93.4055 104.986V10.1567C93.3873 9.82126 93.2899 9.49487 93.1214 9.20427C92.9528 8.91366 92.7178 8.66708 92.4357 8.48472L92.2381 8.37224C91.9376 8.2212 91.6058 8.14279 91.2695 8.14331C90.9332 8.14384 90.6016 8.22329 90.3016 8.37528Z" fill="#FFAD15"/>
<path id="Vector_11" opacity="0.45" d="M90.3016 8.37528L38.5547 38.2159C38.2727 38.3989 38.0381 38.6461 37.8701 38.9373C37.7021 39.2284 37.6054 39.5553 37.588 39.891V134.763C37.6062 135.099 37.7036 135.425 37.8721 135.716C38.0407 136.006 38.2756 136.253 38.5578 136.435L38.7523 136.548C39.0532 136.699 39.3853 136.778 39.7221 136.778C40.0589 136.778 40.391 136.699 40.6919 136.548L92.4387 106.665C92.7211 106.481 92.956 106.234 93.1241 105.942C93.2921 105.65 93.3886 105.323 93.4055 104.986V10.1567C93.3873 9.82126 93.2899 9.49487 93.1214 9.20427C92.9528 8.91366 92.7178 8.66708 92.4357 8.48472L92.2381 8.37224C91.9376 8.2212 91.6058 8.14279 91.2695 8.14331C90.9332 8.14384 90.6016 8.22329 90.3016 8.37528Z" fill="black"/>
<path id="Vector_12" d="M93.4054 105.056C93.4054 105.908 92.7974 106.449 92.0678 106.88L41.0597 136.323C40.324 136.748 39.7221 136.405 39.7221 135.551V41.5326C39.7197 41.0633 39.8416 40.6017 40.0755 40.1948C40.3094 39.788 40.6468 39.4503 41.0536 39.2162L92.0678 9.76768C92.2033 9.68909 92.3572 9.64762 92.5138 9.64746C92.6705 9.6473 92.8244 9.68845 92.96 9.76677C93.0957 9.84508 93.2083 9.95779 93.2865 10.0935C93.3647 10.2292 93.4057 10.3832 93.4054 10.5398V105.056Z" fill="#FFAD15"/>
<path id="Vector_13" opacity="0.3" d="M93.4054 105.056C93.4054 105.908 92.7974 106.449 92.0678 106.88L41.0597 136.323C40.324 136.748 39.7221 136.405 39.7221 135.551V41.5326C39.7197 41.0633 39.8416 40.6017 40.0755 40.1948C40.3094 39.788 40.6468 39.4503 41.0536 39.2162L92.0678 9.76768C92.2033 9.68909 92.3572 9.64762 92.5138 9.64746C92.6705 9.6473 92.8244 9.68845 92.96 9.76677C93.0957 9.84508 93.2083 9.95779 93.2865 10.0935C93.3647 10.2292 93.4057 10.3832 93.4054 10.5398V105.056Z" fill="black"/>
<path id="Vector_14" d="M93.4054 10.1567V10.5367C93.4046 10.3802 93.3627 10.2267 93.2839 10.0915C93.2051 9.95632 93.0922 9.84419 92.9565 9.76633C92.8207 9.68846 92.6669 9.64759 92.5105 9.64781C92.354 9.64803 92.2003 9.68932 92.0648 9.76756L41.0536 39.216C40.6479 39.447 40.3118 39.7831 40.0808 40.1888C40.0796 40.1989 40.0796 40.2091 40.0808 40.2192L37.8707 38.9424C38.036 38.6417 38.2757 38.3884 38.5669 38.2068L90.3016 8.37524C90.6022 8.22465 90.9337 8.14624 91.2698 8.14624C91.606 8.14624 91.9375 8.22465 92.2381 8.37524L92.4357 8.48772C92.7174 8.66978 92.9521 8.91587 93.1207 9.20592C93.2892 9.49596 93.3868 9.82174 93.4054 10.1567Z" fill="#FFAD15"/>
<path id="Vector_15" opacity="0.2" d="M93.4054 10.1567V10.5367C93.4046 10.3802 93.3627 10.2267 93.2839 10.0915C93.2051 9.95632 93.0922 9.84419 92.9565 9.76633C92.8207 9.68846 92.6669 9.64759 92.5105 9.64781C92.354 9.64803 92.2003 9.68932 92.0648 9.76756L41.0536 39.216C40.6479 39.447 40.3118 39.7831 40.0808 40.1888C40.0796 40.1989 40.0796 40.2091 40.0808 40.2192L37.8707 38.9424C38.036 38.6417 38.2757 38.3884 38.5669 38.2068L90.3016 8.37524C90.6022 8.22465 90.9337 8.14624 91.2698 8.14624C91.606 8.14624 91.9375 8.22465 92.2381 8.37524L92.4357 8.48772C92.7174 8.66978 92.9521 8.91587 93.1207 9.20592C93.2892 9.49596 93.3868 9.82174 93.4054 10.1567Z" fill="black"/>
</g>
</g>
<path id="freepik--shadow--inject-87_2" opacity="0.25" d="M92.1439 101.138C92.1439 102.013 91.5359 102.573 90.7667 103.01L42.5584 130.845C41.7984 131.282 41.1783 130.93 41.1783 130.048V46.4664C41.1756 45.9829 41.301 45.5074 41.5419 45.0882C41.7827 44.669 42.1303 44.3211 42.5493 44.08L90.7667 16.2457C90.9061 16.1631 91.0649 16.1191 91.227 16.1182C91.389 16.1173 91.5483 16.1596 91.6885 16.2407C91.8288 16.3218 91.9449 16.4388 92.0249 16.5797C92.1049 16.7206 92.146 16.8802 92.1439 17.0422V101.138Z" fill="black"/>
<g id="freepik--Form--inject-87">
<g id="freepik--Paper--inject-87">
<path id="Vector_16" d="M42.4125 45.135L90.4445 17.4011C90.5722 17.3364 90.7133 17.3027 90.8564 17.3027C90.9995 17.3027 91.1406 17.3364 91.2683 17.4011L91.7304 17.6686C91.8501 17.7471 91.9496 17.8527 92.0209 17.9768C92.0922 18.1009 92.1332 18.2401 92.1408 18.383V102.351C92.1328 102.493 92.0915 102.632 92.0202 102.755C91.9489 102.879 91.8497 102.984 91.7304 103.062L43.6984 130.796C43.5707 130.861 43.4296 130.894 43.2865 130.894C43.1434 130.894 43.0022 130.861 42.8746 130.796L42.4094 130.529C42.2895 130.449 42.1901 130.342 42.1193 130.217C42.0485 130.092 42.0083 129.952 42.0021 129.808V45.8463C42.0101 45.7039 42.0514 45.5654 42.1227 45.4419C42.1939 45.3183 42.2932 45.2132 42.4125 45.135Z" fill="#F5F5F5"/>
<path id="Vector_17" d="M43.6011 130.842C43.552 130.86 43.501 130.873 43.4491 130.881H43.3701C43.2872 130.89 43.2036 130.89 43.1208 130.881C43.069 130.873 43.018 130.86 42.9688 130.842L42.8776 130.796L42.4155 130.532C42.2941 130.453 42.1932 130.346 42.1213 130.22C42.0494 130.094 42.0085 129.953 42.0021 129.808V45.8494C42.0058 45.7062 42.0478 45.5666 42.1237 45.4451L43.4096 46.1838C43.3361 46.3075 43.2943 46.4474 43.288 46.5911V130.559C43.2819 130.784 43.4218 130.893 43.6011 130.842Z" fill="#E0E0E0"/>
<path id="Vector_18" d="M91.7335 17.6686L91.2714 17.4011C91.1437 17.3364 91.0026 17.3027 90.8595 17.3027C90.7164 17.3027 90.5753 17.3364 90.4476 17.4011L42.4156 45.135C42.2963 45.2132 42.1971 45.3183 42.1258 45.4418C42.0545 45.5654 42.0132 45.7039 42.0052 45.8463V51.0326L43.282 51.7804L92.1439 23.5723V18.383C92.1364 18.2401 92.0953 18.1009 92.024 17.9768C91.9527 17.8527 91.8532 17.7471 91.7335 17.6686Z" fill="#FFAD15"/>
<path id="Vector_19" opacity="0.4" d="M91.7335 17.6686L91.2714 17.4011C91.1437 17.3364 91.0026 17.3027 90.8595 17.3027C90.7164 17.3027 90.5753 17.3364 90.4476 17.4011L42.4156 45.135C42.2963 45.2132 42.1971 45.3183 42.1258 45.4418C42.0545 45.5654 42.0132 45.7039 42.0052 45.8463V51.0326L43.282 51.7804L92.1439 23.5723V18.383C92.1364 18.2401 92.0953 18.1009 92.024 17.9768C91.9527 17.8527 91.8532 17.7471 91.7335 17.6686Z" fill="white"/>
<path id="Vector_20" d="M92.1286 18.2584C92.08 18.0912 91.9219 18.0365 91.7334 18.1429L43.7014 45.8768C43.5746 45.9489 43.4696 46.054 43.3974 46.1808L42.1115 45.439C42.1837 45.3122 42.2887 45.2072 42.4155 45.135L90.4475 17.4041C90.5743 17.3383 90.7151 17.304 90.8579 17.304C91.0008 17.304 91.1415 17.3383 91.2683 17.4041L91.7334 17.6686C91.8354 17.7355 91.9229 17.8222 91.9908 17.9235C92.0586 18.0248 92.1055 18.1386 92.1286 18.2584Z" fill="#FFAD15"/>
<path id="Vector_21" opacity="0.6" d="M92.1286 18.2584C92.08 18.0912 91.9219 18.0365 91.7334 18.1429L43.7014 45.8768C43.5746 45.9489 43.4696 46.054 43.3974 46.1808L42.1115 45.439C42.1837 45.3122 42.2887 45.2072 42.4155 45.135L90.4475 17.4041C90.5743 17.3383 90.7151 17.304 90.8579 17.304C91.0008 17.304 91.1415 17.3383 91.2683 17.4041L91.7334 17.6686C91.8354 17.7355 91.9229 17.8222 91.9908 17.9235C92.0586 18.0248 92.1055 18.1386 92.1286 18.2584Z" fill="white"/>
<path id="Vector_22" d="M42.0021 45.8493V51.0385L43.2819 51.7803V46.588C43.2884 46.4452 43.3301 46.3063 43.4035 46.1837L42.1176 45.4419C42.0441 45.5652 42.0043 45.7057 42.0021 45.8493Z" fill="#FFAD15"/>
</g>
</g>
<g id="freepik--Clip--inject-87">
<g id="freepik--shadow--inject-87_3" opacity="0.25">
<path id="Vector_23" d="M81.0327 20.8758V25.0041C81.0053 25.5666 80.844 26.1144 80.5622 26.602C80.2804 27.0895 79.8861 27.5026 79.4124 27.807L71.4202 32.4217C71.025 32.6497 70.8122 33.1057 70.5629 33.583C70.4048 33.9443 70.2004 34.2836 69.9549 34.5923C69.3469 35.2976 67.9789 36.0302 67.0244 36.3373C66.7122 36.438 66.3917 36.5112 66.0668 36.5561C65.9452 36.5774 65.8114 36.5957 65.6716 36.6109C64.8021 36.7294 63.7138 36.8753 63.0784 37.2462L53.7244 42.6422C53.4792 42.7946 53.1982 42.8796 52.9096 42.8885C52.7178 42.8899 52.5291 42.8406 52.3624 42.7456C52.1614 42.616 51.999 42.4347 51.892 42.2208C51.785 42.0069 51.7375 41.7682 51.7544 41.5296V37.3921C51.7812 36.8299 51.9419 36.2822 52.2233 35.7946C52.5046 35.3071 52.8983 34.8938 53.3717 34.5893L56.5151 32.7653C56.5278 32.7561 56.5423 32.7499 56.5576 32.747C56.6318 32.7169 56.7143 32.7146 56.79 32.7405C56.8657 32.7665 56.9294 32.8189 56.9695 32.8882C57.0095 32.9575 57.0231 33.039 57.0077 33.1175C56.9924 33.196 56.9491 33.2664 56.886 33.3155C56.8766 33.3279 56.864 33.3374 56.8495 33.3429L53.7092 35.1669C53.3381 35.4132 53.029 35.7419 52.806 36.1274C52.5829 36.5129 52.4519 36.9447 52.4232 37.3891V41.5205C52.3878 41.6416 52.3942 41.7712 52.4414 41.8883C52.4885 42.0054 52.5737 42.1033 52.6832 42.1661C52.7927 42.2289 52.9201 42.253 53.045 42.2346C53.1699 42.2162 53.285 42.1564 53.3717 42.0646L62.738 36.6625C63.4888 36.2278 64.6471 36.0728 65.5773 35.9481L65.9664 35.8934C66.2553 35.852 66.5401 35.7859 66.8176 35.6958C67.6658 35.4283 68.9274 34.7413 69.4442 34.1515C69.6538 33.8861 69.8285 33.595 69.964 33.2851C70.2376 32.7349 70.5173 32.1694 71.0888 31.8411L79.081 27.2264C79.4521 26.9799 79.7614 26.6512 79.985 26.2658C80.2085 25.8804 80.3402 25.4487 80.37 25.0041V20.8758C80.4047 20.7544 80.3978 20.6249 80.3504 20.5078C80.303 20.3908 80.2177 20.293 80.1082 20.23C79.9988 20.1671 79.8714 20.1426 79.7463 20.1604C79.6213 20.1783 79.5059 20.2375 79.4184 20.3286L76.6916 21.8881C76.6003 21.6827 76.485 21.4888 76.348 21.3105L79.084 19.7358C79.275 19.5859 79.5064 19.4966 79.7485 19.4794C79.9906 19.4621 80.2324 19.5178 80.4426 19.6391C80.6528 19.7604 80.822 19.9418 80.9282 20.1601C81.0345 20.3783 81.073 20.6234 81.0388 20.8637L81.0327 20.8758Z" fill="black"/>
</g>
<g id="freepik--clip--inject-87">
<path id="Vector_24" d="M75.202 20.9519C75.3371 20.8884 75.4867 20.8623 75.6353 20.8762C75.7839 20.8901 75.9261 20.9435 76.0471 21.0309C76.3949 21.2581 76.684 21.5644 76.8906 21.9248C77.0972 22.2851 77.2155 22.6893 77.2357 23.1042C77.2513 23.2527 77.2267 23.4026 77.1647 23.5384C77.1027 23.6742 77.0055 23.7909 76.8831 23.8764L57.9196 34.8204L56.2385 31.9111L75.202 20.9519Z" fill="#37474F"/>
<path id="Vector_25" d="M57.0835 33.3642L76.8891 21.9247C76.6895 21.5596 76.3996 21.2519 76.0471 21.0309C76.0075 21.0096 75.9711 20.9975 75.9315 20.9792L56.433 32.2272L57.0835 33.3642Z" fill="#455A64"/>
<path id="Vector_26" d="M57.0835 31.9841C56.4269 31.6041 55.8949 31.9111 55.8949 32.6681C55.9175 33.0804 56.0369 33.4815 56.2434 33.8391C56.4499 34.1966 56.7377 34.5005 57.0835 34.7262C57.7402 35.1062 58.2722 34.7991 58.2722 34.0391C58.25 33.6271 58.1308 33.2262 57.9242 32.8691C57.7177 32.512 57.4296 32.2087 57.0835 31.9841Z" fill="#263238"/>
<path id="Vector_27" d="M81.3701 21.1677V25.2991C81.3441 25.8605 81.1847 26.4076 80.905 26.895C80.6253 27.3825 80.2335 27.7962 79.762 28.102L71.7698 32.7137C71.3746 32.9417 71.1618 33.3977 70.9125 33.878C70.7544 34.2393 70.55 34.5785 70.3045 34.8873C69.6965 35.5895 68.3285 36.3252 67.374 36.6292C67.0613 36.7326 66.7397 36.8069 66.4133 36.8511C66.2948 36.8724 66.161 36.8876 66.0212 36.9058C65.1517 37.0213 64.0634 37.1703 63.428 37.5381L54.074 42.9372C53.8285 43.0884 53.5475 43.1723 53.2592 43.1804C53.0677 43.1832 52.8788 43.1349 52.712 43.0405C52.5089 42.9094 52.3451 42.7257 52.238 42.5089C52.1309 42.2921 52.0846 42.0503 52.104 41.8093V37.6962C52.1303 37.1338 52.2908 36.5859 52.5722 36.0983C52.8536 35.6107 53.2476 35.1975 53.7213 34.8933L56.8647 33.0693C56.878 33.062 56.8923 33.0569 56.9072 33.0541C56.9815 33.0197 57.0659 33.0143 57.144 33.0389C57.222 33.0635 57.2881 33.1164 57.3292 33.1872C57.3703 33.258 57.3834 33.3415 57.3661 33.4215C57.3488 33.5015 57.3022 33.5721 57.2356 33.6196C57.2265 33.633 57.2139 33.6435 57.1991 33.65L54.0588 35.474C53.6863 35.7193 53.3758 36.0477 53.1516 36.4332C52.9274 36.8188 52.7957 37.2511 52.7668 37.6962V41.8245C52.7302 41.9459 52.7357 42.0762 52.7824 42.194C52.8292 42.3119 52.9144 42.4105 53.0242 42.4739C53.1341 42.5373 53.2621 42.5617 53.3875 42.5431C53.513 42.5246 53.6284 42.4642 53.7152 42.3717L63.0693 36.9697C63.8202 36.538 64.9815 36.3799 65.9117 36.2553C66.0485 36.2553 66.1792 36.2188 66.2978 36.2036C66.5877 36.1625 66.8735 36.0964 67.152 36.006C68.0002 35.7354 69.2588 35.0484 69.7786 34.4586C69.9884 34.1944 70.1631 33.9042 70.2984 33.5953C70.572 33.045 70.8517 32.4765 71.4232 32.1482L79.4154 27.5365C79.7854 27.2894 80.0935 26.9604 80.316 26.575C80.5384 26.1897 80.6692 25.7583 80.6983 25.3143V21.1677C80.7349 21.0463 80.7293 20.9161 80.6826 20.7982C80.6359 20.6804 80.5507 20.5817 80.4408 20.5184C80.331 20.455 80.203 20.4306 80.0775 20.4492C79.9521 20.4677 79.8366 20.5281 79.7498 20.6205L77.026 22.1922C76.9349 21.9867 76.8196 21.7927 76.6824 21.6146L79.4184 20.0399C79.6092 19.8903 79.8403 19.8012 80.082 19.7839C80.3238 19.7666 80.5652 19.8219 80.7753 19.9428C80.9854 20.0637 81.1545 20.2446 81.2611 20.4623C81.3676 20.68 81.4066 20.9246 81.3732 21.1647L81.3701 21.1677Z" fill="#455A64"/>
</g>
</g>
<g id="freepik--Image--inject-87">
<g id="Group_3" opacity="0.2">
<path id="Vector_28" d="M47.0485 61.3076L92.7032 34.9387C92.8948 34.8292 93.0528 34.9174 93.0528 35.1424V46.0347C93.0462 46.1563 93.0111 46.2747 92.9504 46.3803C92.8897 46.4859 92.805 46.5758 92.7032 46.6427L47.0485 73.0086C46.857 73.1211 46.702 73.0299 46.702 72.808V61.9126C46.7085 61.7917 46.7432 61.674 46.8034 61.569C46.8636 61.4639 46.9475 61.3744 47.0485 61.3076Z" fill="black"/>
</g>
<path id="Vector_29" d="M95.1261 36.3827C95.0582 36.3592 94.9857 36.352 94.9144 36.3615C94.8432 36.371 94.7752 36.397 94.7157 36.4374L49.593 62.5024C49.4152 62.6202 49.2675 62.7781 49.1619 62.9635C49.0563 63.1488 48.9957 63.3563 48.985 63.5694V73.9054C48.9771 73.9796 48.9884 74.0546 49.0176 74.1232C49.0469 74.1918 49.0932 74.2519 49.1522 74.2976C49.0458 74.2307 48.1156 73.6896 48.0031 73.6348C47.9417 73.5901 47.8932 73.5301 47.8622 73.4607C47.8313 73.3914 47.8191 73.3152 47.8268 73.2396V62.9036C47.8377 62.6906 47.8984 62.4832 48.004 62.2979C48.1096 62.1126 48.2571 61.9546 48.4348 61.8366L93.5544 35.7716C93.6175 35.726 93.6916 35.698 93.7691 35.6905C93.8465 35.683 93.9246 35.6963 93.9952 35.7291C94.0986 35.7899 94.9072 36.2489 95.1261 36.3827Z" fill="#FFAD15"/>
<g id="Group_4" opacity="0.2">
<path id="Vector_30" d="M95.1261 36.3827C94.9073 36.2489 94.0986 35.7747 93.9983 35.7291C93.9277 35.6963 93.8496 35.683 93.7721 35.6905C93.6946 35.698 93.6206 35.726 93.5575 35.7716L48.45 61.8366C48.2679 61.9496 48.1182 62.1077 48.0153 62.2956L49.1705 62.9644C49.2733 62.7757 49.423 62.6165 49.6052 62.5024L94.7279 36.4374C94.7859 36.3989 94.8518 36.3739 94.9208 36.3645C94.9897 36.355 95.0599 36.3612 95.1261 36.3827Z" fill="white"/>
</g>
<path id="Vector_31" d="M49.593 62.5024L94.7157 36.4374C95.0562 36.2429 95.3237 36.401 95.3237 36.7931V47.1291C95.3133 47.3418 95.2527 47.549 95.1471 47.7339C95.0414 47.9188 94.8936 48.0761 94.7157 48.1931L49.593 74.255C49.2525 74.4526 48.985 74.2915 48.985 73.8994V63.5634C48.9969 63.3514 49.058 63.1452 49.1635 62.961C49.2691 62.7768 49.4161 62.6198 49.593 62.5024Z" fill="#FAFAFA"/>
<path id="Vector_32" d="M49.1583 62.9645L48.0031 62.2957C47.8912 62.4794 47.8284 62.6887 47.8207 62.9037V73.2397C47.813 73.3152 47.8253 73.3914 47.8562 73.4608C47.8871 73.5301 47.9357 73.5901 47.997 73.6349C48.1095 73.7017 49.0398 74.2429 49.1462 74.2976C49.0872 74.2519 49.0409 74.1919 49.0116 74.1232C48.9823 74.0546 48.9711 73.9796 48.979 73.9054V63.5694C48.9856 63.3557 49.0474 63.1473 49.1583 62.9645Z" fill="#FFAD15"/>
<path id="Vector_33" opacity="0.15" d="M49.1583 62.9645L48.0031 62.2957C47.8912 62.4794 47.8284 62.6887 47.8207 62.9037V73.2397C47.813 73.3152 47.8253 73.3914 47.8562 73.4608C47.8871 73.5301 47.9357 73.5901 47.997 73.6349C48.1095 73.7017 49.0398 74.2429 49.1462 74.2976C49.0872 74.2519 49.0409 74.1919 49.0116 74.1232C48.9823 74.0546 48.9711 73.9796 48.979 73.9054V63.5694C48.9856 63.3557 49.0474 63.1473 49.1583 62.9645Z" fill="black"/>
<path id="Vector_34" d="M94.9893 36.638C95.044 36.638 95.0471 36.7779 95.0471 36.7931V47.1291C95.035 47.2924 94.9861 47.4508 94.904 47.5925C94.8218 47.7341 94.7086 47.8553 94.5728 47.9468L49.4501 74.0088C49.4105 74.0358 49.3642 74.0516 49.3163 74.0544C49.2616 74.0544 49.2616 73.9145 49.2616 73.8993V63.5633C49.2732 63.3995 49.3219 63.2404 49.4041 63.0982C49.4863 62.956 49.5997 62.8344 49.7359 62.7425L94.8586 36.6806C94.8973 36.6535 94.9423 36.6367 94.9893 36.632M94.9893 36.3492C94.8926 36.353 94.7985 36.3812 94.7157 36.4313L49.593 62.5024C49.4153 62.6203 49.2678 62.7783 49.1622 62.9636C49.0566 63.1489 48.9959 63.3564 48.985 63.5694V73.9054C48.985 74.1851 49.1248 74.3462 49.3255 74.3462C49.4236 74.3427 49.519 74.3134 49.6021 74.2611L94.7248 48.1961C94.9028 48.0791 95.0506 47.9218 95.1562 47.7369C95.2619 47.552 95.3224 47.3448 95.3328 47.1321V36.784C95.3328 36.5073 95.196 36.3462 94.9923 36.3462L94.9893 36.3492Z" fill="#FFAD15"/>
</g>
<path id="Vector_35" d="M57.6703 61.6118C58.2783 61.9644 58.6613 62.7244 58.6613 63.8036C58.6613 65.965 57.1413 68.5916 55.2747 69.6708C54.3384 70.2119 53.4933 70.2636 52.8792 69.9079L51.7939 69.2847C51.1859 68.9321 50.7999 68.1721 50.7999 67.0929C50.7999 64.9314 52.3199 62.3049 54.1895 61.2226C55.1227 60.6846 55.9709 60.6329 56.585 60.9855L57.6703 61.6118Z" fill="#FFAD15"/>
<path id="Vector_36" opacity="0.2" d="M57.6703 61.6118C58.2783 61.9644 58.6613 62.7244 58.6613 63.8036C58.6613 65.965 57.1413 68.5916 55.2747 69.6708C54.3384 70.2119 53.4933 70.2636 52.8792 69.9079L51.7939 69.2847C51.1859 68.9321 50.7999 68.1721 50.7999 67.0929C50.7999 64.9314 52.3199 62.3049 54.1895 61.2226C55.1227 60.6846 55.9709 60.6329 56.585 60.9855L57.6703 61.6118Z" fill="black"/>
<path id="Vector_37" d="M55.2747 69.6708C54.3384 70.2119 53.4933 70.2636 52.8792 69.9079C52.2651 69.5522 51.8882 68.7953 51.8882 67.7161C51.8882 65.5546 53.4082 62.9281 55.2747 61.8489C56.2111 61.3078 57.0562 61.2561 57.6703 61.6118C58.2843 61.9674 58.6613 62.7244 58.6613 63.8036C58.6613 65.9681 57.1443 68.5916 55.2747 69.6708Z" fill="#FFAD15"/>
<path id="Vector_38" d="M57.0744 64.2354L55.6395 65.0562V63.144C55.6395 62.8765 55.4753 62.7518 55.2747 62.8674C55.1639 62.9469 55.0731 63.0513 55.0098 63.1722C54.9465 63.2931 54.9123 63.4271 54.9099 63.5635V65.4787L53.475 66.3056C53.3641 66.3858 53.2734 66.4908 53.2101 66.6121C53.1468 66.7335 53.1126 66.8679 53.1102 67.0048C53.1102 67.2723 53.2744 67.397 53.475 67.2784L54.9099 66.4515V68.3637C54.9099 68.6312 55.0741 68.7558 55.2747 68.6403C55.3856 68.5607 55.4763 68.4563 55.5396 68.3355C55.603 68.2146 55.6372 68.0806 55.6395 67.9442V66.029L57.0744 65.2021C57.1853 65.1219 57.276 65.0169 57.3393 64.8955C57.4026 64.7742 57.4368 64.6397 57.4392 64.5029C57.4392 64.2414 57.2659 64.1168 57.0744 64.2354Z" fill="#FAFAFA"/>
<path id="Vector_39" d="M60.993 60.7058L92.7671 42.3534C92.9976 42.1879 93.1863 41.9709 93.3182 41.7197C93.4502 41.4685 93.5217 41.19 93.5271 40.9063C93.5271 40.347 93.1866 40.0886 92.7671 40.3318L60.993 58.6721C60.763 58.8379 60.5749 59.055 60.4435 59.3062C60.3121 59.5573 60.2411 59.8357 60.236 60.1191C60.236 60.6906 60.5765 60.946 60.993 60.7058ZM92.7671 44.5938L60.993 62.9281C60.7626 63.0942 60.5742 63.3118 60.4428 63.5635C60.3114 63.8153 60.2406 64.0942 60.236 64.3782C60.236 64.9375 60.5765 65.1929 60.993 64.9497L92.7671 46.6002C92.998 46.4345 93.1869 46.217 93.3189 45.9653C93.4508 45.7135 93.5221 45.4344 93.5271 45.1502C93.5271 44.603 93.1866 44.3446 92.7671 44.5878V44.5938Z" fill="#E0E0E0"/>
<g id="freepik--image--inject-87">
<g id="Group_5" opacity="0.2">
<path id="Vector_40" d="M47.0485 77.9001L92.7032 51.5312C92.8948 51.4187 93.0528 51.5099 93.0528 51.7318V62.6241C93.0462 62.7458 93.0111 62.8641 92.9504 62.9697C92.8897 63.0753 92.805 63.1652 92.7032 63.2321L47.0485 89.6011C46.857 89.7105 46.702 89.6224 46.702 89.3974V78.5051C46.7085 78.3842 46.7432 78.2665 46.8034 78.1614C46.8636 78.0564 46.9475 77.9669 47.0485 77.9001Z" fill="black"/>
</g>
<path id="Vector_41" d="M95.1261 52.9721C95.058 52.9492 94.9854 52.9424 94.9141 52.9524C94.8428 52.9625 94.7749 52.989 94.7157 53.0299L49.593 79.0949C49.4147 79.2121 49.2666 79.37 49.161 79.5554C49.0553 79.7409 48.995 79.9487 48.985 80.1619V90.4979C48.9777 90.572 48.9892 90.6468 49.0185 90.7154C49.0477 90.7839 49.0937 90.844 49.1522 90.8901C49.0458 90.8201 48.1156 90.2821 48.0031 90.2273C47.942 90.1824 47.8936 90.1223 47.8627 90.0531C47.8318 89.9838 47.8194 89.9076 47.8268 89.8321V79.4961C47.8372 79.283 47.8977 79.0754 48.0034 78.89C48.109 78.7046 48.2568 78.5467 48.4348 78.4291L93.5545 52.3611C93.6178 52.3159 93.692 52.2885 93.7695 52.2815C93.847 52.2746 93.9249 52.2884 93.9953 52.3216C94.0986 52.3824 94.9073 52.8384 95.1261 52.9721Z" fill="#FFAD15"/>
<g id="Group_6" opacity="0.2">
<path id="Vector_42" d="M95.1261 52.9721C94.9073 52.8384 94.0986 52.3824 93.9983 52.3216C93.9279 52.2884 93.85 52.2746 93.7725 52.2815C93.6951 52.2885 93.6208 52.3159 93.5575 52.3611L48.45 78.4321C48.2671 78.5441 48.1172 78.7025 48.0153 78.8912L49.1705 79.5569C49.2743 79.3697 49.4238 79.2117 49.6052 79.0979L94.7279 53.0329C94.7854 52.9934 94.8511 52.9674 94.92 52.9569C94.989 52.9463 95.0595 52.9516 95.1261 52.9721Z" fill="white"/>
</g>
<path id="Vector_43" d="M49.593 79.0949L94.7157 53.03C95.0562 52.8354 95.3237 52.9935 95.3237 53.3856V63.7216C95.313 63.9347 95.2524 64.1422 95.1468 64.3276C95.0412 64.5129 94.8935 64.6709 94.7157 64.7887L49.593 90.8476C49.2525 91.0421 48.985 90.8841 48.985 90.4919V80.1559C48.9964 79.9438 49.0573 79.7374 49.1629 79.5532C49.2685 79.3689 49.4158 79.212 49.593 79.0949Z" fill="#FAFAFA"/>
<path id="Vector_44" d="M49.1583 79.5539L48.0031 78.8882C47.8908 79.0717 47.828 79.2812 47.8207 79.4962V89.8322C47.8133 89.9077 47.8257 89.9838 47.8566 90.0531C47.8875 90.1224 47.9359 90.1824 47.997 90.2274C48.1095 90.2943 49.0397 90.8354 49.1461 90.8901C49.0876 90.844 49.0416 90.7839 49.0123 90.7154C48.9831 90.6469 48.9716 90.5721 48.9789 90.4979V80.1619C48.9854 79.9472 49.0472 79.7378 49.1583 79.5539Z" fill="#FFAD15"/>
<path id="Vector_45" opacity="0.15" d="M49.1583 79.5539L48.0031 78.8882C47.8908 79.0717 47.828 79.2812 47.8207 79.4962V89.8322C47.8133 89.9077 47.8257 89.9838 47.8566 90.0531C47.8875 90.1224 47.9359 90.1824 47.997 90.2274C48.1095 90.2943 49.0397 90.8354 49.1461 90.8901C49.0876 90.844 49.0416 90.7839 49.0123 90.7154C48.9831 90.6469 48.9716 90.5721 48.9789 90.4979V80.1619C48.9854 79.9472 49.0472 79.7378 49.1583 79.5539Z" fill="black"/>
<path id="Vector_46" d="M94.9893 53.2306C95.044 53.2306 95.0471 53.3705 95.0471 53.3857V63.7217C95.0355 63.8855 94.9868 64.0446 94.9046 64.1868C94.8224 64.329 94.709 64.4506 94.5728 64.5425L49.4501 90.5922C49.4097 90.6177 49.3639 90.6334 49.3163 90.6378C49.2616 90.6378 49.2616 90.498 49.2616 90.4828V80.1468C49.2732 79.983 49.3219 79.8239 49.4041 79.6817C49.4863 79.5395 49.5997 79.4179 49.7359 79.326L94.8586 53.261C94.8981 53.236 94.9428 53.2204 94.9893 53.2154M94.9893 52.9297C94.8922 52.9333 94.7977 52.9626 94.7157 53.0148L49.593 79.095C49.415 79.2126 49.2672 79.3705 49.1616 79.5559C49.0559 79.7413 48.9954 79.9489 48.985 80.162V90.498C48.985 90.7746 49.1248 90.9358 49.3255 90.9358C49.4233 90.9335 49.5188 90.9052 49.6021 90.8537L94.7157 64.7826C94.8935 64.6648 95.0412 64.5069 95.1468 64.3216C95.2524 64.1362 95.313 63.9287 95.3237 63.7156V53.3796C95.3237 53.0999 95.1869 52.9388 94.9832 52.9388L94.9893 52.9297Z" fill="#FFAD15"/>
</g>
<path id="Vector_47" d="M57.6703 78.2009C58.2783 78.5566 58.6613 79.3136 58.6613 80.3958C58.6613 82.5542 57.1413 85.1838 55.2747 86.263C54.3384 86.8042 53.4933 86.8528 52.8792 86.5002L51.7939 85.8769C51.1859 85.5213 50.7999 84.7643 50.7999 83.6821C50.7999 81.5237 52.3199 78.8941 54.1895 77.8149C55.1227 77.2738 55.9709 77.2251 56.585 77.5778L57.6703 78.2009Z" fill="#FFAD15"/>
<path id="Vector_48" opacity="0.2" d="M57.6703 78.2009C58.2783 78.5566 58.6613 79.3136 58.6613 80.3958C58.6613 82.5542 57.1413 85.1838 55.2747 86.263C54.3384 86.8042 53.4933 86.8528 52.8792 86.5002L51.7939 85.8769C51.1859 85.5213 50.7999 84.7643 50.7999 83.6821C50.7999 81.5237 52.3199 78.8941 54.1895 77.8149C55.1227 77.2738 55.9709 77.2251 56.585 77.5778L57.6703 78.2009Z" fill="black"/>
<path id="Vector_49" d="M55.2747 86.2632C54.3384 86.8043 53.4933 86.8529 52.8792 86.5003C52.2651 86.1477 51.8882 85.3876 51.8882 84.3084C51.8882 82.147 53.4082 79.5204 55.2747 78.4382C56.2111 77.9001 57.0562 77.8484 57.6703 78.2011C58.2843 78.5537 58.6613 79.3137 58.6613 80.396C58.6613 82.5544 57.1443 85.184 55.2747 86.2632Z" fill="#FFAD15"/>
<path id="Vector_50" d="M57.0744 80.8246L55.6395 81.6545V79.7423C55.6395 79.4718 55.4753 79.3502 55.2747 79.4657C55.1639 79.5453 55.0731 79.6497 55.0098 79.7705C54.9465 79.8914 54.9123 80.0254 54.9099 80.1619V82.0801L53.475 82.91C53.3642 82.9896 53.2735 83.094 53.2101 83.2149C53.1468 83.3357 53.1126 83.4697 53.1102 83.6062C53.1102 83.8767 53.2744 83.9983 53.475 83.8828L54.9099 83.0529V84.9681C54.9099 85.2356 55.0741 85.3603 55.2747 85.2417C55.3859 85.1625 55.4769 85.0581 55.5403 84.9372C55.6036 84.8162 55.6376 84.6821 55.6395 84.5455V82.6273L57.0744 81.7974C57.1852 81.7178 57.276 81.6134 57.3393 81.4925C57.4026 81.3717 57.4368 81.2377 57.4392 81.1012C57.4392 80.8337 57.2659 80.7091 57.0744 80.8246Z" fill="#FAFAFA"/>
<path id="Vector_51" d="M60.993 77.2951L92.7671 58.9457C92.998 58.7799 93.1869 58.5625 93.3189 58.3107C93.4508 58.0589 93.5221 57.7798 93.5271 57.4956C93.5271 56.9393 93.1866 56.6809 92.7671 56.9241L60.993 75.2735C60.7626 75.4396 60.5742 75.6572 60.4428 75.909C60.3114 76.1607 60.2406 76.4397 60.236 76.7236C60.236 77.2799 60.5765 77.5383 60.993 77.2951ZM92.7671 61.1831L60.993 79.5295C60.7626 79.6956 60.5742 79.9132 60.4428 80.165C60.3114 80.4167 60.2406 80.6957 60.236 80.9796C60.236 81.5359 60.5765 81.7943 60.993 81.5511L92.7671 63.1987C92.9976 63.0332 93.1863 62.8162 93.3182 62.565C93.4502 62.3138 93.5217 62.0353 93.5271 61.7516C93.5271 61.1923 93.1866 60.9369 92.7671 61.1771V61.1831Z" fill="#E0E0E0"/>
<g id="freepik--image--inject-87_2">
<g id="Group_7" opacity="0.2">
<path id="Vector_52" d="M47.0485 94.4924L92.7032 68.1234C92.8948 68.011 93.0528 68.1022 93.0528 68.3241V79.2164C93.0469 79.3382 93.0122 79.4569 92.9514 79.5626C92.8906 79.6683 92.8055 79.758 92.7032 79.8244L47.0485 106.19C46.857 106.303 46.702 106.212 46.702 105.99V95.0943C46.7082 94.9738 46.7429 94.8564 46.8031 94.7518C46.8633 94.6472 46.9474 94.5583 47.0485 94.4924Z" fill="black"/>
</g>
<path id="Vector_53" d="M95.1261 69.5644C95.058 69.5407 94.9853 69.5336 94.9139 69.5436C94.8425 69.5536 94.7746 69.5806 94.7157 69.6222L49.593 95.6841C49.4151 95.8019 49.2675 95.9598 49.1619 96.1452C49.0563 96.3305 48.9957 96.5381 48.985 96.7511V107.087C48.9771 107.161 48.9883 107.236 49.0176 107.305C49.0469 107.374 49.0932 107.434 49.1522 107.479C49.0458 107.412 48.1155 106.886 48.0031 106.817C47.9415 106.772 47.8928 106.712 47.8618 106.643C47.8308 106.573 47.8187 106.497 47.8267 106.421V96.0854C47.8377 95.8724 47.8984 95.6649 48.004 95.4796C48.1095 95.2943 48.2571 95.1363 48.4347 95.0183L93.5544 68.9534C93.6173 68.9073 93.6916 68.8793 93.7693 68.8723C93.847 68.8654 93.9251 68.8797 93.9952 68.9138C94.0986 68.9716 94.9072 69.4306 95.1261 69.5644Z" fill="#FFAD15"/>
<g id="Group_8" opacity="0.2">
<path id="Vector_54" d="M95.1261 69.5644C94.9073 69.4306 94.0986 68.9564 93.9983 68.9138C93.9282 68.8797 93.8501 68.8654 93.7724 68.8723C93.6947 68.8793 93.6204 68.9073 93.5575 68.9534L48.45 95.0183C48.2685 95.1321 48.119 95.29 48.0153 95.4774L49.1705 96.1462C49.2742 95.958 49.4237 95.7991 49.6052 95.6841L94.7157 69.6161C94.7751 69.5755 94.8433 69.5497 94.9147 69.5407C94.9861 69.5317 95.0585 69.5398 95.1261 69.5644Z" fill="white"/>
</g>
<path id="Vector_55" d="M49.593 95.684L94.7157 69.616C95.0562 69.4184 95.3237 69.5795 95.3237 69.9717V80.3077C95.313 80.5207 95.2524 80.7283 95.1468 80.9136C95.0412 81.099 94.8935 81.2569 94.7157 81.3747L49.593 107.437C49.2525 107.634 48.985 107.476 48.985 107.081V96.745C48.9969 96.533 49.058 96.3268 49.1635 96.1426C49.2691 95.9584 49.4161 95.8014 49.593 95.684Z" fill="#FAFAFA"/>
<path id="Vector_56" d="M49.1583 96.1461L48.0031 95.4773C47.8916 95.6612 47.8288 95.8704 47.8207 96.0853V106.421C47.8127 106.497 47.8248 106.573 47.8558 106.643C47.8867 106.712 47.9354 106.772 47.997 106.816C48.1095 106.886 49.0397 107.424 49.1461 107.479C49.0872 107.434 49.0408 107.373 49.0116 107.305C48.9823 107.236 48.9711 107.161 48.9789 107.087V96.7511C48.9856 96.5373 49.0474 96.3289 49.1583 96.1461Z" fill="#FFAD15"/>
<path id="Vector_57" opacity="0.15" d="M49.1583 96.1461L48.0031 95.4773C47.8916 95.6612 47.8288 95.8704 47.8207 96.0853V106.421C47.8127 106.497 47.8248 106.573 47.8558 106.643C47.8867 106.712 47.9354 106.772 47.997 106.816C48.1095 106.886 49.0397 107.424 49.1461 107.479C49.0872 107.434 49.0408 107.373 49.0116 107.305C48.9823 107.236 48.9711 107.161 48.9789 107.087V96.7511C48.9856 96.5373 49.0474 96.3289 49.1583 96.1461Z" fill="black"/>
<path id="Vector_58" d="M94.9893 69.8228C95.044 69.8228 95.0471 69.9627 95.0471 69.9779V80.3139C95.0355 80.4777 94.9868 80.6368 94.9046 80.779C94.8224 80.9212 94.709 81.0428 94.5728 81.1347L49.4501 107.191C49.4104 107.218 49.3643 107.235 49.3163 107.239C49.2616 107.239 49.2616 107.099 49.2616 107.081V96.7451C49.2732 96.5817 49.322 96.4231 49.4041 96.2813C49.4863 96.1396 49.5998 96.0185 49.7359 95.9273L94.8586 69.8624C94.8972 69.8356 94.9424 69.8198 94.9893 69.8168M94.9893 69.531C94.8922 69.5346 94.7977 69.564 94.7157 69.6161L49.593 95.6841C49.4153 95.8021 49.2678 95.9601 49.1622 96.1454C49.0566 96.3307 48.9959 96.5382 48.985 96.7512V107.087C48.985 107.367 49.1248 107.528 49.3255 107.528C49.4236 107.524 49.519 107.495 49.6021 107.443L94.7248 81.3809C94.9027 81.2631 95.0503 81.1052 95.1559 80.9198C95.2615 80.7345 95.3221 80.5269 95.3328 80.3139V69.9779C95.3328 69.6982 95.196 69.5371 94.9923 69.5371L94.9893 69.531Z" fill="#FFAD15"/>
</g>
<path id="Vector_59" d="M57.6703 94.7933C58.2783 95.146 58.6613 95.9059 58.6613 96.9851C58.6613 99.1466 57.1413 101.773 55.2747 102.855C54.3384 103.393 53.4933 103.445 52.8792 103.093L51.7939 102.469C51.1859 102.114 50.7999 101.354 50.7999 100.274C50.7999 98.113 52.3199 95.4864 54.1895 94.4072C55.1227 93.8661 55.9709 93.8144 56.585 94.1701L57.6703 94.7933Z" fill="#FFAD15"/>
<path id="Vector_60" opacity="0.2" d="M57.6703 94.7933C58.2783 95.146 58.6613 95.9059 58.6613 96.9851C58.6613 99.1466 57.1413 101.773 55.2747 102.855C54.3384 103.393 53.4933 103.445 52.8792 103.093L51.7939 102.469C51.1859 102.114 50.7999 101.354 50.7999 100.274C50.7999 98.113 52.3199 95.4864 54.1895 94.4072C55.1227 93.8661 55.9709 93.8144 56.585 94.1701L57.6703 94.7933Z" fill="black"/>
<path id="Vector_61" d="M55.2747 102.855C54.3384 103.393 53.4933 103.445 52.8792 103.092C52.2651 102.74 51.8882 101.98 51.8882 100.898C51.8882 98.7361 53.4082 96.1096 55.2747 95.0304C56.2111 94.4893 57.0562 94.4224 57.6703 94.7933C58.2843 95.1641 58.6613 95.9059 58.6613 96.9851C58.6613 99.1465 57.1443 101.773 55.2747 102.855Z" fill="#FFAD15"/>
<path id="Vector_62" d="M57.0744 97.4168L55.6395 98.2437V96.3315C55.6395 96.064 55.4753 95.9393 55.2747 96.0549C55.1638 96.1351 55.0731 96.24 55.0098 96.3614C54.9464 96.4828 54.9123 96.6172 54.9099 96.7541V98.6662L53.475 99.4961C53.3638 99.5754 53.2729 99.6797 53.2095 99.8006C53.1461 99.9216 53.1121 100.056 53.1102 100.192C53.1102 100.46 53.2744 100.584 53.475 100.469L54.9099 99.639V101.551C54.9099 101.822 55.0741 101.943 55.2747 101.828C55.3856 101.748 55.4763 101.644 55.5396 101.523C55.603 101.402 55.6372 101.268 55.6395 101.132V99.2165L57.0744 98.3896C57.1852 98.31 57.276 98.2056 57.3393 98.0847C57.4026 97.9639 57.4368 97.8299 57.4392 97.6934C57.4392 97.4229 57.2659 97.3013 57.0744 97.4168Z" fill="#FAFAFA"/>
<path id="Vector_63" d="M60.993 93.8874L92.7671 75.5349C92.9976 75.3695 93.1863 75.1525 93.3182 74.9013C93.4502 74.6501 93.5217 74.3716 93.5271 74.0879C93.5271 73.5285 93.1866 73.2732 92.7671 73.5133L60.993 91.8658C60.763 92.0316 60.5749 92.2487 60.4435 92.4999C60.3121 92.7511 60.2411 93.0294 60.236 93.3129C60.236 93.8722 60.5765 94.1276 60.993 93.8874ZM92.7671 77.7754L60.993 96.1218C60.763 96.2876 60.5749 96.5047 60.4435 96.7559C60.3121 97.0071 60.2411 97.2854 60.236 97.5688C60.236 98.1282 60.5765 98.3836 60.993 98.1434L92.7671 79.7909C92.9976 79.6255 93.1863 79.4085 93.3182 79.1573C93.4502 78.9061 93.5217 78.6276 93.5271 78.3439C93.5271 77.7845 93.1866 77.5201 92.7671 77.7693V77.7754Z" fill="#E0E0E0"/>
<g id="freepik--image--inject-87_3">
<g id="Group_9" opacity="0.2">
<path id="Vector_64" d="M47.0485 111.082L92.7032 84.7127C92.8948 84.6032 93.0528 84.6914 93.0528 84.9133V95.8087C93.0462 95.9303 93.0111 96.0487 92.9504 96.1543C92.8897 96.2599 92.805 96.3498 92.7032 96.4167L47.0485 122.783C46.857 122.895 46.702 122.804 46.702 122.582V111.687C46.7085 111.566 46.7432 111.448 46.8034 111.343C46.8636 111.238 46.9475 111.148 47.0485 111.082Z" fill="black"/>
</g>
<path id="Vector_65" d="M95.1261 86.1566C95.0583 86.1324 94.9857 86.1248 94.9143 86.1343C94.8429 86.1438 94.7748 86.1702 94.7157 86.2113L49.593 112.276C49.4152 112.394 49.2675 112.552 49.1619 112.737C49.0563 112.923 48.9957 113.13 48.985 113.343V123.679C48.9771 123.754 48.9884 123.829 49.0176 123.897C49.0469 123.966 49.0932 124.026 49.1522 124.071C49.0458 124.005 48.1156 123.463 48.0031 123.409C47.9417 123.364 47.8932 123.304 47.8622 123.235C47.8313 123.165 47.8191 123.089 47.8268 123.014V112.678C47.8377 112.465 47.8984 112.257 48.004 112.072C48.1096 111.886 48.2571 111.729 48.4348 111.611L93.5575 85.5456C93.6205 85.4999 93.6946 85.4719 93.7721 85.4644C93.8496 85.4569 93.9276 85.4703 93.9983 85.503C94.0986 85.5638 94.9072 86.032 95.1261 86.1566Z" fill="#FFAD15"/>
<g id="Group_10" opacity="0.2">
<path id="Vector_66" d="M95.1261 86.1566C94.9073 86.0228 94.0986 85.5486 93.9983 85.503C93.9277 85.4703 93.8496 85.4569 93.7721 85.4644C93.6946 85.4719 93.6206 85.4999 93.5575 85.5456L48.45 111.611C48.2679 111.724 48.1182 111.882 48.0153 112.07L49.1705 112.738C49.2733 112.55 49.423 112.39 49.6052 112.276L94.7279 86.2113C94.7856 86.1722 94.8515 86.1469 94.9206 86.1374C94.9897 86.1279 95.06 86.1345 95.1261 86.1566Z" fill="white"/>
</g>
<path id="Vector_67" d="M49.593 112.276L94.7157 86.2114C95.0562 86.0168 95.3237 86.1749 95.3237 86.567V96.903C95.3137 97.1163 95.2534 97.3241 95.1478 97.5095C95.0421 97.695 94.894 97.8528 94.7157 97.9701L49.593 124.032C49.2525 124.23 48.985 124.068 48.985 123.676V113.34C48.9964 113.128 49.0573 112.921 49.1629 112.736C49.2684 112.552 49.4157 112.394 49.593 112.276Z" fill="#FAFAFA"/>
<path id="Vector_68" d="M49.1583 112.738L48.0031 112.07C47.8912 112.253 47.8284 112.463 47.8207 112.678V123.014C47.813 123.089 47.8253 123.165 47.8562 123.235C47.8871 123.304 47.9357 123.364 47.997 123.409C48.1095 123.476 49.0398 124.017 49.1462 124.072C49.0872 124.026 49.0409 123.966 49.0116 123.897C48.9823 123.829 48.9711 123.754 48.979 123.679V113.343C48.9845 113.129 49.0463 112.921 49.1583 112.738Z" fill="#FFAD15"/>
<path id="Vector_69" opacity="0.15" d="M49.1583 112.738L48.0031 112.07C47.8912 112.253 47.8284 112.463 47.8207 112.678V123.014C47.813 123.089 47.8253 123.165 47.8562 123.235C47.8871 123.304 47.9357 123.364 47.997 123.409C48.1095 123.476 49.0398 124.017 49.1462 124.072C49.0872 124.026 49.0409 123.966 49.0116 123.897C48.9823 123.829 48.9711 123.754 48.979 123.679V113.343C48.9845 113.129 49.0463 112.921 49.1583 112.738Z" fill="black"/>
<path id="Vector_70" d="M94.9893 86.4121C95.044 86.4121 95.0471 86.552 95.0471 86.5672V96.9032C95.0355 97.067 94.9868 97.226 94.9046 97.3682C94.8224 97.5104 94.709 97.6321 94.5728 97.724L49.4501 123.783C49.4105 123.81 49.3642 123.826 49.3163 123.828C49.2616 123.828 49.2616 123.689 49.2616 123.673V113.337C49.2732 113.174 49.3219 113.015 49.4041 112.872C49.4863 112.73 49.5997 112.608 49.7359 112.517L94.8586 86.4577C94.8981 86.4327 94.9428 86.4171 94.9893 86.4121ZM94.9893 86.1294C94.8926 86.1332 94.7985 86.1614 94.7157 86.2115L49.593 112.276C49.4153 112.394 49.2678 112.552 49.1622 112.738C49.0566 112.923 48.9959 113.13 48.985 113.343V123.679C48.985 123.959 49.1248 124.12 49.3255 124.12C49.4236 124.117 49.519 124.087 49.6021 124.035L94.7248 97.9702C94.9032 97.8529 95.0512 97.6951 95.1569 97.5096C95.2626 97.3242 95.3228 97.1164 95.3328 96.9032V86.5672C95.3328 86.2905 95.196 86.1294 94.9923 86.1294H94.9893Z" fill="#FFAD15"/>
</g>
<path id="Vector_71" d="M57.6703 111.386C58.2783 111.738 58.6613 112.498 58.6613 113.578C58.6613 115.739 57.1413 118.366 55.2747 119.445C54.3384 119.986 53.4933 120.038 52.8792 119.682L51.7939 119.059C51.1859 118.706 50.7999 117.946 50.7999 116.867C50.7999 114.705 52.3199 112.079 54.1895 110.997C55.1227 110.458 55.9709 110.407 56.585 110.759L57.6703 111.386Z" fill="#FFAD15"/>
<path id="Vector_72" opacity="0.2" d="M57.6703 111.386C58.2783 111.738 58.6613 112.498 58.6613 113.578C58.6613 115.739 57.1413 118.366 55.2747 119.445C54.3384 119.986 53.4933 120.038 52.8792 119.682L51.7939 119.059C51.1859 118.706 50.7999 117.946 50.7999 116.867C50.7999 114.705 52.3199 112.079 54.1895 110.997C55.1227 110.458 55.9709 110.407 56.585 110.759L57.6703 111.386Z" fill="black"/>
<path id="Vector_73" d="M55.2747 119.445C54.3384 119.986 53.4933 120.038 52.8792 119.682C52.2651 119.326 51.8882 118.569 51.8882 117.49C51.8882 115.329 53.4082 112.702 55.2747 111.623C56.2111 111.082 57.0562 111.03 57.6703 111.383C58.2843 111.735 58.6613 112.498 58.6613 113.578C58.6613 115.739 57.1443 118.366 55.2747 119.445Z" fill="#FFAD15"/>
<path id="Vector_74" d="M57.0744 114L55.6395 114.827V112.915C55.6395 112.644 55.4753 112.523 55.2747 112.638C55.1639 112.718 55.0731 112.822 55.0098 112.943C54.9465 113.064 54.9123 113.198 54.9099 113.334V115.249L53.475 116.076C53.3642 116.156 53.2735 116.26 53.2101 116.381C53.1468 116.502 53.1126 116.636 53.1102 116.772C53.1102 117.043 53.2744 117.165 53.475 117.049L54.9099 116.222V118.134C54.9099 118.402 55.0741 118.527 55.2747 118.411C55.3856 118.331 55.4763 118.226 55.5397 118.104C55.603 117.983 55.6372 117.849 55.6395 117.712V115.824L57.0744 114.997C57.1853 114.917 57.276 114.812 57.3393 114.691C57.4026 114.569 57.4368 114.435 57.4392 114.298C57.4392 114.015 57.2659 113.891 57.0744 114Z" fill="#FAFAFA"/>
<path id="Vector_75" d="M60.993 110.48L92.7671 92.1273C92.998 91.9616 93.1869 91.7441 93.3189 91.4924C93.4508 91.2406 93.5221 90.9615 93.5271 90.6773C93.5271 90.1209 93.1866 89.8625 92.7671 90.1057L60.993 108.458C60.763 108.624 60.5749 108.841 60.4435 109.092C60.3121 109.343 60.2411 109.622 60.236 109.905C60.236 110.465 60.5765 110.72 60.993 110.48ZM92.7671 94.3678L60.993 112.711C60.7626 112.877 60.5742 113.095 60.4428 113.347C60.3114 113.598 60.2406 113.877 60.236 114.161C60.236 114.718 60.5765 114.976 60.993 114.733L92.7671 96.3833C92.998 96.2176 93.1869 96.0001 93.3189 95.7484C93.4508 95.4966 93.5221 95.2175 93.5271 94.9333C93.5271 94.3769 93.1866 94.1185 92.7671 94.3617V94.3678Z" fill="#E0E0E0"/>
</g>
</g>
<g id="freepik--Arrows--inject-87">
<g id="freepik--arrows--inject-87">
<g id="freepik--Arrow--inject-87">
<path id="Vector_76" d="M103.298 116.444L105.371 117.639L108.785 115.669V77.0062L111.062 75.6929L107.158 72.6924L105.082 71.4946L101.024 79.0946L103.097 80.2924L103.298 80.1738V116.444Z" fill="#FFAD15"/>
<path id="Vector_77" opacity="0.8" d="M103.298 116.444L105.371 117.639L108.785 115.669V77.0062L111.062 75.6929L107.158 72.6924L105.082 71.4946L101.024 79.0946L103.097 80.2924L103.298 80.1738V116.444Z" fill="white"/>
<path id="freepik--down-arrow--inject-87" d="M105.371 117.639L108.785 115.669V77.0061L111.062 75.6929L107.158 72.6924L103.097 80.2924L105.371 78.9791V117.639Z" fill="#FFAD15"/>
<path id="freepik--down-arrow--inject-87_2" opacity="0.7" d="M105.371 117.639L108.785 115.669V77.0061L111.062 75.6929L107.158 72.6924L103.097 80.2924L105.371 78.9791V117.639Z" fill="white"/>
<path id="Vector_78" d="M103.298 116.444L105.371 117.639V78.979L103.298 80.1737V116.444Z" fill="#FFAD15"/>
<path id="Vector_79" opacity="0.5" d="M103.298 116.444L105.371 117.639V78.979L103.298 80.1737V116.444Z" fill="white"/>
</g>
<g id="freepik--arrow--inject-87">
<path id="Vector_80" d="M113.001 111.431L114.555 112.328L117.114 110.85V88.324L118.82 87.339L115.892 85.0894L114.339 84.1926L111.296 89.8865L112.849 90.7833L113.001 90.6982V111.431Z" fill="#F5F5F5"/>
<path id="freepik--down-arrow--inject-87_3" d="M114.555 112.328L117.114 110.85V88.3239L118.82 87.339L115.892 85.0894L112.849 90.7833L114.555 89.7983V112.328Z" fill="#EBEBEB"/>
<path id="Vector_81" d="M113.001 111.431L114.555 112.328V89.7983L113.001 90.6982V111.431Z" fill="#E0E0E0"/>
</g>
</g>
</g>
<g id="freepik--Icons--inject-87">
<path id="freepik--like--inject-87" d="M132.972 32.4326C132.875 32.2186 132.738 32.0255 132.568 31.8641C132.717 31.6765 132.812 31.4511 132.842 31.2128C132.871 30.9746 132.834 30.7329 132.735 30.5144C132.657 30.3356 132.536 30.1789 132.383 30.0584C132.229 29.9379 132.048 29.8575 131.856 29.8243C131.914 29.6596 131.938 29.4851 131.928 29.3109C131.919 29.1367 131.874 28.9661 131.799 28.8089C131.662 28.507 131.411 28.2712 131.102 28.1528C130.792 28.0344 130.448 28.043 130.145 28.1766L127.324 29.5112C127.107 28.5726 126.594 27.7286 125.861 27.1035C125.582 26.8576 125.227 26.7138 124.854 26.6956C124.482 26.6774 124.115 26.7858 123.812 27.0032C123.484 27.2433 123.542 27.4622 123.581 27.5473C123.621 27.6325 123.685 27.7449 123.776 27.9121C123.998 28.3195 124.518 29.271 124.533 29.5203C124.548 29.7696 124.308 31.5024 124.141 32.5846C124.135 32.6271 124.141 32.6703 124.159 32.7093L126.874 38.4427C126.896 38.4893 126.933 38.5268 126.98 38.5485C127.027 38.5702 127.079 38.5747 127.129 38.5613H127.163L132.233 36.1597C132.572 36.0255 132.843 35.7628 132.989 35.4289C133.134 35.0951 133.141 34.7173 133.008 34.3782C132.922 34.1938 132.81 34.0219 132.677 33.8675C132.849 33.6759 132.967 33.442 133.019 33.1899C133.07 32.9378 133.054 32.6765 132.972 32.4326ZM132.245 33.6486C132.214 33.6644 132.186 33.6876 132.165 33.7161C132.144 33.7446 132.13 33.7778 132.124 33.8128C132.119 33.8487 132.124 33.8851 132.136 33.919C132.149 33.9529 132.17 33.9832 132.197 34.0073C132.367 34.1676 132.505 34.3584 132.604 34.5697C132.687 34.8065 132.674 35.0663 132.568 35.2935C132.461 35.5207 132.27 35.6974 132.036 35.7857L127.172 38.0931L124.579 32.6211C124.651 32.1408 124.989 29.9155 124.965 29.5325C124.946 29.2102 124.572 28.5019 124.156 27.7419L123.998 27.4379C124.146 27.3019 124.331 27.2121 124.53 27.1795C124.712 27.1383 124.902 27.1414 125.083 27.1884C125.263 27.2355 125.43 27.3252 125.57 27.4501C126.303 28.0736 126.794 28.934 126.959 29.8821C126.965 29.9146 126.979 29.9452 126.999 29.9715C127.019 29.9979 127.045 30.0193 127.074 30.0341C127.104 30.049 127.136 30.0568 127.169 30.0568C127.201 30.0568 127.234 30.049 127.263 30.0341L130.33 28.5809C130.53 28.4971 130.756 28.495 130.957 28.5751C131.159 28.6552 131.321 28.8112 131.409 29.0096C131.48 29.1535 131.512 29.3136 131.502 29.4737C131.491 29.6339 131.438 29.7884 131.349 29.9216C131.325 29.9571 131.312 29.9989 131.312 30.0417C131.312 30.0844 131.325 30.1262 131.349 30.1617C131.373 30.1969 131.407 30.2243 131.446 30.2405C131.485 30.2567 131.529 30.261 131.571 30.2529C131.733 30.2275 131.899 30.2586 132.041 30.3411C132.184 30.4235 132.293 30.5523 132.352 30.7059C132.431 30.8777 132.45 31.0709 132.406 31.2549C132.363 31.4388 132.259 31.603 132.112 31.7213C132.082 31.7435 132.059 31.7733 132.044 31.8075C132.03 31.8416 132.025 31.879 132.03 31.9158C132.034 31.9526 132.047 31.9878 132.068 32.0181C132.089 32.0484 132.118 32.0729 132.151 32.0891C132.351 32.2153 132.505 32.4016 132.592 32.6211C132.692 32.8552 132.552 33.4875 132.245 33.6334V33.6486ZM123.733 32.7366C123.708 32.685 123.664 32.6452 123.61 32.6259C123.556 32.6066 123.497 32.6092 123.445 32.6333L121.235 33.6821C121.184 33.707 121.144 33.7508 121.125 33.8041C121.106 33.8574 121.108 33.9161 121.131 33.9678L124.293 40.6558C124.315 40.7013 124.352 40.7376 124.398 40.7587C124.444 40.7797 124.496 40.7842 124.545 40.7713H124.582L126.792 39.7256C126.817 39.7138 126.84 39.697 126.859 39.6761C126.878 39.6552 126.892 39.6306 126.901 39.604C126.922 39.5503 126.922 39.4905 126.901 39.4368L123.733 32.7366ZM124.591 40.2606L121.615 33.9526L123.439 33.0923L126.412 39.3729L124.591 40.2606Z" fill="#E0E0E0"/>
<path id="freepik--like--inject-87_2" d="M20.3781 49.5794C20.3067 49.7251 20.2546 49.8794 20.223 50.0385C20.1886 50.3249 20.2686 50.6133 20.4456 50.841C20.6227 51.0687 20.8824 51.2173 21.1685 51.2545L25.5491 52.1179H25.5765C25.617 52.118 25.6564 52.1042 25.688 52.0787C25.7195 52.0533 25.7414 52.0177 25.7498 51.978L26.7256 47.0259C26.7363 46.9933 26.7363 46.9581 26.7256 46.9255C26.3851 46.123 25.8653 44.8522 25.8136 44.6394C25.8537 44.1682 25.9434 43.7026 26.0811 43.2502C26.1206 43.1012 26.151 42.9857 26.1602 42.9279C26.1693 42.8702 26.1754 42.6786 25.8774 42.554C25.601 42.4462 25.2962 42.435 25.0126 42.5222C24.7289 42.6094 24.4831 42.7899 24.3149 43.0343C23.874 43.6552 23.6439 44.401 23.6582 45.1623L21.2262 44.6851C20.9658 44.6425 20.699 44.7036 20.4831 44.8553C20.2672 45.007 20.1192 45.2373 20.071 45.4967C20.0146 45.7701 20.067 46.0547 20.217 46.2902C20.0747 46.3523 19.9504 46.4492 19.8553 46.5719C19.7602 46.6946 19.6975 46.8392 19.6728 46.9924C19.6339 47.1848 19.6497 47.3842 19.7185 47.568C19.7873 47.7517 19.9063 47.9126 20.0619 48.0321C19.9621 48.1897 19.8939 48.3652 19.8613 48.5489C19.8499 48.7508 19.8917 48.9522 19.9823 49.133C20.073 49.3138 20.2094 49.4678 20.3781 49.5794ZM20.1987 48.6067C20.2221 48.4202 20.3053 48.2463 20.4358 48.1111C20.4584 48.092 20.4758 48.0675 20.4865 48.0399C20.4971 48.0122 20.5006 47.9824 20.4966 47.9531C20.4925 47.9237 20.4809 47.8959 20.4627 47.8724C20.4446 47.849 20.4207 47.8307 20.3933 47.8193C20.2561 47.7567 20.1438 47.6499 20.0744 47.516C20.0049 47.3821 19.9824 47.2288 20.0102 47.0806C20.0256 46.9508 20.085 46.8303 20.1785 46.739C20.272 46.6477 20.3939 46.5913 20.524 46.579C20.5581 46.5779 20.5912 46.5667 20.6188 46.5466C20.6465 46.5265 20.6675 46.4986 20.679 46.4665C20.6897 46.4342 20.6907 46.3995 20.6821 46.3666C20.6735 46.3337 20.6555 46.304 20.6304 46.2811C20.5362 46.1942 20.4662 46.0844 20.4273 45.9623C20.3884 45.8403 20.3819 45.7102 20.4085 45.5849C20.4369 45.4144 20.5313 45.262 20.6713 45.1608C20.8113 45.0595 20.9855 45.0174 21.1563 45.0438L23.8042 45.5636C23.8299 45.5688 23.8565 45.568 23.8819 45.5613C23.9073 45.5545 23.9308 45.5419 23.9506 45.5245C23.9703 45.5072 23.9857 45.4855 23.9957 45.4611C24.0056 45.4368 24.0098 45.4105 24.0078 45.3842C23.9526 44.6187 24.1677 43.8581 24.6158 43.235C24.6975 43.1125 24.807 43.0112 24.9354 42.9393C25.0639 42.8675 25.2075 42.8271 25.3546 42.8215C25.5137 42.809 25.6732 42.8427 25.8136 42.9188L25.7498 43.1742C25.5765 43.8399 25.4275 44.4601 25.4731 44.7124C25.5309 45.0164 26.227 46.6641 26.3851 47.0198L25.4458 51.75L21.2354 50.9231C21.0388 50.9009 20.8586 50.8032 20.7327 50.6506C20.6068 50.4981 20.545 50.3026 20.5605 50.1054C20.5959 49.923 20.665 49.7488 20.7642 49.5916C20.7804 49.5678 20.7905 49.5404 20.7937 49.5118C20.7969 49.4832 20.793 49.4542 20.7824 49.4274C20.7723 49.4009 20.7555 49.3775 20.7337 49.3593C20.7119 49.3412 20.6857 49.3291 20.6578 49.3241C20.5175 49.2639 20.3981 49.1638 20.3143 49.0362C20.2305 48.9086 20.1861 48.7593 20.1866 48.6067H20.1987ZM25.9109 52.7137C25.9063 52.7357 25.9063 52.7584 25.911 52.7804C25.9158 52.8024 25.925 52.8232 25.9382 52.8414C25.9503 52.8605 25.9663 52.877 25.9852 52.8895C26.004 52.9021 26.0253 52.9106 26.0477 52.9143L27.9568 53.2882H27.9842C28.0247 53.2884 28.0641 53.2746 28.0957 53.2491C28.1272 53.2237 28.149 53.1881 28.1574 53.1484L29.2914 47.3724C29.296 47.3499 29.296 47.3267 29.2913 47.3042C29.2866 47.2817 29.2773 47.2604 29.264 47.2417C29.2385 47.2039 29.1992 47.1777 29.1546 47.1687L27.2454 46.8161C27.2234 46.8112 27.2007 46.8109 27.1786 46.815C27.1564 46.8192 27.1354 46.8277 27.1166 46.8402C27.0979 46.8527 27.0819 46.8689 27.0695 46.8877C27.0572 46.9065 27.0488 46.9277 27.0448 46.9499L25.9109 52.7137ZM26.2818 52.6103L27.3488 47.1839L28.9205 47.4879L27.8534 52.9143L26.2818 52.6103Z" fill="#E0E0E0"/>
<path id="freepik--like--inject-87_3" d="M126.934 85.3529C126.85 85.46 126.779 85.5775 126.725 85.7025C126.683 85.8162 126.664 85.9371 126.669 86.0581C126.675 86.1791 126.704 86.2979 126.756 86.4074C126.808 86.5169 126.881 86.6151 126.971 86.696C127.061 86.777 127.167 86.8392 127.281 86.879L130.725 88.3746H130.75C130.783 88.3826 130.818 88.3787 130.848 88.3638C130.879 88.3488 130.903 88.3236 130.917 88.2926L132.61 84.3983C132.619 84.3707 132.619 84.3409 132.61 84.3132C132.476 83.5927 132.279 82.4558 132.285 82.2734C132.402 81.8937 132.56 81.5278 132.756 81.182C132.814 81.0665 132.859 80.9753 132.878 80.9297C132.896 80.8841 132.935 80.726 132.71 80.571C132.503 80.433 132.255 80.3691 132.007 80.3895C131.759 80.4099 131.525 80.5135 131.342 80.6834C130.866 81.1174 130.541 81.6927 130.415 82.325L128.5 81.4921C128.294 81.4095 128.064 81.4113 127.859 81.4972C127.654 81.5831 127.491 81.7462 127.406 81.9511C127.309 82.1651 127.3 82.4087 127.381 82.629C127.253 82.6543 127.134 82.7115 127.034 82.7955C126.934 82.8795 126.857 82.9875 126.81 83.1094C126.746 83.2594 126.726 83.4241 126.75 83.5852C126.775 83.7463 126.844 83.8973 126.95 84.0214C126.838 84.1312 126.75 84.2626 126.691 84.4074C126.645 84.5725 126.643 84.7468 126.686 84.9128C126.729 85.0787 126.814 85.2305 126.934 85.3529ZM126.965 84.5199C127.018 84.3717 127.117 84.244 127.248 84.1551C127.27 84.1443 127.289 84.1275 127.303 84.1067C127.317 84.0858 127.325 84.0616 127.327 84.0366C127.328 84.0122 127.324 83.9878 127.314 83.9655C127.304 83.9432 127.288 83.9238 127.269 83.9089C127.167 83.8335 127.093 83.726 127.059 83.6036C127.026 83.4812 127.034 83.351 127.083 83.234C127.12 83.13 127.19 83.0415 127.284 82.9834C127.377 82.9253 127.488 82.9011 127.597 82.9148C127.626 82.9194 127.655 82.9156 127.681 82.9038C127.707 82.8919 127.729 82.8726 127.744 82.8483C127.76 82.8239 127.767 82.7956 127.767 82.7669C127.766 82.7382 127.757 82.7103 127.74 82.6868C127.678 82.5996 127.639 82.4974 127.629 82.3906C127.619 82.2838 127.637 82.1762 127.682 82.0788C127.738 81.9452 127.843 81.8386 127.976 81.7818C128.109 81.725 128.259 81.7225 128.394 81.7748L130.476 82.6868C130.496 82.6965 130.518 82.7015 130.54 82.7015C130.562 82.7015 130.584 82.6965 130.604 82.6868C130.623 82.6767 130.64 82.6621 130.653 82.6441C130.666 82.6261 130.674 82.6053 130.677 82.5834C130.765 81.9438 131.076 81.3559 131.555 80.9236C131.645 80.8364 131.755 80.7723 131.875 80.7369C131.995 80.7014 132.122 80.6956 132.245 80.7199C132.378 80.7367 132.503 80.7928 132.604 80.881C132.583 80.9266 132.549 80.9966 132.507 81.0786C132.282 81.4579 132.112 81.8674 132.002 82.2946C132.002 82.55 132.267 84.0335 132.327 84.3527L130.71 88.0737L127.397 86.6327C127.24 86.5786 127.11 86.4656 127.034 86.3176C126.959 86.1696 126.944 85.9982 126.992 85.8393C127.053 85.6956 127.141 85.5646 127.251 85.4532C127.269 85.4371 127.282 85.4166 127.29 85.3937C127.298 85.3709 127.3 85.3464 127.296 85.3225C127.292 85.2987 127.282 85.2763 127.267 85.2573C127.252 85.2382 127.233 85.223 127.211 85.213C127.106 85.1342 127.028 85.0256 126.985 84.9015C126.943 84.7773 126.939 84.6433 126.974 84.5169L126.965 84.5199ZM130.917 88.9249C130.909 88.9427 130.906 88.9618 130.906 88.9811C130.906 89.0004 130.909 89.0195 130.917 89.0374C130.923 89.0553 130.933 89.0716 130.946 89.0852C130.959 89.0989 130.975 89.1095 130.993 89.1164L132.495 89.77H132.516C132.549 89.7777 132.584 89.7734 132.615 89.7579C132.646 89.7423 132.67 89.7165 132.683 89.6849L134.656 85.1522C134.67 85.117 134.67 85.078 134.656 85.0428C134.649 85.025 134.638 85.0088 134.625 84.9952C134.611 84.9817 134.595 84.971 134.577 84.9638L133.078 84.3102C133.061 84.3022 133.042 84.2978 133.023 84.2973C133.003 84.2969 132.984 84.3003 132.966 84.3074C132.948 84.3145 132.932 84.3251 132.919 84.3386C132.905 84.3522 132.894 84.3684 132.887 84.3862L130.917 88.9249ZM131.242 88.9097L133.097 84.6537L134.331 85.1918L132.476 89.4478L131.242 88.9097Z" fill="#E0E0E0"/>
<path id="freepik--like--inject-87_4" d="M110.74 24.1638C110.74 23.9115 111.26 23.0055 111.348 22.8323C111.437 22.659 110.637 22.2243 110.102 22.7411C109.618 23.1725 109.301 23.7598 109.205 24.4009L107.217 23.5132C107.054 23.4473 106.872 23.448 106.709 23.5151C106.547 23.5821 106.417 23.7103 106.348 23.8719C106.294 23.9877 106.272 24.1153 106.284 24.2422C106.295 24.369 106.339 24.4908 106.411 24.5955C106.276 24.5774 106.139 24.6053 106.021 24.6748C105.904 24.7443 105.813 24.8512 105.764 24.9785C105.702 25.1192 105.69 25.2765 105.73 25.4249C105.769 25.5734 105.857 25.7042 105.98 25.7963C105.823 25.8916 105.703 26.0373 105.639 26.2097C105.596 26.3624 105.602 26.525 105.656 26.6741C105.711 26.8232 105.811 26.9512 105.943 27.0396C105.822 27.1578 105.724 27.2981 105.655 27.4531C105.592 27.639 105.604 27.8421 105.688 28.0192C105.773 28.1964 105.923 28.3335 106.107 28.4015L109.394 29.8699L111.054 26.1519C111.054 26.1519 110.731 24.4191 110.74 24.1638ZM111.558 26.2583L109.628 30.5843L111.063 31.2227L112.99 26.8967L111.558 26.2583ZM110.646 30.5143C110.591 30.5143 110.537 30.4979 110.491 30.4672C110.445 30.4365 110.409 30.3928 110.388 30.3417C110.367 30.2906 110.361 30.2343 110.372 30.1801C110.383 30.1258 110.409 30.076 110.448 30.0369C110.488 29.9978 110.537 29.9711 110.592 29.9604C110.646 29.9496 110.702 29.9551 110.753 29.9763C110.804 29.9974 110.848 30.0333 110.879 30.0793C110.909 30.1253 110.926 30.1793 110.926 30.2347C110.924 30.3083 110.894 30.3783 110.841 30.4296C110.788 30.4808 110.717 30.5091 110.643 30.5083L110.646 30.5143Z" fill="#EBEBEB"/>
<path id="freepik--like--inject-87_5" d="M26.0994 19.8241L29.8447 27.8588L36.9522 24.5482C37.8642 24.1135 38.2168 23.1377 37.9037 22.4628C37.7464 22.1326 37.5289 21.8346 37.2623 21.5842C37.8703 21.3015 38.1013 20.2314 37.8703 19.7602C37.7249 19.3878 37.4596 19.0744 37.1163 18.8695C37.3785 18.6633 37.5641 18.3752 37.6435 18.0512C37.7228 17.7273 37.6914 17.386 37.5541 17.082C37.4421 16.8071 37.2409 16.5779 36.9828 16.4312C36.7248 16.2845 36.4249 16.2289 36.1314 16.2734C36.285 16.0426 36.3762 15.7759 36.3959 15.4993C36.4156 15.2228 36.3632 14.9458 36.2439 14.6956C36.0067 14.1849 35.2437 13.5222 34.3378 13.9447L30.0575 15.942C29.8298 14.5482 29.1183 13.2792 28.048 12.3578C26.8624 11.2695 25.1631 12.2302 25.3363 12.6041C25.5096 12.978 26.6466 14.9327 26.677 15.483C26.7074 16.0332 26.0994 19.8241 26.0994 19.8241ZM21.8738 21.5113L26.2271 30.8623L29.3279 29.4183L24.9685 20.0642L21.8738 21.5113ZM26.4946 28.6948C26.4946 28.5745 26.5302 28.457 26.597 28.357C26.6639 28.257 26.7588 28.1791 26.8699 28.1331C26.981 28.0871 27.1033 28.075 27.2212 28.0985C27.3391 28.1219 27.4475 28.1798 27.5325 28.2649C27.6175 28.3499 27.6754 28.4582 27.6989 28.5762C27.7224 28.6941 27.7103 28.8164 27.6643 28.9275C27.6183 29.0386 27.5404 29.1335 27.4404 29.2003C27.3404 29.2671 27.2228 29.3028 27.1026 29.3028C26.9413 29.3028 26.7867 29.2387 26.6727 29.1247C26.5586 29.0107 26.4946 28.856 26.4946 28.6948Z" fill="#EBEBEB"/>
<g id="freepik--check--inject-87">
<path id="Vector_82" d="M127.71 59.3276C127.559 59.3277 127.409 59.2968 127.271 59.2366C127.132 59.1765 127.007 59.0884 126.904 58.978L124.399 56.3058C124.198 56.0917 124.089 55.8064 124.098 55.5125C124.107 55.2186 124.232 54.9403 124.446 54.7387C124.66 54.5371 124.946 54.4289 125.24 54.4377C125.533 54.4465 125.812 54.5717 126.013 54.7858L127.64 56.5217L131.488 51.6577C131.578 51.5439 131.69 51.4489 131.816 51.3782C131.943 51.3074 132.082 51.2623 132.226 51.2454C132.37 51.2284 132.516 51.24 132.655 51.2794C132.795 51.3189 132.925 51.3854 133.039 51.4753C133.153 51.5651 133.248 51.6764 133.318 51.803C133.389 51.9295 133.434 52.0687 133.451 52.2127C133.468 52.3566 133.456 52.5025 133.417 52.642C133.378 52.7815 133.311 52.9119 133.221 53.0257L128.579 58.905C128.481 59.03 128.356 59.1322 128.215 59.2046C128.073 59.277 127.917 59.3179 127.758 59.3245L127.71 59.3276Z" fill="#EBEBEB"/>
</g>
<g id="freepik--check--inject-87_2">
<path id="Vector_83" d="M24.2541 74.4802C24.1025 74.4807 23.9524 74.45 23.8132 74.3898C23.6741 74.3297 23.5489 74.2414 23.4454 74.1306L20.9435 71.4402C20.742 71.2265 20.6335 70.9415 20.6421 70.6479C20.6506 70.3543 20.7755 70.0761 20.9891 69.8746C21.2028 69.673 21.4878 69.5646 21.7814 69.5731C22.075 69.5817 22.3532 69.7065 22.5547 69.9202L24.1811 71.656L28.0298 66.792C28.2166 66.5788 28.4781 66.4455 28.7604 66.4195C29.0427 66.3935 29.3242 66.4768 29.5469 66.6523C29.7695 66.8277 29.9163 67.0819 29.957 67.3625C29.9977 67.643 29.9292 67.9285 29.7656 68.16L25.1205 74.0546C25.022 74.1795 24.8977 74.2817 24.756 74.3541C24.6143 74.4265 24.4586 74.4675 24.2997 74.4741L24.2541 74.4802Z" fill="#EBEBEB"/>
</g>
<g id="freepik--check--inject-87_3">
<path id="Vector_84" d="M53.1766 20.9245C52.9707 20.9246 52.767 20.8823 52.5782 20.8002C52.3894 20.718 52.2195 20.5979 52.0792 20.4472L49.1942 17.3677C48.9911 17.1512 48.8569 16.8793 48.8085 16.5863C48.7602 16.2934 48.7999 15.9928 48.9227 15.7225C49.0455 15.4522 49.2457 15.2245 49.4981 15.0681C49.7505 14.9118 50.0436 14.834 50.3403 14.8445C50.5375 14.8496 50.7316 14.8942 50.9112 14.9756C51.0909 15.0571 51.2523 15.1738 51.3861 15.3187L53.0793 17.1245L57.3353 11.7194C57.4564 11.5639 57.6071 11.4341 57.7788 11.3376C57.9506 11.241 58.1398 11.1796 58.3355 11.157C58.7299 11.1098 59.1271 11.219 59.4421 11.461C59.5967 11.5831 59.7257 11.7344 59.8218 11.9064C59.9179 12.0784 59.9791 12.2676 60.002 12.4633C60.0248 12.659 60.0089 12.8572 59.9551 13.0467C59.9013 13.2362 59.8106 13.4133 59.6883 13.5677L54.3531 20.3682C54.2191 20.5378 54.0501 20.6764 53.8575 20.7745C53.6649 20.8727 53.4534 20.928 53.2374 20.9367L53.1766 20.9245ZM50.2825 15.2975C50.018 15.2975 49.7635 15.3986 49.5712 15.5802C49.3697 15.7701 49.2514 16.0321 49.2423 16.3089C49.2332 16.5857 49.3339 16.8548 49.5225 17.0576L52.4105 20.1371C52.5083 20.2416 52.6264 20.325 52.7577 20.382C52.8889 20.439 53.0305 20.4684 53.1736 20.4685H53.2131C53.3638 20.4632 53.5114 20.4251 53.6458 20.3568C53.7803 20.2886 53.8982 20.1918 53.9913 20.0733L59.3417 13.2972C59.4346 13.1903 59.5048 13.0656 59.5481 12.9308C59.5914 12.7959 59.6068 12.6537 59.5935 12.5127C59.5802 12.3718 59.5383 12.2349 59.4706 12.1106C59.4028 11.9863 59.3104 11.877 59.1992 11.7894C59.0879 11.7018 58.96 11.6378 58.8232 11.6011C58.6864 11.5644 58.5436 11.5559 58.4034 11.5761C58.2633 11.5963 58.1286 11.6447 58.0078 11.7185C57.8869 11.7922 57.7822 11.8897 57.7001 12.0051L53.1067 17.8237L51.0517 15.6288C50.9585 15.5285 50.8463 15.4477 50.7215 15.3913C50.5968 15.3349 50.462 15.3041 50.3251 15.3005L50.2825 15.2975Z" fill="#E0E0E0"/>
</g>
</g>
</g>
</svg>
