<svg width="254" height="222" viewBox="0 0 254 222" fill="none" xmlns="http://www.w3.org/2000/svg">
<path d="M37.1971 197.754C86.7877 227.972 167.199 227.972 216.801 197.754C266.402 167.536 266.397 118.544 216.801 88.3257C167.205 58.1079 86.7988 58.1079 37.1971 88.3257C-12.4046 118.544 -12.3935 167.562 37.1971 197.754Z" fill="#F5F5F5"/>
<path d="M34.3811 147.203C41.4165 147.203 47.1197 144.034 47.1197 140.124C47.1197 136.214 41.4165 133.045 34.3811 133.045C27.3458 133.045 21.6426 136.214 21.6426 140.124C21.6426 144.034 27.3458 147.203 34.3811 147.203Z" fill="#EBEBEB"/>
<path d="M179.749 156.655C189.139 156.655 196.751 152.423 196.751 147.203C196.751 141.983 189.139 137.751 179.749 137.751C170.36 137.751 162.748 141.983 162.748 147.203C162.748 152.423 170.36 156.655 179.749 156.655Z" fill="#EBEBEB"/>
<path d="M230.576 108.316C230.576 108.316 231.89 103.583 236.164 98.5404C238.049 96.3164 239.279 94.7647 238.886 93.4394C238.531 92.2692 237.333 91.6615 235.621 92.6054C233.187 93.9501 231.546 96.4457 230.576 101.456V108.316Z" fill="#FFD789"/>
<path opacity="0.1" d="M230.576 108.316C230.576 108.316 231.89 103.583 236.164 98.5404C238.049 96.3164 239.279 94.7647 238.886 93.4394C238.531 92.2692 237.333 91.6615 235.621 92.6054C233.187 93.9501 231.546 96.4457 230.576 101.456V108.316Z" fill="black"/>
<path d="M230.305 105.342H230.255C230.201 105.325 230.156 105.284 230.128 105.229C230.1 105.173 230.091 105.107 230.105 105.044C231.629 98.1783 235.571 93.9243 237.239 92.9416C237.29 92.9141 237.347 92.9102 237.399 92.9307C237.452 92.9511 237.496 92.9944 237.522 93.0515C237.545 93.1091 237.548 93.175 237.531 93.2353C237.513 93.2956 237.476 93.3456 237.428 93.3748C235.815 94.3251 231.995 98.4628 230.51 105.167C230.496 105.218 230.469 105.263 230.432 105.294C230.395 105.326 230.35 105.343 230.305 105.342Z" fill="white"/>
<path d="M230.576 114.192C230.576 114.192 232.4 110.022 234.601 107.805C236.801 105.587 239.628 103.325 237.234 101.592C234.839 99.8592 230.898 103.26 230.582 106.615L230.576 114.192Z" fill="#FFD789"/>
<path d="M230.304 111.225H230.26C230.206 111.209 230.16 111.17 230.131 111.116C230.102 111.062 230.093 110.996 230.104 110.934C231.141 105.762 234.861 102.84 236.097 102.355C236.148 102.342 236.201 102.353 236.246 102.383C236.291 102.414 236.324 102.463 236.34 102.521C236.356 102.578 236.353 102.641 236.332 102.696C236.31 102.752 236.272 102.796 236.224 102.82C235.116 103.26 231.49 106.137 230.509 111.044C230.497 111.096 230.47 111.142 230.433 111.175C230.396 111.208 230.351 111.225 230.304 111.225Z" fill="white"/>
<path d="M68.4564 156.106C68.4564 156.106 67.6138 153.92 64.0938 152.996C60.668 152.097 58.9662 152.996 56.6546 152.53C54.343 152.065 54.9473 147.029 61.1669 147.552C66.8599 148.031 68.4564 153.255 68.4564 153.255V156.106Z" fill="#FFD789"/>
<path d="M68.7942 154.903C68.7539 154.902 68.7147 154.887 68.6812 154.861C68.6478 154.834 68.6216 154.797 68.6057 154.754C68.0514 153.209 66.0003 150.688 63.1123 149.918C59.5257 148.968 57.6188 149.918 57.6022 149.918C57.5526 149.938 57.4986 149.935 57.4506 149.911C57.4026 149.886 57.3642 149.842 57.3427 149.786C57.3213 149.731 57.3184 149.668 57.3346 149.609C57.3508 149.551 57.3849 149.503 57.4304 149.472C57.5135 149.433 59.4869 148.431 63.201 149.421C66.4106 150.274 68.456 153.015 68.9882 154.547C68.9991 154.577 69.0048 154.608 69.0051 154.64C69.0054 154.672 69.0003 154.703 68.9899 154.733C68.9796 154.762 68.9643 154.789 68.945 154.812C68.9257 154.834 68.9026 154.852 68.8773 154.864L68.7942 154.903Z" fill="white"/>
<path d="M68.456 153.617C67.7544 152.151 66.8561 150.826 65.7952 149.692C62.4692 145.93 58.0346 144.746 55.8172 142.69C53.3782 140.473 56.3328 137.913 59.4703 138.074C61.2663 138.171 63.1622 139.555 64.2043 140.551C67.874 144.048 68.4782 149.692 68.4782 149.692L68.456 153.617Z" fill="#FFD789"/>
<path opacity="0.5" d="M68.456 153.617C67.7544 152.151 66.8561 150.826 65.7952 149.692C62.4692 145.93 58.0346 144.746 55.8172 142.69C53.3782 140.473 56.3328 137.913 59.4703 138.074C61.2663 138.171 63.1622 139.555 64.2043 140.551C67.874 144.048 68.4782 149.692 68.4782 149.692L68.456 153.617Z" fill="white"/>
<path d="M68.7939 153.235C68.7443 153.234 68.6966 153.213 68.6591 153.175C68.6215 153.137 68.5967 153.085 68.5888 153.028C68.1521 150.31 67.095 147.78 65.5289 145.703C62.9125 142.231 58.439 140.37 58.3891 140.35C58.3385 140.328 58.2971 140.284 58.2734 140.228C58.2497 140.171 58.2455 140.106 58.2616 140.046C58.2703 140.016 58.2842 139.988 58.3024 139.964C58.3206 139.94 58.3428 139.92 58.3676 139.906C58.3924 139.892 58.4194 139.884 58.4469 139.883C58.4744 139.881 58.5019 139.886 58.5277 139.898C58.7162 139.969 63.1508 141.837 65.8394 145.38C67.4698 147.522 68.5646 150.145 69.0046 152.964C69.0085 152.995 69.0068 153.028 68.9996 153.059C68.9924 153.09 68.9799 153.119 68.9628 153.145C68.9457 153.17 68.9244 153.191 68.9001 153.207C68.8759 153.222 68.8492 153.232 68.8217 153.235H68.7939Z" fill="white"/>
<path d="M144.532 193.797C144.532 193.797 145.475 191.663 149.033 190.959C152.492 190.273 154.15 191.25 156.484 190.959C158.817 190.668 158.44 185.567 152.204 185.703C146.5 185.825 144.665 190.939 144.665 190.939L144.532 193.797Z" fill="#FFD789"/>
<path opacity="0.1" d="M144.532 193.797C144.532 193.797 145.475 191.663 149.033 190.959C152.492 190.273 154.15 191.25 156.484 190.959C158.817 190.668 158.44 185.567 152.204 185.703C146.5 185.825 144.665 190.939 144.665 190.939L144.532 193.797Z" fill="black"/>
<path d="M144.261 192.775C144.218 192.773 144.176 192.758 144.139 192.73C144.117 192.712 144.098 192.689 144.083 192.662C144.068 192.635 144.058 192.605 144.054 192.574C144.049 192.543 144.05 192.511 144.056 192.48C144.062 192.449 144.073 192.42 144.089 192.394C145.414 190.183 147.825 188.515 150.547 187.959C154.045 187.228 156.091 188.521 156.179 188.605C156.203 188.621 156.224 188.641 156.241 188.666C156.257 188.691 156.27 188.719 156.277 188.749C156.285 188.78 156.287 188.811 156.284 188.843C156.281 188.874 156.273 188.904 156.26 188.932C156.247 188.959 156.229 188.984 156.208 189.003C156.187 189.023 156.162 189.038 156.136 189.046C156.11 189.055 156.083 189.058 156.056 189.054C156.029 189.051 156.003 189.041 155.98 189.026C155.98 189.026 153.967 187.765 150.619 188.463C148.008 189.006 145.691 190.59 144.433 192.698C144.411 192.724 144.384 192.745 144.354 192.758C144.325 192.772 144.293 192.778 144.261 192.775Z" fill="white"/>
<path d="M144.782 190.804C145.587 189.623 146.502 188.549 147.509 187.603C151.018 184.061 155.458 183.485 157.809 181.571C160.348 179.509 157.515 176.768 154.372 176.736C152.576 176.736 150.619 177.983 149.527 178.914C147.2 180.948 145.46 183.76 144.538 186.976L144.782 190.804Z" fill="#FFD789"/>
<path opacity="0.5" d="M144.782 190.804C145.587 189.623 146.502 188.549 147.509 187.603C151.018 184.061 155.458 183.485 157.809 181.571C160.348 179.509 157.515 176.768 154.372 176.736C152.576 176.736 150.619 177.983 149.527 178.914C147.2 180.948 145.46 183.76 144.538 186.976L144.782 190.804Z" fill="white"/>
<path d="M144.261 190.752H144.183C144.132 190.73 144.09 190.686 144.066 190.63C144.041 190.574 144.035 190.509 144.05 190.448C144.916 187.673 146.285 185.148 148.063 183.046C149.992 180.726 152.498 179.172 155.225 178.604C155.252 178.599 155.279 178.601 155.305 178.609C155.331 178.617 155.356 178.631 155.377 178.651C155.398 178.67 155.416 178.694 155.429 178.722C155.442 178.749 155.45 178.78 155.452 178.811C155.456 178.843 155.455 178.875 155.447 178.906C155.44 178.938 155.428 178.967 155.411 178.992C155.394 179.017 155.372 179.039 155.348 179.054C155.324 179.07 155.297 179.079 155.27 179.082C152.643 179.664 150.232 181.166 148.357 183.388C146.635 185.433 145.311 187.888 144.477 190.584C144.462 190.636 144.433 190.681 144.393 190.711C144.354 190.742 144.307 190.756 144.261 190.752Z" fill="white"/>
<path d="M90.9675 156.648V107.805H68.4561V156.655C68.4561 158.594 69.5647 160.534 71.782 162.008C76.1779 164.969 83.3066 164.969 87.7025 162.008C89.9198 160.528 90.9952 158.594 91.0008 156.655L90.9675 156.648Z" fill="#37474F"/>
<path d="M71.7542 113.494C67.3528 110.533 67.3528 105.736 71.7542 102.769C76.1556 99.8011 83.2787 99.8076 87.6746 102.769C92.0705 105.73 92.0705 110.527 87.6746 113.494C83.2787 116.462 76.15 116.449 71.7542 113.494Z" fill="#455A64"/>
<path d="M117.992 174.848V139.29H95.4746V174.848C95.4746 176.787 96.5833 178.727 98.8006 180.201C103.196 183.162 110.325 183.162 114.721 180.201C116.938 178.727 118.019 176.787 118.019 174.848H117.992Z" fill="#37474F"/>
<path d="M98.7725 144.986C94.3766 142.025 94.3766 137.228 98.7725 134.26C103.168 131.293 110.297 131.299 114.693 134.26C119.089 137.221 119.094 142.018 114.693 144.986C110.292 147.953 103.163 147.973 98.7725 144.986Z" fill="#455A64"/>
<path d="M145.015 193.041V165.428H122.498V193.047C122.498 194.987 123.607 196.926 125.824 198.407C130.22 201.368 137.349 201.368 141.744 198.407C143.962 196.926 145.037 194.987 145.043 193.047L145.015 193.041Z" fill="#37474F"/>
<path d="M133.757 173.328C139.974 173.328 145.015 169.933 145.015 165.745C145.015 161.557 139.974 158.161 133.757 158.161C127.539 158.161 122.498 161.557 122.498 165.745C122.498 169.933 127.539 173.328 133.757 173.328Z" fill="#455A64"/>
<path d="M67.0149 173.872L61.6988 170.296L64.6423 165.848C65.0193 165.279 64.8419 164.969 64.2487 165.144L57.1976 167.264L51.8816 163.683C51.435 163.418 50.9412 163.28 50.4403 163.28C49.9394 163.28 49.4456 163.418 48.9991 163.683L40.6231 169.307C39.8249 169.844 39.8249 170.71 40.6231 171.247L55.7564 181.436C56.2029 181.7 56.6967 181.838 57.1976 181.838C57.6985 181.838 58.1923 181.7 58.6389 181.436L67.0149 175.792C67.8076 175.274 67.8076 174.408 67.0149 173.872Z" fill="#FFD789"/>
<path d="M58.5119 171.68C58.5986 171.67 58.6858 171.67 58.7725 171.68C58.8586 171.693 58.9416 171.726 59.0164 171.777L59.7758 172.288C59.827 172.317 59.8667 172.368 59.8867 172.43C59.8867 172.482 59.8867 172.527 59.8091 172.559C59.7909 172.565 59.7718 172.565 59.7536 172.559C59.7263 172.567 59.6978 172.567 59.6705 172.559L49.1382 173.529H48.8388C48.7524 173.514 48.6695 173.479 48.5949 173.426L47.8355 172.915C47.7842 172.886 47.7445 172.835 47.7246 172.773C47.7246 172.721 47.7246 172.676 47.8022 172.643C47.8204 172.638 47.8395 172.638 47.8577 172.643H47.9408L58.5119 171.68ZM55.1194 170.859C54.8941 171.035 54.6589 171.192 54.4154 171.331C54.2188 171.447 54.0127 171.541 53.8001 171.609C53.5772 171.675 53.3481 171.707 53.1183 171.706C52.6052 171.707 52.1013 171.546 51.6604 171.24C51.45 171.12 51.2617 170.953 51.106 170.749C51.005 170.615 50.9481 170.443 50.9453 170.264C50.9473 170.095 51.0003 169.933 51.095 169.805C51.2052 169.638 51.3404 169.496 51.4941 169.385C51.5992 169.296 51.7084 169.214 51.8211 169.139C51.9264 169.068 52.0539 168.991 52.1925 168.913C52.3921 168.796 52.6022 168.705 52.8189 168.641C53.2794 168.508 53.7609 168.508 54.2214 168.641C54.4775 168.722 54.7234 168.842 54.9531 168.997C55.1531 169.119 55.3302 169.286 55.4742 169.488C55.5764 169.622 55.6352 169.794 55.6405 169.973C55.6334 170.141 55.581 170.302 55.4908 170.432C55.3893 170.599 55.2636 170.743 55.1194 170.859ZM56.1671 175.915C55.9524 176.102 55.7264 176.27 55.4908 176.419C55.2928 176.535 55.0846 176.626 54.87 176.691C54.6479 176.762 54.4184 176.797 54.1881 176.794C53.9427 176.793 53.6985 176.754 53.4619 176.678C53.2052 176.602 52.9589 176.484 52.7302 176.328C52.5324 176.203 52.3559 176.036 52.2092 175.837C52.1069 175.701 52.0499 175.527 52.0484 175.346C52.0528 175.179 52.1033 175.018 52.1925 174.887C52.3054 174.722 52.4424 174.582 52.5972 174.473C52.7002 174.381 52.8096 174.298 52.9243 174.227C53.0437 174.143 53.1678 174.067 53.2957 174.001C53.4933 173.884 53.7015 173.793 53.9165 173.729C54.1398 173.666 54.3685 173.631 54.5983 173.626C55.1096 173.626 55.6113 173.787 56.0507 174.092C56.2621 174.21 56.4507 174.377 56.605 174.583C56.7029 174.714 56.7568 174.881 56.7568 175.055C56.7568 175.228 56.7029 175.396 56.605 175.527C56.4789 175.684 56.3309 175.815 56.1671 175.915ZM52.636 170.096C52.5258 170.169 52.4354 170.276 52.3755 170.406C52.3755 170.497 52.3755 170.587 52.5362 170.678C52.656 170.763 52.7957 170.801 52.9353 170.788C53.0963 170.758 53.2519 170.697 53.3954 170.607C53.6055 170.489 53.8075 170.353 53.9997 170.2C54.1125 170.129 54.205 170.021 54.2657 169.889C54.2657 169.799 54.238 169.708 54.105 169.618C53.9836 169.532 53.8413 169.496 53.7003 169.514C53.5411 169.54 53.3872 169.6 53.2458 169.689C53.034 169.797 52.8301 169.924 52.636 170.07V170.096ZM53.6892 175.152C53.5764 175.223 53.4839 175.331 53.4231 175.462C53.4231 175.546 53.4231 175.637 53.5839 175.727C53.7038 175.817 53.8468 175.856 53.9886 175.837C54.1472 175.808 54.3006 175.749 54.4431 175.663C54.6556 175.546 54.8595 175.41 55.0529 175.255C55.1645 175.185 55.2553 175.077 55.3134 174.945C55.3134 174.854 55.3134 174.764 55.1527 174.673C55.0329 174.589 54.8932 174.55 54.7535 174.563C54.5941 174.592 54.4403 174.654 54.299 174.745C54.0872 174.852 53.8833 174.98 53.6892 175.126V175.152Z" fill="white"/>
<path d="M96.2949 193.577L90.9678 189.996L93.9113 185.554C94.2827 184.985 94.1053 184.668 93.5121 184.849L86.461 186.963L81.145 183.388C80.6994 183.124 80.2065 182.986 79.7065 182.986C79.2065 182.986 78.7136 183.124 78.268 183.388L69.9031 189.026C69.1104 189.562 69.1104 190.435 69.9031 190.965L85.0364 201.161C85.4837 201.422 85.9772 201.559 86.4777 201.559C86.9781 201.559 87.4716 201.422 87.9189 201.161L96.2949 195.517C97.0931 194.98 97.0931 194.114 96.2949 193.577Z" fill="#FFD789"/>
<path d="M87.7911 191.386H88.0572C88.1434 191.402 88.2262 191.437 88.3011 191.489L89.055 192C89.1215 192.045 89.1603 192.09 89.1659 192.142C89.1714 192.194 89.1659 192.232 89.0938 192.271C89.0756 192.276 89.0566 192.276 89.0384 192.271H88.9552L78.4229 193.241C78.3344 193.251 78.2453 193.251 78.1568 193.241C78.0702 193.227 77.9871 193.192 77.9129 193.138L77.159 192.633C77.0925 192.588 77.0537 192.536 77.0482 192.491C77.0463 192.462 77.0523 192.434 77.0653 192.41C77.0782 192.385 77.0975 192.366 77.1202 192.355H77.1757H77.2588L87.7911 191.386ZM84.3986 190.564C84.1759 190.741 83.9425 190.899 83.7002 191.036C83.5021 191.153 83.294 191.244 83.0793 191.308C82.8572 191.379 82.6278 191.414 82.3975 191.411C82.1521 191.41 81.9079 191.371 81.6713 191.295C81.4146 191.219 81.1683 191.102 80.9396 190.946C80.7403 190.82 80.5619 190.654 80.413 190.455C80.3125 190.324 80.2569 190.155 80.2569 189.979C80.2569 189.804 80.3125 189.635 80.413 189.504C80.5251 189.341 80.66 189.201 80.8121 189.09C80.9168 189.001 81.026 188.919 81.1391 188.845C81.2612 188.761 81.387 188.686 81.5161 188.618C81.7137 188.501 81.922 188.41 82.1369 188.347C82.4956 188.24 82.8688 188.218 83.235 188.28C83.6012 188.342 83.9534 188.488 84.2711 188.709C84.4716 188.833 84.6503 188.999 84.7977 189.2C84.8996 189.334 84.9567 189.506 84.9585 189.685C84.9542 189.853 84.9015 190.015 84.8088 190.144C84.6952 190.312 84.5562 190.455 84.3986 190.564ZM85.4519 195.62C85.2267 195.796 84.9915 195.954 84.7479 196.092C84.5521 196.209 84.3457 196.3 84.1325 196.364C83.9097 196.429 83.6806 196.462 83.4507 196.461C82.9376 196.462 82.4338 196.301 81.9928 195.995C81.7927 195.874 81.6141 195.709 81.4662 195.51C81.364 195.374 81.3069 195.2 81.3055 195.019C81.3118 194.851 81.3643 194.69 81.4551 194.56C81.5669 194.395 81.7018 194.253 81.8542 194.14C81.9651 194.049 82.076 193.972 82.1813 193.894C82.2866 193.816 82.4141 193.745 82.5527 193.668C82.7523 193.551 82.9623 193.459 83.1791 193.396C83.4029 193.337 83.6314 193.304 83.8609 193.299C84.1042 193.298 84.3466 193.335 84.5815 193.409C84.8388 193.486 85.0852 193.606 85.3133 193.765C85.5138 193.888 85.6924 194.055 85.8399 194.256C85.94 194.386 85.9954 194.554 85.9954 194.728C85.9954 194.902 85.94 195.07 85.8399 195.2C85.7314 195.364 85.6003 195.506 85.4519 195.62ZM81.9208 189.802C81.8079 189.872 81.7154 189.98 81.6547 190.112C81.6547 190.196 81.6824 190.286 81.8154 190.377C81.9353 190.467 82.0784 190.506 82.2201 190.487C82.3785 190.457 82.5318 190.398 82.6746 190.312C82.8884 190.197 83.0925 190.058 83.2844 189.899C83.3952 189.83 83.4859 189.724 83.545 189.595C83.545 189.504 83.5172 189.414 83.3842 189.323C83.2655 189.235 83.1249 189.197 82.9851 189.213C82.8239 189.242 82.6682 189.303 82.525 189.394C82.315 189.502 82.1129 189.63 81.9208 189.776V189.802ZM82.9684 194.857C82.86 194.93 82.7701 195.035 82.7079 195.161C82.7079 195.252 82.7356 195.342 82.8687 195.433C82.9874 195.521 83.1279 195.559 83.2678 195.543C83.4282 195.513 83.5835 195.455 83.7279 195.368C83.9376 195.247 84.1396 195.109 84.3321 194.954C84.4431 194.883 84.5351 194.778 84.5982 194.65C84.6259 194.56 84.5982 194.469 84.4374 194.379C84.3165 194.292 84.1743 194.253 84.0328 194.269C83.8744 194.299 83.721 194.358 83.5782 194.444C83.3679 194.557 83.1643 194.687 82.9684 194.831V194.857Z" fill="white"/>
<path d="M125.553 213.27L120.237 209.695L123.186 205.24C123.557 204.678 123.38 204.361 122.787 204.542L115.735 206.656L110.419 203.081C109.973 202.816 109.479 202.678 108.978 202.678C108.477 202.678 107.983 202.816 107.537 203.081L99.1609 208.744C98.3682 209.281 98.3682 210.154 99.1609 210.684L114.294 220.879C114.742 221.141 115.235 221.277 115.735 221.277C116.236 221.277 116.729 221.141 117.177 220.879L125.553 215.209C126.351 214.692 126.351 213.826 125.553 213.27Z" fill="#FFD789"/>
<path d="M117.049 211.097H117.31C117.396 211.113 117.479 211.148 117.554 211.201L118.313 211.712C118.38 211.757 118.418 211.802 118.424 211.854C118.43 211.905 118.424 211.944 118.352 211.983H118.297H118.213L107.681 212.953C107.594 212.963 107.507 212.963 107.421 212.953C107.334 212.94 107.25 212.904 107.177 212.849L106.423 212.345C106.356 212.3 106.317 212.248 106.312 212.203C106.31 212.174 106.316 212.146 106.329 212.121C106.342 212.097 106.361 212.078 106.384 212.067H106.439C106.467 212.06 106.495 212.06 106.522 212.067L117.049 211.097ZM113.657 210.276C113.433 210.455 113.198 210.612 112.953 210.748C112.757 210.865 112.551 210.956 112.337 211.02C112.115 211.091 111.886 211.126 111.656 211.123C111.408 211.122 111.162 211.083 110.924 211.007C110.669 210.931 110.424 210.814 110.198 210.658C109.998 210.532 109.82 210.366 109.671 210.166C109.569 210.03 109.512 209.856 109.51 209.675C109.517 209.507 109.569 209.346 109.66 209.216C109.773 209.052 109.908 208.911 110.059 208.796C110.17 208.705 110.281 208.628 110.386 208.557C110.492 208.485 110.619 208.408 110.758 208.324C111.165 208.091 111.612 207.965 112.066 207.955C112.577 207.957 113.078 208.118 113.518 208.421C113.719 208.544 113.897 208.711 114.045 208.912C114.145 209.047 114.202 209.219 114.206 209.397C114.198 209.565 114.146 209.725 114.056 209.856C113.946 210.023 113.81 210.165 113.657 210.276ZM114.704 215.332C114.48 215.506 114.247 215.664 114.006 215.804C113.81 215.92 113.604 216.011 113.391 216.075C112.927 216.213 112.441 216.213 111.977 216.075C111.722 215.997 111.478 215.878 111.251 215.72C111.04 215.602 110.851 215.434 110.697 215.229C110.594 215.095 110.537 214.923 110.536 214.744C110.539 214.576 110.59 214.415 110.68 214.285C110.795 214.121 110.932 213.979 111.085 213.864C111.19 213.776 111.299 213.694 111.412 213.619C111.517 213.548 111.645 213.47 111.783 213.392C112.188 213.15 112.636 213.023 113.091 213.024C113.335 213.023 113.577 213.06 113.812 213.134C114.067 213.212 114.312 213.332 114.538 213.489C114.75 213.608 114.938 213.775 115.092 213.981C115.195 214.114 115.252 214.287 115.253 214.466C115.25 214.633 115.199 214.795 115.109 214.925C114.996 215.087 114.859 215.225 114.704 215.332ZM111.173 209.513C111.063 209.586 110.973 209.694 110.913 209.824C110.913 209.908 110.941 209.998 111.074 210.089C111.193 210.176 111.333 210.214 111.473 210.199C111.633 210.17 111.788 210.111 111.933 210.024C112.146 209.907 112.35 209.769 112.543 209.61C112.653 209.542 112.744 209.436 112.803 209.307C112.831 209.216 112.803 209.126 112.642 209.035C112.521 208.948 112.379 208.909 112.238 208.925C112.078 208.955 111.925 209.016 111.783 209.106C111.572 209.215 111.368 209.343 111.173 209.488V209.513ZM112.227 214.569C112.117 214.642 112.025 214.747 111.96 214.873C111.96 214.963 111.96 215.054 112.127 215.145C112.245 215.232 112.386 215.271 112.526 215.254C112.685 215.225 112.838 215.166 112.98 215.08C113.192 214.959 113.396 214.821 113.59 214.666C113.701 214.595 113.793 214.49 113.856 214.362C113.886 214.272 113.83 214.181 113.69 214.091C113.571 214.003 113.431 213.964 113.291 213.981C113.132 214.01 112.979 214.069 112.836 214.155C112.625 214.274 112.421 214.41 112.227 214.563V214.569Z" fill="white"/>
<path d="M201.308 106.615L192.3 100.551V70.2234L201.308 76.2876V106.615Z" fill="#37474F"/>
<path d="M201.308 106.615L210.316 100.551V70.2234L201.308 76.2876V106.615Z" fill="#455A64"/>
<path d="M192.3 70.2232L201.308 76.2874L210.316 70.2232L201.308 64.1589L192.3 70.2232Z" fill="#455A64"/>
<path d="M181.041 92.9675L172.033 86.9032V26.2542L181.041 32.3184V92.9675Z" fill="#37474F"/>
<path d="M181.041 92.9675L190.049 86.9032V26.2542L181.041 32.3184V92.9675Z" fill="#455A64"/>
<path d="M172.033 26.2542L181.041 32.3185L190.049 26.2542L181.041 20.1899L172.033 26.2542Z" fill="#455A64"/>
<path d="M160.775 79.3197L151.767 73.2554V52.0305L160.775 58.0948V79.3197Z" fill="#37474F"/>
<path d="M160.774 79.3197L169.782 73.2554V52.0305L160.774 58.0948V79.3197Z" fill="#455A64"/>
<path d="M151.767 52.0306L160.775 58.0948L169.782 52.0306L160.775 45.9663L151.767 52.0306Z" fill="#455A64"/>
<path d="M221.574 120.263L212.566 114.192V56.5818L221.569 62.646L221.574 120.263Z" fill="#37474F"/>
<path d="M221.568 120.263L230.576 114.192V56.5818L221.568 62.646V120.263Z" fill="#455A64"/>
<path d="M212.566 56.5817L221.569 62.646L230.577 56.5817L221.574 50.511L212.566 56.5817Z" fill="#455A64"/>
<g opacity="0.3">
<path d="M158.596 115.861L158.502 48.7011C158.483 48.3124 158.385 47.9344 158.218 47.5975C158.05 47.2607 157.817 46.9743 157.538 46.7616L89.5986 1.21499C89.0443 0.859412 88.6396 1.15034 88.6396 1.8615L88.7505 68.995C88.7687 69.3842 88.8655 69.7627 89.0332 70.0998C89.2008 70.4369 89.4345 70.723 89.7151 70.9346L157.66 116.513C158.175 116.869 158.596 116.578 158.596 115.861Z" fill="white"/>
</g>
<path d="M158.075 116.985C157.879 116.976 157.689 116.91 157.521 116.791L89.5765 71.2124C89.2522 70.9743 88.982 70.6484 88.7889 70.2623C88.5959 69.8762 88.4857 69.4414 88.4678 68.9949L88.3625 1.86137C88.3393 1.66449 88.3668 1.46401 88.4416 1.28542C88.5163 1.10682 88.6349 0.958188 88.7823 0.858397C88.9296 0.758606 89.0991 0.712167 89.2691 0.724988C89.4392 0.737809 89.6021 0.809308 89.7372 0.930396L157.682 46.4705C158.005 46.7094 158.275 47.0356 158.468 47.4215C158.661 47.8075 158.772 48.2418 158.79 48.688L158.885 115.847C158.898 116.043 158.867 116.24 158.793 116.417C158.72 116.594 158.608 116.746 158.469 116.856C158.35 116.939 158.214 116.984 158.075 116.985ZM89.1718 1.35709C89.1355 1.34586 89.0973 1.34586 89.0609 1.35709C89.0068 1.41145 88.9653 1.48077 88.9401 1.55871C88.9149 1.63664 88.9069 1.72071 88.9168 1.80319L89.0111 68.9626C89.0268 69.3023 89.112 69.6328 89.2595 69.9263C89.4071 70.2198 89.6127 70.468 89.8592 70.65L157.804 116.229C157.97 116.339 158.114 116.371 158.203 116.306C158.292 116.242 158.347 116.087 158.347 115.86L158.253 48.701C158.235 48.3699 158.152 48.0482 158.009 47.761C157.867 47.4739 157.669 47.2291 157.432 47.0459L89.4601 1.467C89.3736 1.40238 89.2743 1.36455 89.1718 1.35709Z" fill="#FFD789"/>
<path d="M152.144 101.042C150.343 99.5491 149.289 98.1978 148.574 87.8149L148.513 86.9292C147.843 77.1734 147.405 70.7341 143.591 68.077C141.762 66.784 140.298 68.077 138.752 69.4799C137.349 70.7277 135.908 72.0078 134.284 70.9281C131.429 68.9886 130.958 65.1483 130.071 58.1401C129.96 57.2738 129.849 56.3622 129.721 55.4054C129.527 53.912 129.361 52.522 129.206 51.216C128.33 43.8587 127.798 39.4107 124.572 37.1415C124.254 36.8789 123.888 36.7065 123.503 36.638C123.118 36.5696 122.725 36.6069 122.354 36.7471C119.91 37.7428 117.997 43.7747 115.974 50.1687C115.819 50.6406 115.669 51.1384 115.508 51.6362C114.039 56.3493 112.376 61.6959 110.076 62.6851C109.751 62.824 109.403 62.8752 109.058 62.8349C108.713 62.7945 108.381 62.6638 108.086 62.4523C105.796 60.9395 105.386 56.8018 104.993 52.7935C104.599 48.7851 104.217 44.7574 102.055 43.2381C101.871 43.0998 101.662 43.0163 101.444 42.9949C101.227 42.9735 101.008 43.0148 100.807 43.1152C98.1245 44.3307 95.7464 53.5887 95.7243 53.6792L95.1699 53.4982C95.2697 53.1038 97.6478 43.8458 100.58 42.5075C100.86 42.3723 101.164 42.3175 101.466 42.3479C101.768 42.3783 102.059 42.4929 102.315 42.6821C104.704 44.3501 105.12 48.5976 105.525 52.703C105.93 56.8083 106.295 60.5257 108.346 61.8769C108.57 62.0426 108.824 62.1458 109.087 62.1783C109.35 62.2108 109.617 62.1719 109.865 62.0644C111.922 61.1787 113.613 55.761 114.971 51.4035C115.131 50.8992 115.281 50.4079 115.436 49.9295C117.598 43.1088 119.466 37.2191 122.155 36.12C122.6 35.9515 123.073 35.9053 123.537 35.9849C124 36.0645 124.442 36.2678 124.827 36.579C128.275 39.0099 128.823 43.5678 129.721 51.119C129.877 52.412 130.043 53.8085 130.237 55.2955C130.364 56.2588 130.475 57.1704 130.586 58.0302C131.434 64.8444 131.906 68.5942 134.528 70.3527C135.83 71.2255 137.011 70.1717 138.38 68.9562C139.932 67.5727 141.706 66.0146 143.84 67.508C147.892 70.3398 148.347 76.9148 149.029 86.8645L149.09 87.7503C149.822 98.3401 150.919 99.2452 152.416 100.506L152.144 101.042Z" fill="#FFD789"/>
<g opacity="0.4">
<path d="M152.144 101.042C150.343 99.5491 149.289 98.1978 148.574 87.8149L148.513 86.9292C147.843 77.1734 147.405 70.7341 143.591 68.077C141.762 66.784 140.298 68.077 138.752 69.4799C137.349 70.7277 135.908 72.0078 134.284 70.9281C131.429 68.9886 130.958 65.1483 130.071 58.1401C129.96 57.2738 129.849 56.3622 129.721 55.4054C129.527 53.912 129.361 52.522 129.206 51.216C128.33 43.8587 127.798 39.4107 124.572 37.1415C124.254 36.8789 123.888 36.7065 123.503 36.638C123.118 36.5696 122.725 36.6069 122.354 36.7471C119.91 37.7428 117.997 43.7747 115.974 50.1687C115.819 50.6406 115.669 51.1384 115.508 51.6362C114.039 56.3493 112.376 61.6959 110.076 62.6851C109.751 62.824 109.403 62.8752 109.058 62.8349C108.713 62.7945 108.381 62.6638 108.086 62.4523C105.796 60.9395 105.386 56.8018 104.993 52.7935C104.599 48.7851 104.217 44.7574 102.055 43.2381C101.871 43.0998 101.662 43.0163 101.444 42.9949C101.227 42.9735 101.008 43.0148 100.807 43.1152C98.1245 44.3307 95.7464 53.5887 95.7243 53.6792L95.1699 53.4982C95.2697 53.1038 97.6478 43.8458 100.58 42.5075C100.86 42.3723 101.164 42.3175 101.466 42.3479C101.768 42.3783 102.059 42.4929 102.315 42.6821C104.704 44.3501 105.12 48.5976 105.525 52.703C105.93 56.8083 106.295 60.5257 108.346 61.8769C108.57 62.0426 108.824 62.1458 109.087 62.1783C109.35 62.2108 109.617 62.1719 109.865 62.0644C111.922 61.1787 113.613 55.761 114.971 51.4035C115.131 50.8992 115.281 50.4079 115.436 49.9295C117.598 43.1088 119.466 37.2191 122.155 36.12C122.6 35.9515 123.073 35.9053 123.537 35.9849C124 36.0645 124.442 36.2678 124.827 36.579C128.275 39.0099 128.823 43.5678 129.721 51.119C129.877 52.412 130.043 53.8085 130.237 55.2955C130.364 56.2588 130.475 57.1704 130.586 58.0302C131.434 64.8444 131.906 68.5942 134.528 70.3527C135.83 71.2255 137.011 70.1717 138.38 68.9562C139.932 67.5727 141.706 66.0146 143.84 67.508C147.892 70.3398 148.347 76.9148 149.029 86.8645L149.09 87.7503C149.822 98.3401 150.919 99.2452 152.416 100.506L152.144 101.042Z" fill="black"/>
</g>
<path d="M142.77 65.2193C143.182 65.5344 143.525 65.9574 143.773 66.4546C144.02 66.9518 144.164 67.5096 144.194 68.0833C144.194 69.1372 143.557 69.5639 142.775 69.0402C142.361 68.7274 142.016 68.3049 141.769 67.8072C141.521 67.3095 141.378 66.7507 141.351 66.1761C141.351 65.1482 141.966 64.7215 142.77 65.2193Z" fill="#FFD789"/>
<g opacity="0.2">
<path d="M142.77 65.2193C143.182 65.5344 143.525 65.9574 143.773 66.4546C144.02 66.9518 144.164 67.5096 144.194 68.0833C144.194 69.1372 143.557 69.5639 142.775 69.0402C142.361 68.7274 142.016 68.3049 141.769 67.8072C141.521 67.3095 141.378 66.7507 141.351 66.1761C141.351 65.1482 141.966 64.7215 142.77 65.2193Z" fill="black"/>
</g>
<path d="M124.715 34.9562C125.128 35.2701 125.471 35.6929 125.718 36.1905C125.964 36.6881 126.107 37.2464 126.134 37.8202C126.134 38.874 125.502 39.3007 124.721 38.777C124.306 38.4646 123.961 38.0423 123.713 37.5445C123.466 37.0467 123.323 36.4876 123.296 35.913C123.296 34.8333 123.928 34.4325 124.715 34.9562Z" fill="#FFD789"/>
<g opacity="0.5">
<path d="M124.715 34.9562C125.128 35.2701 125.471 35.6929 125.718 36.1905C125.964 36.6881 126.107 37.2464 126.134 37.8202C126.134 38.874 125.502 39.3007 124.721 38.777C124.306 38.4646 123.961 38.0423 123.713 37.5445C123.466 37.0467 123.323 36.4876 123.296 35.913C123.296 34.8333 123.928 34.4325 124.715 34.9562Z" fill="white"/>
</g>
<path d="M102.204 41.0654C102.618 41.3764 102.963 41.7976 103.211 42.2943C103.458 42.791 103.601 43.3492 103.628 43.923C103.628 44.9832 102.996 45.4099 102.209 44.8863C101.797 44.572 101.453 44.1491 101.207 43.6516C100.96 43.1541 100.818 42.5959 100.79 42.0222C100.785 40.9684 101.422 40.5353 102.204 41.0654Z" fill="#FFD789"/>
<path opacity="0.65" d="M122.493 112.9V45.7401C122.474 45.3518 122.378 44.974 122.211 44.6371C122.045 44.3002 121.813 44.0137 121.534 43.8006L62.6582 4.15664C62.1039 3.80106 61.6992 4.09199 61.6992 4.80315V71.9625C61.7172 72.351 61.8134 72.729 61.98 73.0659C62.1466 73.4029 62.379 73.6894 62.6582 73.9021L121.534 113.546C122.066 113.908 122.493 113.617 122.493 112.9Z" fill="white"/>
<path d="M121.966 114.024C121.77 114.015 121.579 113.949 121.411 113.83L62.5192 74.1863C62.1957 73.9456 61.9263 73.6181 61.7334 73.2312C61.5405 72.8443 61.4298 72.4092 61.4105 71.9623V4.8029C61.3886 4.60654 61.4171 4.40702 61.4923 4.22952C61.5676 4.05203 61.6863 3.90452 61.8333 3.80561C61.9804 3.7067 62.1493 3.66082 62.3187 3.67378C62.4882 3.68673 62.6505 3.75793 62.7852 3.87839L121.661 43.5224C121.984 43.7617 122.254 44.0879 122.447 44.4738C122.64 44.8596 122.75 45.2938 122.77 45.7399V112.899C122.783 113.095 122.751 113.292 122.678 113.469C122.605 113.646 122.493 113.798 122.354 113.908C122.235 113.986 122.102 114.026 121.966 114.024ZM62.2309 4.33095C62.1945 4.32 62.1564 4.32 62.12 4.33095C62.0659 4.38531 62.0244 4.45463 61.9992 4.53256C61.974 4.6105 61.966 4.69456 61.9759 4.77704V71.9623C61.9933 72.2943 62.0764 72.6172 62.2188 72.9055C62.3611 73.1937 62.5588 73.4396 62.7963 73.6238L121.672 113.268C121.728 113.319 121.795 113.353 121.866 113.367C121.937 113.381 122.009 113.373 122.077 113.345C122.165 113.287 122.215 113.126 122.215 112.899V45.7399C122.198 45.4086 122.115 45.0865 121.973 44.7992C121.83 44.5119 121.633 44.2673 121.395 44.0848L62.5192 4.44732C62.4343 4.37785 62.3344 4.33753 62.2309 4.33095Z" fill="#FFD789"/>
<path d="M112.365 97.6354V53.44C112.355 53.2455 112.307 53.0565 112.223 52.888C112.139 52.7195 112.022 52.5764 111.882 52.4702L106.09 48.5912C105.824 48.4101 105.607 48.5524 105.607 48.9144V93.0839C105.616 93.2787 105.664 93.4684 105.748 93.6371C105.831 93.8058 105.949 93.9487 106.09 94.0537L111.882 97.9328C112.149 98.1396 112.365 97.9909 112.365 97.6354Z" fill="#FFD789"/>
<g opacity="0.3">
<path d="M112.365 97.6354V53.44C112.355 53.2455 112.307 53.0565 112.223 52.888C112.139 52.7195 112.022 52.5764 111.882 52.4702L106.09 48.5912C105.824 48.4101 105.607 48.5524 105.607 48.9144V93.0839C105.616 93.2787 105.664 93.4684 105.748 93.6371C105.831 93.8058 105.949 93.9487 106.09 94.0537L111.882 97.9328C112.149 98.1396 112.365 97.9909 112.365 97.6354Z" fill="black"/>
</g>
<path d="M101.107 90.0517V67.0877C101.097 66.8933 101.049 66.7042 100.965 66.5357C100.881 66.3673 100.765 66.2242 100.625 66.118L94.8263 62.2389C94.5658 62.0644 94.3496 62.2389 94.3496 62.5622V85.5326C94.3594 85.7263 94.4075 85.9146 94.4902 86.0829C94.5729 86.2512 94.688 86.3948 94.8263 86.5024L100.625 90.3815C100.891 90.556 101.107 90.4332 101.107 90.0517Z" fill="#FFD789"/>
<g opacity="0.2">
<path d="M101.107 90.0517V67.0877C101.097 66.8933 101.049 66.7042 100.965 66.5357C100.881 66.3673 100.765 66.2242 100.625 66.118L94.8263 62.2389C94.5658 62.0644 94.3496 62.2389 94.3496 62.5622V85.5326C94.3594 85.7263 94.4075 85.9146 94.4902 86.0829C94.5729 86.2512 94.688 86.3948 94.8263 86.5024L100.625 90.3815C100.891 90.556 101.107 90.4332 101.107 90.0517Z" fill="white"/>
</g>
<path d="M89.8589 82.4745V47.3755C89.8494 47.1811 89.8007 46.992 89.717 46.8235C89.6332 46.6551 89.5166 46.512 89.3766 46.4058L83.5783 42.5267C83.3178 42.3457 83.1016 42.4879 83.1016 42.85V77.9425C83.1105 78.1364 83.1582 78.3251 83.241 78.4935C83.3238 78.6619 83.4393 78.8054 83.5783 78.9123L89.3766 82.7913C89.6316 82.9723 89.8589 82.8301 89.8589 82.4745Z" fill="#FFD789"/>
<g opacity="0.2">
<path d="M89.8589 82.4745V47.3755C89.8494 47.1811 89.8007 46.992 89.717 46.8235C89.6332 46.6551 89.5166 46.512 89.3766 46.4058L83.5783 42.5267C83.3178 42.3457 83.1016 42.4879 83.1016 42.85V77.9425C83.1105 78.1364 83.1582 78.3251 83.241 78.4935C83.3238 78.6619 83.4393 78.8054 83.5783 78.9123L89.3766 82.7913C89.6316 82.9723 89.8589 82.8301 89.8589 82.4745Z" fill="black"/>
</g>
<path d="M78.5838 74.917V24.6315C78.5753 24.4376 78.5278 24.2486 78.4449 24.0801C78.3621 23.9116 78.2463 23.7683 78.1071 23.6618L72.3088 19.7827C72.0482 19.6017 71.832 19.7827 71.832 20.106V70.3656C71.8418 70.5593 71.8899 70.7476 71.9726 70.9159C72.0554 71.0841 72.1704 71.2277 72.3088 71.3354L78.1071 75.2144C78.3732 75.3955 78.5838 75.2468 78.5838 74.917Z" fill="#FFD789"/>
<path d="M198.303 82.9532C198.225 82.4684 196.191 76.9472 195.354 74.7749L191.113 77.0894L192.737 81.4275L197.128 85.3906C197.555 85.2388 197.916 84.9007 198.134 84.4467C198.353 83.9928 198.414 83.4578 198.303 82.9532Z" fill="#FFA8A7"/>
<path d="M189.855 140.783H186.584V146.343H189.855V140.783Z" fill="#FFA8A7"/>
<path d="M178.333 133.916L175.064 134.047L175.228 139.604L178.497 139.473L178.333 133.916Z" fill="#FFA8A7"/>
<path d="M179.15 61.1592C177.967 61.1912 176.809 61.572 175.786 62.2661C174.762 62.9601 173.906 63.9449 173.297 65.1287C171.489 68.2643 168.308 73.6239 168.308 73.6239L174.267 75.8285L179.15 61.1592Z" fill="#FFD789"/>
<g opacity="0.7">
<path d="M179.15 61.1592C177.967 61.1912 176.809 61.572 175.786 62.2661C174.762 62.9601 173.906 63.9449 173.297 65.1287C171.489 68.2643 168.308 73.6239 168.308 73.6239L174.267 75.8285L179.15 61.1592Z" fill="white"/>
</g>
<path d="M189.639 86.5542C189.639 90.2005 190.044 113.779 190.044 113.779C190.121 114.826 190.964 116.759 190.781 120.787C190.532 126.263 190.127 141.475 190.127 141.475C190.127 141.475 188.591 143.253 186.424 141.475C186.424 141.475 183.458 120.819 182.876 115.395C182.361 110.663 181.496 97.8099 181.496 97.8099L178.464 112.945C178.464 112.945 179.018 116.501 179.112 119.009C179.207 121.517 178.558 136.025 178.558 136.025C178.027 136.412 177.419 136.63 176.794 136.658C176.169 136.687 175.548 136.524 174.994 136.187C174.994 136.187 172.366 114.994 172.028 112.725C171.69 110.456 174.334 86.5542 174.334 86.5542H189.639Z" fill="#FFD789"/>
<path opacity="0.2" d="M189.639 86.5542C189.639 90.2005 190.044 113.779 190.044 113.779C190.121 114.826 190.964 116.759 190.781 120.787C190.532 126.263 190.127 141.475 190.127 141.475C190.127 141.475 188.591 143.253 186.424 141.475C186.424 141.475 183.458 120.819 182.876 115.395C182.361 110.663 181.496 97.8099 181.496 97.8099L178.464 112.945C178.464 112.945 179.018 116.501 179.112 119.009C179.207 121.517 178.558 136.025 178.558 136.025C178.027 136.412 177.419 136.63 176.794 136.658C176.169 136.687 175.548 136.524 174.994 136.187C174.994 136.187 172.366 114.994 172.028 112.725C171.69 110.456 174.334 86.5542 174.334 86.5542H189.639Z" fill="black"/>
<path d="M184.716 61.2756C187.649 62.0967 191.368 63.4802 192.677 66.6352C193.985 69.7902 196.003 74.904 196.003 74.904L191.147 78.253L189.639 75.2273V86.5541C187.344 89.4634 179.339 90.8211 174.328 86.5541V67.9088C174.328 64.9413 175.747 61.3661 179.655 61.1011L184.716 61.2756Z" fill="#FFD789"/>
<path opacity="0.7" d="M184.716 61.2756C187.649 62.0967 191.368 63.4802 192.677 66.6352C193.985 69.7902 196.003 74.904 196.003 74.904L191.147 78.253L189.639 75.2273V86.5541C187.344 89.4634 179.339 90.8211 174.328 86.5541V67.9088C174.328 64.9413 175.747 61.3661 179.655 61.1011L184.716 61.2756Z" fill="white"/>
<path d="M185.819 46.0568C186.082 46.0214 186.348 46.0567 186.598 46.1597C186.848 46.2628 187.074 46.431 187.26 46.6516C187.881 47.3886 187.753 48.7592 187.26 51.9012L185.342 52.1598L185.819 46.0568Z" fill="#263238"/>
<path d="M174.672 45.1772C174.26 45.1832 173.852 45.0885 173.474 44.8992C172.887 44.5049 172.732 45.2807 173.053 45.9595C173.266 46.4437 173.581 46.8564 173.969 47.1586C174.358 47.4607 174.805 47.6421 175.27 47.6857C175.27 47.5887 175.825 45.9401 175.825 45.9401L174.672 45.1772Z" fill="#263238"/>
<path d="M184.921 52.16C185.204 52.3604 185.609 51.7204 185.958 51.2937C186.096 51.1101 186.271 50.9705 186.468 50.8877C186.665 50.805 186.877 50.782 187.084 50.8207C187.29 50.8595 187.485 50.9588 187.65 51.1094C187.815 51.26 187.944 51.4568 188.025 51.6816C188.607 53.1104 187.288 55.0176 186.512 55.6447C186.295 55.8632 186.025 55.9965 185.739 56.0255C185.453 56.0545 185.167 55.9778 184.921 55.8063L184.716 61.2758C184.374 62.1523 183.85 62.9159 183.192 63.4981C182.534 64.0804 181.763 64.463 180.947 64.6118C178.175 65.0449 178.757 62.4007 179.661 61.1012V59.11C178.973 59.2839 178.265 59.3275 177.565 59.2393C177.205 59.1294 176.351 57.9463 175.797 56.5692C175.176 55.0499 174.134 52.354 175.065 47.7961C176.052 42.902 180.559 42.7533 183.253 44.7251C185.947 46.697 184.921 52.16 184.921 52.16Z" fill="#FFA8A7"/>
<path d="M184.922 52.7157C185.06 52.7157 185.609 51.6684 185.958 51.2934C186.451 50.7697 185.82 46.0567 185.82 46.0567C185.82 46.0567 186.313 44.2723 185.343 43.0827C184.373 41.8931 182.499 42.1 181.124 42.0418C179.437 42.0517 177.766 41.6602 176.213 40.891C174.262 39.9019 174.118 39.7855 173.874 40.7876C173.63 41.7897 173.541 44.0719 174.705 45.6041L175.675 46.0243C175.675 46.0243 176.196 46.5609 178.015 46.8195C179.695 46.9684 181.384 46.9316 183.059 46.7096C183.586 46.6256 183.696 47.2204 183.979 48.8496C184.234 50.2848 184.439 52.7092 184.922 52.7157Z" fill="#263238"/>
<path d="M185.814 46.4254L187.532 45.3457C187.478 45.2111 187.4 45.0909 187.304 44.9923C187.209 44.8937 187.097 44.8189 186.975 44.7724C186.854 44.7258 186.726 44.7085 186.599 44.7215C186.471 44.7345 186.348 44.7775 186.235 44.8479C186.004 44.9971 185.832 45.2444 185.753 45.5381C185.675 45.8319 185.697 46.1497 185.814 46.4254Z" fill="#263238"/>
<path d="M179.66 59.1097C180.836 58.8513 181.988 58.4661 183.103 57.9589C183.627 57.6422 184.057 57.1459 184.333 56.5366C184.199 57.1459 183.962 57.7176 183.635 58.2175C182.981 59.1873 179.66 59.9049 179.66 59.9049V59.1097Z" fill="#F28F8F"/>
<path d="M180.282 51.4163C180.28 51.496 180.291 51.5755 180.316 51.6499C180.34 51.7243 180.378 51.7922 180.425 51.8495C180.473 51.9068 180.53 51.9523 180.593 51.9834C180.656 52.0145 180.723 52.0306 180.792 52.0305C180.904 52.0409 181.016 52.0111 181.114 51.9452C181.211 51.8793 181.289 51.7803 181.337 51.6615C181.385 51.5427 181.401 51.4097 181.382 51.2801C181.364 51.1505 181.312 51.0306 181.234 50.9362C181.155 50.8419 181.054 50.7776 180.944 50.752C180.833 50.7263 180.719 50.7405 180.616 50.7926C180.512 50.8447 180.425 50.9323 180.365 51.0438C180.306 51.1552 180.277 51.2851 180.282 51.4163Z" fill="#263238"/>
<path d="M180.819 49.1664L181.928 49.871C182.005 49.6959 182.021 49.4931 181.974 49.3043C181.926 49.1156 181.819 48.9551 181.673 48.856C181.6 48.8073 181.52 48.7767 181.436 48.766C181.353 48.7553 181.268 48.7648 181.188 48.7939C181.108 48.8231 181.034 48.8712 180.97 48.9353C180.907 48.9993 180.856 49.078 180.819 49.1664Z" fill="#263238"/>
<path d="M180.32 55.457L179.15 55.9678C179.177 56.0585 179.218 56.1422 179.272 56.2142C179.326 56.2861 179.392 56.3449 179.466 56.3869C179.54 56.429 179.62 56.4536 179.702 56.4594C179.784 56.4651 179.866 56.4518 179.943 56.4203C180.1 56.3466 180.226 56.2056 180.296 56.0263C180.366 55.8471 180.375 55.6434 180.32 55.457Z" fill="#F28F8F"/>
<path d="M175.725 49.6644L176.717 48.7657C176.67 48.6874 176.61 48.621 176.541 48.5706C176.471 48.5201 176.394 48.4866 176.313 48.4721C176.232 48.4576 176.15 48.4623 176.071 48.4861C175.991 48.51 175.917 48.5523 175.852 48.6105C175.719 48.7332 175.631 48.9113 175.607 49.1076C175.583 49.3039 175.625 49.5034 175.725 49.6644Z" fill="#263238"/>
<path d="M176.029 51.2485C176.029 51.3266 176.043 51.4039 176.068 51.4761C176.094 51.5482 176.131 51.6138 176.179 51.669C176.226 51.7243 176.282 51.7681 176.344 51.798C176.406 51.8279 176.472 51.8432 176.539 51.8432C176.606 51.8432 176.673 51.8279 176.734 51.798C176.796 51.7681 176.853 51.7243 176.9 51.669C176.947 51.6138 176.985 51.5482 177.01 51.4761C177.036 51.4039 177.049 51.3266 177.049 51.2485C177.052 51.1687 177.04 51.0893 177.015 51.0149C176.991 50.9405 176.954 50.8726 176.906 50.8153C176.858 50.758 176.801 50.7124 176.738 50.6813C176.675 50.6502 176.608 50.6342 176.539 50.6343C176.402 50.6377 176.272 50.7041 176.176 50.8191C176.081 50.9341 176.028 51.0884 176.029 51.2485Z" fill="#263238"/>
<path d="M178.63 50.6794L178.463 54.2676L176.861 53.6275L178.63 50.6794Z" fill="#F28F8F"/>
<path d="M165.281 72.2725L178.352 76.2873L182.211 95.2106L169.782 91.0018L165.281 72.2725Z" fill="#FFD789"/>
<path d="M170.98 84.7957C170.75 85.2746 170.401 85.6619 169.98 85.9074C169.559 86.153 169.085 86.2454 168.618 86.1727L168.43 85.3904L170.98 84.7957Z" fill="#FFD789"/>
<path d="M173.9 85.3904C173.956 85.8947 174.848 86.8256 176.351 87.4075C178.058 88.054 180.68 87.7243 180.68 87.7243L180.447 86.7804L173.9 85.3904Z" fill="#FFD789"/>
<path opacity="0.43" d="M169.128 75.0139L169.017 74.4321C168.962 74.1088 169.727 74.0959 170.736 74.3997L172.659 74.9816C173.668 75.2919 174.528 75.7962 174.589 76.1194L174.699 76.7013L169.128 75.0139Z" fill="#455A64"/>
<path d="M168.197 72.8223C168.164 72.6219 168.474 72.5701 168.895 72.7059L169.682 72.9774C169.682 72.9774 169.455 71.6844 171.151 72.1564C171.604 72.2342 172.032 72.4472 172.393 72.7745C172.754 73.1019 173.037 73.5325 173.213 74.0248L174.028 74.2963C174.477 74.445 174.882 74.723 174.937 74.9428L175.032 75.3049L168.297 73.236L168.197 72.8223Z" fill="#37474F"/>
<path d="M169.129 73.4494C169.744 73.624 169.999 73.7209 170.093 74.2123C170.187 74.7036 170.243 75.195 170.243 75.195L173.22 76.113C173.22 76.113 173.075 75.3954 173.031 75.1174C172.987 74.8394 173.087 74.6713 173.585 74.8135L173.624 74.5937L168.951 73.2102L169.129 73.4494Z" fill="#37474F"/>
<path d="M169.023 75.0723L168.917 74.4904C168.856 74.1672 169.621 74.1542 170.63 74.4581L172.554 75.0399C173.563 75.3438 174.428 75.8481 174.489 76.1713L174.594 76.7532L169.023 75.0723Z" fill="#37474F"/>
<path d="M197.128 85.3903L192.737 81.4272C192.737 81.4272 183.535 83.4443 182.499 83.5413C181.462 83.6383 180.642 82.4422 180.248 81.2526C179.855 80.0631 179.056 80.2118 179.056 80.2118C179.056 80.2118 179.361 81.7246 179.461 82.203C179.561 82.6814 177.16 83.0758 175.78 82.5327C174.4 81.9897 172.399 82.7784 173.635 84.9765C174.871 87.1747 177.288 87.4203 178.962 87.4268C179.663 87.4188 180.362 87.3626 181.057 87.2587C181.612 87.1811 182.166 87.1165 182.682 87.0712C186.107 86.7868 195.57 85.9592 197.128 85.3903Z" fill="#FFA8A7"/>
<path d="M166.606 77.8069L167.188 80.2184C167.299 80.6839 168.818 81.5114 169.782 81.8346C170.747 82.1579 171.794 82.4812 171.34 84.078C170.919 85.5197 169.339 85.8495 168.535 85.8107C167.993 85.704 167.488 85.4247 167.074 85.0036C166.66 84.5826 166.354 84.0363 166.19 83.4251C165.636 81.5825 165.935 79.6107 165.713 78.531C165.492 77.4513 166.129 77.1668 166.606 77.8069Z" fill="#F28F8F"/>
<path d="M186.584 144.462V143.912C186.274 144.074 185.542 147.313 184.245 148.69C183.214 149.789 181.806 151.063 181.473 152.285C181.14 153.507 183.435 154.263 184.4 154.063C185.509 153.83 187.465 152.912 187.953 152.058C188.441 151.205 188.668 149.944 189.062 149.317C189.455 148.69 190.37 148.024 190.586 147.274C190.651 146.598 190.586 145.914 190.398 145.27C190.248 144.591 190.082 143.854 189.888 143.912C189.888 143.996 189.888 144.333 189.888 144.333C189.412 144.762 188.826 144.99 188.225 144.979C187.743 144.999 186.578 144.889 186.584 144.462Z" fill="#37474F"/>
<path d="M175.226 138.417C175.054 138.417 174.915 138.702 174.544 139.174C173.983 139.835 173.331 140.381 172.615 140.79C171.39 141.508 169.012 142.607 167.931 143.176C167.254 143.531 167.288 144.469 167.986 145.018C168.685 145.568 170.364 145.949 172.382 145.419C173.491 145.134 174.915 143.951 175.819 144.01C176.722 144.068 178.419 144.061 179.089 143.525C179.76 142.988 179.489 141.837 179.3 140.848C179.112 139.859 178.801 138.126 178.496 138.197V138.54C178.103 139.232 176.096 139.516 175.231 139.006L175.226 138.417Z" fill="#37474F"/>
<path d="M33.4886 136.096L35.5341 139.413C34.6015 139.915 33.5843 140.167 32.5573 140.15C30.728 140.234 30.2235 139.503 30.157 139.361C29.8466 138.592 30.3289 137.195 30.4619 135.993L33.4886 136.096Z" fill="#37474F"/>
<path d="M30.1562 132.76C30.1562 132.76 30.4667 135.773 30.4888 136.419C30.511 137.066 33.0111 137.279 33.4878 136.096L33.5599 132.411L30.1562 132.76Z" fill="#F28F8F"/>
<path d="M30.1565 73.4041C28.4492 76.5073 26.8305 79.2226 26.4758 82.7267C25.744 90.0905 28.1387 98.508 28.6543 103.952C27.685 105.505 27.1244 107.354 27.0412 109.272C27.0412 111.522 30.1565 132.76 30.1565 132.76C30.1565 132.76 32.4182 133.568 33.5601 132.411L35.6998 93.3424L34.5912 88.5841L30.1565 73.4041Z" fill="#FFD789"/>
<path opacity="0.5" d="M30.1565 73.4041C28.4492 76.5073 26.8305 79.2226 26.4758 82.7267C25.744 90.0905 28.1387 98.508 28.6543 103.952C27.685 105.505 27.1244 107.354 27.0412 109.272C27.0412 111.522 30.1565 132.76 30.1565 132.76C30.1565 132.76 32.4182 133.568 33.5601 132.411L35.6998 93.3424L34.5912 88.5841L30.1565 73.4041Z" fill="white"/>
<path d="M45.9383 58.8511L57.1968 65.1545L50.4395 82.8754L39.9404 75.809L45.9383 58.8511Z" fill="#FFD789"/>
<path d="M55.8718 65.4781L50.0402 80.5806L41.958 75.1499L46.5423 60.2866L55.8718 65.4781Z" fill="#FFD789"/>
<path d="M46.5428 60.2866L55.8722 65.4781L49.575 80.7422L40.75 74.8654L46.5428 60.2866Z" fill="white"/>
<path d="M48.5713 62.4717L48.7875 61.9286C48.9094 61.6312 49.68 61.7541 50.5115 62.2131L52.1024 63.0923C52.9339 63.5449 53.5048 64.1656 53.3884 64.4629L53.1667 65.006L48.5713 62.4717Z" fill="#E0E0E0"/>
<path d="M26.337 65.2194C25.5166 67.9477 23.8924 72.2793 24.4135 73.1521C24.9346 74.0249 28.061 73.8374 29.8016 73.7598C32.0189 73.6628 33.8593 73.5594 33.8593 73.5594L33.4879 69.0338H30.3393L31.7251 64.4565L26.337 65.2194Z" fill="#F28F8F"/>
<path d="M29.4919 55.5217C28.3445 57.7199 26.0273 65.478 26.0273 65.478C26.6711 66.3295 27.525 66.928 28.472 67.1912C29.2989 67.4872 30.1776 67.5273 31.0219 67.3076L33.5829 59.8727L29.4919 55.5217Z" fill="#FFD789"/>
<path opacity="0.4" d="M29.4919 55.5217C28.3445 57.7199 26.0273 65.478 26.0273 65.478C26.6711 66.3295 27.525 66.928 28.472 67.1912C29.2989 67.4872 30.1776 67.5273 31.0219 67.3076L33.5829 59.8727L29.4919 55.5217Z" fill="black"/>
<path d="M40.9491 56.9053C42.9613 57.61 44.1864 57.7328 46.4092 61.7218C48.6321 65.7107 53.4991 73.624 53.9814 74.5744C54.6522 75.8674 54.9404 77.4707 54.3639 78.6862C53.7874 79.9016 52.2519 79.3327 50.0456 77.0634C47.8394 74.7942 43.6819 68.7105 43.6819 68.7105C43.6819 68.7105 39.347 63.0148 40.9491 56.9053Z" fill="#FFA8A7"/>
<path d="M39.342 51.7332L38.7988 57.3384L34.0537 57.9784L34.7411 50.5371L39.342 51.7332Z" fill="#FFA8A7"/>
<path d="M29.1924 43.5422C29.586 38.3701 31.964 36.2302 33.8543 35.7194C37.6072 34.685 40.9553 36.2754 42.4742 39.3463C42.8733 40.1545 43.5441 43.1801 42.2081 44.9645C40.8722 46.7489 29.1924 43.5422 29.1924 43.5422Z" fill="#263238"/>
<path d="M42.8451 45.3652C42.8451 45.3652 43.8318 47.3048 43.6821 47.5246C43.4198 47.7023 43.1327 47.8248 42.834 47.8866L42.8451 45.3652Z" fill="#F28F8F"/>
<path d="M39.8518 39.1261C40.8717 39.8308 42.6234 41.1173 42.8618 45.6429C43.1112 50.2913 42.3518 51.7201 41.7531 52.289C41.3706 52.6769 39.4083 52.5476 38.4271 52.1274C37.2242 51.5972 34.5468 50.1555 33.3938 47.6859C32.0634 44.783 31.947 41.0268 33.7098 39.6756C34.6085 38.9811 35.6446 38.566 36.7195 38.4699C37.7945 38.3737 38.8727 38.5996 39.8518 39.1261Z" fill="#FFA8A7"/>
<path d="M40.151 39.359C40.151 39.359 40.855 43.6324 39.6355 46.2184C39.6355 46.2184 39.0812 44.531 37.8394 44.9254C36.5977 45.3198 36.6144 47.2205 37.529 48.2549C37.7607 48.5493 38.059 48.7613 38.3895 48.8665C38.72 48.9717 39.0693 48.9659 39.3971 48.8497C39.2247 50.1807 38.6926 51.4128 37.8782 52.3667C36.5855 52.7156 35.2345 52.6312 33.981 52.1233C32.7276 51.6154 31.6228 50.7047 30.7939 49.4962C28.0222 45.656 28.7484 39.1521 33.1442 37.7556C37.5401 36.3592 40.151 39.359 40.151 39.359Z" fill="#263238"/>
<path d="M35.4167 137.823C35.4167 137.823 37.9001 137.635 39.613 137.383C41.3259 137.131 42.684 138.107 42.2793 138.935C41.8747 139.762 40.9323 140.441 39.4633 141.016C38.205 141.514 36.6916 141.87 35.3834 142.309C34.0752 142.749 33.1661 143.318 32.4067 143.014C31.5585 142.671 31.1927 142.277 31.2647 141.553C31.4498 140.523 31.6793 139.505 31.9521 138.501L35.4167 137.823Z" fill="#37474F"/>
<path d="M32.6732 134.616L31.7807 139.187C31.7807 139.187 31.6976 139.743 33.7375 140.098C35.7775 140.454 38.9815 138.857 39.5303 138.527C40.0791 138.197 40.1401 137.557 38.1334 137.687C36.1267 137.816 35.4172 137.822 35.4172 137.822L36.0879 135.792L32.6732 134.616Z" fill="#FFA8A7"/>
<path d="M35.6995 93.3428L34.5908 88.5845C32.4681 87.9328 30.4207 86.9842 28.4932 85.7593C28.4932 85.7593 29.6462 88.2095 32.9278 89.5478L34.6518 95.6638L34.8015 109.654L35.6995 93.3428Z" fill="#FFD789"/>
<path d="M30.1566 73.4041C29.242 75.1432 27.0579 78.1236 27.518 80.9811C28.0723 84.4529 29.6854 86.8838 34.5746 88.5841L39.1645 107.979C39.1645 107.979 36.7753 110.565 36.0436 113.067C35.3119 115.569 32.6733 134.635 32.6733 134.635C32.6733 134.635 33.4881 136.187 36.0658 135.812C36.0658 135.812 45.0515 111.891 45.689 110.333C46.4496 108.764 46.7181 106.935 46.4484 105.161C46.1657 102.646 43.1224 75.1884 43.1224 75.1884L30.1566 73.4041Z" fill="#FFD789"/>
<path opacity="0.5" d="M30.1566 73.4041C29.242 75.1432 27.0579 78.1236 27.518 80.9811C28.0723 84.4529 29.6854 86.8838 34.5746 88.5841L39.1645 107.979C39.1645 107.979 36.7753 110.565 36.0436 113.067C35.3119 115.569 32.6733 134.635 32.6733 134.635C32.6733 134.635 33.4881 136.187 36.0658 135.812C36.0658 135.812 45.0515 111.891 45.689 110.333C46.4496 108.764 46.7181 106.935 46.4484 105.161C46.1657 102.646 43.1224 75.1884 43.1224 75.1884L30.1566 73.4041Z" fill="white"/>
<path d="M29.325 55.9226C29.6798 54.8236 30.8106 53.9055 31.8306 54.2288C35.0291 55.2438 40.0015 56.5821 40.9494 56.9053C40.9494 56.9053 40.5281 65.31 44.2089 67.8184C44.037 69.4153 43.1002 75.1434 43.1002 75.1434C43.1002 75.1434 38.6655 77.6518 35.0291 76.4364C31.3927 75.2209 30.1565 73.4237 30.1565 73.4237L31.9803 69.9584C31.5922 68.827 30.0845 65.0061 29.1144 61.4503C28.7576 59.6191 28.8304 57.7097 29.325 55.9226Z" fill="#FFD789"/>
<path opacity="0.2" d="M29.325 55.9226C29.6798 54.8236 30.8106 53.9055 31.8306 54.2288C35.0291 55.2438 40.0015 56.5821 40.9494 56.9053C40.9494 56.9053 40.5281 65.31 44.2089 67.8184C44.037 69.4153 43.1002 75.1434 43.1002 75.1434C43.1002 75.1434 38.6655 77.6518 35.0291 76.4364C31.3927 75.2209 30.1565 73.4237 30.1565 73.4237L31.9803 69.9584C31.5922 68.827 30.0845 65.0061 29.1144 61.4503C28.7576 59.6191 28.8304 57.7097 29.325 55.9226Z" fill="black"/>
<path opacity="0.25" d="M31.4814 68.575C32.9973 69.6383 34.5864 70.5531 36.2321 71.3097C34.7387 71.276 33.2766 70.8047 31.9803 69.9391L31.4814 68.575Z" fill="#FFD789"/>
<path d="M32.4236 36.87C32.4236 36.87 30.9048 33.8508 27.1852 34.6331C23.4656 35.4154 21.9578 40.0185 22.0133 42.9343C22.0687 45.85 22.9057 47.8865 20.6662 51.3389C20.2248 52.0197 19.9138 52.8031 19.7541 53.6361C19.5944 54.469 19.5899 55.3323 19.7406 56.1675C19.8914 57.0027 20.1941 57.7905 20.6282 58.4777C21.0624 59.1649 21.6178 59.7354 22.2572 60.1508C25.245 62.0904 25.9712 58.7156 25.2783 55.8321C24.48 52.5285 27.4457 51.9531 28.2384 49.4511C29.0311 46.9491 27.4734 41.693 28.4712 39.9086C29.5799 37.9691 31.0766 38.2406 31.7972 38.9001L32.4236 36.87Z" fill="#263238"/>
<path d="M40.9495 56.9053C41.9436 57.1516 42.9146 57.5111 43.8486 57.9785C45.0681 58.6767 49.8243 67.3852 49.8243 67.3852C49.8243 67.3852 49.4862 70.663 45.5948 71.9625L43.2943 68.5748C43.2943 68.5748 39.9129 62.6851 40.9495 56.9053Z" fill="#FFD789"/>
<path opacity="0.1" d="M40.9495 56.9053C41.9436 57.1516 42.9146 57.5111 43.8486 57.9785C45.0681 58.6767 49.8243 67.3852 49.8243 67.3852C49.8243 67.3852 49.4862 70.663 45.5948 71.9625L43.2943 68.5748C43.2943 68.5748 39.9129 62.6851 40.9495 56.9053Z" fill="black"/>
<path d="M43.9703 69.5962C42.9482 68.2087 42.177 66.5946 41.7031 64.8508C41.7031 64.8508 41.7031 68.6135 43.8262 70.5595L43.9703 69.5962Z" fill="#FFD789"/>
<path opacity="0.4" d="M43.9703 69.5962C42.9482 68.2087 42.177 66.5946 41.7031 64.8508C41.7031 64.8508 41.7031 68.6135 43.8262 70.5595L43.9703 69.5962Z" fill="black"/>
<path d="M48.9762 60.1313C49.0482 59.9438 49.3864 59.9568 49.7301 60.1313L50.3509 60.4869C50.3509 60.4869 50.8332 59.3167 52.2744 60.0214C53.7157 60.7261 53.2722 62.0773 53.2722 62.0773L53.9319 62.4717C54.2978 62.685 54.5417 63.0147 54.4862 63.2087L54.3754 63.5513L48.832 60.4481L48.9762 60.1313Z" fill="#455A64"/>
<path d="M49.5414 60.8683C50.0625 61.1399 50.262 61.2692 50.0957 61.7347C49.9294 62.2002 49.6911 62.6463 49.6911 62.6463L52.1412 64.0168C52.1412 64.0168 52.4018 63.3703 52.5126 63.0859C52.6235 62.8014 52.8231 62.6915 53.2111 62.9113L53.3774 62.7174L49.4971 60.6162L49.5414 60.8683Z" fill="#455A64"/>
<path d="M48.5273 62.31L48.7491 61.7669C48.871 61.4631 49.6415 61.5924 50.473 62.0514L52.064 62.9306C52.8899 63.3832 53.4664 63.9974 53.3445 64.3012L53.1228 64.8443L48.5273 62.31Z" fill="#455A64"/>
</svg>
