<svg width="300" height="300" viewBox="0 0 300 300" fill="none" xmlns="http://www.w3.org/2000/svg">
<path d="M150.658 277.807C224.491 277.807 284.345 246.64 284.345 208.195C284.345 169.749 224.491 138.583 150.658 138.583C76.8241 138.583 16.9702 169.749 16.9702 208.195C16.9702 246.64 76.8241 277.807 150.658 277.807Z" fill="#F5F5F5"/>
<path d="M236.304 217.289C255.997 217.289 271.962 208.071 271.962 196.701C271.962 185.331 255.997 176.113 236.304 176.113C216.611 176.113 200.647 185.331 200.647 196.701C200.647 208.071 216.611 217.289 236.304 217.289Z" fill="#E6E6E6"/>
<path d="M92.7034 184.482C106.345 192.359 106.901 205.362 93.2535 213.239C79.6062 221.116 56.9407 220.882 43.2933 213.005C29.646 205.128 29.6519 192.359 43.2933 184.482C56.9348 176.605 79.0502 176.605 92.7034 184.482Z" fill="#E6E6E6"/>
<path d="M203.977 226.928L159.196 201.073C158.411 200.674 157.542 200.467 156.662 200.467C155.781 200.467 154.913 200.674 154.128 201.073L109.347 226.928C107.948 227.735 107.948 229.046 109.347 229.854L129.742 241.628L110.693 252.625C106.825 254.854 100.528 254.854 96.6476 252.625L66.6844 235.325C65.0341 234.372 64.1212 233.172 64.1212 231.955C64.1212 230.737 65.0341 229.532 66.6844 228.578L93.2358 213.245C93.3757 213.172 93.4993 213.071 93.5993 212.949C93.6992 212.827 93.7734 212.686 93.8174 212.534C93.8614 212.383 93.8742 212.224 93.8552 212.067C93.8361 211.91 93.7856 211.759 93.7066 211.622C93.6276 211.486 93.5218 211.366 93.3955 211.272C93.2692 211.177 93.1251 211.109 92.9717 211.071C92.8184 211.034 92.6591 211.028 92.5033 211.053C92.3476 211.079 92.1986 211.136 92.0654 211.22L65.5257 226.541C63.1204 227.934 61.792 229.854 61.792 231.949C61.792 234.044 63.1204 235.958 65.5257 237.35L95.4889 254.649C98.0226 255.955 100.832 256.636 103.682 256.636C106.532 256.636 109.341 255.955 111.875 254.649L132.094 242.98L154.151 255.709C154.937 256.107 155.805 256.315 156.685 256.315C157.566 256.315 158.434 256.107 159.219 255.709L204 229.854C205.375 229.046 205.375 227.735 203.977 226.928Z" fill="#E6E6E6"/>
<path d="M255.148 187.033C255.148 187.033 256.775 162.934 256.319 154.05C255.938 147.028 254.984 144.102 254.785 142.516C254.785 142.516 253.059 126.13 252.919 112.149C252.848 105.43 252.228 100.655 248.547 92.6726L224.887 98.3317C224.407 101.878 222.78 125.462 222.394 146.431C222.06 164.789 222.581 180.859 222.581 180.859V181.825C222.581 182.902 222.347 183.651 221.656 185.371C220.793 187.588 219.554 189.639 217.993 191.434C217.507 191.961 214.13 194.91 213.686 195.531C212.234 197.222 215.242 198.176 217.472 197.872C219.813 197.556 223.476 196.66 224.495 195.232C225.185 194.273 225.706 190.931 226.414 189.965C228.808 186.7 229.791 185.284 229.808 184.254C229.843 182.369 229.194 181.626 228.96 180.561C229.153 178.337 233.958 160.049 234.039 153.571C234.08 150.486 233.87 146.238 233.87 146.238L237.592 124.866C239.031 130.203 241.56 143.452 242.414 148.538C243.45 154.753 246.159 170.706 247.763 180.221C248.377 183.891 248.664 185.746 248.933 187.449L248.998 188.175C249.05 189.099 249.723 198.989 250.086 201.049C250.847 205.374 254.692 204.83 255.306 201.33C255.833 198.357 255.178 189.134 255.16 188.005L255.148 187.033Z" fill="#FFA8A7"/>
<path d="M255.148 187.033C256.237 187.033 255.523 191.253 255.804 193.951C256.102 196.847 257.05 198.966 257.325 201.336C257.694 203.408 257.376 205.543 256.418 207.417C255.663 209.172 251.859 211.513 250.414 209.049C248.968 206.585 248.658 203.735 248.828 201.032C248.997 198.328 248.828 196.514 248.88 194.39C248.933 192.517 247.558 187.736 248.968 187.466L249.033 188.192C249.542 189.204 254.68 189.403 255.195 188.034L255.148 187.033Z" fill="#37474F"/>
<path d="M230.054 186.553C230.388 187.905 230.054 191.616 230.054 191.616C230.054 191.616 229.469 192.897 227.38 193.746L226.443 188.584L230.054 186.553Z" fill="#263238"/>
<path d="M227.368 193.746L222.768 192.236L221.656 188.151L226.83 190.767L227.368 193.746Z" fill="black"/>
<path d="M222.581 181.825V180.859C221.955 181.164 220.579 186.202 218.718 189.638C217.021 192.792 213.656 194.548 212.562 195.923C211.099 197.755 213.943 200.125 218.502 199.147C220.767 198.662 224.196 197.216 225.126 195.689C226.057 194.161 226.367 191.352 227.128 190.229C227.889 189.105 229.697 187.812 230.054 186.536C230.351 185.384 230.351 184.176 230.054 183.025C229.697 181.854 229.381 180.455 228.983 180.584V181.468C228.679 182.088 227.573 182.814 225.273 182.943C224.149 182.995 223.084 182.826 222.581 181.825Z" fill="#37474F"/>
<path d="M224.407 98.0273C224.407 98.0273 222.844 115.391 222.341 130.764C221.837 146.138 222.288 165.977 222.288 165.977C222.288 165.977 223.874 167.112 227.368 167.27C230.862 167.428 232.05 166.264 232.05 166.264C232.05 166.264 234.186 159.294 234.519 154.39C234.731 151.735 234.731 149.068 234.519 146.413L237.638 125.895C237.638 125.895 241.594 146.097 242.045 148.538C242.496 150.978 246.282 172.567 246.282 172.567C246.282 172.567 247.769 173.936 251.584 173.866C254.961 173.801 255.938 172.59 255.938 172.59C255.938 172.59 256.752 159.352 256.564 153.699C256.406 148.713 255.265 144.745 255.037 141.509C254.809 138.273 254.68 119.856 254.452 112.833C254.223 105.811 253.638 99.783 247.628 91.3324L224.407 98.0273Z" fill="#455A64"/>
<path d="M237.662 125.913L235.064 113.038C235.064 113.038 230.54 111.868 228.427 109.094C228.427 109.094 229.012 112.16 233.694 114.121L236.456 126.925L235.497 140.163L237.662 125.913Z" fill="#37474F"/>
<path d="M191.348 94.8261C193.014 95.0803 194.717 94.9543 196.328 94.4574C195.62 94.1036 194.958 93.6654 194.356 93.1523C194.08 92.9303 193.901 92.6093 193.857 92.2576C193.813 91.9058 193.908 91.5508 194.122 91.2679C194.338 91.0338 194.877 91.5781 196.094 91.9234C197.651 92.3623 198.78 92.4559 200.278 93.3221C200.844 93.6509 201.508 93.7671 202.151 93.6498C205.803 92.9651 214.318 88.968 218.221 86.8846C219.017 83.6367 220.398 78.8613 222.101 72.9038C223.675 67.4144 226.198 65.015 230.224 65.1028L229.645 77.0237C229.645 77.0237 227.725 85.2577 225.349 91.9819C224.934 93.1523 223.266 94.5159 220.211 95.6512C216.255 97.1201 211.479 98.5071 205.645 100.105C203.281 100.778 200.865 101.258 198.423 101.539C192.255 102.065 189.891 100.368 189.06 99.1508C186.695 95.7917 188.094 94.1765 191.348 94.8261Z" fill="#FFA8A7"/>
<path d="M240.6 65.015L246.23 65.4481C245.745 67.7361 245.882 70.1123 246.627 72.3292C247.373 74.5462 248.698 76.5229 250.467 78.0537L247.956 88.1663C248.038 89.4186 250.11 93.6322 252.117 98.1618C248.342 103.218 229.826 104.945 223.787 100.503C224.717 95.739 225.413 92.1224 225.601 90.314L225.296 83.7771C217.724 77.568 226.859 68.105 230.224 65.0969L234.449 64.9097L240.6 65.015Z" fill="#FFD789"/>
<path d="M264.307 115.397C263.899 115.078 263.575 114.663 263.365 114.19C263.154 113.716 263.064 113.198 263.102 112.681C263.201 111.739 263.418 110.557 263.81 110.1C264.202 109.644 266.66 106.302 267.748 108.245C268.919 110.364 268.679 111.224 268.679 111.224L264.307 115.397Z" fill="#F28F8F"/>
<path d="M256.723 160.061C254.081 159.973 251.508 159.194 249.261 157.802L220.041 140.924C215.529 138.32 211.848 131.958 211.848 126.744V102.229C211.845 101.409 211.627 100.604 211.215 99.8941C210.802 99.1847 210.211 98.596 209.5 98.187C208.789 97.7781 207.983 97.5632 207.162 97.5639C206.342 97.5646 205.536 97.781 204.825 98.1912L194.596 104.114C194.462 104.198 194.314 104.255 194.158 104.281C194.002 104.306 193.843 104.3 193.689 104.263C193.536 104.225 193.392 104.157 193.266 104.062C193.139 103.968 193.033 103.848 192.954 103.712C192.875 103.575 192.825 103.424 192.806 103.267C192.787 103.11 192.8 102.951 192.844 102.8C192.888 102.648 192.962 102.507 193.062 102.385C193.162 102.263 193.285 102.162 193.425 102.089L203.684 96.1605C204.751 95.5446 205.961 95.2202 207.192 95.2196C208.424 95.219 209.634 95.5424 210.701 96.1572C211.768 96.772 212.655 97.6567 213.272 98.7224C213.89 99.7882 214.216 100.998 214.218 102.229V126.744C214.218 131.133 217.437 136.693 221.241 138.899L250.461 155.765C254.2 157.924 257.671 158.299 260.222 156.83C262.774 155.361 264.184 152.148 264.184 147.847V116.549C264.184 111.247 267.573 105.138 271.897 102.639L279.031 98.5423C279.164 98.4576 279.313 98.4008 279.469 98.3751C279.625 98.3495 279.784 98.3557 279.937 98.3932C280.091 98.4308 280.235 98.499 280.361 98.5937C280.488 98.6884 280.593 98.8076 280.672 98.9443C280.751 99.081 280.802 99.2322 280.821 99.3889C280.84 99.5456 280.827 99.7046 280.783 99.8562C280.739 100.008 280.665 100.149 280.565 100.271C280.465 100.393 280.341 100.494 280.202 100.567L273.068 104.664C269.521 106.712 266.525 112.149 266.525 116.544V147.841C266.525 153.026 264.699 156.935 261.393 158.849C259.972 159.662 258.359 160.081 256.723 160.061Z" fill="#37474F"/>
<path d="M206.235 105.805V107.718C206.235 110.779 204.088 114.507 201.431 116.034L183.71 126.27L165.691 115.865V100.263L183.166 92.175C185.946 90.8934 190.347 91.0924 193.004 92.6198L201.419 97.483C204.07 99.0162 206.235 102.744 206.235 105.805Z" fill="#37474F"/>
<path d="M183.167 92.175C185.946 90.8934 190.347 91.0924 193.004 92.6198L201.419 97.483C204.071 99.0104 203.965 101.293 201.185 102.58L183.693 110.656L165.668 100.257L183.167 92.175Z" fill="#455A64"/>
<path opacity="0.15" d="M185.396 106.911C186.094 107.366 186.675 107.98 187.092 108.702C187.509 109.424 187.75 110.234 187.796 111.066V123.9L183.699 126.241L165.68 115.835V100.263L170.245 98.156L185.396 106.911Z" fill="black"/>
<path d="M164.141 97.5766C164.411 97.451 164.71 97.3999 165.006 97.4287C165.302 97.4575 165.586 97.5652 165.826 97.7405L183.547 107.976C184.246 108.432 184.828 109.046 185.245 109.769C185.662 110.492 185.902 111.303 185.946 112.137V127.399C185.978 127.696 185.93 127.996 185.806 128.268C185.683 128.54 185.488 128.773 185.244 128.944C184.834 129.173 183.389 130.009 182.985 130.249C182.714 130.375 182.414 130.426 182.117 130.397C181.82 130.368 181.535 130.261 181.294 130.086L163.567 119.85C162.869 119.395 162.288 118.781 161.871 118.059C161.454 117.337 161.214 116.527 161.168 115.695V100.432C161.137 100.136 161.185 99.8356 161.307 99.5632C161.429 99.2908 161.622 99.0557 161.864 98.8816L164.141 97.5766Z" fill="#37474F"/>
<path d="M181.294 109.275L163.567 99.0455C162.245 98.2789 161.168 98.8992 161.168 100.432V115.695C161.214 116.527 161.455 117.337 161.871 118.059C162.288 118.781 162.869 119.395 163.567 119.85L181.294 130.086C182.616 130.852 183.693 130.232 183.693 128.699V113.436C183.647 112.603 183.407 111.792 182.99 111.069C182.573 110.347 181.992 109.732 181.294 109.275Z" fill="#455A64"/>
<path d="M160.302 127.042V129.682C160.302 130.753 160.67 131.496 161.279 131.847L162.871 132.766C163.252 132.951 163.677 133.03 164.1 132.993C164.522 132.956 164.927 132.804 165.27 132.555L179.901 124.093V113.676L178.309 112.757L163.649 121.219C162.673 121.859 161.861 122.719 161.28 123.731C160.698 124.743 160.363 125.877 160.302 127.042ZM166.932 123.777C166.988 123.967 167.02 124.164 167.026 124.362C166.984 125.144 166.758 125.905 166.367 126.584C165.975 127.262 165.429 127.838 164.773 128.266C164.591 128.372 164.393 128.451 164.188 128.5C164.136 128.309 164.109 128.112 164.106 127.914C164.148 127.132 164.374 126.371 164.765 125.693C165.157 125.015 165.703 124.439 166.359 124.011C166.541 123.912 166.733 123.833 166.932 123.777Z" fill="#FFD789"/>
<path opacity="0.2" d="M162.789 132.707C162.82 132.734 162.853 132.758 162.888 132.777L162.83 132.742L161.291 131.847C160.676 131.508 160.313 130.764 160.313 129.688V127.048C160.352 125.875 160.693 124.732 161.302 123.73L162.894 124.649C162.29 125.653 161.952 126.795 161.911 127.967V130.606C161.868 131.29 162.088 131.964 162.526 132.491C162.604 132.573 162.693 132.646 162.789 132.707Z" fill="black"/>
<path opacity="0.5" d="M179.901 113.676L165.271 122.138C164.278 122.757 163.46 123.619 162.895 124.643L161.303 123.724C161.868 122.702 162.683 121.84 163.673 121.219L178.333 112.757L179.901 113.676Z" fill="white"/>
<path opacity="0.2" d="M167.026 124.362C167.025 124.151 166.998 123.94 166.944 123.736C167.909 123.472 168.618 124.075 168.618 125.281C168.576 126.062 168.35 126.823 167.96 127.501C167.569 128.179 167.025 128.756 166.37 129.184C165.329 129.769 164.439 129.471 164.193 128.5C164.4 128.454 164.598 128.375 164.779 128.265C165.433 127.836 165.977 127.26 166.367 126.582C166.758 125.904 166.983 125.143 167.026 124.362Z" fill="black"/>
<path d="M146.789 119.236V121.881C146.789 122.946 147.158 123.695 147.766 124.04L149.358 124.965C149.739 125.146 150.162 125.222 150.583 125.183C151.003 125.143 151.405 124.991 151.746 124.742L166.376 116.274V105.875L164.785 104.95L150.154 113.413C149.176 114.051 148.361 114.911 147.776 115.922C147.192 116.934 146.854 118.069 146.789 119.236ZM153.42 115.952C153.473 116.157 153.5 116.367 153.502 116.579C153.459 117.361 153.233 118.122 152.842 118.8C152.45 119.478 151.904 120.054 151.248 120.482C151.063 120.583 150.867 120.661 150.663 120.716C150.607 120.516 150.58 120.309 150.581 120.102C150.623 119.32 150.849 118.56 151.239 117.882C151.629 117.204 152.174 116.627 152.829 116.198C153.013 116.089 153.212 116.006 153.42 115.952Z" fill="#FFD789"/>
<path opacity="0.2" d="M149.428 125.006H149.399H149.358L147.766 124.075C147.152 123.73 146.789 122.987 146.789 121.91V119.271C146.795 118.707 146.884 118.147 147.052 117.609C147.229 117.033 147.47 116.479 147.772 115.958L149.364 116.871C149.213 117.132 149.078 117.402 148.96 117.679C148.597 118.465 148.398 119.318 148.375 120.184V122.823C148.325 123.502 148.534 124.176 148.96 124.707C149.098 124.833 149.256 124.934 149.428 125.006Z" fill="black"/>
<path opacity="0.5" d="M166.394 105.875L151.763 114.337C150.769 114.954 149.951 115.817 149.387 116.842L147.795 115.929C148.351 114.906 149.156 114.04 150.136 113.413L164.767 104.95L166.394 105.875Z" fill="white"/>
<path opacity="0.2" d="M153.496 116.573C153.497 116.364 153.471 116.155 153.419 115.952C154.379 115.683 155.093 116.292 155.093 117.497C155.051 118.279 154.826 119.039 154.435 119.717C154.045 120.395 153.501 120.972 152.846 121.401C151.798 121.986 150.915 121.688 150.669 120.71C150.876 120.667 151.074 120.588 151.254 120.476C151.908 120.048 152.452 119.471 152.842 118.793C153.231 118.114 153.455 117.354 153.496 116.573Z" fill="black"/>
<path d="M151.225 109.468C151.03 109.469 150.84 109.404 150.687 109.284C150.533 109.164 150.424 108.996 150.377 108.807L148.036 99.6308C147.977 99.4049 148.011 99.1652 148.13 98.9644C148.248 98.7635 148.442 98.618 148.668 98.5598C148.894 98.5016 149.133 98.5355 149.334 98.654C149.535 98.7726 149.68 98.966 149.739 99.1918L152.08 108.374C152.109 108.485 152.116 108.602 152.101 108.716C152.085 108.83 152.046 108.94 151.988 109.039C151.929 109.139 151.851 109.225 151.758 109.294C151.665 109.362 151.56 109.412 151.447 109.439C151.375 109.458 151.3 109.468 151.225 109.468Z" fill="#E0E0E0"/>
<path d="M144.636 113.296C144.438 113.296 144.247 113.23 144.091 113.108L135.377 106.22C135.281 106.151 135.2 106.063 135.139 105.961C135.078 105.86 135.038 105.747 135.022 105.629C135.005 105.512 135.013 105.392 135.044 105.278C135.075 105.164 135.129 105.057 135.203 104.964C135.276 104.871 135.368 104.794 135.472 104.737C135.576 104.68 135.691 104.646 135.809 104.634C135.927 104.623 136.046 104.636 136.159 104.673C136.272 104.709 136.376 104.767 136.466 104.845L145.18 111.727C145.362 111.872 145.48 112.083 145.507 112.315C145.534 112.546 145.469 112.779 145.326 112.962C145.244 113.067 145.14 113.152 145.02 113.209C144.9 113.267 144.769 113.297 144.636 113.296Z" fill="#E0E0E0"/>
<path d="M132.627 121.699C132.394 121.708 132.167 121.624 131.997 121.465C131.826 121.306 131.725 121.087 131.717 120.854C131.708 120.621 131.793 120.394 131.951 120.224C132.11 120.053 132.33 119.952 132.563 119.944L142.751 119.154C142.866 119.144 142.982 119.157 143.092 119.193C143.202 119.228 143.303 119.285 143.391 119.361C143.479 119.436 143.551 119.527 143.602 119.631C143.654 119.734 143.685 119.846 143.693 119.961C143.71 120.193 143.634 120.422 143.483 120.598C143.332 120.774 143.117 120.884 142.886 120.903L132.697 121.693L132.627 121.699Z" fill="#E0E0E0"/>
<path d="M272.272 105.846C272.073 103.684 271.753 101.534 271.312 99.4084C269.981 94.4204 268.206 89.5613 266.01 84.8891C265.033 83.0223 262.826 80.301 261.264 78.0011C259.052 74.7531 257.495 72.9331 255.815 70.7268C252.117 65.8871 250.548 65.6061 246.23 65.4598C245.644 66.999 244.31 73.3076 248.635 78.4049L257.905 88.178C258.431 89.0266 264.096 98.712 265.039 102.288C265.201 102.924 265.122 103.597 264.816 104.178C264.076 105.817 263.532 107.538 263.195 109.304C262.92 110.545 262.183 111.528 262.434 111.721C262.745 111.929 263.117 112.026 263.49 111.996C263.863 111.967 264.214 111.812 264.488 111.558C265.15 110.847 265.69 110.033 266.086 109.146C266.26 109.135 266.434 109.16 266.598 109.22C266.762 109.279 266.912 109.372 267.038 109.493C267.164 109.613 267.263 109.759 267.33 109.92C267.397 110.081 267.43 110.254 267.426 110.428C267.479 111.148 267.151 112.149 266.899 113.395C266.853 113.641 266.794 113.922 266.683 114.601C266.587 115.059 266.532 115.525 266.519 115.994C267.69 116.21 268.913 115.496 270.879 113.653C272.652 111.932 272.769 109.673 272.272 105.846Z" fill="#FFA8A7"/>
<path d="M241.607 62.1709C241.642 61.0004 245.446 58.2616 247.371 55.3472C249.127 52.6435 251.649 45.2112 245.738 42.8352C245.738 42.8352 247.014 39.2713 244.696 37.1703C242.379 35.0694 239.26 36.3686 238.768 37.2464C238.471 36.152 237.829 35.1827 236.937 34.4826C236.045 33.7825 234.951 33.389 233.817 33.3605C232.71 33.2772 231.61 33.5966 230.719 34.2601C229.829 34.9236 229.208 35.8865 228.972 36.9713C228.036 36.5665 226.99 36.4956 226.009 36.7705C225.028 37.0454 224.171 37.6494 223.582 38.4812C221.411 41.4717 224.29 44.2105 224.29 44.2105C223.916 44.4625 223.619 44.8112 223.428 45.2194C223.237 45.6276 223.161 46.0799 223.207 46.528C223.377 47.792 224.588 48.1022 224.729 48.7342C224.756 48.8665 224.739 49.004 224.681 49.1259C224.623 49.2478 224.527 49.3474 224.407 49.4096C224.287 49.4718 224.15 49.4932 224.017 49.4706C223.884 49.448 223.762 49.3826 223.67 49.2844C223.701 49.4494 223.765 49.6065 223.857 49.7468C223.95 49.8871 224.069 50.0077 224.208 50.1018C224.348 50.1959 224.504 50.2615 224.669 50.295C224.833 50.3284 225.003 50.3291 225.168 50.2968C226.531 50.2207 227.749 48.3656 227.749 48.3656L241.607 62.1709Z" fill="#263238"/>
<path d="M229.2 42.4607C227.444 43.2215 225.788 45.8959 225.811 53.375C225.811 59.713 227.778 61.3165 228.737 61.7905C229.697 62.2645 231.634 62.0187 233.501 61.732V65.3779C233.501 65.3779 230.124 69.568 233.15 71.6514C240.945 70.2879 241.542 65.173 241.542 65.173L241.682 57.2258C241.682 57.2258 242.753 58.3494 244.609 56.6991C246.165 55.3355 246.727 53.0005 245.557 51.713C244.386 50.4255 242.888 50.326 241.53 51.7598C241.53 51.7598 239.043 51.9237 235.304 49.577C231.564 47.2302 230.23 44.8484 229.2 42.4607Z" fill="#FFA8A7"/>
<path d="M233.689 57.3428C233.696 57.4636 233.68 57.5849 233.641 57.6994C233.601 57.814 233.54 57.9195 233.459 58.0099C233.378 58.1004 233.281 58.1738 233.171 58.2261C233.062 58.2783 232.943 58.3083 232.822 58.3142C232.635 58.3293 232.447 58.2879 232.283 58.1953C232.119 58.1026 231.987 57.9631 231.903 57.7946C231.819 57.6261 231.788 57.4363 231.813 57.2498C231.838 57.0633 231.918 56.8885 232.044 56.748C232.169 56.6076 232.333 56.5078 232.516 56.4617C232.698 56.4155 232.89 56.425 233.067 56.489C233.244 56.553 233.398 56.6685 233.509 56.8207C233.619 56.9728 233.682 57.1547 233.689 57.3428Z" fill="#B16668"/>
<path d="M228.872 51.2097C228.871 51.3746 228.821 51.5355 228.729 51.6724C228.637 51.8094 228.507 51.9164 228.355 51.9802C228.203 52.044 228.036 52.0618 227.874 52.0314C227.712 52.0009 227.562 51.9236 227.444 51.809C227.325 51.6944 227.243 51.5475 227.207 51.3866C227.171 51.2257 227.183 51.0577 227.242 50.9036C227.3 50.7495 227.403 50.6159 227.536 50.5195C227.67 50.4231 227.829 50.368 227.994 50.3611C228.108 50.3588 228.22 50.379 228.326 50.4204C228.432 50.4619 228.528 50.5238 228.61 50.6027C228.691 50.6816 228.756 50.7758 228.801 50.88C228.846 50.9842 228.87 51.0962 228.872 51.2097Z" fill="#263238"/>
<path d="M235.35 51.596C235.358 51.7168 235.342 51.8381 235.303 51.9526C235.263 52.0672 235.201 52.1727 235.121 52.2631C235.04 52.3535 234.942 52.427 234.833 52.4793C234.724 52.5315 234.605 52.5615 234.484 52.5674C234.239 52.569 234.004 52.4741 233.829 52.3032C233.653 52.1323 233.552 51.8992 233.548 51.6545C233.544 51.5361 233.563 51.4182 233.605 51.3074C233.647 51.1966 233.71 51.095 233.791 51.0086C233.872 50.9222 233.969 50.8526 234.077 50.8038C234.185 50.7549 234.301 50.7278 234.42 50.724C234.538 50.7201 234.656 50.7396 234.767 50.7814C234.878 50.8231 234.979 50.8863 235.066 50.9673C235.152 51.0482 235.222 51.1454 235.271 51.2533C235.319 51.3612 235.346 51.4776 235.35 51.596Z" fill="#263238"/>
<path d="M228.287 47.8564L226.502 48.904C226.566 49.0247 226.654 49.1309 226.76 49.2162C226.867 49.3014 226.99 49.3638 227.122 49.3995C227.253 49.4352 227.391 49.4434 227.526 49.4236C227.661 49.4038 227.791 49.3564 227.906 49.2844C228.141 49.1408 228.312 48.9124 228.382 48.6465C228.453 48.3807 228.419 48.0978 228.287 47.8564Z" fill="#263238"/>
<path d="M241.565 50.7299V54.2412C241.34 54.2469 241.116 54.2065 240.907 54.1224C240.698 54.0383 240.509 53.9124 240.35 53.7523C240.192 53.5922 240.068 53.4014 239.986 53.1916C239.904 52.9818 239.866 52.7574 239.874 52.5323C239.876 52.0738 240.052 51.6329 240.365 51.2985C240.679 50.9641 241.108 50.7609 241.565 50.7299Z" fill="#263238"/>
<path d="M231.178 50.3728L230.821 55.4291L228.152 54.8029L231.178 50.3728Z" fill="#F28F8F"/>
<path d="M233.524 61.7436C235.485 61.5154 239.535 60.3918 240.196 58.7415C239.934 59.5683 239.428 60.2965 238.745 60.8307C237.521 61.8841 233.519 62.9726 233.519 62.9726L233.524 61.7436Z" fill="#F28F8F"/>
<path d="M257.091 22.6393C257.838 22.9244 258.538 23.3188 259.169 23.8098C259.78 24.2563 260.305 24.8094 260.72 25.4425C261.114 26.0515 261.374 26.738 261.481 27.4557C261.586 28.2217 261.491 29.002 261.206 29.7205C261.001 30.2957 260.685 30.8248 260.275 31.2772C259.909 31.6628 259.489 31.9939 259.029 32.2603C258.58 32.5163 258.11 32.7317 257.624 32.9041L256.243 33.4015C255.837 33.5483 255.445 33.7325 255.072 33.9516C254.722 34.128 254.427 34.3998 254.224 34.7358C254.131 34.8927 253.997 35.0219 253.838 35.1103C253.761 35.1524 253.676 35.1769 253.589 35.1819C253.502 35.187 253.415 35.1725 253.334 35.1396L251.508 34.4549C251.422 34.4228 251.342 34.3737 251.275 34.3103C251.208 34.247 251.154 34.1708 251.116 34.0862C251.076 34.0053 251.055 33.9162 251.055 33.8258C251.055 33.7354 251.076 33.6463 251.116 33.5654C251.351 33.0023 251.697 32.4926 252.135 32.0672C252.531 31.6944 252.974 31.3739 253.451 31.1133C253.913 30.8656 254.394 30.6581 254.891 30.493C255.383 30.3291 255.839 30.1711 256.266 30.0072C256.652 29.8656 257.023 29.6852 257.372 29.4688C257.673 29.2783 257.903 28.9947 258.028 28.6612C258.143 28.3692 258.185 28.0533 258.151 27.7411C258.116 27.429 258.006 27.1301 257.829 26.8705C257.388 26.231 256.748 25.7556 256.009 25.5186C255.365 25.2623 254.657 25.212 253.983 25.3744C253.309 25.5368 252.702 25.9041 252.246 26.4257C252.129 26.549 251.993 26.6519 251.842 26.73C251.68 26.7809 251.504 26.7683 251.35 26.6949L249.408 25.9634C249.338 25.9393 249.275 25.9015 249.22 25.8523C249.166 25.803 249.122 25.7432 249.092 25.6766C249.058 25.6083 249.041 25.5333 249.041 25.4572C249.041 25.3811 249.058 25.306 249.092 25.2377C249.349 24.641 249.751 24.118 250.262 23.7161C250.831 23.2432 251.479 22.8747 252.176 22.6276C252.941 22.3571 253.746 22.2109 254.557 22.1946C255.423 22.1782 256.283 22.3292 257.091 22.6393ZM252.925 36.6261C253.01 36.6564 253.088 36.7044 253.154 36.7669C253.219 36.8294 253.271 36.9051 253.305 36.9889C253.341 37.072 253.36 37.1616 253.36 37.2523C253.36 37.3429 253.341 37.4325 253.305 37.5156L252.509 39.6282C252.479 39.7136 252.431 39.7916 252.368 39.8572C252.306 39.9227 252.23 39.9743 252.146 40.0086C252.063 40.0447 251.974 40.0633 251.883 40.0633C251.792 40.0633 251.703 40.0447 251.62 40.0086L249.554 39.2303C249.468 39.2 249.39 39.152 249.325 39.0895C249.259 39.0269 249.208 38.9513 249.173 38.8675C249.137 38.7843 249.119 38.6947 249.119 38.6041C249.119 38.5135 249.137 38.4239 249.173 38.3408L249.969 36.2281C250.001 36.1425 250.049 36.0642 250.111 35.9978C250.174 35.9314 250.249 35.8783 250.332 35.8419C250.416 35.8071 250.505 35.7892 250.596 35.7892C250.686 35.7892 250.775 35.8071 250.859 35.8419L252.925 36.6261Z" fill="#FFD789"/>
<path d="M258.104 47.8623C258.165 47.9222 258.213 47.9937 258.246 48.0726C258.279 48.1515 258.297 48.2362 258.297 48.3217C258.297 48.4073 258.279 48.4919 258.246 48.5708C258.213 48.6497 258.165 48.7212 258.104 48.7811L256.641 50.3261C256.582 50.3884 256.511 50.4382 256.433 50.4724C256.354 50.5066 256.27 50.5245 256.184 50.5251C256.098 50.5282 256.013 50.5143 255.933 50.4841C255.852 50.454 255.779 50.4082 255.716 50.3495L254.224 48.9157C254.161 48.8571 254.112 48.7864 254.077 48.7079C254.043 48.6294 254.025 48.5448 254.025 48.4592C254.02 48.3733 254.034 48.2874 254.064 48.2069C254.094 48.1263 254.14 48.0529 254.2 47.9911L255.669 46.4519C255.792 46.3315 255.957 46.264 256.129 46.264C256.3 46.264 256.465 46.3315 256.588 46.4519L258.104 47.8623ZM266.882 37.2523C267.426 37.7679 267.893 38.3592 268.269 39.0079C268.631 39.6227 268.883 40.2961 269.012 40.9977C269.122 41.6702 269.088 42.3583 268.913 43.0167C268.726 43.6397 268.412 44.217 267.989 44.7117C267.567 45.2064 267.047 45.6078 266.461 45.8901C266.003 46.0923 265.518 46.2263 265.021 46.2881C264.537 46.3425 264.05 46.3562 263.564 46.329L262.183 46.253C261.771 46.2307 261.358 46.2444 260.948 46.2939C260.581 46.3344 260.232 46.4763 259.941 46.7036C259.804 46.8076 259.639 46.8705 259.467 46.885C259.385 46.8942 259.302 46.8848 259.224 46.8574C259.146 46.8301 259.075 46.7855 259.017 46.727L257.688 45.4629C257.56 45.3423 257.485 45.1763 257.478 45.0006C257.469 44.9141 257.482 44.8269 257.514 44.7464C257.547 44.6659 257.599 44.5945 257.665 44.5383C258.073 44.1329 258.558 43.8143 259.093 43.6019C259.573 43.4234 260.075 43.3074 260.585 43.2566C261.078 43.2157 261.573 43.2157 262.066 43.2566C262.553 43.2996 263.01 43.3288 263.435 43.3444C263.826 43.3641 264.219 43.3426 264.606 43.28C264.939 43.2283 265.245 43.0678 265.478 42.8236C265.683 42.6112 265.834 42.3523 265.917 42.069C266.001 41.7857 266.014 41.4864 265.957 41.1967C265.812 40.4788 265.431 39.83 264.875 39.3532C264.407 38.8961 263.81 38.5945 263.165 38.4897C262.52 38.385 261.858 38.4822 261.27 38.768C261.125 38.8315 260.971 38.8692 260.813 38.8792C260.733 38.8744 260.655 38.8532 260.584 38.817C260.512 38.7807 260.449 38.7302 260.398 38.6685L258.982 37.3167C258.88 37.2244 258.817 37.0967 258.806 36.9597C258.802 36.8873 258.814 36.815 258.84 36.7474C258.866 36.6798 258.907 36.6186 258.958 36.5676C259.401 36.1466 259.939 35.8394 260.527 35.6722C261.194 35.4726 261.891 35.3914 262.587 35.4323C263.352 35.4789 264.105 35.6488 264.816 35.9355C265.577 36.2355 266.271 36.683 266.859 37.2523H266.882Z" fill="#FFD789"/>
<g opacity="0.6">
<path d="M258.104 47.8623C258.165 47.9222 258.213 47.9937 258.246 48.0726C258.279 48.1515 258.297 48.2362 258.297 48.3217C258.297 48.4073 258.279 48.4919 258.246 48.5708C258.213 48.6497 258.165 48.7212 258.104 48.7811L256.641 50.3261C256.582 50.3884 256.511 50.4382 256.433 50.4724C256.354 50.5066 256.27 50.5245 256.184 50.5251C256.098 50.5282 256.013 50.5143 255.933 50.4841C255.852 50.454 255.779 50.4082 255.716 50.3495L254.224 48.9157C254.161 48.8571 254.112 48.7864 254.077 48.7079C254.043 48.6294 254.025 48.5448 254.025 48.4592C254.02 48.3733 254.034 48.2874 254.064 48.2069C254.094 48.1263 254.14 48.0529 254.2 47.9911L255.669 46.4519C255.792 46.3315 255.957 46.264 256.129 46.264C256.3 46.264 256.465 46.3315 256.588 46.4519L258.104 47.8623ZM266.882 37.2523C267.426 37.7679 267.893 38.3592 268.269 39.0079C268.631 39.6227 268.883 40.2961 269.012 40.9977C269.122 41.6702 269.088 42.3583 268.913 43.0167C268.726 43.6397 268.412 44.217 267.989 44.7117C267.567 45.2064 267.047 45.6078 266.461 45.8901C266.003 46.0923 265.518 46.2263 265.021 46.2881C264.537 46.3425 264.05 46.3562 263.564 46.329L262.183 46.253C261.771 46.2307 261.358 46.2444 260.948 46.2939C260.581 46.3344 260.232 46.4763 259.941 46.7036C259.804 46.8076 259.639 46.8705 259.467 46.885C259.385 46.8942 259.302 46.8848 259.224 46.8574C259.146 46.8301 259.075 46.7855 259.017 46.727L257.688 45.4629C257.56 45.3423 257.485 45.1763 257.478 45.0006C257.469 44.9141 257.482 44.8269 257.514 44.7464C257.547 44.6659 257.599 44.5945 257.665 44.5383C258.073 44.1329 258.558 43.8143 259.093 43.6019C259.573 43.4234 260.075 43.3074 260.585 43.2566C261.078 43.2157 261.573 43.2157 262.066 43.2566C262.553 43.2996 263.01 43.3288 263.435 43.3444C263.826 43.3641 264.219 43.3426 264.606 43.28C264.939 43.2283 265.245 43.0678 265.478 42.8236C265.683 42.6112 265.834 42.3523 265.917 42.069C266.001 41.7857 266.014 41.4864 265.957 41.1967C265.812 40.4788 265.431 39.83 264.875 39.3532C264.407 38.8961 263.81 38.5945 263.165 38.4897C262.52 38.385 261.858 38.4822 261.27 38.768C261.125 38.8315 260.971 38.8692 260.813 38.8792C260.733 38.8744 260.655 38.8532 260.584 38.817C260.512 38.7807 260.449 38.7302 260.398 38.6685L258.982 37.3167C258.88 37.2244 258.817 37.0967 258.806 36.9597C258.802 36.8873 258.814 36.815 258.84 36.7474C258.866 36.6798 258.907 36.6186 258.958 36.5676C259.401 36.1466 259.939 35.8394 260.527 35.6722C261.194 35.4726 261.891 35.3914 262.587 35.4323C263.352 35.4789 264.105 35.6488 264.816 35.9355C265.577 36.2355 266.271 36.683 266.859 37.2523H266.882Z" fill="white"/>
</g>
<path d="M49.8711 195.004C51.7262 196.133 54.19 196.174 56.5133 195.361L58.269 183.071L50.0759 180.976L49.8711 195.004Z" fill="#FFA8A7"/>
<path d="M63.0913 206.767C63.2962 206.977 63.1733 208.522 62.9216 208.868C62.67 209.213 61.2596 210.383 58.6612 210.43C56.1857 210.471 53.9795 210.021 52.5984 209.02C51.2172 208.019 50.5559 206.972 50.4916 205.555C50.4272 204.139 50.6613 202.799 50.0526 201.681C49.444 200.563 48.7125 199.627 48.5252 199.077C48.3054 198.08 48.3054 197.048 48.5252 196.051L63.0913 206.767Z" fill="#263238"/>
<path d="M57.0811 194.846C57.0926 195.38 57.1673 195.91 57.3035 196.426C57.6226 197.533 58.0725 198.598 58.6437 199.598C58.9277 200.12 59.2464 200.622 59.5976 201.102C60.294 202.032 61.1835 202.811 61.9384 203.706C62.7398 204.555 63.2218 205.655 63.302 206.819C63.302 208.762 61.1659 209.307 59.5332 209.506C57.7589 209.722 55.9587 209.536 54.2662 208.961C53.3804 208.678 52.5952 208.145 52.0045 207.427C51.4139 206.709 51.043 205.835 50.9363 204.912C50.8719 204.367 50.9363 203.823 50.9012 203.279C50.7555 202.03 50.3009 200.838 49.5786 199.809C49.1587 199.213 48.8054 198.573 48.5252 197.901C48.0804 196.678 48.5603 195.349 48.9466 194.173C49.2801 193.16 49.5318 191.937 49.9063 192.054C49.9063 192.259 49.9063 192.716 49.9063 192.716C50.0117 192.944 50.2692 193.108 50.3335 193.377C50.3943 193.655 50.4784 193.927 50.5852 194.19C50.7446 194.598 51.0268 194.946 51.3928 195.185C51.4572 194.454 51.5215 193.722 51.5801 192.997C51.5634 192.881 51.5733 192.764 51.609 192.653C51.6446 192.542 51.7051 192.44 51.7857 192.356C51.8664 192.272 51.9652 192.208 52.0746 192.168C52.1839 192.127 52.301 192.113 52.4169 192.125C53.7897 191.874 55.1926 191.832 56.5778 192.002C56.6822 192.01 56.784 192.038 56.8773 192.085C56.9707 192.132 57.0539 192.197 57.1221 192.277C57.1935 192.432 57.216 192.606 57.1865 192.774C57.114 193.462 57.0788 194.154 57.0811 194.846Z" fill="#FFD789"/>
<path opacity="0.2" d="M57.0811 194.846C57.0926 195.38 57.1673 195.91 57.3035 196.426C57.6226 197.533 58.0725 198.598 58.6437 199.598C58.9277 200.12 59.2464 200.622 59.5976 201.102C60.294 202.032 61.1835 202.811 61.9384 203.706C62.7398 204.555 63.2218 205.655 63.302 206.819C63.302 208.762 61.1659 209.307 59.5332 209.506C57.7589 209.722 55.9587 209.536 54.2662 208.961C53.3804 208.678 52.5952 208.145 52.0045 207.427C51.4139 206.709 51.043 205.835 50.9363 204.912C50.8719 204.367 50.9363 203.823 50.9012 203.279C50.7555 202.03 50.3009 200.838 49.5786 199.809C49.1587 199.213 48.8054 198.573 48.5252 197.901C48.0804 196.678 48.5603 195.349 48.9466 194.173C49.2801 193.16 49.5318 191.937 49.9063 192.054C49.9063 192.259 49.9063 192.716 49.9063 192.716C50.0117 192.944 50.2692 193.108 50.3335 193.377C50.3943 193.655 50.4784 193.927 50.5852 194.19C50.7446 194.598 51.0268 194.946 51.3928 195.185C51.4572 194.454 51.5215 193.722 51.5801 192.997C51.5634 192.881 51.5733 192.764 51.609 192.653C51.6446 192.542 51.7051 192.44 51.7857 192.356C51.8664 192.272 51.9652 192.208 52.0746 192.168C52.1839 192.127 52.301 192.113 52.4169 192.125C53.7897 191.874 55.1926 191.832 56.5778 192.002C56.6822 192.01 56.784 192.038 56.8773 192.085C56.9707 192.132 57.0539 192.197 57.1221 192.277C57.1935 192.432 57.216 192.606 57.1865 192.774C57.114 193.462 57.0788 194.154 57.0811 194.846Z" fill="black"/>
<path d="M58.8838 200.019C58.1932 199.434 56.578 199.346 55.6885 199.393C54.7873 199.423 53.9081 199.679 53.1311 200.136C53.0163 200.206 52.8809 200.234 52.7477 200.216C52.6144 200.198 52.4915 200.135 52.3996 200.037C52.3455 199.98 52.3046 199.911 52.2797 199.837C52.2548 199.762 52.2465 199.683 52.2554 199.605C52.2644 199.527 52.2903 199.452 52.3313 199.385C52.3724 199.318 52.4277 199.261 52.4932 199.217C53.3532 198.657 54.3522 198.347 55.3783 198.322C57.5905 198.287 58.1757 198.685 58.1757 198.685C58.1757 198.685 59.1354 199.387 58.8838 200.019Z" fill="#455A64"/>
<path d="M60.4343 202.091C59.5564 201.506 57.7774 201.506 56.8878 201.535C56.0032 201.577 55.1453 201.851 54.4007 202.331C54.2853 202.402 54.1486 202.432 54.0141 202.413C53.8796 202.395 53.7556 202.331 53.6633 202.231C53.6085 202.174 53.5671 202.106 53.5421 202.031C53.5171 201.956 53.509 201.877 53.5185 201.798C53.5281 201.72 53.5549 201.644 53.5972 201.578C53.6394 201.511 53.696 201.454 53.7628 201.412C54.6278 200.82 55.6417 200.484 56.6889 200.441C58.8717 200.4 59.416 200.88 59.416 200.88C59.6669 200.99 59.8892 201.157 60.0657 201.367C60.2422 201.577 60.3683 201.825 60.4343 202.091Z" fill="#455A64"/>
<path d="M54.6234 196.198C55.5476 196.087 56.4847 196.216 57.3447 196.572C57.7134 196.812 57.9299 197.427 57.6783 197.567C56.9193 197.215 56.0849 197.056 55.2496 197.105C54.4317 197.141 53.6261 197.317 52.8678 197.626C52.6746 197.696 52.4522 197.801 52.2825 197.895C52.22 197.927 52.1515 197.946 52.0814 197.95C52.0113 197.954 51.941 197.944 51.8751 197.92C51.8091 197.896 51.7489 197.858 51.6981 197.809C51.6474 197.761 51.6073 197.702 51.5803 197.637C51.5436 197.529 51.5457 197.412 51.5863 197.305C51.6268 197.198 51.7034 197.109 51.8027 197.052C52.6714 196.57 53.6331 196.279 54.6234 196.198Z" fill="#455A64"/>
<path d="M72.964 190.387C74.3919 193.962 76.6275 192.862 80.0335 190.802L80.5484 178.594L71.8813 177.793L72.964 190.387Z" fill="#FFA8A7"/>
<path d="M93.1072 198.995C93.2653 199.57 93.1983 200.183 92.9199 200.71C92.6507 201.201 89.9411 202.547 86.4006 202.114C83.7753 201.791 81.2852 200.768 79.1907 199.153C77.8856 198.182 76.487 197.942 74.7313 197.743C72.9756 197.544 71.6589 196.935 71.3136 196.092C70.9683 195.25 71.495 193.857 71.495 193.857L93.1072 198.995Z" fill="#263238"/>
<path d="M79.3194 187.741C79.6394 187.674 79.9542 187.584 80.2616 187.472C80.4334 187.408 80.6223 187.408 80.7941 187.472C81.0165 187.572 81.0868 187.841 81.1394 188.057C81.1894 188.587 81.2913 189.11 81.4437 189.62C81.6832 190.043 82.001 190.416 82.3801 190.72C83.2235 191.475 84.1434 192.14 85.1248 192.704C86.2542 193.394 87.3661 193.939 88.5307 194.542C89.6953 195.144 91.3281 195.577 92.2527 196.297C93.5929 197.315 93.6456 199.686 92.0069 200.528C90.5966 201.26 86.9448 201.939 83.2287 200.663C81.1979 199.966 79.0326 197.643 76.3406 197.286C74.6259 197.064 72.3436 196.795 71.3077 195.431C70.9332 194.846 71.2609 193.149 71.5652 191.165C71.8403 189.409 72.0919 186.6 72.6596 186.787L72.7006 187.326L73.3911 188.151C73.5424 188.312 73.7026 188.464 73.871 188.607C74.0558 188.824 74.2511 189.031 74.4562 189.228C74.7345 189.466 75.0803 189.611 75.4452 189.643C75.6182 189.654 75.7908 189.616 75.9427 189.532C76.2353 189.368 76.2762 188.982 76.5279 188.742C76.8001 188.462 77.1267 188.241 77.4877 188.092C77.989 187.914 78.5131 187.808 79.0443 187.776C79.1367 187.771 79.2286 187.759 79.3194 187.741Z" fill="#FFD789"/>
<path opacity="0.2" d="M79.3194 187.741C79.6394 187.674 79.9542 187.584 80.2616 187.472C80.4334 187.408 80.6223 187.408 80.7941 187.472C81.0165 187.572 81.0868 187.841 81.1394 188.057C81.1894 188.587 81.2913 189.11 81.4437 189.62C81.6832 190.043 82.001 190.416 82.3801 190.72C83.2235 191.475 84.1434 192.14 85.1248 192.704C86.2542 193.394 87.3661 193.939 88.5307 194.542C89.6953 195.144 91.3281 195.577 92.2527 196.297C93.5929 197.315 93.6456 199.686 92.0069 200.528C90.5966 201.26 86.9448 201.939 83.2287 200.663C81.1979 199.966 79.0326 197.643 76.3406 197.286C74.6259 197.064 72.3436 196.795 71.3077 195.431C70.9332 194.846 71.2609 193.149 71.5652 191.165C71.8403 189.409 72.0919 186.6 72.6596 186.787L72.7006 187.326L73.3911 188.151C73.5424 188.312 73.7026 188.464 73.871 188.607C74.0558 188.824 74.2511 189.031 74.4562 189.228C74.7345 189.466 75.0803 189.611 75.4452 189.643C75.6182 189.654 75.7908 189.616 75.9427 189.532C76.2353 189.368 76.2762 188.982 76.5279 188.742C76.8001 188.462 77.1267 188.241 77.4877 188.092C77.989 187.914 78.5131 187.808 79.0443 187.776C79.1367 187.771 79.2286 187.759 79.3194 187.741Z" fill="black"/>
<path d="M83.5738 191.662C83.4612 191.419 83.29 191.208 83.0754 191.048C82.8609 190.887 82.6098 190.783 82.3449 190.744C81.5724 190.556 80.162 191.06 79.2666 191.721C79.1816 191.783 79.113 191.864 79.0668 191.959C79.0207 192.053 78.9984 192.158 79.0018 192.263C79.0053 192.368 79.0344 192.47 79.0867 192.562C79.139 192.653 79.2128 192.73 79.3017 192.786C79.4145 192.854 79.5452 192.886 79.6767 192.879C79.8083 192.872 79.9345 192.825 80.0391 192.745C81.0292 191.933 82.2991 191.544 83.5738 191.662Z" fill="#455A64"/>
<path d="M85.9208 193.166C85.763 192.917 85.5478 192.71 85.2932 192.561C85.0386 192.412 84.7521 192.327 84.4577 192.312C83.2504 192.3 82.0703 192.671 81.0869 193.371C81.0036 193.429 80.9355 193.506 80.8885 193.595C80.8415 193.685 80.8169 193.785 80.8169 193.886C80.8169 193.987 80.8415 194.087 80.8885 194.177C80.9355 194.266 81.0036 194.343 81.0869 194.401C81.1964 194.467 81.3235 194.498 81.4512 194.49C81.5788 194.481 81.7008 194.434 81.8008 194.354C82.3537 193.859 83.0114 193.494 83.7248 193.289C84.4382 193.083 85.1889 193.041 85.9208 193.166Z" fill="#455A64"/>
<path d="M88.5309 194.536C88.3486 194.303 88.1183 194.113 87.8557 193.978C87.5931 193.842 87.3044 193.765 87.0093 193.751C85.8441 193.761 84.7116 194.138 83.7731 194.828C83.6917 194.889 83.6261 194.968 83.5821 195.059C83.5381 195.151 83.5169 195.251 83.5204 195.352C83.5238 195.454 83.5518 195.553 83.602 195.641C83.6521 195.729 83.7229 195.804 83.8082 195.858C83.9144 195.93 84.0412 195.965 84.1692 195.957C84.2971 195.95 84.419 195.901 84.5163 195.817C85.0387 195.305 85.674 194.922 86.3712 194.699C87.0685 194.477 87.8081 194.421 88.5309 194.536Z" fill="#455A64"/>
<path d="M49.6428 162.056C49.9061 156.163 51.1585 153.096 51.3341 151.464C51.3341 151.464 51.8139 119.042 52.604 109.205L81.6309 107.97C82.0581 118.504 82.4443 146.805 82.2161 150.551C81.9995 154.138 80.5423 185.254 80.5423 185.254C76.4458 186.536 72.0742 184.669 72.0742 184.669C72.0742 184.669 69.6397 166.966 69.2418 163.063C68.9593 159.552 69.0495 156.021 69.511 152.529L67.6558 127.323C67.6558 127.323 65.4144 146.87 64.3084 154.243C63.0443 162.676 57.5901 188.818 57.5901 188.818C53.6691 189.795 49.8535 188.104 49.8535 188.104C49.8535 188.104 49.2565 170.594 49.6428 162.056Z" fill="#455A64"/>
<path d="M67.6621 127.347L68.2122 123.87C69.9035 123.619 74.1873 120.944 76.7213 118.604C74.9162 121.335 72.4739 123.586 69.605 125.164L69.5173 152.54L67.6621 127.347Z" fill="#37474F"/>
<path d="M79.5651 90.8933C77.5929 86.393 74.1986 78.8144 74.1986 78.8144L73.3384 66.5248C74.5941 66.5648 75.8465 66.6762 77.0896 66.8584C78.9155 67.1451 81.8123 68.8891 83.1349 72.178C84.124 74.6184 89.2622 89.5063 89.2622 89.5063L98.216 84.7895C100.51 83.3323 101.324 80.9153 102.787 79.5225C104.25 78.1297 105.713 77.919 107.334 76.8012C108.955 75.6835 109.593 74.7881 110.002 75.9058C110.412 77.0236 108.598 78.7383 108.247 79.1655C107.896 79.5927 106.134 80.5057 108.381 80.6227C110.629 80.7397 115.176 78.551 116.264 78.1765C117.353 77.802 117.259 79.0953 116.691 79.897C116.124 80.6988 116.065 83.0514 115.117 84.3681C114.111 85.7726 113.566 86.3754 111.407 87.2123C109.4 87.9848 105.239 88.1837 103.097 89.4185C100.955 90.6534 95.7698 95.341 92.3112 97.7462C87.6704 100.977 85.0603 101.187 83.2403 98.6123C81.4203 96.0374 80.2615 92.4792 79.5651 90.8933Z" fill="#FFA8A7"/>
<path d="M72.127 66.2615C75.1701 66.0274 78.7575 66.2147 80.7414 68.0171C82.3273 69.4626 82.9242 70.358 84.6916 75.3558C85.862 78.7091 88.3668 86.434 88.3668 86.434C84.9278 87.2099 81.8416 89.1006 79.5885 91.8122L73.8826 78.99L72.127 66.2615Z" fill="#E0E0E0"/>
<path d="M89.262 89.4772C87.7198 90.0232 86.3929 91.0486 85.4756 92.4032C85.4756 92.4032 85.6921 90.0624 88.9869 88.6637L89.262 89.4772Z" fill="#F28F8F"/>
<path d="M64.8408 65.7114C63.3995 65.652 61.9573 65.8098 60.5629 66.1796C57.8885 66.8877 53.0955 68.2337 53.0955 68.2337C51.5739 69.0238 50.9829 71.6573 50.6376 73.173C49.5374 78.0244 52.3932 88.9739 52.8322 93.2401C53.2711 97.5064 52.323 110.574 52.323 110.574C55.5944 114.367 73.3207 116.883 81.9527 110.574C81.9527 110.574 82.3272 80.5701 81.4786 76.2629C80.1911 69.7436 78.2775 66.6478 71.5299 66.2557L64.8408 65.7114Z" fill="#F5F5F5"/>
<path d="M68.6271 49.6179L66.7017 50.6771C66.5685 50.412 66.541 50.1062 66.6246 49.8216C66.7083 49.537 66.8969 49.2947 67.1524 49.1438C67.2796 49.0747 67.4195 49.0322 67.5637 49.0187C67.7079 49.0052 67.8533 49.0211 67.9911 49.0654C68.129 49.1097 68.2564 49.1815 68.3657 49.2765C68.475 49.3714 68.564 49.4876 68.6271 49.6179Z" fill="#263238"/>
<path d="M77.0018 50.3904L75.2461 49.0385C75.3286 48.9198 75.4344 48.8191 75.557 48.7425C75.6797 48.666 75.8166 48.6152 75.9595 48.5933C76.1024 48.5714 76.2483 48.5789 76.3882 48.6152C76.5282 48.6514 76.6593 48.7158 76.7735 48.8044C77.0061 48.9902 77.1592 49.2576 77.2016 49.5522C77.244 49.8469 77.1725 50.1466 77.0018 50.3904Z" fill="#263238"/>
<path d="M59.779 43.4906C59.779 43.4906 57.7073 43.7774 56.9465 45.3575C56.2911 46.7152 56.5251 49.9924 57.4088 53.5505C57.9082 55.8591 58.6538 58.1075 59.6327 60.2571C59.9785 60.8662 60.5436 61.3204 61.2127 61.5271L61.1016 57.2784L60.9494 54.3523C60.9494 54.3523 62.8397 51.7656 63.0503 49.6705C63.3195 46.9434 62.746 45.8256 62.746 45.8256L59.779 43.4906Z" fill="#263238"/>
<path d="M63.1206 47.5871C63.1284 49.6841 63.9676 51.6923 65.4542 53.1712C66.9408 54.6502 68.9534 55.479 71.0504 55.4759C75.4161 55.4759 78.6933 51.8768 78.6582 47.5052C78.6231 43.1336 75.3459 39.634 70.9743 39.6516C68.8819 39.667 66.8809 40.5107 65.4091 41.9979C63.9372 43.4851 63.1144 45.4947 63.1206 47.5871Z" fill="#263238"/>
<path d="M61.1015 53.8549C60.3875 54.4752 59.8081 52.8776 59.2112 52.2514C58.6143 51.6252 56.6538 50.7825 55.6999 52.8366C54.746 54.8907 56.5543 57.8695 58.0408 58.443C58.4895 58.6129 58.9824 58.6268 59.4399 58.4824C59.8975 58.338 60.2931 58.0438 60.5631 57.6471V67.0106C62.8162 71.072 66.7898 70.9433 68.9141 70.715C71.0385 70.4868 71.5008 68.2805 69.95 66.5015V63.5754C71.1303 63.7606 72.3272 63.8175 73.5198 63.7451C75.4627 63.4408 76.4459 61.9894 77.0311 59.8651C77.9675 56.4767 78.3479 50.7883 77.0311 44.2163C74.8541 42.5309 67.3048 42.8118 62.7342 45.7086C63.0912 51.6018 61.7803 53.2404 61.1015 53.8549Z" fill="#FFA8A7"/>
<path d="M77.4175 40.9625C77.7115 39.7425 77.8434 38.4891 77.8096 37.2346C77.8096 36.743 77.6867 36.1461 77.2244 35.9588C76.7621 35.7716 76.3056 36.111 75.9076 36.3802C74.2222 37.5155 72.1271 37.8374 70.0964 37.9486C66.5851 38.1417 61.2186 37.9135 59.4337 41.7584C58.9363 42.8235 58.8485 43.9471 59.8317 44.6845C60.7082 45.2716 61.7106 45.6445 62.7578 45.773C64.5134 46.0831 66.2691 46.4694 68.0716 46.7093C69.874 46.9493 72.0159 47.1833 73.8009 46.6332C75.3049 46.1709 76.8323 45.773 77.9501 44.5791C78.9189 43.5381 79.4655 42.1737 79.4833 40.7518C79.4833 40.5528 79.4424 40.3012 79.2434 40.2485C79.144 40.236 79.0432 40.2566 78.9566 40.307L77.4175 40.9625Z" fill="#263238"/>
<path d="M69.9321 63.6397C69.9321 63.6397 65.5898 62.7794 64.0799 61.9777C63.1856 61.5143 62.4514 60.7925 61.9731 59.906C62.1956 60.7916 62.5936 61.6234 63.1436 62.3522C64.2614 63.7685 69.9204 64.7926 69.9204 64.7926L69.9321 63.6397Z" fill="#F28F8F"/>
<path d="M69.0602 52.4913C69.0544 52.6833 68.9922 52.8693 68.8814 53.0261C68.7706 53.1829 68.616 53.3036 68.437 53.3731C68.258 53.4426 68.0625 53.4578 67.8749 53.4169C67.6872 53.3759 67.5159 53.2806 67.3821 53.1429C67.2483 53.0051 67.1581 52.831 67.1227 52.6422C67.0873 52.4535 67.1083 52.2585 67.183 52.0816C67.2578 51.9047 67.383 51.7538 67.543 51.6476C67.7031 51.5415 67.8908 51.4848 68.0828 51.4847C68.3457 51.4894 68.596 51.5978 68.7791 51.7864C68.9623 51.975 69.0633 52.2285 69.0602 52.4913Z" fill="#263238"/>
<path d="M70.4647 59.2505C70.4694 59.4979 70.3761 59.7371 70.205 59.9158C70.0339 60.0945 69.7991 60.1983 69.5518 60.2045C69.3029 60.1998 69.066 60.0969 68.8927 59.9182C68.7195 59.7395 68.624 59.4994 68.6271 59.2505C68.6248 59.1283 68.6466 59.0069 68.6912 58.8931C68.7358 58.7793 68.8024 58.6754 68.8872 58.5874C68.972 58.4994 69.0733 58.4289 69.1853 58.38C69.2973 58.3311 69.4179 58.3048 69.5401 58.3025C69.7879 58.3071 70.024 58.4092 70.197 58.5867C70.3701 58.7641 70.4663 59.0027 70.4647 59.2505Z" fill="#B16668"/>
<path d="M67.8314 49.4189L65.8183 50.6888C65.6522 50.4124 65.5996 50.0825 65.6716 49.7682C65.7437 49.4539 65.9346 49.1798 66.2045 49.0034C66.338 48.9215 66.4865 48.8673 66.6413 48.8439C66.7962 48.8206 66.9541 48.8285 67.1058 48.8672C67.2575 48.906 67.3999 48.9747 67.5245 49.0695C67.6491 49.1642 67.7535 49.283 67.8314 49.4189Z" fill="#263238"/>
<path d="M74.936 48.1782L77.0545 49.1263C76.9973 49.2653 76.9126 49.3914 76.8053 49.4967C76.6981 49.6021 76.5706 49.6847 76.4306 49.7394C76.2905 49.7941 76.1409 49.8198 75.9906 49.815C75.8403 49.8102 75.6926 49.775 75.5563 49.7115C75.2797 49.58 75.0625 49.3495 74.9477 49.0656C74.8328 48.7817 74.8286 48.4651 74.936 48.1782Z" fill="#263238"/>
<path d="M76.0537 52.1986C76.0468 52.3831 75.9859 52.5614 75.8785 52.7116C75.7711 52.8617 75.622 52.977 75.4497 53.0431C75.2774 53.1093 75.0894 53.1233 74.9092 53.0836C74.729 53.0438 74.5644 52.952 74.4358 52.8195C74.3073 52.687 74.2205 52.5197 74.1863 52.3384C74.152 52.157 74.1718 51.9696 74.2431 51.7993C74.3145 51.6291 74.4343 51.4836 74.5876 51.3808C74.7409 51.2781 74.921 51.2226 75.1056 51.2213C75.3607 51.2259 75.6036 51.3313 75.7812 51.5144C75.9589 51.6976 76.0568 51.9435 76.0537 52.1986Z" fill="#263238"/>
<path d="M71.2666 50.5483L71.6177 57.056L74.7018 56.2367L71.2666 50.5483Z" fill="#F28F8F"/>
<path d="M16.6248 77.3514C17.6372 77.8956 21.763 80.7983 24.0044 81.05C24.9524 81.1553 25.2099 81.0032 25.1748 80.7574C25.128 80.4179 24.5252 79.9088 24.3789 79.6337C24.1273 79.1539 22.6233 77.1641 23.2085 76.1224C23.7937 75.0807 24.3028 76.0756 25.6957 77.4392C27.0885 78.8027 28.5164 79.2768 29.7395 80.8627C30.9626 82.4486 31.3723 84.9592 33.3971 86.7793L41.4615 92.2862C41.4615 92.2862 45.2186 74.8525 46.8689 72.7984C48.6245 70.6389 56.1563 75.3441 54.5762 82.2087C52.9961 89.0733 49.397 100.988 46.8923 103.323C45.2771 104.839 41.877 103.411 37.6341 99.6365C34.2808 96.6519 29.6868 92.175 27.7439 90.589C25.801 89.0031 21.763 88.1487 19.9078 87.0777C17.9122 85.9073 17.4733 85.2226 16.7067 83.6718C15.9869 82.2146 16.3087 79.8795 15.8815 78.99C15.4543 78.1005 15.5948 76.8071 16.6248 77.3514Z" fill="#FFA8A7"/>
<path d="M53.0955 68.2336C55.6822 69.8488 55.8109 72.2014 55.9397 74.8934C55.9763 78.0446 55.4776 81.1791 54.4649 84.1633C53.3706 87.5517 51.6325 93.7375 51.6325 93.7375C51.6325 93.7375 44.879 93.8955 41.4028 90.8933C41.4028 90.8933 42.9888 84.2218 44.1065 79.1889C45.2243 74.1561 46.582 68.8013 53.0955 68.2336Z" fill="#E0E0E0"/>
<path d="M41.4321 92.2979C43.2756 93.322 44.3582 95.5224 44.6918 96.3944C44.612 95.3791 44.2924 94.3972 43.7593 93.5294C43.2262 92.6616 42.4948 91.9326 41.6253 91.4025L41.4321 92.2979Z" fill="#F28F8F"/>
<path d="M111.495 218.781L156.662 244.859V254.468L111.495 228.391V218.781Z" fill="#FFD789"/>
<path opacity="0.35" d="M111.495 218.781L156.662 244.859V254.468L111.495 228.391V218.781Z" fill="black"/>
<path d="M201.829 218.781L156.662 244.859V254.468L201.829 228.391V218.781Z" fill="#FFD789"/>
<path opacity="0.2" d="M201.829 218.781L156.662 244.859V254.468L201.829 228.391V218.781Z" fill="black"/>
<path d="M201.829 218.781L156.662 192.71L111.495 218.781L156.662 244.859L201.829 218.781Z" fill="#FFD789"/>
<path opacity="0.15" d="M201.829 218.781L156.662 192.71L111.495 218.781L156.662 244.859L201.829 218.781Z" fill="black"/>
<path opacity="0.1" d="M156.662 244.859V242.114L116.247 218.781H111.495L156.662 244.859Z" fill="black"/>
<path opacity="0.1" d="M156.662 192.71V195.455L197.077 218.781H201.829L156.662 192.71Z" fill="black"/>
<path d="M201.829 218.781H197.077L156.662 242.114V244.859L201.829 218.781Z" fill="#FFD789"/>
<path d="M156.662 192.71V195.455L116.247 218.781H111.495L156.662 192.71Z" fill="#FFD789"/>
<path d="M156.826 207.463L176.231 218.664C177.683 219.507 177.683 220.865 176.231 221.702L161.759 230.082C160.944 230.499 160.041 230.716 159.125 230.716C158.21 230.716 157.307 230.499 156.492 230.082L137.086 218.881C135.635 218.038 135.635 216.68 137.086 215.844L151.564 207.463C152.379 207.048 153.28 206.831 154.195 206.831C155.109 206.831 156.011 207.048 156.826 207.463Z" fill="#37474F"/>
<path d="M161.759 230.082L175.751 222L156.825 211.074C156.009 210.662 155.107 210.448 154.192 210.448C153.277 210.448 152.375 210.662 151.559 211.074L137.566 219.168L156.492 230.082C157.307 230.499 158.21 230.716 159.125 230.716C160.041 230.716 160.944 230.499 161.759 230.082Z" fill="#455A64"/>
<path d="M145.104 218.799L153.595 213.901C153.753 213.821 153.928 213.78 154.104 213.78C154.281 213.78 154.456 213.821 154.614 213.901L155.655 214.486C155.936 214.644 155.936 214.907 155.655 215.071L147.164 219.969C147.007 220.049 146.833 220.09 146.658 220.09C146.482 220.09 146.308 220.049 146.151 219.969L145.11 219.384C145.049 219.363 144.996 219.324 144.958 219.272C144.921 219.22 144.9 219.158 144.899 219.094C144.899 219.029 144.918 218.966 144.955 218.914C144.991 218.861 145.043 218.821 145.104 218.799Z" fill="#263238"/>
<path d="M157.785 226.132L166.277 221.233C166.434 221.154 166.607 221.113 166.783 221.113C166.959 221.113 167.132 221.154 167.289 221.233L168.337 221.819C168.618 221.977 168.618 222.24 168.337 222.404L159.845 227.302C159.688 227.381 159.515 227.423 159.339 227.423C159.163 227.423 158.99 227.381 158.833 227.302L157.791 226.717C157.731 226.696 157.678 226.657 157.64 226.605C157.602 226.553 157.582 226.491 157.581 226.426C157.58 226.362 157.6 226.299 157.636 226.246C157.673 226.194 157.725 226.154 157.785 226.132Z" fill="#263238"/>
<path d="M137.039 237.76C136.991 236.872 136.734 236.007 136.289 235.238C135.843 234.468 135.222 233.814 134.476 233.33C134.218 233.141 133.914 233.026 133.596 232.995C133.278 232.964 132.957 233.019 132.668 233.154L131.562 233.798C131.301 233.982 131.095 234.231 130.963 234.521C130.831 234.812 130.779 235.132 130.812 235.448C130.861 236.337 131.118 237.201 131.562 237.971C132.006 238.742 132.626 239.397 133.37 239.884C133.629 240.073 133.934 240.188 134.253 240.219C134.572 240.25 134.894 240.195 135.184 240.06L136.284 239.399C136.543 239.216 136.749 238.968 136.882 238.681C137.014 238.393 137.068 238.075 137.039 237.76Z" fill="#FFD789"/>
<path opacity="0.1" d="M133.37 233.991C134.116 234.475 134.737 235.129 135.183 235.899C135.628 236.669 135.885 237.533 135.933 238.421C135.933 240.054 134.763 240.715 133.37 239.902C132.626 239.415 132.006 238.76 131.562 237.989C131.118 237.218 130.861 236.354 130.812 235.466C130.812 233.839 131.96 233.178 133.37 233.991Z" fill="black"/>
<path d="M103.682 252.683C100.826 252.733 98.0055 252.05 95.4889 250.699L65.5257 233.4C63.1204 232.007 61.792 230.088 61.792 227.993C61.792 225.898 63.1204 223.984 65.5257 222.591L100.241 202.547C104.045 200.353 107.264 194.787 107.264 190.392V80.5292C107.264 80.2188 107.387 79.9211 107.606 79.7016C107.826 79.4821 108.124 79.3588 108.434 79.3588C108.744 79.3588 109.042 79.4821 109.262 79.7016C109.481 79.9211 109.604 80.2188 109.604 80.5292V190.392C109.604 195.694 106.011 201.927 101.411 204.578L66.6961 224.622C65.0458 225.576 64.1329 226.77 64.1329 227.993C64.1329 229.216 65.0458 230.416 66.6961 231.369L96.6593 248.669C100.528 250.904 106.825 250.904 110.705 248.669L132.797 235.922C132.93 235.838 133.079 235.781 133.235 235.755C133.39 235.73 133.55 235.736 133.703 235.773C133.856 235.811 134 235.879 134.127 235.974C134.253 236.068 134.359 236.188 134.438 236.324C134.517 236.461 134.567 236.612 134.586 236.769C134.605 236.926 134.593 237.085 134.549 237.236C134.505 237.388 134.43 237.529 134.33 237.651C134.231 237.773 134.107 237.874 133.967 237.947L111.875 250.699C109.359 252.051 106.538 252.734 103.682 252.683Z" fill="#37474F"/>
<path d="M51.1059 38.5163C51.0886 38.437 51.088 38.3549 51.1041 38.2753C51.1202 38.1957 51.1527 38.1203 51.1996 38.054C51.2437 37.9846 51.3019 37.9253 51.3705 37.8799C51.439 37.8345 51.5164 37.8041 51.5975 37.7906L54.4417 37.2405C54.5219 37.2223 54.6051 37.2213 54.6857 37.2374C54.7664 37.2536 54.8428 37.2865 54.9098 37.3342C55.0458 37.4277 55.1402 37.5704 55.1732 37.7321L55.6121 40.0145C55.6286 40.0942 55.6283 40.1765 55.6111 40.2561C55.594 40.3357 55.5605 40.4109 55.5126 40.4768C55.4698 40.5466 55.4127 40.6066 55.3452 40.653C55.2776 40.6994 55.2011 40.7311 55.1205 40.746L52.2705 41.2902C52.1912 41.3076 52.1091 41.3082 52.0295 41.2921C51.9499 41.2759 51.8745 41.2434 51.8082 41.1966C51.7388 41.1525 51.6795 41.0943 51.6341 41.0257C51.5887 40.9571 51.5583 40.8798 51.5448 40.7987L51.1059 38.5163ZM48.7299 26.1916C48.7138 26.1112 48.7137 26.0285 48.7297 25.9481C48.7457 25.8678 48.7775 25.7914 48.8232 25.7233C48.8689 25.6553 48.9277 25.597 48.996 25.5519C49.0644 25.5067 49.141 25.4755 49.2215 25.4601L52.0715 24.91C52.1513 24.8935 52.2336 24.8938 52.3132 24.9109C52.3928 24.9281 52.468 24.9616 52.5339 25.0094C52.6026 25.0529 52.6615 25.1102 52.7068 25.1777C52.7522 25.2453 52.783 25.3215 52.7972 25.4015L54.6641 35.1571C54.6806 35.2369 54.6802 35.3192 54.6631 35.3988C54.646 35.4784 54.6124 35.5536 54.5646 35.6195C54.5211 35.6882 54.4638 35.7471 54.3963 35.7925C54.3288 35.8378 54.2525 35.8686 54.1725 35.8828L51.3225 36.4329C51.2427 36.4494 51.1604 36.4491 51.0808 36.432C51.0012 36.4148 50.926 36.3813 50.8601 36.3334C50.7914 36.29 50.7325 36.2326 50.6871 36.1651C50.6418 36.0976 50.611 36.0214 50.5968 35.9413L48.7299 26.1916Z" fill="#FFD789"/>
<path d="M46.3537 48.0671C46.299 48.0064 46.2568 47.9356 46.2295 47.8586C46.2022 47.7816 46.1904 47.7 46.1948 47.6184C46.1991 47.5369 46.2196 47.457 46.2549 47.3833C46.2902 47.3097 46.3397 47.2437 46.4005 47.1892L48.56 45.2522C48.6203 45.1967 48.6915 45.1545 48.7691 45.1282C48.8468 45.102 48.929 45.0924 49.0106 45.1C49.0917 45.1017 49.1716 45.1203 49.2451 45.1546C49.3187 45.1888 49.3843 45.238 49.4378 45.299L50.9887 47.0546C51.0434 47.1153 51.0856 47.1861 51.1129 47.2631C51.1401 47.3401 51.1519 47.4217 51.1476 47.5033C51.1432 47.5848 51.1228 47.6647 51.0875 47.7384C51.0522 47.812 51.0027 47.878 50.9418 47.9325L48.8116 49.8461C48.7514 49.9016 48.6801 49.9438 48.6025 49.9701C48.5249 49.9963 48.4426 50.0059 48.361 49.9983C48.2799 49.9966 48.2 49.978 48.1265 49.9437C48.053 49.9095 47.9873 49.8603 47.9338 49.7993L46.3537 48.0671ZM37.9792 38.7036C37.8691 38.5801 37.8123 38.4181 37.8212 38.2529C37.8237 38.1714 37.8432 38.0913 37.8785 38.0177C37.9137 37.9441 37.964 37.8787 38.026 37.8257L40.1855 35.8887C40.2453 35.8321 40.3163 35.7888 40.394 35.7616C40.4716 35.7344 40.5541 35.7238 40.6361 35.7307C40.7177 35.7331 40.7978 35.7526 40.8714 35.7879C40.945 35.8232 41.0103 35.8734 41.0633 35.9355L47.688 43.3443C47.7435 43.4046 47.7857 43.4759 47.8119 43.5535C47.8381 43.6311 47.8478 43.7134 47.8402 43.795C47.8384 43.8761 47.8198 43.9559 47.7856 44.0295C47.7513 44.103 47.7022 44.1687 47.6412 44.2222L45.4759 46.1593C45.4163 46.214 45.346 46.2558 45.2695 46.282C45.1929 46.3081 45.1117 46.3182 45.0311 46.3114C44.949 46.3105 44.868 46.2923 44.7934 46.258C44.7188 46.2237 44.6522 46.1741 44.5981 46.1124L37.9792 38.7036Z" fill="#FFD789"/>
<g opacity="0.6">
<path d="M46.3537 48.0671C46.299 48.0064 46.2568 47.9356 46.2295 47.8586C46.2022 47.7816 46.1904 47.7 46.1948 47.6184C46.1991 47.5369 46.2196 47.457 46.2549 47.3833C46.2902 47.3097 46.3397 47.2437 46.4005 47.1892L48.56 45.2522C48.6203 45.1967 48.6915 45.1545 48.7691 45.1282C48.8468 45.102 48.929 45.0924 49.0106 45.1C49.0917 45.1017 49.1716 45.1203 49.2451 45.1546C49.3187 45.1888 49.3843 45.238 49.4378 45.299L50.9887 47.0546C51.0434 47.1153 51.0856 47.1861 51.1129 47.2631C51.1401 47.3401 51.1519 47.4217 51.1476 47.5033C51.1432 47.5848 51.1228 47.6647 51.0875 47.7384C51.0522 47.812 51.0027 47.878 50.9418 47.9325L48.8116 49.8461C48.7514 49.9016 48.6801 49.9438 48.6025 49.9701C48.5249 49.9963 48.4426 50.0059 48.361 49.9983C48.2799 49.9966 48.2 49.978 48.1265 49.9437C48.053 49.9095 47.9873 49.8603 47.9338 49.7993L46.3537 48.0671ZM37.9792 38.7036C37.8691 38.5801 37.8123 38.4181 37.8212 38.2529C37.8237 38.1714 37.8432 38.0913 37.8785 38.0177C37.9137 37.9441 37.964 37.8787 38.026 37.8257L40.1855 35.8887C40.2453 35.8321 40.3163 35.7888 40.394 35.7616C40.4716 35.7344 40.5541 35.7238 40.6361 35.7307C40.7177 35.7331 40.7978 35.7526 40.8714 35.7879C40.945 35.8232 41.0103 35.8734 41.0633 35.9355L47.688 43.3443C47.7435 43.4046 47.7857 43.4759 47.8119 43.5535C47.8381 43.6311 47.8478 43.7134 47.8402 43.795C47.8384 43.8761 47.8198 43.9559 47.7856 44.0295C47.7513 44.103 47.7022 44.1687 47.6412 44.2222L45.4759 46.1593C45.4163 46.214 45.346 46.2558 45.2695 46.282C45.1929 46.3081 45.1117 46.3182 45.0311 46.3114C44.949 46.3105 44.868 46.2923 44.7934 46.258C44.7188 46.2237 44.6522 46.1741 44.5981 46.1124L37.9792 38.7036Z" fill="white"/>
</g>
</svg>
