<svg xmlns="http://www.w3.org/2000/svg" width="12" height="14" viewBox="0 0 12 14" fill="none">
  <path d="M2.48077 13.3743C2.10674 13.3743 1.78727 13.2419 1.52237 12.977C1.25746 12.7121 1.125 12.3926 1.125 12.0186V2.49937H0.375V1.37439H3.74998V0.710938H8.24998V1.37439H11.625V2.49937H10.875V12.0186C10.875 12.3974 10.7437 12.7181 10.4812 12.9806C10.2187 13.2431 9.89804 13.3743 9.51919 13.3743H2.48077ZM9.74998 2.49937H2.24998V12.0186C2.24998 12.0859 2.27162 12.1412 2.31489 12.1845C2.35817 12.2277 2.41346 12.2494 2.48077 12.2494H9.51919C9.57689 12.2494 9.62978 12.2253 9.67787 12.1773C9.72594 12.1292 9.74998 12.0763 9.74998 12.0186V2.49937ZM4.05289 10.7494H5.17787V3.99937H4.05289V10.7494ZM6.82209 10.7494H7.94707V3.99937H6.82209V10.7494Z" fill="#98A2B3"/>
</svg>