<svg width="107" height="24" viewBox="0 0 107 24" fill="none" xmlns="http://www.w3.org/2000/svg">
<g id="Layer_1">
<g id="Group">
<g id="Group_2">
<path id="Vector" d="M37.149 8.41399H32.3452C31.7231 8.41399 31.165 7.90254 31.165 7.09319C31.165 6.28383 31.7231 5.75 32.3452 5.75H41.504C42.1261 5.75 42.6842 6.26144 42.6842 7.0708C42.6842 7.88016 42.1261 8.41399 41.504 8.41399H38.2876V17.4512C38.2876 18.0694 37.7729 18.6239 36.9584 18.6239C36.1439 18.6239 35.6067 18.0694 35.6067 17.4512V10.1188C35.6067 8.88238 36.2721 8.52076 37.1508 8.41399H37.149Z" fill="#F29F81"/>
<path id="Vector_2" d="M43.9688 7.85948H46.1783V5.74999H51.0462C53.5764 5.74999 55.2071 6.70916 55.2071 8.96847C55.2071 10.5235 54.4134 11.462 52.8485 11.846C54.8432 12.23 55.4445 13.3803 55.4445 14.8303C55.4445 17.6217 53.1068 18.283 50.7256 18.283H46.3291V16.2578H43.9705V7.8612L43.9688 7.85948ZM47.6583 11.7806C47.6583 11.4603 47.7449 11.0986 47.8298 10.7577H50.7256C52.0132 10.7577 52.5487 10.2462 52.5487 9.47819C52.5487 8.60512 52.0132 8.17806 50.8106 8.17806H46.5648V15.8514H50.8106C52.3772 15.8514 52.7619 15.3193 52.7619 14.4239C52.7619 13.6559 52.3113 13.017 50.8955 13.017H48.8367C47.9355 13.017 47.6565 12.4625 47.6565 11.7806H47.6583ZM58.1463 7.90253H60.5274V5.62256H64.7524C67.9047 5.62256 69.4713 7.02946 69.4713 9.84154C69.4713 12.0148 68.5268 13.3579 66.5755 13.9124L68.8925 16.3853C69.064 16.5558 69.1282 16.8123 69.1282 17.0672C69.1282 17.7922 68.506 18.4104 67.7764 18.4104C67.3692 18.4104 67.0261 18.2192 66.8545 18.0488L62.9726 13.723C62.7144 13.4458 62.6087 13.1048 62.6087 12.7638C62.6087 12.4435 62.6953 12.1026 62.8444 11.784C63.4665 11.8701 64.0245 11.9114 64.5167 11.9114C66.04 11.9114 66.8112 11.4207 66.8112 10.0137C66.8112 8.43636 65.91 8.13845 64.6883 8.13845H60.8272V17.2394C60.8272 17.8576 60.3125 18.4121 59.498 18.4121C58.6835 18.4121 58.1463 17.8576 58.1463 17.2394V7.90425V7.90253ZM72.1297 7.94558H74.4883V5.74999H81.5883C82.2312 5.74999 82.7892 6.21838 82.7892 6.98641C82.7892 7.75444 82.2312 8.26588 81.5883 8.26588H74.8106V15.7895H81.8673C82.4894 15.7895 83.0475 16.2578 83.0475 17.0259C83.0475 17.7939 82.4894 18.283 81.8673 18.283H74.4033V16.1735H72.1297V7.94731V7.94558ZM75.8625 10.5459H80.3232C80.9453 10.5459 81.5034 11.0142 81.5034 11.7823C81.5034 12.5503 80.9453 13.0394 80.3232 13.0394H76.9768C75.9908 13.0394 75.6684 12.4212 75.6684 11.6755C75.6684 11.3139 75.7551 10.9299 75.8608 10.5459H75.8625ZM85.685 15.8308H87.3158V9.92765C87.3158 8.58446 88.0454 8.26588 88.9673 8.20217H85.685C85.1062 8.20217 84.5915 7.73377 84.5915 6.98813C84.5915 6.24249 85.1062 5.75171 85.685 5.75171H91.4541C92.033 5.75171 92.5476 6.2201 92.5476 6.96575C92.5476 7.71139 92.033 8.20217 91.4541 8.20217H89.8234V14.1053C89.8234 15.4485 89.0938 15.7671 88.1719 15.8308H91.4541C92.033 15.8308 92.5476 16.2992 92.5476 17.0448C92.5476 17.7905 92.033 18.2812 91.4541 18.2812H85.685C85.1062 18.2812 84.5915 17.8128 84.5915 17.0672C84.5915 16.3216 85.1062 15.8308 85.685 15.8308ZM94.9721 10.6733C94.9721 9.30944 95.7866 9.01152 96.7744 8.94781L95.7883 7.71139C95.5526 7.43414 95.466 7.13623 95.466 6.87964C95.466 6.17705 96.1315 5.62256 96.7744 5.62256C97.1175 5.62256 97.504 5.79304 97.8038 6.17705L104.152 14.0416V6.79526C104.152 6.17705 104.666 5.62256 105.481 5.62256C106.295 5.62256 106.833 6.17705 106.833 6.79526V13.2098C106.833 14.6374 105.954 14.894 104.881 14.9353L105.931 16.2355C106.146 16.492 106.318 16.8106 106.318 17.1516C106.318 17.8542 105.652 18.4087 105.01 18.4087C104.623 18.4087 104.237 18.1951 104.044 17.9403L97.653 10.012V17.2377C97.653 17.8559 97.1383 18.4104 96.3238 18.4104C95.5093 18.4104 94.9721 17.8559 94.9721 17.2377V10.6733Z" fill="#4E4D4F"/>
</g>
<g id="Group_3">
<g id="Group_4">
<g id="Group_5">
<path id="Vector_3" d="M14.1787 18.059V16.535C14.1787 16.2287 13.9289 15.9805 13.6207 15.9805H12.0974C11.7892 15.9805 11.5394 16.2287 11.5394 16.535V18.059C11.5394 18.3652 11.7892 18.6135 12.0974 18.6135H13.6207C13.9289 18.6135 14.1787 18.3652 14.1787 18.059Z" fill="#4E4D4F"/>
</g>
<g id="Group_6">
<path id="Vector_4" d="M14.1768 14.8146V13.2906C14.1768 12.9843 13.9269 12.7361 13.6187 12.7361H12.0954C11.7873 12.7361 11.5374 12.9843 11.5374 13.2906V14.8146C11.5374 15.1208 11.7873 15.3691 12.0954 15.3691H13.6187C13.9269 15.3691 14.1768 15.1208 14.1768 14.8146Z" fill="#4E4D4F"/>
</g>
<g id="Group_7">
<path id="Vector_5" d="M14.1787 11.5719V10.0479C14.1787 9.74166 13.9289 9.49341 13.6207 9.49341H12.0974C11.7892 9.49341 11.5394 9.74166 11.5394 10.0479V11.5719C11.5394 11.8781 11.7892 12.1264 12.0974 12.1264H13.6207C13.9289 12.1264 14.1787 11.8781 14.1787 11.5719Z" fill="#4E4D4F"/>
</g>
<g id="Group_8">
<path id="Vector_6" d="M14.1787 8.32776V6.80376C14.1787 6.49752 13.9289 6.24927 13.6207 6.24927H12.0974C11.7892 6.24927 11.5394 6.49752 11.5394 6.80376V8.32776C11.5394 8.634 11.7892 8.88226 12.0974 8.88226H13.6207C13.9289 8.88226 14.1787 8.634 14.1787 8.32776Z" fill="#4E4D4F"/>
</g>
<g id="Group_9">
<path id="Vector_7" d="M7.69238 5.08509V3.56109C7.69238 3.25485 7.44255 3.00659 7.13436 3.00659H5.61107C5.30289 3.00659 5.05305 3.25485 5.05305 3.56109V5.08509C5.05305 5.39133 5.30289 5.63958 5.61107 5.63958H7.13436C7.44255 5.63958 7.69238 5.39133 7.69238 5.08509Z" fill="#4E4D4F"/>
<path id="Vector_8" d="M10.9365 5.0868V3.5628C10.9365 3.25656 10.6867 3.0083 10.3785 3.0083H8.85521C8.54703 3.0083 8.29719 3.25656 8.29719 3.5628V5.0868C8.29719 5.39304 8.54703 5.64129 8.85521 5.64129H10.3785C10.6867 5.64129 10.9365 5.39304 10.9365 5.0868Z" fill="#4E4D4F"/>
<path id="Vector_9" d="M14.1787 5.08509V3.56109C14.1787 3.25485 13.9289 3.00659 13.6207 3.00659H12.0974C11.7892 3.00659 11.5394 3.25485 11.5394 3.56109V5.08509C11.5394 5.39133 11.7892 5.63958 12.0974 5.63958H13.6207C13.9289 5.63958 14.1787 5.39133 14.1787 5.08509Z" fill="#4E4D4F"/>
<path id="Vector_10" d="M17.4229 5.0868V3.56279C17.4229 3.25656 17.173 3.0083 16.8648 3.0083H15.3415C15.0334 3.0083 14.7835 3.25656 14.7835 3.56279V5.0868C14.7835 5.39304 15.0334 5.64129 15.3415 5.64129H16.8648C17.173 5.64129 17.4229 5.39304 17.4229 5.0868Z" fill="#4E4D4F"/>
<path id="Vector_11" d="M20.665 5.08509V3.56109C20.665 3.25485 20.4152 3.00659 20.107 3.00659H18.5837C18.2755 3.00659 18.0257 3.25485 18.0257 3.56109V5.08509C18.0257 5.39133 18.2755 5.63958 18.5837 5.63958H20.107C20.4152 5.63958 20.665 5.39133 20.665 5.08509Z" fill="#4E4D4F"/>
</g>
</g>
<path id="Vector_12" d="M2.26736 0.322021L0.932969 1.74098C0.825525 1.85808 0.742342 1.94934 0.707682 1.98895C0.40441 2.34369 0.173924 2.73115 0.166992 3.16338V22.8738C0.166992 23.1683 0.283102 23.4352 0.470264 23.6349L2.37481 21.3188L2.26736 0.322021Z" fill="#F29F81"/>
<path id="Vector_13" d="M2.46514 21.2085L0.46875 23.6348C0.624718 23.8019 0.960916 23.9999 1.29885 23.9999H20.7897C21.1207 23.9999 21.5505 23.702 21.7463 23.4678C21.9629 23.2061 23.5243 21.2102 23.5243 21.2102H2.46514V21.2085Z" fill="#B2B0B0"/>
<path id="Vector_14" d="M23.7368 1.04011C23.7368 0.464949 23.2689 0 22.6901 0H3.02426C2.44544 0 1.97754 0.464949 1.97754 1.04011V20.5818C1.97754 21.1569 2.44544 21.6219 3.02426 21.6219H22.6918C23.2707 21.6219 23.7386 21.1569 23.7386 20.5818V1.04011H23.7368ZM3.53029 1.54467H22.1824V20.0772H3.53029V1.54467Z" fill="#4E4D4F"/>
</g>
</g>
</g>
</svg>
