<svg width="15" height="16" viewBox="0 0 15 16" fill="none" xmlns="http://www.w3.org/2000/svg">
<mask id="mask0_1138_34690" style="mask-type:alpha" maskUnits="userSpaceOnUse" x="0" y="0" width="15" height="16">
<rect y="0.5" width="15" height="15" fill="#D9D9D9"/>
</mask>
<g mask="url(#mask0_1138_34690)">
<path d="M6.625 10.875L11.0312 6.46875L10.1562 5.59375L6.625 9.125L4.84375 7.34375L3.96875 8.21875L6.625 10.875ZM7.5 14.25C6.63542 14.25 5.82292 14.0859 5.0625 13.7578C4.30208 13.4297 3.64062 12.9844 3.07812 12.4219C2.51562 11.8594 2.07031 11.1979 1.74219 10.4375C1.41406 9.67708 1.25 8.86458 1.25 8C1.25 7.13542 1.41406 6.32292 1.74219 5.5625C2.07031 4.80208 2.51562 4.14062 3.07812 3.57812C3.64062 3.01562 4.30208 2.57031 5.0625 2.24219C5.82292 1.91406 6.63542 1.75 7.5 1.75C8.36458 1.75 9.17708 1.91406 9.9375 2.24219C10.6979 2.57031 11.3594 3.01562 11.9219 3.57812C12.4844 4.14062 12.9297 4.80208 13.2578 5.5625C13.5859 6.32292 13.75 7.13542 13.75 8C13.75 8.86458 13.5859 9.67708 13.2578 10.4375C12.9297 11.1979 12.4844 11.8594 11.9219 12.4219C11.3594 12.9844 10.6979 13.4297 9.9375 13.7578C9.17708 14.0859 8.36458 14.25 7.5 14.25Z" fill="#32D583"/>
</g>
</svg>
