<svg width="169" height="40" viewBox="0 0 169 40" fill="none" xmlns="http://www.w3.org/2000/svg">
<mask id="path-1-inside-1_1138_34689" fill="white">
<path d="M0 0H169V40H0V0Z"/>
</mask>
<path d="M0 0H169V40H0V0Z" fill="#FEFEFE"/>
<path d="M169 39.5H0V40.5H169V39.5Z" fill="#E2E4E3" mask="url(#path-1-inside-1_1138_34689)"/>
<mask id="mask0_1138_34689" style="mask-type:alpha" maskUnits="userSpaceOnUse" x="77" y="12" width="15" height="16">
<rect x="77" y="12.5" width="15" height="15" fill="#D9D9D9"/>
</mask>
<g mask="url(#mask0_1138_34689)">
<path d="M83.625 22.875L88.0312 18.4688L87.1562 17.5938L83.625 21.125L81.8438 19.3438L80.9688 20.2188L83.625 22.875ZM84.5 26.25C83.6354 26.25 82.8229 26.0859 82.0625 25.7578C81.3021 25.4297 80.6406 24.9844 80.0781 24.4219C79.5156 23.8594 79.0703 23.1979 78.7422 22.4375C78.4141 21.6771 78.25 20.8646 78.25 20C78.25 19.1354 78.4141 18.3229 78.7422 17.5625C79.0703 16.8021 79.5156 16.1406 80.0781 15.5781C80.6406 15.0156 81.3021 14.5703 82.0625 14.2422C82.8229 13.9141 83.6354 13.75 84.5 13.75C85.3646 13.75 86.1771 13.9141 86.9375 14.2422C87.6979 14.5703 88.3594 15.0156 88.9219 15.5781C89.4844 16.1406 89.9297 16.8021 90.2578 17.5625C90.5859 18.3229 90.75 19.1354 90.75 20C90.75 20.8646 90.5859 21.6771 90.2578 22.4375C89.9297 23.1979 89.4844 23.8594 88.9219 24.4219C88.3594 24.9844 87.6979 25.4297 86.9375 25.7578C86.1771 26.0859 85.3646 26.25 84.5 26.25Z" fill="#32D583"/>
</g>
</svg>
