<svg width="25" height="24" viewBox="0 0 25 24" fill="none" xmlns="http://www.w3.org/2000/svg">
<g id="iconos">
<mask id="mask0_3716_4664" style="mask-type:alpha" maskUnits="userSpaceOnUse" x="0" y="0" width="25" height="24">
<rect id="Bounding box" x="0.5" width="24" height="24" fill="#D9D9D9"/>
</mask>
<g mask="url(#mask0_3716_4664)">
<path id="data_loss_prevention" d="M11.5 9.5C11.9218 9.5 12.2773 9.35545 12.5664 9.06635C12.8555 8.77725 13 8.4218 13 8C13 7.5782 12.8555 7.22275 12.5664 6.93365C12.2773 6.64455 11.9218 6.5 11.5 6.5C11.0782 6.5 10.7228 6.64455 10.4337 6.93365C10.1446 7.22275 10 7.5782 10 8C10 8.4218 10.1446 8.77725 10.4337 9.06635C10.7228 9.35545 11.0782 9.5 11.5 9.5ZM11.5192 13.5C12.0769 13.5 12.6144 13.3962 13.1317 13.1885C13.649 12.9808 14.1173 12.6814 14.5366 12.2904C14.0173 12.0224 13.5042 11.8237 12.9971 11.6942C12.4901 11.5647 11.9974 11.5 11.5192 11.5C10.9256 11.5 10.3593 11.568 9.8202 11.7038C9.28108 11.8397 8.83524 12.0353 8.48268 12.2904C8.88909 12.6814 9.35416 12.9808 9.87788 13.1885C10.4016 13.3962 10.9487 13.5 11.5192 13.5ZM21.6769 20.9039L16.4192 15.6462C15.6846 16.2436 14.9272 16.7019 14.1471 17.0212C13.367 17.3404 12.4846 17.5 11.5 17.5C9.40768 17.5 7.63461 16.7731 6.18078 15.3192C4.72693 13.8654 4 12.0923 4 10C4 7.90768 4.72693 6.13461 6.18078 4.68078C7.63461 3.22693 9.40768 2.5 11.5 2.5C13.5923 2.5 15.3654 3.22693 16.8192 4.68078C18.2731 6.13461 19 7.90768 19 10C19 10.9846 18.8404 11.8702 18.5212 12.6567C18.2019 13.4433 17.7436 14.2038 17.1462 14.9384L22.3846 20.1769L21.6769 20.9039ZM11.5 16.5C13.2949 16.5 14.8269 15.8654 16.0962 14.5962C17.3654 13.3269 18 11.7949 18 10C18 8.20513 17.3654 6.67308 16.0962 5.40385C14.8269 4.13462 13.2949 3.5 11.5 3.5C9.70513 3.5 8.17308 4.13462 6.90385 5.40385C5.63462 6.67308 5 8.20513 5 10C5 11.7949 5.63462 13.3269 6.90385 14.5962C8.17308 15.8654 9.70513 16.5 11.5 16.5Z" fill="#FFA800"/>
</g>
</g>
</svg>
