<svg width="15" height="16" viewBox="0 0 15 16" fill="none" xmlns="http://www.w3.org/2000/svg">
<mask id="mask0_9239_62669" style="mask-type:alpha" maskUnits="userSpaceOnUse" x="0" y="0" width="15" height="16">
<rect y="0.5" width="15" height="15" fill="#D9D9D9"/>
</mask>
<g mask="url(#mask0_9239_62669)">
<path d="M7.49998 10.9567C7.64302 10.9567 7.76291 10.9083 7.85966 10.8116C7.95641 10.7148 8.00478 10.5949 8.00478 10.4519C8.00478 10.3089 7.95641 10.189 7.85966 10.0922C7.76291 9.99549 7.64302 9.94711 7.49998 9.94711C7.35695 9.94711 7.23706 9.99549 7.14031 10.0922C7.04356 10.189 6.99519 10.3089 6.99519 10.4519C6.99519 10.5949 7.04356 10.7148 7.14031 10.8116C7.23706 10.9083 7.35695 10.9567 7.49998 10.9567ZM7.03125 8.67306H7.96872V4.92306H7.03125V8.67306ZM7.50103 13.9375C6.67982 13.9375 5.90793 13.7816 5.18534 13.47C4.46275 13.1583 3.8342 12.7353 3.29969 12.2011C2.76517 11.6668 2.34201 11.0385 2.0302 10.3162C1.7184 9.59398 1.5625 8.82224 1.5625 8.00103C1.5625 7.17982 1.71833 6.40793 2.03 5.68534C2.34167 4.96275 2.76464 4.3342 3.29891 3.79969C3.83319 3.26517 4.46146 2.84201 5.18373 2.5302C5.90599 2.2184 6.67773 2.0625 7.49894 2.0625C8.32015 2.0625 9.09204 2.21833 9.81463 2.53C10.5372 2.84167 11.1658 3.26464 11.7003 3.79891C12.2348 4.33319 12.658 4.96146 12.9698 5.68374C13.2816 6.406 13.4375 7.17773 13.4375 7.99894C13.4375 8.82015 13.2816 9.59204 12.97 10.3146C12.6583 11.0372 12.2353 11.6658 11.7011 12.2003C11.1668 12.7348 10.5385 13.158 9.81624 13.4698C9.09398 13.7816 8.32224 13.9375 7.50103 13.9375Z" fill="#FDB022"/>
</g>
</svg>
