<svg width="25" height="24" viewBox="0 0 25 24" fill="none" xmlns="http://www.w3.org/2000/svg">
<g id="iconos">
<mask id="mask0_7807_53765" style="mask-type:alpha" maskUnits="userSpaceOnUse" x="0" y="0" width="25" height="24">
<rect id="Bounding box" x="0.5" width="24" height="24" fill="#D9D9D9"/>
</mask>
<g mask="url(#mask0_7807_53765)">
<path id="search" d="M20.0427 20.577L13.7619 14.2962C13.2619 14.7091 12.6869 15.0321 12.0369 15.2655C11.3869 15.4988 10.7145 15.6155 10.0196 15.6155C8.31048 15.6155 6.86396 15.0237 5.6801 13.8401C4.49623 12.6566 3.9043 11.2104 3.9043 9.50169C3.9043 7.79296 4.49608 6.34628 5.67965 5.16167C6.86321 3.97707 8.30936 3.38477 10.0181 3.38477C11.7268 3.38477 13.1735 3.9767 14.3581 5.16057C15.5427 6.34443 16.135 7.79095 16.135 9.50012C16.135 10.2142 16.0151 10.8963 15.7754 11.5463C15.5356 12.1963 15.2158 12.7617 14.8158 13.2424L21.0965 19.5232L20.0427 20.577ZM10.0196 14.1155C11.3081 14.1155 12.3995 13.6684 13.2937 12.7742C14.1879 11.8799 14.635 10.7886 14.635 9.50012C14.635 8.21165 14.1879 7.1203 13.2937 6.22607C12.3995 5.33183 11.3081 4.88472 10.0196 4.88472C8.73118 4.88472 7.63983 5.33183 6.7456 6.22607C5.85138 7.1203 5.40427 8.21165 5.40427 9.50012C5.40427 10.7886 5.85138 11.8799 6.7456 12.7742C7.63983 13.6684 8.73118 14.1155 10.0196 14.1155Z" fill="#98A2B3"/>
</g>
</g>
</svg>
