<svg width="16" height="16" viewBox="0 0 16 16" fill="none" xmlns="http://www.w3.org/2000/svg">
<mask id="mask0_9239_62740" style="mask-type:alpha" maskUnits="userSpaceOnUse" x="0" y="0" width="16" height="16">
<rect width="16" height="16" fill="#D9D9D9"/>
</mask>
<g mask="url(#mask0_9239_62740)">
<path d="M7.50002 11.167H8.49999V7.33364H7.50002V11.167ZM8 6.19263C8.15257 6.19263 8.28045 6.14103 8.38365 6.03783C8.48685 5.93463 8.53845 5.80674 8.53845 5.65418C8.53845 5.50162 8.48685 5.37374 8.38365 5.27053C8.28045 5.16733 8.15257 5.11573 8 5.11573C7.84744 5.11573 7.71955 5.16733 7.61635 5.27053C7.51315 5.37374 7.46155 5.50162 7.46155 5.65418C7.46155 5.80674 7.51315 5.93463 7.61635 6.03783C7.71955 6.14103 7.84744 6.19263 8 6.19263ZM8.00112 14.3336C7.12516 14.3336 6.30181 14.1674 5.53105 13.835C4.76029 13.5025 4.08983 13.0513 3.51969 12.4815C2.94953 11.9116 2.49816 11.2414 2.16557 10.471C1.83298 9.70056 1.66669 8.87738 1.66669 8.00143C1.66669 7.12547 1.83291 6.30211 2.16535 5.53136C2.4978 4.76059 2.94896 4.09014 3.51885 3.51999C4.08875 2.94984 4.75891 2.49847 5.52934 2.16588C6.29975 1.83329 7.12293 1.66699 7.99889 1.66699C8.87484 1.66699 9.6982 1.83322 10.469 2.16566C11.2397 2.4981 11.9102 2.94927 12.4803 3.51916C13.0505 4.08906 13.5018 4.75922 13.8344 5.52964C14.167 6.30005 14.3333 7.12324 14.3333 7.99919C14.3333 8.87515 14.1671 9.6985 13.8347 10.4693C13.5022 11.24 13.051 11.9105 12.4812 12.4806C11.9113 13.0508 11.2411 13.5022 10.4707 13.8347C9.70026 14.1673 8.87708 14.3336 8.00112 14.3336ZM8 13.3336C9.48889 13.3336 10.75 12.817 11.7833 11.7836C12.8167 10.7503 13.3333 9.4892 13.3333 8.00031C13.3333 6.51142 12.8167 5.25031 11.7833 4.21698C10.75 3.18364 9.48889 2.66698 8 2.66698C6.51111 2.66698 5.25 3.18364 4.21667 4.21698C3.18334 5.25031 2.66667 6.51142 2.66667 8.00031C2.66667 9.4892 3.18334 10.7503 4.21667 11.7836C5.25 12.817 6.51111 13.3336 8 13.3336Z" fill="#F79009"/>
</g>
</svg>
