<?xml version="1.0" encoding="UTF-8"?><svg id="Capa_2" xmlns="http://www.w3.org/2000/svg" viewBox="0 0 615.51 139.37"><defs><style>.cls-1{fill:#b2b0b0;}.cls-2{fill:none;}.cls-3{fill:#4e4d4f;}.cls-4{fill:#f29f81;}</style></defs><g id="Layer_1"><g><g><path class="cls-4" d="m213.4,48.86h-27.72c-3.59,0-6.81-2.97-6.81-7.67s3.22-7.8,6.81-7.8h52.85c3.59,0,6.81,2.97,6.81,7.67s-3.22,7.8-6.81,7.8h-18.56v52.48c0,3.59-2.97,6.81-7.67,6.81s-7.8-3.22-7.8-6.81v-42.58c0-7.18,3.84-9.28,8.91-9.9Z"/><path class="cls-3" d="m252.75,45.64h12.75v-12.25h28.09c14.6,0,24.01,5.57,24.01,18.69,0,9.03-4.58,14.48-13.61,16.71,11.51,2.23,14.98,8.91,14.98,17.33,0,16.21-13.49,20.05-27.23,20.05h-25.37v-11.76h-13.61v-48.76Zm21.29,22.77c0-1.86.5-3.96.99-5.94h16.71c7.43,0,10.52-2.97,10.52-7.43,0-5.07-3.09-7.55-10.03-7.55h-24.5v44.56h24.5c9.04,0,11.26-3.09,11.26-8.29,0-4.46-2.6-8.17-10.77-8.17h-11.88c-5.2,0-6.81-3.22-6.81-7.18Zm60.52-22.52h13.74v-13.24h24.38c18.19,0,27.23,8.17,27.23,24.5,0,12.62-5.45,20.42-16.71,23.64l13.37,14.36c.99.99,1.36,2.48,1.36,3.96,0,4.21-3.59,7.8-7.8,7.8-2.35,0-4.33-1.11-5.32-2.1l-22.4-25.12c-1.49-1.61-2.1-3.59-2.1-5.57,0-1.86.5-3.84,1.36-5.69,3.59.5,6.81.74,9.65.74,8.79,0,13.24-2.85,13.24-11.02,0-9.16-5.2-10.89-12.25-10.89h-22.28v52.85c0,3.59-2.97,6.81-7.67,6.81s-7.8-3.22-7.8-6.81v-54.21Zm80.69.25h13.61v-12.75h40.97c3.71,0,6.93,2.72,6.93,7.18s-3.22,7.43-6.93,7.43h-39.11v43.69h40.72c3.59,0,6.81,2.72,6.81,7.18s-3.22,7.3-6.81,7.3h-43.07v-12.25h-13.12v-47.77Zm21.54,15.1h25.74c3.59,0,6.81,2.72,6.81,7.18s-3.22,7.3-6.81,7.3h-19.31c-5.69,0-7.55-3.59-7.55-7.92,0-2.1.5-4.33,1.11-6.56Zm56.68,30.69h9.41v-34.28c0-7.8,4.21-9.65,9.53-10.02h-18.94c-3.34,0-6.31-2.72-6.31-7.05s2.97-7.18,6.31-7.18h33.29c3.34,0,6.31,2.72,6.31,7.05s-2.97,7.18-6.31,7.18h-9.41v34.28c0,7.8-4.21,9.65-9.53,10.02h18.94c3.34,0,6.31,2.72,6.31,7.05s-2.97,7.18-6.31,7.18h-33.29c-3.34,0-6.31-2.72-6.31-7.05s2.97-7.18,6.31-7.18Zm53.59-29.95c0-7.92,4.7-9.65,10.4-10.02l-5.69-7.18c-1.36-1.61-1.86-3.34-1.86-4.83,0-4.08,3.84-7.3,7.55-7.3,1.98,0,4.21.99,5.94,3.22l36.63,45.67v-42.08c0-3.59,2.97-6.81,7.67-6.81s7.8,3.22,7.8,6.81v37.25c0,8.29-5.07,9.78-11.26,10.02l6.06,7.55c1.24,1.49,2.23,3.34,2.23,5.32,0,4.08-3.84,7.3-7.55,7.3-2.23,0-4.46-1.24-5.57-2.72l-36.88-46.04v41.96c0,3.59-2.97,6.81-7.67,6.81s-7.8-3.22-7.8-6.81v-38.12Z"/></g><g><g><g><rect class="cls-2" x="28.15" y="92.83" width="15.29" height="15.23" rx="3.22" ry="3.22" transform="translate(136.25 64.65) rotate(90)"/><rect class="cls-2" x="46.87" y="92.83" width="15.29" height="15.23" rx="3.22" ry="3.22" transform="translate(154.96 45.93) rotate(90)"/><rect class="cls-3" x="65.58" y="92.83" width="15.29" height="15.23" rx="3.22" ry="3.22" transform="translate(173.68 27.22) rotate(90)"/><rect class="cls-2" x="84.3" y="92.83" width="15.29" height="15.23" rx="3.22" ry="3.22" transform="translate(192.39 8.5) rotate(90)"/><rect class="cls-2" x="103.01" y="92.83" width="15.29" height="15.23" rx="3.22" ry="3.22" transform="translate(211.11 -10.21) rotate(90)"/></g><g><rect class="cls-2" x="28.15" y="74" width="15.29" height="15.23" rx="3.22" ry="3.22" transform="translate(117.41 45.81) rotate(90)"/><rect class="cls-2" x="46.87" y="74" width="15.29" height="15.23" rx="3.22" ry="3.22" transform="translate(136.13 27.1) rotate(90)"/><rect class="cls-3" x="65.58" y="74" width="15.29" height="15.23" rx="3.22" ry="3.22" transform="translate(154.84 8.38) rotate(90)"/><rect class="cls-2" x="84.3" y="74" width="15.29" height="15.23" rx="3.22" ry="3.22" transform="translate(173.56 -10.33) rotate(90)"/><rect class="cls-2" x="103.01" y="74" width="15.29" height="15.23" rx="3.22" ry="3.22" transform="translate(192.27 -29.05) rotate(90)"/></g><g><rect class="cls-2" x="28.15" y="55.16" width="15.29" height="15.23" rx="3.22" ry="3.22" transform="translate(98.58 26.98) rotate(90)"/><rect class="cls-2" x="46.87" y="55.16" width="15.29" height="15.23" rx="3.22" ry="3.22" transform="translate(117.29 8.26) rotate(90)"/><rect class="cls-3" x="65.58" y="55.16" width="15.29" height="15.23" rx="3.22" ry="3.22" transform="translate(136.01 -10.45) rotate(90)"/><rect class="cls-2" x="84.3" y="55.16" width="15.29" height="15.23" rx="3.22" ry="3.22" transform="translate(154.72 -29.17) rotate(90)"/><rect class="cls-2" x="103.01" y="55.16" width="15.29" height="15.23" rx="3.22" ry="3.22" transform="translate(173.44 -47.88) rotate(90)"/></g><g><rect class="cls-2" x="28.15" y="36.33" width="15.29" height="15.23" rx="3.22" ry="3.22" transform="translate(79.74 8.15) rotate(90)"/><rect class="cls-2" x="46.87" y="36.33" width="15.29" height="15.23" rx="3.22" ry="3.22" transform="translate(98.46 -10.57) rotate(90)"/><rect class="cls-3" x="65.58" y="36.33" width="15.29" height="15.23" rx="3.22" ry="3.22" transform="translate(117.18 -29.29) rotate(90)"/><rect class="cls-2" x="84.3" y="36.33" width="15.29" height="15.23" rx="3.22" ry="3.22" transform="translate(135.89 -48) rotate(90)"/><rect class="cls-2" x="103.01" y="36.33" width="15.29" height="15.23" rx="3.22" ry="3.22" transform="translate(154.61 -66.72) rotate(90)"/></g><g><rect class="cls-3" x="28.15" y="17.49" width="15.29" height="15.23" rx="3.22" ry="3.22" transform="translate(60.91 -10.69) rotate(90)"/><rect class="cls-3" x="46.87" y="17.49" width="15.29" height="15.23" rx="3.22" ry="3.22" transform="translate(79.63 -29.4) rotate(90)"/><rect class="cls-3" x="65.58" y="17.49" width="15.29" height="15.23" rx="3.22" ry="3.22" transform="translate(98.34 -48.12) rotate(90)"/><rect class="cls-3" x="84.3" y="17.49" width="15.29" height="15.23" rx="3.22" ry="3.22" transform="translate(117.06 -66.83) rotate(90)"/><rect class="cls-3" x="103.01" y="17.49" width="15.29" height="15.23" rx="3.22" ry="3.22" transform="translate(135.77 -85.55) rotate(90)"/></g></g><path class="cls-4" d="m12.12,1.87l-7.7,8.24c-.62.68-1.1,1.21-1.3,1.44C1.37,13.61.04,15.86,0,18.37v114.46c0,1.71.67,3.26,1.75,4.42l10.99-13.45L12.12,1.87Z"/><path class="cls-1" d="m13.26,123.16l-11.52,14.09c.9.97,2.84,2.12,4.79,2.12h112.47c1.91,0,4.39-1.73,5.52-3.09,1.25-1.52,10.26-13.11,10.26-13.11H13.26Z"/><path class="cls-3" d="m136.01,6.04c0-3.34-2.7-6.04-6.04-6.04H16.49c-3.34,0-6.04,2.7-6.04,6.04v113.48c0,3.34,2.7,6.04,6.04,6.04h113.49c3.34,0,6.04-2.7,6.04-6.04V6.04Zm-116.6,2.93h107.63v107.62H19.41V8.97Z"/></g></g></g></svg>