<svg width="252" height="252" viewBox="0 0 252 252" fill="none" xmlns="http://www.w3.org/2000/svg">
<path d="M126 240.877C191.577 240.877 244.737 210.184 244.737 172.323C244.737 134.461 191.577 103.769 126 103.769C60.4232 103.769 7.2627 134.461 7.2627 172.323C7.2627 210.184 60.4232 240.877 126 240.877Z" fill="#F0F0F0"/>
<path d="M101.43 224.27C124.044 224.27 142.375 213.687 142.375 200.633C142.375 187.578 124.044 176.995 101.43 176.995C78.817 176.995 60.4854 187.578 60.4854 200.633C60.4854 213.687 78.817 224.27 101.43 224.27Z" fill="#E0E0E0"/>
<path d="M217.869 171.057L213.066 168.285C213.066 168.285 211.891 158.003 212.672 150.04C213.771 138.851 220.999 125.384 229.617 128.55C238.235 131.715 225.666 143.105 222.868 152.595C220.071 162.086 217.869 171.057 217.869 171.057Z" fill="#FFA800"/>
<path opacity="0.15" d="M217.869 171.057L213.066 168.285C213.066 168.285 211.891 158.003 212.672 150.04C213.771 138.851 220.999 125.384 229.617 128.55C238.235 131.715 225.666 143.105 222.868 152.595C220.071 162.086 217.869 171.057 217.869 171.057Z" fill="black"/>
<path d="M215.344 169.893C215.421 169.889 215.493 169.855 215.545 169.799C215.596 169.742 215.624 169.667 215.621 169.591C214.78 144.728 227.158 132.219 227.279 132.098C227.334 132.043 227.364 131.969 227.364 131.891C227.364 131.814 227.334 131.74 227.279 131.685C227.252 131.658 227.22 131.636 227.185 131.622C227.15 131.607 227.113 131.6 227.075 131.6C227.037 131.6 226.999 131.607 226.964 131.622C226.929 131.636 226.897 131.658 226.87 131.685C226.739 131.806 214.185 144.496 215.037 169.611C215.038 169.65 215.047 169.688 215.063 169.723C215.079 169.758 215.102 169.79 215.131 169.816C215.16 169.843 215.193 169.863 215.23 169.876C215.266 169.889 215.305 169.895 215.344 169.893Z" fill="white"/>
<path d="M220.888 172.785L217.471 170.815C217.471 170.815 216.886 163.759 220.349 155.191C223.373 147.731 230.832 141.537 234.592 142.838C238.352 144.138 238.256 146.804 236.421 149.601C234.587 152.398 223.443 159.056 220.888 172.785Z" fill="#FFA800"/>
<path d="M219.084 172.04C219.161 172.039 219.234 172.008 219.289 171.953C219.343 171.898 219.375 171.825 219.376 171.748C219.305 156.023 234.067 145.399 234.219 145.293C234.25 145.271 234.277 145.243 234.297 145.211C234.318 145.179 234.332 145.143 234.338 145.105C234.344 145.068 234.342 145.029 234.333 144.992C234.324 144.955 234.307 144.92 234.284 144.89C234.24 144.827 234.172 144.785 234.097 144.772C234.022 144.759 233.944 144.776 233.881 144.819C233.73 144.925 218.726 155.731 218.791 171.748C218.791 171.825 218.822 171.9 218.877 171.954C218.932 172.009 219.006 172.04 219.084 172.04Z" fill="white"/>
<path d="M40.1482 164.883L44.5834 161.889C44.5834 161.889 46.5338 150.297 44.7194 140.071C42.1692 125.727 32.2555 120.96 28.7275 122.472C25.1995 123.984 24.4435 128.253 31.0308 136.437C34.9368 141.251 40.0121 151.527 40.1482 164.883Z" fill="#FFA800"/>
<g opacity="0.15">
<path d="M40.1482 164.883L44.5834 161.889C44.5834 161.889 46.5338 150.297 44.7194 140.071C42.1692 125.727 32.2555 120.96 28.7275 122.472C25.1995 123.984 24.4435 128.253 31.0308 136.437C34.9368 141.251 40.0121 151.527 40.1482 164.883Z" fill="black"/>
</g>
<path d="M41.6703 159.137H41.6249C41.5796 159.135 41.5354 159.122 41.4952 159.101C41.4551 159.08 41.4198 159.051 41.3917 159.015C41.3636 158.979 41.3434 158.938 41.3324 158.894C41.3213 158.85 41.3197 158.804 41.3276 158.759C42.9303 145.257 37.2301 130.601 31.0258 124.77C30.9661 124.709 30.9326 124.628 30.9326 124.543C30.9326 124.458 30.9661 124.376 31.0258 124.316C31.0554 124.286 31.0907 124.262 31.1296 124.245C31.1686 124.229 31.2104 124.221 31.2526 124.221C31.2949 124.221 31.3367 124.229 31.3756 124.245C31.4146 124.262 31.4499 124.286 31.4794 124.316C37.7996 130.253 43.6057 145.151 41.9828 158.85C41.9733 158.927 41.9366 158.999 41.8794 159.051C41.8221 159.104 41.748 159.134 41.6703 159.137Z" fill="white"/>
<path d="M28.5362 172.716C27.8306 173.139 25.7743 171.612 25.2047 171.244C24.2287 170.607 23.4336 169.728 22.8964 168.694C22.2938 167.52 22.0701 166.189 22.2563 164.883C22.3596 164.202 22.5094 163.528 22.7049 162.867C22.8813 162.207 23.0577 161.547 23.2089 160.882C23.4324 160.234 23.5183 159.548 23.4609 158.866C23.2643 157.52 22.0497 156.598 20.9409 155.806C19.7212 154.924 18.4209 153.76 18.4209 152.137C18.4831 150.862 18.9711 149.645 19.8069 148.68C20.5629 147.672 21.4701 146.795 22.1505 145.741C22.6825 145.012 22.9541 144.124 22.9216 143.221C22.834 142.665 22.6352 142.132 22.337 141.654C21.7423 140.606 20.9711 139.638 20.5528 138.524C20.1345 137.41 20.1647 135.979 21.0568 135.147C21.7675 134.467 22.8511 134.356 23.8339 134.401C24.76 134.494 25.6546 134.788 26.4547 135.263C29.0603 136.649 30.5925 139.673 33.3494 140.727C34.4128 141.13 35.572 141.2 36.6758 141.473C37.7795 141.745 38.9186 142.284 39.4478 143.287C40.4911 145.278 38.6716 147.788 39.4175 149.899C40.0828 151.774 41.9375 152.46 42.9859 154.138C43.4113 154.883 43.5879 155.745 43.4899 156.598C43.4307 158.037 43.1079 159.453 42.5373 160.776C41.8811 162.148 41.1405 163.477 40.3197 164.757C40.3197 164.757 28.642 172.65 28.5362 172.716Z" fill="#FFA800"/>
<path d="M35.3503 168.537C35.3079 168.537 35.2661 168.528 35.2272 168.511C35.1883 168.494 35.1532 168.47 35.1237 168.439C35.0942 168.409 35.071 168.373 35.0554 168.334C35.0398 168.294 35.0321 168.252 35.0328 168.21C35.315 155.449 29.0352 141.498 24.5899 137.466C24.5267 137.409 24.4886 137.329 24.4839 137.244C24.4792 137.159 24.5082 137.076 24.5647 137.012C24.5943 136.982 24.6295 136.958 24.6685 136.942C24.7074 136.925 24.7493 136.917 24.7915 136.917C24.8337 136.917 24.8756 136.925 24.9145 136.942C24.9534 136.958 24.9887 136.982 25.0183 137.012C29.5543 141.095 35.9601 155.287 35.6729 168.225C35.6722 168.267 35.6633 168.308 35.6468 168.346C35.6302 168.384 35.6063 168.419 35.5763 168.448C35.5464 168.477 35.511 168.5 35.4722 168.515C35.4334 168.531 35.392 168.538 35.3503 168.537Z" fill="white"/>
<path d="M32.9966 152.988C32.9668 152.996 32.9357 152.996 32.9059 152.988C28.7832 151.799 23.6726 151.678 23.6222 151.673C23.5801 151.672 23.5385 151.663 23.4999 151.646C23.4613 151.63 23.4264 151.605 23.3973 151.575C23.3682 151.544 23.3455 151.508 23.3305 151.469C23.3154 151.429 23.3084 151.387 23.3097 151.345C23.3089 151.303 23.317 151.261 23.3334 151.221C23.3498 151.182 23.3741 151.147 23.4049 151.117C23.4357 151.088 23.4723 151.065 23.5123 151.051C23.5523 151.036 23.5949 151.03 23.6373 151.033C23.6877 151.033 28.8789 151.159 33.0823 152.368C33.1635 152.393 33.2318 152.449 33.2724 152.523C33.313 152.598 33.3225 152.685 33.299 152.767C33.2794 152.831 33.2393 152.888 33.1848 152.928C33.1302 152.968 33.0642 152.989 32.9966 152.988Z" fill="white"/>
<path d="M151.784 156.109L149.874 155.005C149.556 154.798 149.291 154.519 149.101 154.191C148.911 153.863 148.801 153.494 148.78 153.115V73.7248C148.801 73.3466 148.91 72.9785 149.1 72.6502C149.289 72.3219 149.552 72.0426 149.869 71.8348L202.965 41.1816C203.304 41.0102 203.677 40.9209 204.056 40.9209C204.436 40.9209 204.809 41.0102 205.148 41.1816L207.058 42.2853C207.376 42.492 207.641 42.7709 207.831 43.0993C208.021 43.4277 208.131 43.7964 208.151 44.1753V123.565C208.131 123.944 208.021 124.312 207.832 124.64C207.643 124.968 207.38 125.248 207.063 125.455L153.966 156.114C153.628 156.285 153.254 156.375 152.875 156.374C152.495 156.373 152.122 156.282 151.784 156.109Z" fill="#455A64"/>
<path d="M208.151 43.9989C208.076 43.4344 207.617 43.2278 207.068 43.5453L153.966 74.2036C153.645 74.4051 153.38 74.6842 153.195 75.0151L149.098 72.6513C149.281 72.3179 149.546 72.0369 149.869 71.8348L202.965 41.1816C203.303 41.0102 203.677 40.9209 204.056 40.9209C204.435 40.9209 204.809 41.0102 205.148 41.1816L207.058 42.2853C207.353 42.4753 207.603 42.7267 207.792 43.0225C207.981 43.3183 208.103 43.6513 208.151 43.9989Z" fill="#455A64"/>
<path d="M153.781 156.199C153.458 156.33 153.111 156.39 152.763 156.375C152.416 156.361 152.075 156.271 151.765 156.114L149.849 155.005C149.533 154.797 149.269 154.518 149.08 154.19C148.891 153.861 148.782 153.493 148.761 153.115V73.7249C148.774 73.3459 148.883 72.9764 149.078 72.6514L153.176 75.0151C152.977 75.3406 152.865 75.7123 152.853 76.0937V155.484C152.873 156.109 153.266 156.396 153.781 156.199Z" fill="#263238"/>
<path d="M152.873 76.1038V155.484C152.873 156.179 153.377 156.462 153.967 156.114L207.063 125.455C207.38 125.248 207.643 124.968 207.833 124.64C208.022 124.312 208.131 123.944 208.152 123.565V44.1754C208.152 43.4799 207.648 43.1976 207.063 43.5454L153.967 74.2037C153.647 74.4113 153.381 74.6918 153.191 75.0221C153.001 75.3524 152.892 75.7231 152.873 76.1038Z" fill="#37474F"/>
<path d="M140.475 106.343C139.789 105.935 136.609 104.126 136.443 104.03C136.313 103.953 136.203 103.847 136.119 103.722C136.036 103.596 135.982 103.453 135.961 103.303C135.94 103.154 135.953 103.002 135.999 102.858C136.045 102.714 136.122 102.583 136.226 102.473L148.781 89.0059L152.873 91.3545L140.323 104.831C140.225 104.936 140.15 105.061 140.104 105.198C140.057 105.334 140.041 105.479 140.055 105.622C140.07 105.765 140.114 105.904 140.187 106.028C140.259 106.153 140.357 106.26 140.475 106.343Z" fill="#455A64"/>
<path d="M152.873 91.3701L140.323 104.832C140.184 104.981 140.093 105.168 140.062 105.37C140.032 105.571 140.063 105.778 140.152 105.961C140.241 106.144 140.383 106.297 140.561 106.397C140.738 106.498 140.941 106.543 141.145 106.525L152.873 105.558V91.3701Z" fill="#37474F"/>
<path d="M180.513 67.1329C186.702 63.5595 191.716 66.4575 191.716 73.6042C191.716 80.7509 186.702 89.4349 180.513 93.0082C174.323 96.5816 169.309 93.6836 169.309 86.5419C169.309 79.4002 174.323 70.7062 180.513 67.1329Z" fill="#FFA800"/>
<path d="M180.432 72.7567C182.448 71.5975 184.066 72.535 184.066 74.8534C183.997 76.1136 183.632 77.34 183.001 78.4328C182.369 79.5257 181.489 80.4543 180.432 81.1433C178.416 82.3025 176.793 81.3651 176.793 79.0467C176.862 77.786 177.228 76.5594 177.86 75.4665C178.492 74.3736 179.373 73.4452 180.432 72.7567Z" fill="white"/>
<path d="M187.599 85.1155C187.599 81.3103 184.923 79.763 181.627 81.6681L179.565 82.8575C176.269 84.7626 173.593 89.4095 173.593 93.2046V94.2479C174.215 94.4468 174.865 94.5472 175.518 94.5453C177.286 94.4852 179.008 93.964 180.513 93.0333C183.378 91.2685 185.802 88.8723 187.599 86.0277V85.1155Z" fill="white"/>
<path d="M173.416 128.384L187.609 120.189C188.213 119.841 188.702 120.123 188.702 120.819V125.39C188.682 125.769 188.572 126.138 188.382 126.466C188.192 126.795 187.927 127.074 187.609 127.28L173.416 135.475C172.811 135.823 172.322 135.541 172.322 134.845V130.274C172.343 129.895 172.453 129.526 172.643 129.198C172.833 128.87 173.098 128.591 173.416 128.384Z" fill="#FFA800"/>
<path d="M166.466 118.173L194.544 101.954C195.265 101.536 195.854 101.873 195.854 102.71V104.408C195.83 104.863 195.698 105.305 195.47 105.699C195.243 106.093 194.925 106.428 194.544 106.676L166.451 122.895C165.73 123.313 165.146 122.976 165.146 122.139V120.456C165.168 119.998 165.3 119.552 165.53 119.155C165.76 118.758 166.08 118.421 166.466 118.173Z" fill="#FAFAFA"/>
<path d="M169.752 106.434C170.135 106.212 170.433 106.177 170.645 106.333C170.856 106.489 170.962 106.837 170.962 107.371C170.973 107.859 170.864 108.342 170.645 108.778C170.446 109.172 170.136 109.498 169.752 109.715L168.996 110.154V111.781C168.995 111.838 168.981 111.893 168.956 111.943C168.938 111.988 168.907 112.027 168.865 112.054L168.482 112.275C168.469 112.285 168.453 112.291 168.437 112.291C168.421 112.291 168.405 112.285 168.392 112.275C168.364 112.241 168.352 112.198 168.356 112.154V107.442C168.356 107.386 168.368 107.331 168.392 107.281C168.411 107.236 168.442 107.198 168.482 107.17L169.752 106.434ZM168.996 109.241L169.727 108.818C169.904 108.718 170.053 108.576 170.161 108.405C170.275 108.202 170.331 107.972 170.322 107.739C170.322 107.467 170.267 107.311 170.161 107.266C170.086 107.247 170.008 107.247 169.933 107.263C169.858 107.28 169.787 107.313 169.727 107.361L168.996 107.785V109.241Z" fill="#FAFAFA"/>
<path d="M173.074 104.514C173.124 104.484 173.164 104.484 173.189 104.514C173.222 104.559 173.244 104.611 173.255 104.665L174.419 108.606C174.419 108.606 174.419 108.637 174.419 108.652C174.418 108.708 174.405 108.763 174.379 108.813C174.361 108.859 174.329 108.897 174.288 108.924L173.945 109.12C173.885 109.156 173.84 109.161 173.814 109.12C173.79 109.095 173.773 109.064 173.764 109.03L173.557 108.339L172.045 109.206L171.844 110.133C171.829 110.184 171.811 110.233 171.788 110.28C171.763 110.341 171.717 110.391 171.657 110.421L171.315 110.617C171.302 110.628 171.286 110.634 171.269 110.634C171.253 110.634 171.237 110.628 171.224 110.617C171.197 110.585 171.185 110.543 171.189 110.501C171.186 110.483 171.186 110.464 171.189 110.446L172.348 105.164C172.362 105.086 172.384 105.01 172.413 104.937C172.438 104.884 172.478 104.84 172.529 104.811L173.074 104.514ZM173.336 107.568L172.832 105.789L172.328 108.168L173.336 107.568Z" fill="#FAFAFA"/>
<path d="M176.183 102.644C176.352 102.538 176.544 102.474 176.742 102.458C176.883 102.445 177.024 102.477 177.146 102.549C177.256 102.62 177.342 102.724 177.393 102.846C177.448 102.97 177.478 103.103 177.483 103.239C177.487 103.295 177.474 103.351 177.448 103.4C177.43 103.446 177.398 103.485 177.357 103.511L177.025 103.703C176.969 103.733 176.929 103.738 176.904 103.703C176.872 103.682 176.847 103.655 176.828 103.622C176.808 103.577 176.779 103.536 176.742 103.502C176.706 103.468 176.663 103.442 176.616 103.425C176.463 103.404 176.307 103.443 176.183 103.536C176.101 103.589 176.024 103.648 175.951 103.713C175.876 103.782 175.81 103.859 175.755 103.945C175.701 104.027 175.657 104.115 175.624 104.207C175.594 104.294 175.578 104.386 175.578 104.479C175.572 104.564 175.588 104.649 175.624 104.726C175.639 104.753 175.661 104.776 175.687 104.792C175.714 104.809 175.744 104.819 175.775 104.822C175.868 104.838 175.964 104.838 176.057 104.822L176.495 104.726C176.659 104.677 176.829 104.657 176.999 104.665C177.121 104.665 177.239 104.704 177.337 104.776C177.429 104.854 177.496 104.957 177.529 105.074C177.578 105.237 177.6 105.407 177.594 105.578C177.594 105.803 177.562 106.027 177.498 106.243C177.437 106.465 177.347 106.678 177.231 106.878C177.109 107.082 176.964 107.272 176.798 107.442C176.628 107.618 176.435 107.769 176.223 107.891C176.068 107.985 175.897 108.052 175.719 108.087C175.574 108.115 175.424 108.103 175.286 108.052C175.16 107.994 175.056 107.897 174.988 107.775C174.906 107.619 174.861 107.447 174.857 107.271C174.857 107.214 174.869 107.157 174.893 107.105C174.915 107.062 174.948 107.025 174.988 106.999L175.321 106.807C175.372 106.777 175.412 106.767 175.442 106.782C175.472 106.797 175.492 106.822 175.513 106.868C175.533 106.92 175.56 106.969 175.593 107.014C175.625 107.058 175.669 107.091 175.719 107.11C175.786 107.125 175.855 107.125 175.921 107.11C176.028 107.084 176.13 107.042 176.223 106.984C176.321 106.928 176.414 106.864 176.5 106.792C176.67 106.658 176.805 106.485 176.894 106.288C176.934 106.187 176.954 106.079 176.954 105.971C176.959 105.931 176.955 105.891 176.944 105.853C176.933 105.815 176.914 105.779 176.889 105.749C176.861 105.725 176.829 105.707 176.794 105.697C176.76 105.686 176.723 105.683 176.687 105.688C176.573 105.693 176.459 105.712 176.349 105.744C176.218 105.774 176.067 105.809 175.891 105.84C175.756 105.873 175.616 105.884 175.477 105.87C175.368 105.863 175.265 105.818 175.185 105.744C175.098 105.658 175.037 105.55 175.009 105.431C174.968 105.256 174.949 105.077 174.953 104.897C174.953 104.675 174.985 104.454 175.049 104.242C175.109 104.023 175.197 103.813 175.311 103.617C175.42 103.422 175.552 103.241 175.704 103.078C175.842 102.911 176.004 102.765 176.183 102.644Z" fill="#FAFAFA"/>
<path d="M179.495 100.739C179.662 100.629 179.855 100.563 180.054 100.547C180.195 100.535 180.336 100.567 180.457 100.638C180.565 100.712 180.649 100.815 180.699 100.935C180.754 101.06 180.785 101.193 180.79 101.329C180.796 101.385 180.784 101.441 180.755 101.49C180.737 101.535 180.705 101.574 180.664 101.601L180.331 101.792C180.281 101.823 180.241 101.833 180.21 101.792C180.178 101.772 180.154 101.742 180.14 101.707C180.094 101.618 180.017 101.55 179.923 101.515C179.848 101.504 179.771 101.508 179.698 101.527C179.624 101.546 179.555 101.58 179.495 101.626C179.411 101.677 179.331 101.736 179.258 101.802C179.185 101.871 179.12 101.949 179.066 102.034C179.011 102.115 178.967 102.203 178.935 102.296C178.904 102.384 178.887 102.476 178.885 102.568C178.879 102.653 178.895 102.738 178.93 102.815C178.946 102.842 178.968 102.865 178.994 102.882C179.02 102.899 179.05 102.909 179.082 102.911C179.175 102.927 179.27 102.927 179.364 102.911L179.802 102.815C179.966 102.77 180.136 102.749 180.306 102.755C180.428 102.754 180.547 102.793 180.644 102.866C180.736 102.944 180.804 103.048 180.84 103.163C180.885 103.327 180.905 103.497 180.901 103.667C180.901 103.892 180.868 104.116 180.805 104.332C180.744 104.555 180.654 104.768 180.538 104.967C180.417 105.174 180.271 105.365 180.105 105.537C179.934 105.708 179.743 105.858 179.535 105.981C179.38 106.075 179.209 106.141 179.031 106.177C178.888 106.205 178.74 106.192 178.603 106.142C178.474 106.085 178.368 105.988 178.3 105.865C178.217 105.71 178.174 105.536 178.174 105.361C178.168 105.304 178.181 105.248 178.21 105.199C178.227 105.154 178.259 105.115 178.3 105.088L178.633 104.897C178.683 104.867 178.729 104.857 178.754 104.872C178.771 104.88 178.787 104.892 178.799 104.906C178.811 104.921 178.82 104.939 178.824 104.957C178.847 105.008 178.874 105.057 178.905 105.104C178.938 105.148 178.984 105.181 179.036 105.199C179.102 105.215 179.171 105.215 179.238 105.199C179.345 105.174 179.447 105.132 179.54 105.073C179.635 105.016 179.726 104.952 179.812 104.882C179.901 104.813 179.979 104.731 180.044 104.64C180.109 104.553 180.164 104.458 180.205 104.358C180.246 104.257 180.266 104.149 180.266 104.04C180.271 104.001 180.267 103.961 180.256 103.922C180.245 103.884 180.226 103.849 180.2 103.818C180.173 103.794 180.141 103.776 180.106 103.766C180.071 103.756 180.035 103.753 179.999 103.758C179.886 103.765 179.775 103.783 179.666 103.813C179.535 103.844 179.379 103.879 179.208 103.909C179.071 103.943 178.929 103.953 178.789 103.939C178.68 103.934 178.576 103.889 178.497 103.813C178.411 103.727 178.352 103.619 178.326 103.501C178.281 103.328 178.26 103.15 178.265 102.972C178.267 102.748 178.299 102.526 178.361 102.311C178.423 102.093 178.511 101.884 178.623 101.686C178.732 101.49 178.866 101.309 179.021 101.147C179.157 100.987 179.317 100.85 179.495 100.739Z" fill="#FAFAFA"/>
<path d="M183.168 101.369L182.76 103.783C182.748 103.856 182.728 103.927 182.699 103.995C182.68 104.049 182.643 104.095 182.594 104.126L182.211 104.348C182.16 104.378 182.125 104.378 182.1 104.348C182.066 104.306 182.046 104.255 182.044 104.201L181.439 99.9426C181.439 99.9426 181.439 99.9022 181.439 99.8871C181.441 99.8311 181.455 99.776 181.48 99.7258C181.499 99.681 181.53 99.6426 181.57 99.615L181.918 99.4134C181.947 99.4016 181.98 99.4016 182.009 99.4134C182.039 99.4134 182.059 99.4537 182.069 99.5343L182.468 102.402L182.815 100.25C182.824 100.196 182.84 100.144 182.861 100.094C182.881 100.03 182.924 99.9761 182.982 99.9426L183.37 99.7158C183.425 99.6855 183.466 99.6906 183.491 99.7158C183.512 99.7478 183.528 99.7837 183.536 99.8216L183.889 101.57L184.287 98.2441C184.292 98.1786 184.311 98.115 184.342 98.0576C184.366 98.0199 184.397 97.9874 184.433 97.9618L184.781 97.7602C184.794 97.7504 184.81 97.7451 184.826 97.7451C184.843 97.7451 184.859 97.7504 184.872 97.7602C184.886 97.7768 184.897 97.7959 184.904 97.8167C184.911 97.8375 184.914 97.8594 184.912 97.8812C184.914 97.9013 184.914 97.9216 184.912 97.9417L184.307 102.896C184.297 102.968 184.278 103.04 184.252 103.108C184.229 103.161 184.19 103.207 184.141 103.239L183.753 103.46C183.707 103.486 183.672 103.486 183.647 103.46C183.621 103.414 183.601 103.365 183.586 103.314L183.168 101.369Z" fill="#FAFAFA"/>
<path d="M185.528 99.2325C185.539 98.9531 185.573 98.675 185.628 98.401C185.686 98.1331 185.774 97.8727 185.891 97.6248C186.002 97.3837 186.144 97.1584 186.314 96.9545C186.486 96.7522 186.693 96.5816 186.924 96.4505C187.101 96.33 187.309 96.2619 187.523 96.2539C187.684 96.2556 187.837 96.3188 187.952 96.4303C188.074 96.5675 188.162 96.7315 188.209 96.9091C188.274 97.1406 188.31 97.3794 188.315 97.6197C188.315 97.7105 188.315 97.8113 188.315 97.9221C188.315 98.033 188.315 98.1489 188.315 98.2699C188.315 98.3909 188.315 98.5068 188.315 98.6177C188.315 98.7285 188.315 98.8344 188.315 98.9301C188.304 99.208 188.27 99.4844 188.214 99.7567C188.156 100.024 188.07 100.284 187.957 100.533C187.842 100.773 187.698 100.998 187.529 101.203C187.356 101.404 187.152 101.574 186.924 101.707C186.742 101.827 186.531 101.895 186.314 101.904C186.235 101.905 186.157 101.891 186.085 101.862C186.012 101.832 185.946 101.788 185.891 101.732C185.759 101.591 185.668 101.417 185.628 101.228C185.568 100.996 185.535 100.758 185.528 100.518C185.528 100.427 185.528 100.326 185.528 100.215C185.528 100.104 185.528 99.9885 185.528 99.8676C185.528 99.7466 185.528 99.6358 185.528 99.5198C185.528 99.4039 185.523 99.3233 185.528 99.2325ZM187.675 98.028C187.686 97.9047 187.672 97.7804 187.634 97.6626C187.596 97.5448 187.534 97.4359 187.453 97.3425C187.322 97.2266 187.14 97.2317 186.924 97.3425C186.688 97.4808 186.502 97.6886 186.389 97.9373C186.247 98.2311 186.171 98.553 186.168 98.8797C186.168 99.0662 186.168 99.2729 186.168 99.4997C186.168 99.7265 186.168 99.9281 186.168 100.11C186.157 100.233 186.17 100.357 186.208 100.475C186.247 100.593 186.308 100.702 186.389 100.795C186.521 100.906 186.702 100.896 186.924 100.77C187.155 100.631 187.339 100.425 187.453 100.18C187.596 99.8881 187.672 99.5677 187.675 99.2426C187.675 99.0511 187.675 98.8445 187.675 98.6177C187.675 98.3909 187.68 98.2094 187.675 98.028Z" fill="#FAFAFA"/>
<path d="M190.512 94.4396C190.91 94.2128 191.207 94.1775 191.414 94.3439C191.536 94.4788 191.627 94.6391 191.681 94.8134C191.734 94.9877 191.748 95.1716 191.721 95.3519C191.725 95.6942 191.673 96.0348 191.565 96.3599C191.463 96.6626 191.304 96.9431 191.096 97.1864L191.752 98.6127C191.754 98.6362 191.754 98.6598 191.752 98.6833C191.752 98.7287 191.741 98.7736 191.721 98.8143C191.707 98.8509 191.683 98.8825 191.651 98.9051L191.248 99.1369C191.182 99.1722 191.137 99.1772 191.106 99.1369C191.08 99.1105 191.058 99.0798 191.041 99.0462L190.421 97.7005L189.791 98.0634V99.7669C189.791 99.8226 189.779 99.8777 189.756 99.9282C189.735 99.972 189.704 100.01 189.665 100.039L189.282 100.261C189.269 100.271 189.253 100.277 189.237 100.277C189.22 100.277 189.204 100.271 189.191 100.261C189.177 100.245 189.166 100.227 189.159 100.207C189.152 100.187 189.149 100.166 189.151 100.145V95.4325C189.152 95.3764 189.166 95.3214 189.191 95.2712C189.209 95.2256 189.241 95.1868 189.282 95.1603L190.512 94.4396ZM189.801 97.1511L190.512 96.7681C190.685 96.6712 190.834 96.5348 190.945 96.3699C191.062 96.1757 191.118 95.9511 191.106 95.7248C191.106 95.4527 191.051 95.3015 190.945 95.2712C190.792 95.2504 190.636 95.2901 190.512 95.3821L189.826 95.7752L189.801 97.1511Z" fill="#FAFAFA"/>
<path d="M193.889 92.4992C194.072 92.3798 194.281 92.3072 194.499 92.2875C194.656 92.2817 194.81 92.3378 194.927 92.4438C195.061 92.5841 195.153 92.7585 195.194 92.9478C195.262 93.1977 195.299 93.4549 195.305 93.7138C195.305 94.0666 195.305 94.4295 195.305 94.7974C195.295 95.0975 195.258 95.3961 195.194 95.6895C195.137 95.9622 195.049 96.2276 194.932 96.4808C194.82 96.7133 194.677 96.9302 194.509 97.1259C194.34 97.3263 194.139 97.4967 193.914 97.6299L192.72 98.2801C192.707 98.2907 192.691 98.2966 192.674 98.2966C192.658 98.2966 192.642 98.2907 192.629 98.2801C192.614 98.2648 192.603 98.2466 192.596 98.2266C192.589 98.2065 192.587 98.1853 192.589 98.1642V93.4518C192.59 93.3957 192.604 93.3406 192.629 93.2905C192.647 93.2449 192.678 93.2061 192.72 93.1796L193.889 92.4992ZM194.665 94.0666C194.663 93.9302 194.643 93.7946 194.605 93.6634C194.581 93.5642 194.531 93.4735 194.458 93.4014C194.427 93.3697 194.389 93.3449 194.347 93.3284C194.306 93.312 194.261 93.3042 194.217 93.3056C194.09 93.314 193.969 93.3558 193.864 93.4266L193.229 93.7894V97.0755L193.889 96.6975C194.017 96.6231 194.131 96.5277 194.227 96.4153C194.32 96.3047 194.4 96.1828 194.463 96.0524C194.526 95.9135 194.574 95.7682 194.605 95.619C194.64 95.4633 194.66 95.3047 194.665 95.1452C194.68 94.7773 194.68 94.4194 194.665 94.0666Z" fill="#FAFAFA"/>
<path d="M104.092 90.3226H86.1846V46.9382C86.1846 43.1701 87.6815 39.5563 90.3459 36.8918C93.0104 34.2274 96.6242 32.7305 100.392 32.7305H102.045C105.814 32.7305 109.427 34.2274 112.092 36.8918C114.756 39.5563 116.253 43.1701 116.253 46.9382V78.1862C116.247 81.4073 114.962 84.4942 112.682 86.7694C110.402 89.0447 107.313 90.3226 104.092 90.3226Z" fill="#263238"/>
<path d="M84.4406 194.766C84.1238 196.563 83.9553 198.384 83.9366 200.209C83.871 203.515 83.2662 204.689 83.1856 207.401C83.0898 210.501 83.6291 211.66 84.8841 213.404C86.139 215.147 89.4201 216.725 90.8414 213.782C92.2626 210.838 92.056 208.908 91.6074 205.869C91.1488 202.724 91.1034 200.985 90.8212 198.591C90.5894 196.479 90.3172 194.871 90.3172 194.871L84.4406 194.766Z" fill="#263238"/>
<path d="M93.8249 172.807L82.9385 172.61C83.0998 179.878 84.2539 187.947 84.4505 194.786C84.4908 196.072 84.4202 204.761 84.9041 207.386C85.6349 211.358 90.3422 210.819 90.5942 208.445C90.8462 206.071 90.2918 195.925 90.307 194.877C90.2616 190.502 92.323 183.119 93.3864 175.266C93.4318 174.888 93.7745 173.185 93.8249 172.807Z" fill="#FFA8A7"/>
<path d="M107.811 189.111C107.811 189.111 107.383 188.879 107.307 189.338C107.201 189.882 107.04 191.006 106.803 191.903C106.49 193.148 106.228 195.2 106.415 196.218C106.601 197.236 108.97 198.536 110.507 199.01C112.402 199.595 114.13 200.623 115.547 202.009C117.059 203.44 120.35 204.791 122.603 204.776C125.249 204.776 127.094 203.894 127.966 202.477C128.838 201.061 127.17 200.89 124.146 198.949L121.802 197.437C117.009 194.308 115.25 192.634 113.904 189.504L107.811 189.111Z" fill="#263238"/>
<path d="M113.944 187.171C113.864 184.923 115.416 165.816 115.416 165.816L105.079 170.529C107.292 183.744 107.765 186.863 107.801 189.026C107.755 189.207 107.737 189.393 107.745 189.58C107.745 192.145 110.653 193.531 112.911 195.245C114.831 196.749 116.876 198.084 119.025 199.237C120.668 200.058 124.004 200.134 124.418 199.08C121.666 196.979 117.664 193.834 115.477 191.435C114.408 190.306 114.025 189.424 113.944 187.171Z" fill="#FFA8A7"/>
<path d="M87.3985 101.889C83.427 110.603 83.427 117.346 84.0873 128.47C84.6719 138.676 85.6446 147.672 85.6446 147.672C85.4934 149.481 82.9785 153.014 82.6509 161.018C82.3485 168.497 83.1549 178.008 83.1549 178.008C83.1549 178.008 88.8047 181.138 92.9829 177.978C92.9829 177.978 97.0149 158.73 98.1942 149.365C99.2022 141.196 101.017 130.758 101.017 130.758L104.832 149.31C104.008 151.942 103.412 154.64 103.048 157.374C102.513 162.883 105.598 173.699 105.598 173.699C105.598 173.699 111.434 175.437 114.998 172.277C114.998 172.277 116.328 154.693 116.827 148.06C117.492 139.175 116.091 115.124 114.998 102.388L87.3985 101.889Z" fill="#455A64"/>
<path d="M101.027 130.743L102.595 116.762C102.595 116.762 109.621 115.825 112.806 112.831C111.894 114.257 110.68 115.466 109.249 116.37C107.817 117.274 106.205 117.852 104.525 118.063L102.257 131.071L104.833 149.311L101.027 130.743Z" fill="#263238"/>
<path d="M129.478 98.4514C129.768 95.9 129.896 93.3329 129.861 90.7654C129.705 88.5478 129.307 88.1849 126.207 84.2587C122.024 78.9516 118.451 74.1787 114.671 69.4361C111.969 66.0492 109.127 65.5301 106.365 65.6813C104.429 65.7871 108.209 75.096 110.109 80.6047L120.96 92.2874C121.297 92.7485 121.451 93.3174 121.394 93.8851L120.739 103.824L123.99 108.179C123.99 108.179 128.914 103.935 129.478 98.4514Z" fill="#FFA8A7"/>
<path d="M95.9011 65.9835C93.7994 66.1297 89.9791 66.4875 89.9791 66.4875C87.7766 67.7173 87.2172 68.7303 86.8089 71.6535C86.6325 72.9034 87.6506 76.2248 88.5225 80.9473L90.1756 89.7018L89.9942 94.0462C89.1374 96.6973 87.197 99.9884 85.4834 104.842C93.9002 109.539 100.956 109.716 107.357 108.874C112.236 108.244 114.821 107.065 115.683 105.895C115.502 101.102 115.179 98.1387 115.078 93.129C115.043 91.0273 115.169 88.9004 115.255 86.4812C118.526 83.7898 118.566 79.3143 116.767 76.4012C112.619 69.6829 108.582 65.4543 105.911 65.671L95.9011 65.9835Z" fill="#FFA800"/>
<path opacity="0.6" d="M95.9011 65.9835C93.7994 66.1297 89.9791 66.4875 89.9791 66.4875C87.7766 67.7173 87.2172 68.7303 86.8089 71.6535C86.6325 72.9034 87.6506 76.2248 88.5225 80.9473L90.1756 89.7018L89.9942 94.0462C89.1374 96.6973 87.197 99.9884 85.4834 104.842C93.9002 109.539 100.956 109.716 107.357 108.874C112.236 108.244 114.821 107.065 115.683 105.895C115.502 101.102 115.179 98.1387 115.078 93.129C115.043 91.0273 115.169 88.9004 115.255 86.4812C118.526 83.7898 118.566 79.3143 116.767 76.4012C112.619 69.6829 108.582 65.4543 105.911 65.671L95.9011 65.9835Z" fill="white"/>
<path opacity="0.1" d="M108.738 86.5474C108.738 86.5474 104.897 89.5311 100.508 87.9737C99.2749 87.5853 98.1633 86.8853 97.2803 85.9414C96.3974 84.9975 95.773 83.8418 95.4676 82.5859C95.4676 82.5859 95.0039 87.6007 100.533 89.3093C105.89 90.9574 108.738 86.5474 108.738 86.5474Z" fill="black"/>
<path d="M113.95 52.2195C113.783 59.4972 111.43 61.2915 110.24 61.7955C109.051 62.2995 106.773 61.9971 104.555 61.6292V66.024C104.555 66.024 107.116 68.7053 106.924 70.7062C106.733 72.7071 102.892 72.9339 100.029 70.9733C98.4497 69.8883 97.021 68.5986 95.7806 67.1379C95.5424 66.8561 95.412 66.4989 95.4127 66.1299V55.8483C95.4127 55.8483 94.198 57.1335 92.051 55.6618C91.5877 55.3661 91.191 54.9773 90.8862 54.5201C90.5813 54.0628 90.3749 53.5472 90.2801 53.0058C90.1853 52.4645 90.2042 51.9094 90.3355 51.3757C90.4668 50.8421 90.7078 50.3416 91.043 49.9061C91.9804 48.8024 94.3593 48.7268 95.4983 50.4101C96.1435 51.6651 96.2292 52.9301 96.9499 52.4261C98.8651 51.0452 97.8369 47.8901 100.15 46.3781C100.909 45.9819 101.698 45.6449 102.509 45.3701C106.637 43.9438 110.215 42.7443 111.077 39.9219C112.7 40.8492 114.151 43.6364 113.95 52.2195Z" fill="#FFA8A7"/>
<path d="M105.81 58.7209C106.339 58.7209 106.768 58.2921 106.768 57.7633C106.768 57.2344 106.339 56.8057 105.81 56.8057C105.281 56.8057 104.853 57.2344 104.853 57.7633C104.853 58.2921 105.281 58.7209 105.81 58.7209Z" fill="#B16668"/>
<path d="M105.175 51.1157C105.175 51.3129 105.117 51.5056 105.008 51.6701C104.899 51.8346 104.745 51.9636 104.564 52.0412C104.382 52.1187 104.182 52.1414 103.988 52.1065C103.794 52.0715 103.615 51.9804 103.472 51.8444C103.329 51.7084 103.229 51.5335 103.185 51.3414C103.141 51.1493 103.154 50.9484 103.222 50.7636C103.291 50.5788 103.412 50.4181 103.571 50.3015C103.73 50.185 103.92 50.1176 104.117 50.1077C104.253 50.1009 104.39 50.1219 104.518 50.1695C104.646 50.2171 104.763 50.2902 104.862 50.3845C104.961 50.4788 105.04 50.5923 105.094 50.718C105.148 50.8437 105.175 50.979 105.175 51.1157Z" fill="#263238"/>
<path d="M112.811 51.2167C112.821 51.34 112.807 51.4641 112.769 51.5819C112.731 51.6996 112.67 51.8085 112.589 51.9023C112.508 51.9962 112.41 52.073 112.299 52.1283C112.188 52.1837 112.068 52.2164 111.944 52.2247C111.82 52.2362 111.694 52.2211 111.576 52.1803C111.457 52.1396 111.349 52.0741 111.258 51.9883C111.167 51.9025 111.095 51.7983 111.048 51.6827C111 51.567 110.977 51.4425 110.982 51.3175C110.969 51.1933 110.981 51.0677 111.018 50.9485C111.056 50.8293 111.117 50.7189 111.198 50.6242C111.28 50.5294 111.379 50.4523 111.492 50.3976C111.604 50.3428 111.726 50.3115 111.851 50.3057C111.976 50.2998 112.1 50.3195 112.217 50.3636C112.334 50.4076 112.441 50.4751 112.531 50.5618C112.621 50.6485 112.692 50.7526 112.74 50.8678C112.788 50.9831 112.812 51.1069 112.811 51.2318V51.2167Z" fill="#263238"/>
<path d="M103.88 53.7068C103.01 53.7068 102.177 53.3618 101.561 52.7476C100.946 52.1334 100.6 51.3001 100.599 50.4308C100.599 48.2031 102.897 48.2031 103.88 48.2031C104.862 48.2031 107.156 48.2031 107.156 50.4308C107.154 51.2992 106.809 52.1317 106.195 52.7458C105.581 53.3599 104.748 53.7055 103.88 53.7068ZM103.88 48.7172C101.864 48.7172 101.118 49.2212 101.118 50.4308C101.118 51.166 101.41 51.8711 101.93 52.3909C102.449 52.9108 103.155 53.2028 103.89 53.2028C104.625 53.2028 105.33 52.9108 105.85 52.3909C106.37 51.8711 106.662 51.166 106.662 50.4308C106.642 49.196 105.865 48.7172 103.88 48.7172Z" fill="#455A64"/>
<path d="M112.201 53.7068C111.332 53.7068 110.498 53.3618 109.883 52.7476C109.268 52.1334 108.921 51.3001 108.92 50.4308C108.92 48.2031 111.218 48.2031 112.201 48.2031C113.184 48.2031 115.477 48.2031 115.477 50.4308C115.476 51.2992 115.13 52.1317 114.516 52.7458C113.902 53.3599 113.069 53.7055 112.201 53.7068ZM112.201 48.7172C110.215 48.7172 109.439 49.2212 109.439 50.4308C109.439 51.166 109.731 51.8711 110.251 52.3909C110.771 52.9108 111.476 53.2028 112.211 53.2028C112.946 53.2028 113.651 52.9108 114.171 52.3909C114.691 51.8711 114.983 51.166 114.983 50.4308C114.963 49.196 114.187 48.7172 112.201 48.7172Z" fill="#455A64"/>
<path d="M107.665 49.3721L107.826 55.4957L111.047 54.4977L107.665 49.3721Z" fill="#F28F8F"/>
<path d="M104.55 61.6443C102.212 61.3369 97.3984 59.9559 96.6475 58.0508C96.9497 59.0136 97.5388 59.8612 98.3359 60.4801C99.7723 61.7149 104.55 63.1009 104.55 63.1009V61.6443Z" fill="#F28F8F"/>
<path d="M104.666 46.3983L102.529 47.7037C102.361 47.4103 102.312 47.0634 102.392 46.7349C102.473 46.4064 102.677 46.1216 102.963 45.9397C103.104 45.8541 103.26 45.7981 103.424 45.7748C103.587 45.7516 103.753 45.7618 103.912 45.8046C104.072 45.8475 104.221 45.9222 104.35 46.0243C104.48 46.1263 104.587 46.2536 104.666 46.3983Z" fill="#263238"/>
<path d="M113.36 47.8498L110.981 47.0182C111.027 46.8606 111.105 46.714 111.21 46.5875C111.315 46.461 111.444 46.3573 111.591 46.2827C111.737 46.2081 111.897 46.1643 112.061 46.1538C112.225 46.1434 112.389 46.1665 112.544 46.2219C112.863 46.3366 113.126 46.5695 113.278 46.8726C113.43 47.1756 113.459 47.5255 113.36 47.8498Z" fill="#263238"/>
<path d="M106.899 50.6928C106.865 50.6928 106.831 50.686 106.799 50.6728C106.768 50.6595 106.739 50.6401 106.715 50.6157C106.691 50.5913 106.672 50.5624 106.66 50.5306C106.647 50.4989 106.641 50.4649 106.642 50.4307C106.642 50.0124 107.468 49.7402 108.214 49.7402C108.96 49.7402 109.439 50.0124 109.439 50.4307C109.423 50.4855 109.39 50.5337 109.345 50.568C109.299 50.6023 109.244 50.6208 109.187 50.6208C109.13 50.6208 109.074 50.6023 109.029 50.568C108.984 50.5337 108.95 50.4855 108.935 50.4307C108.935 50.3803 108.678 50.2543 108.229 50.2543C107.868 50.2466 107.509 50.3082 107.171 50.4358C107.171 50.4708 107.164 50.5055 107.15 50.5377C107.136 50.57 107.116 50.599 107.09 50.6231C107.065 50.6471 107.035 50.6658 107.002 50.6777C106.969 50.6897 106.934 50.6949 106.899 50.6928Z" fill="#455A64"/>
<path d="M100.866 50.4704H100.836L95.0753 49.9664C94.8061 49.6996 94.4854 49.4904 94.1328 49.3516L100.896 49.9765C100.964 49.9854 101.026 50.0203 101.068 50.074C101.111 50.1277 101.13 50.1958 101.123 50.2638C101.111 50.3229 101.079 50.376 101.032 50.4138C100.985 50.4516 100.927 50.4716 100.866 50.4704Z" fill="#455A64"/>
<path d="M77.2131 56.4785C79.098 53.9585 80.3832 52.0584 82.1019 49.9265C83.0796 48.7017 83.7046 47.8248 84.6219 46.5698C85.267 45.7029 85.6299 44.9721 86.3657 44.705C87.1607 44.3793 87.8772 43.8879 88.4674 43.2636C88.8302 42.8622 89.1669 42.438 89.4754 41.9935C90.5556 40.5395 91.8388 39.2479 93.2856 38.1581C94.7976 37.019 96.486 36.1421 98.0434 35.0585C98.9708 34.4083 99.9636 33.3297 98.8347 32.3217C98.4884 32.0301 98.0741 31.8308 97.6301 31.7421C94.8833 31.1474 92.4944 32.0899 89.808 32.7753C88.6412 33.0666 87.5 33.4526 86.396 33.9295C85.8529 34.1443 85.3437 34.4362 84.884 34.7964C84.2412 35.4444 83.7145 36.1979 83.3266 37.0241C82.1523 39.1207 79.6323 40.9956 77.8683 42.6537C75.8069 44.5941 73.9623 46.3733 71.6086 48.5102C69.4918 50.4405 67.4204 52.2146 65.48 54.3213C63.8722 56.0601 64.472 57.4209 64.6836 57.8947C65.994 60.5861 67.4607 61.5537 69.2196 63.222C72.2436 66.1099 82.7016 74.4209 86.1641 77.1677C86.9081 77.752 87.4923 78.5148 87.8626 79.3853L88.5279 80.9225C92.4792 81.6482 95.1152 75.7161 91.8442 68.5745C91.3025 67.4196 90.475 66.4221 89.4401 65.6765C85.3073 62.6676 77.2131 56.4785 77.2131 56.4785Z" fill="#FFA8A7"/>
<path d="M77.2131 56.4785C75.9554 58.0257 74.2794 59.1786 72.3848 59.7999C72.3848 59.7999 74.9048 60.445 78.3572 57.3454L77.2131 56.4785Z" fill="#F28F8F"/>
<path d="M128.45 93.1953L127.805 92.6409C127.708 92.5774 127.598 92.5374 127.483 92.5243C127.369 92.5112 127.253 92.5252 127.144 92.5653L120.144 94.4704C119.791 94.588 119.468 94.7804 119.197 95.0344C118.925 95.2884 118.712 95.598 118.571 95.9421L113.531 110.472C113.471 110.591 113.447 110.725 113.463 110.857C113.479 110.989 113.535 111.113 113.622 111.213L114.287 111.788C114.384 111.855 114.496 111.897 114.612 111.911C114.729 111.925 114.848 111.91 114.958 111.868L121.968 109.963C122.321 109.846 122.644 109.653 122.915 109.399C123.187 109.145 123.4 108.836 123.541 108.492C124.549 105.634 127.573 96.819 128.581 93.9614C128.702 93.6035 128.641 93.3314 128.45 93.1953Z" fill="#455A64"/>
<path d="M114.191 111.032L119.231 96.5015C119.371 96.1576 119.585 95.8483 119.856 95.595C120.128 95.3418 120.451 95.1506 120.804 95.0348L127.799 93.1297C128.45 92.9533 128.807 93.3262 128.576 93.9613C127.568 96.819 124.544 105.634 123.536 108.492C123.395 108.836 123.182 109.145 122.91 109.399C122.639 109.653 122.316 109.846 121.963 109.963L114.968 111.889C114.322 112.04 113.975 111.667 114.191 111.032Z" fill="#FFA800"/>
<path d="M120.043 95.4373C119.679 95.7129 119.397 96.0822 119.227 96.5058L114.187 111.031C114.129 111.146 114.105 111.276 114.117 111.404C114.13 111.532 114.178 111.655 114.257 111.757L113.632 111.223C113.543 111.124 113.485 111 113.468 110.867C113.451 110.735 113.475 110.6 113.536 110.482L118.576 95.9514C118.736 95.5563 118.994 95.2091 119.327 94.9434L120.043 95.4373Z" fill="#37474F"/>
<path d="M126.529 99.8172C126.025 101.294 124.276 102.282 121.383 102.967C118.49 103.653 116.893 106.722 117.351 107.654C117.81 108.587 122.487 109.459 124.357 109.192C126.227 108.924 128.102 106.223 128.671 105.386C129.241 104.55 129.896 98.7134 129.296 97.9121C128.696 97.1107 127.431 97.2367 127.431 97.2367L126.529 99.8172Z" fill="#F28F8F"/>
</svg>
