<svg width="12" height="8" viewBox="0 0 12 8" fill="none" xmlns="http://www.w3.org/2000/svg">
<mask id="mask0_6380_78059" style="mask-type:alpha" maskUnits="userSpaceOnUse" x="0" y="0" width="12" height="8">
<path d="M10.1333 0H1.06667C0.477563 0 0 0.477563 0 1.06667V6.93333C0 7.52244 0.477563 8 1.06667 8H10.1333C10.7224 8 11.2 7.52244 11.2 6.93333V1.06667C11.2 0.477563 10.7224 0 10.1333 0Z" fill="white"/>
</mask>
<g mask="url(#mask0_6380_78059)">
<path d="M10.1333 0H1.06667C0.477563 0 0 0.477563 0 1.06667V6.93333C0 7.52244 0.477563 8 1.06667 8H10.1333C10.7224 8 11.2 7.52244 11.2 6.93333V1.06667C11.2 0.477563 10.7224 0 10.1333 0Z" fill="white"/>
<path fill-rule="evenodd" clip-rule="evenodd" d="M6.93327 3.99996C6.93327 3.26396 6.33593 2.66663 5.59993 2.66663C4.86393 2.66663 4.2666 3.26396 4.2666 3.99996C4.2666 4.73596 4.86393 5.33329 5.59993 5.33329C6.33593 5.33329 6.93327 4.73596 6.93327 3.99996ZM5.59993 4.79996C6.04153 4.79996 6.39993 4.32263 6.39993 3.73329C6.39993 3.14396 6.04153 2.66663 5.59993 2.66663C5.15833 2.66663 4.79993 3.14396 4.79993 3.73329C4.79993 4.32263 5.15833 4.79996 5.59993 4.79996Z" fill="#406421"/>
<path d="M5.59967 4.26662C5.74695 4.26662 5.86634 4.02784 5.86634 3.73328C5.86634 3.43873 5.74695 3.19995 5.59967 3.19995C5.4524 3.19995 5.33301 3.43873 5.33301 3.73328C5.33301 4.02784 5.4524 4.26662 5.59967 4.26662Z" fill="#D5B852"/>
<path fill-rule="evenodd" clip-rule="evenodd" d="M0 0H3.73333V8H0V0Z" fill="#006946"/>
<path fill-rule="evenodd" clip-rule="evenodd" d="M7.4668 0H11.2001V8H7.4668V0Z" fill="#D0091E"/>
<path d="M10.1333 0.266724H1.0666C0.624774 0.266724 0.266602 0.624896 0.266602 1.06672V6.93339C0.266602 7.37522 0.624774 7.73339 1.0666 7.73339H10.1333C10.5751 7.73339 10.9333 7.37522 10.9333 6.93339V1.06672C10.9333 0.624896 10.5751 0.266724 10.1333 0.266724Z" stroke="black" stroke-opacity="0.1"/>
</g>
</svg>
