<svg width="253" height="252" viewBox="0 0 253 252" fill="none" xmlns="http://www.w3.org/2000/svg">
<g id="Press play-amico 1">
<g id="freepik--Floor--inject-22">
<path id="freepik--floor--inject-22" d="M126.49 240.625C190.625 240.625 242.617 210.613 242.617 173.593C242.617 136.572 190.625 106.561 126.49 106.561C62.3549 106.561 10.3633 136.572 10.3633 173.593C10.3633 210.613 62.3549 240.625 126.49 240.625Z" fill="#F5F5F5"/>
</g>
<g id="freepik--Shadow--inject-22">
<path id="freepik--shadow--inject-22" d="M38.9804 163.15L153.388 229.214C154.078 229.562 154.839 229.743 155.611 229.743C156.383 229.743 157.144 229.562 157.834 229.214L220.118 193.248C221.348 192.543 221.348 191.394 220.118 190.683L105.71 124.619C105.021 124.271 104.259 124.09 103.487 124.09C102.715 124.09 101.954 124.271 101.265 124.619L38.9804 160.584C37.7507 161.28 37.7507 162.439 38.9804 163.15Z" fill="#E0E0E0"/>
</g>
<g id="freepik--Clouds--inject-22">
<g id="freepik--clouds--inject-22">
<path id="Vector" d="M209.413 82.7868L205.628 80.6095C205.646 80.4556 205.656 80.3008 205.658 80.1458V79.0522C205.601 77.9929 205.294 76.9621 204.763 76.0435C204.233 75.1249 203.493 74.3444 202.604 73.7652C202.34 73.588 202.042 73.4658 201.73 73.4061C201.417 73.3463 201.096 73.3502 200.785 73.4174C200.507 70.6505 198.587 67.5206 196.249 66.175C193.729 64.7184 191.687 65.8978 191.687 68.8109V70.4489C191.697 71.2432 191.826 72.0315 192.071 72.7874L188.936 70.9781C188.003 70.4388 187.242 70.8773 187.242 71.9558C187.275 72.5433 187.445 73.115 187.739 73.6246C188.033 74.1341 188.443 74.5673 188.936 74.8891L209.413 86.6878C210.346 87.227 211.102 86.7886 211.102 85.71C211.069 85.1246 210.899 84.5551 210.605 84.0473C210.312 83.5396 209.904 83.1078 209.413 82.7868Z" fill="#F0F0F0"/>
<path id="Vector_2" d="M159.336 37.2105L161.417 38.0118V33.4254C161.417 29.7865 164.32 28.9146 167.465 30.7341C170.615 32.5535 173.171 36.9736 173.171 40.6074V41.2777C173.886 40.9905 174.809 41.1013 175.817 41.686C178.079 42.9913 179.919 46.1716 179.919 48.7924V49.0948L182.822 50.7681C183.609 51.2814 184.263 51.9728 184.732 52.7863C185.202 53.5998 185.473 54.5124 185.524 55.4502C185.524 57.1739 184.314 57.8694 182.822 57.0076L159.336 43.45C158.549 42.9366 157.895 42.2452 157.425 41.4317C156.956 40.6182 156.685 39.7056 156.634 38.7678C156.634 37.0492 157.844 36.3486 159.336 37.2105Z" fill="#F0F0F0"/>
</g>
</g>
<g id="freepik--Plants--inject-22">
<g id="freepik--plants--inject-22">
<path id="Vector_3" d="M205.124 181.112L201.158 178.416C201.158 178.416 199.404 167.988 201.032 158.831C203.32 145.958 212.2 141.694 215.37 143.02C218.541 144.346 219.216 148.201 213.304 155.555C209.816 159.899 205.26 169.122 205.124 181.112Z" fill="#FFA800"/>
<g id="Group" opacity="0.15">
<path id="Vector_4" d="M205.124 181.112L201.158 178.416C201.158 178.416 199.404 167.988 201.032 158.831C203.32 145.958 212.2 141.694 215.37 143.02C218.541 144.346 219.216 148.201 213.304 155.555C209.816 159.899 205.26 169.122 205.124 181.112Z" fill="black"/>
</g>
<path id="Vector_5" d="M203.768 175.952H203.809C203.847 175.947 203.883 175.935 203.916 175.917C203.95 175.898 203.979 175.873 204.002 175.843C204.026 175.813 204.043 175.779 204.053 175.742C204.063 175.705 204.066 175.667 204.061 175.629C202.624 163.508 207.745 150.359 213.309 145.122C213.361 145.069 213.39 144.998 213.391 144.924C213.392 144.85 213.364 144.778 213.313 144.724C213.262 144.67 213.193 144.638 213.119 144.634C213.045 144.63 212.972 144.655 212.916 144.704C207.246 150.031 202.03 163.397 203.491 175.7C203.498 175.769 203.529 175.833 203.581 175.88C203.632 175.926 203.699 175.952 203.768 175.952Z" fill="white"/>
<path id="Vector_6" d="M215.557 188.143C216.192 188.521 218.037 187.135 218.546 186.823C219.422 186.25 220.137 185.462 220.622 184.534C221.163 183.481 221.363 182.285 221.197 181.112C221.102 180.493 220.968 179.88 220.793 179.278C220.637 178.688 220.481 178.093 220.32 177.499C220.124 176.924 220.049 176.315 220.098 175.709C220.274 174.5 221.363 173.693 222.356 172.958C223.455 172.171 224.599 171.123 224.619 169.666C224.563 168.533 224.132 167.449 223.394 166.587C222.31 165.161 221.207 164.037 221.514 162.091C221.783 160.919 222.183 159.781 222.709 158.699C222.92 158.231 223.064 157.736 223.137 157.228C223.183 156.772 223.13 156.311 222.98 155.877C222.83 155.444 222.588 155.048 222.27 154.718C221.952 154.388 221.566 154.13 221.139 153.964C220.712 153.798 220.253 153.727 219.796 153.755C218.966 153.841 218.165 154.106 217.447 154.531C215.189 155.731 213.818 158.856 211.197 159.183C210.346 159.289 209.479 159.249 208.627 159.36C207.765 159.421 206.95 159.777 206.319 160.368C204.328 162.505 206.641 165.302 205.815 167.656C205.22 169.334 203.562 169.949 202.609 171.456C202.222 172.123 202.056 172.896 202.135 173.663C202.192 174.958 202.484 176.232 202.997 177.423C203.583 178.65 204.243 179.84 204.973 180.986L215.557 188.143Z" fill="#FFA800"/>
<path id="Vector_7" opacity="0.2" d="M215.557 188.143C216.192 188.521 218.037 187.135 218.546 186.823C219.422 186.25 220.137 185.462 220.622 184.534C221.163 183.481 221.363 182.285 221.197 181.112C221.102 180.493 220.968 179.88 220.793 179.278C220.637 178.688 220.481 178.093 220.32 177.499C220.124 176.924 220.049 176.315 220.098 175.709C220.274 174.5 221.363 173.693 222.356 172.958C223.455 172.171 224.599 171.123 224.619 169.666C224.563 168.533 224.132 167.449 223.394 166.587C222.31 165.161 221.207 164.037 221.514 162.091C221.783 160.919 222.183 159.781 222.709 158.699C222.92 158.231 223.064 157.736 223.137 157.228C223.183 156.772 223.13 156.311 222.98 155.877C222.83 155.444 222.588 155.048 222.27 154.718C221.952 154.388 221.566 154.13 221.139 153.964C220.712 153.798 220.253 153.727 219.796 153.755C218.966 153.841 218.165 154.106 217.447 154.531C215.189 155.731 213.818 158.856 211.197 159.183C210.346 159.289 209.479 159.249 208.627 159.36C207.765 159.421 206.95 159.777 206.319 160.368C204.328 162.505 206.641 165.302 205.815 167.656C205.22 169.334 203.562 169.949 202.609 171.456C202.222 172.123 202.056 172.896 202.135 173.663C202.192 174.958 202.484 176.232 202.997 177.423C203.583 178.65 204.243 179.84 204.973 180.986L215.557 188.143Z" fill="white"/>
<path id="Vector_8" d="M209.443 184.388C209.481 184.388 209.519 184.381 209.554 184.366C209.589 184.351 209.62 184.329 209.647 184.302C209.673 184.275 209.694 184.243 209.707 184.207C209.721 184.172 209.727 184.134 209.726 184.096C209.474 172.645 215.108 160.116 219.1 156.517C219.157 156.466 219.191 156.395 219.195 156.319C219.2 156.243 219.174 156.168 219.123 156.111C219.072 156.055 219.001 156.02 218.925 156.016C218.848 156.012 218.774 156.038 218.717 156.089C214.645 159.758 208.894 172.494 209.141 184.106C209.142 184.145 209.15 184.183 209.166 184.218C209.181 184.253 209.204 184.285 209.232 184.312C209.26 184.338 209.294 184.358 209.33 184.371C209.366 184.385 209.405 184.39 209.443 184.388Z" fill="white"/>
<path id="Vector_9" d="M211.555 170.438H211.641C214.366 169.742 217.16 169.346 219.972 169.259C220.048 169.256 220.119 169.224 220.172 169.169C220.225 169.115 220.254 169.042 220.254 168.966C220.254 168.928 220.246 168.89 220.231 168.855C220.216 168.819 220.194 168.788 220.166 168.761C220.138 168.735 220.105 168.714 220.069 168.701C220.033 168.688 219.995 168.682 219.957 168.684C217.096 168.772 214.253 169.175 211.479 169.884C211.412 169.902 211.354 169.944 211.316 170.002C211.277 170.06 211.261 170.13 211.27 170.199C211.279 170.268 211.313 170.331 211.366 170.377C211.418 170.423 211.485 170.448 211.555 170.448V170.438Z" fill="white"/>
</g>
<g id="freepik--plants--inject-22_2">
<path id="Vector_10" d="M47.5737 156.008L52.1802 153.932C52.1802 153.932 54.1962 144.718 54.1962 137.431C54.2265 127.184 48.9042 114.317 40.7999 116.394C32.6956 118.47 43.0528 129.951 44.716 138.812C46.3792 147.672 47.5737 156.008 47.5737 156.008Z" fill="#FFA800"/>
<path id="Vector_11" opacity="0.15" d="M47.5737 156.008L52.1802 153.932C52.1802 153.932 54.1962 144.718 54.1962 137.431C54.2265 127.184 48.9042 114.317 40.7999 116.394C32.6956 118.47 43.0528 129.951 44.716 138.812C46.3792 147.672 47.5737 156.008 47.5737 156.008Z" fill="black"/>
<path id="Vector_12" d="M49.9728 155.181C49.938 155.177 49.9046 155.165 49.8743 155.147C49.8441 155.129 49.8177 155.105 49.7967 155.077C49.7756 155.049 49.7603 155.017 49.7516 154.983C49.7429 154.949 49.741 154.914 49.746 154.879C52.77 132.416 42.69 119.947 42.6093 119.821C42.5815 119.795 42.5596 119.763 42.545 119.728C42.5304 119.693 42.5234 119.656 42.5245 119.618C42.5257 119.58 42.5349 119.542 42.5516 119.508C42.5682 119.474 42.592 119.444 42.6213 119.42C42.6505 119.395 42.6846 119.378 42.7213 119.368C42.7579 119.358 42.7963 119.356 42.8338 119.362C42.8713 119.368 42.9071 119.382 42.9388 119.403C42.9705 119.424 42.9973 119.451 43.0176 119.483C43.1234 119.609 53.3445 132.26 50.2701 154.955C50.2658 154.989 50.2546 155.023 50.2373 155.053C50.2199 155.083 50.1967 155.109 50.169 155.13C50.1413 155.152 50.1097 155.167 50.076 155.176C50.0423 155.184 50.0072 155.186 49.9728 155.181Z" fill="white"/>
<path id="Vector_13" d="M44.6807 157.298L47.9567 155.821C47.9567 155.821 49.1311 149.481 46.7824 141.392C44.7362 134.336 38.5269 128.051 34.9989 128.888C31.4709 129.724 31.3147 132.148 32.7208 134.85C34.127 137.551 43.6223 144.612 44.6807 157.298Z" fill="#FFA800"/>
<path id="Vector_14" opacity="0.2" d="M44.6807 157.298L47.9567 155.821C47.9567 155.821 49.1311 149.481 46.7824 141.392C44.7362 134.336 38.5269 128.051 34.9989 128.888C31.4709 129.724 31.3147 132.148 32.7208 134.85C34.127 137.551 43.6223 144.612 44.6807 157.298Z" fill="white"/>
<path id="Vector_15" d="M46.364 156.784C46.294 156.777 46.2298 156.742 46.1854 156.687C46.141 156.632 46.1201 156.562 46.1272 156.492C47.6392 142.244 35.2206 131.262 35.0946 131.151C35.0418 131.105 35.0095 131.04 35.0048 130.97C35 130.9 35.0233 130.831 35.0694 130.778C35.1155 130.725 35.1807 130.693 35.2507 130.688C35.3206 130.683 35.3896 130.707 35.4424 130.753C35.5684 130.864 48.1835 142.032 46.6513 156.547C46.6482 156.582 46.6382 156.615 46.622 156.646C46.6059 156.677 46.5838 156.704 46.5571 156.726C46.5303 156.748 46.4995 156.764 46.4664 156.774C46.4333 156.784 46.3985 156.788 46.364 156.784Z" fill="white"/>
</g>
</g>
<g id="freepik--Device--inject-22">
<g id="freepik--Mobile--inject-22">
<g id="freepik--mobile--inject-22">
<path id="Vector_16" d="M213.294 192.639L160.102 223.348C159.261 223.831 158.312 224.094 157.343 224.112C156.373 224.129 155.415 223.901 154.558 223.448L47.4527 161.613C45.7693 160.64 44.3984 158.463 44.3984 156.749C44.3984 155.035 45.7643 152.858 47.4527 151.88L100.453 121.282C101.401 120.805 102.447 120.557 103.508 120.557C104.568 120.557 105.614 120.805 106.562 121.282L213.294 182.907C214.982 183.879 216.348 186.062 216.348 187.775C216.348 189.489 214.982 191.666 213.294 192.639Z" fill="#FFA800"/>
<path id="Vector_17" opacity="0.5" d="M100.453 121.282L47.4527 151.88C45.7643 152.858 44.3984 155.035 44.3984 156.749C44.3984 158.462 45.7693 160.64 47.4527 161.612L154.548 223.448C155.37 223.87 156.279 224.096 157.204 224.108V150.524L106.562 121.292C105.615 120.814 104.57 120.563 103.509 120.562C102.448 120.56 101.402 120.807 100.453 121.282Z" fill="black"/>
<path id="Vector_18" opacity="0.4" d="M160.102 223.347L213.294 192.639C214.982 191.666 216.348 189.489 216.348 187.775C216.348 186.061 214.982 183.879 213.294 182.906L157.204 150.524V224.108C158.221 224.12 159.222 223.857 160.102 223.347Z" fill="black"/>
<path id="Vector_19" d="M158.837 217.874C158.002 218.297 157.079 218.517 156.143 218.517C155.207 218.517 154.284 218.297 153.449 217.874L47.4426 156.673C45.1594 155.358 45.1594 153.201 47.4426 151.885L100.448 121.282C101.396 120.805 102.442 120.557 103.502 120.557C104.563 120.557 105.609 120.805 106.557 121.282L213.289 182.907C214.972 183.879 214.972 185.462 213.289 186.435L158.837 217.874Z" fill="#FFA800"/>
<path id="Vector_20" opacity="0.3" d="M158.837 217.874C158.002 218.297 157.079 218.517 156.143 218.517C155.207 218.517 154.284 218.297 153.449 217.874L47.4426 156.673C45.1594 155.358 45.1594 153.201 47.4426 151.885L100.448 121.282C101.396 120.805 102.442 120.557 103.502 120.557C104.563 120.557 105.609 120.805 106.557 121.282L213.289 182.907C214.972 183.879 214.972 185.462 213.289 186.435L158.837 217.874Z" fill="black"/>
<path id="Vector_21" d="M153.686 211.711C152.786 212.168 151.792 212.406 150.783 212.406C149.774 212.406 148.779 212.168 147.88 211.711L56.6557 159.048C55.0529 158.12 55.0529 156.623 56.6557 155.696L106.521 126.913C107.422 126.458 108.416 126.221 109.424 126.221C110.433 126.221 111.427 126.458 112.327 126.913L203.551 179.576C205.149 180.498 205.149 182.005 203.551 182.927L153.686 211.711Z" fill="#37474F"/>
<path id="Vector_22" d="M109.253 126.227C108.304 126.229 107.369 126.464 106.532 126.912L56.6659 155.695C55.0632 156.623 55.0632 158.12 56.6659 159.047L66.5493 164.752L109.253 137.481V126.227Z" fill="#263238"/>
<path id="Vector_23" d="M112.388 129.089C111.488 128.634 110.494 128.397 109.485 128.397C108.476 128.397 107.482 128.634 106.582 129.089L56.7212 157.873C56.437 158.035 56.1802 158.241 55.9602 158.483C56.1725 158.706 56.4171 158.896 56.686 159.047L147.91 211.71C148.809 212.167 149.804 212.406 150.813 212.406C151.822 212.406 152.817 212.167 153.716 211.71L203.552 182.952C203.833 182.795 204.087 182.592 204.303 182.352C204.096 182.124 203.854 181.93 203.587 181.778L112.388 129.089Z" fill="#455A64"/>
<path id="Vector_24" d="M74.8906 142.233L83.7307 137.128C84.2347 136.825 84.2851 136.347 83.7862 136.059C83.4964 135.921 83.1783 135.852 82.8571 135.858C82.536 135.864 82.2207 135.945 81.9365 136.095L73.1014 141.195C72.5722 141.503 72.5469 141.981 73.0409 142.264C73.3299 142.404 73.648 142.475 73.9693 142.469C74.2907 142.464 74.6063 142.383 74.8906 142.233Z" fill="#37474F"/>
<path id="Vector_25" d="M90.0658 133.484C90.1744 133.448 90.2688 133.379 90.3357 133.286C90.4027 133.193 90.4387 133.082 90.4387 132.967C90.4387 132.853 90.4027 132.742 90.3357 132.649C90.2688 132.556 90.1744 132.487 90.0658 132.451C89.7889 132.309 89.4823 132.235 89.1712 132.235C88.8602 132.235 88.5536 132.309 88.2766 132.451C88.1681 132.487 88.0737 132.556 88.0068 132.649C87.9398 132.742 87.9038 132.853 87.9038 132.967C87.9038 133.082 87.9398 133.193 88.0068 133.286C88.0737 133.379 88.1681 133.448 88.2766 133.484C88.5548 133.622 88.8609 133.693 89.1712 133.693C89.4816 133.693 89.7877 133.622 90.0658 133.484Z" fill="#37474F"/>
<path id="Vector_26" d="M93.6494 131.413C93.7579 131.377 93.8523 131.307 93.9193 131.215C93.9862 131.122 94.0222 131.01 94.0222 130.896C94.0222 130.782 93.9862 130.67 93.9193 130.578C93.8523 130.485 93.7579 130.415 93.6494 130.379C93.3724 130.238 93.0658 130.164 92.7548 130.164C92.4437 130.164 92.1371 130.238 91.8602 130.379C91.3562 130.662 91.3562 131.125 91.8602 131.413C92.1371 131.554 92.4437 131.628 92.7548 131.628C93.0658 131.628 93.3724 131.554 93.6494 131.413Z" fill="#37474F"/>
<path id="Vector_27" d="M65.012 147.96C65.1206 147.924 65.215 147.854 65.2819 147.762C65.3489 147.669 65.3849 147.557 65.3849 147.443C65.3849 147.329 65.3489 147.217 65.2819 147.124C65.215 147.032 65.1206 146.962 65.012 146.926C64.7342 146.785 64.4268 146.711 64.1149 146.711C63.8031 146.711 63.4956 146.785 63.2178 146.926C63.1093 146.962 63.0148 147.032 62.9479 147.124C62.881 147.217 62.845 147.329 62.845 147.443C62.845 147.557 62.881 147.669 62.9479 147.762C63.0148 147.854 63.1093 147.924 63.2178 147.96C63.4956 148.101 63.8031 148.175 64.1149 148.175C64.4268 148.175 64.7342 148.101 65.012 147.96Z" fill="#37474F"/>
<path id="Vector_28" d="M68.5703 145.887C68.6705 145.847 68.7562 145.777 68.8165 145.687C68.8768 145.597 68.909 145.492 68.909 145.383C68.909 145.275 68.8768 145.17 68.8165 145.08C68.7562 144.99 68.6705 144.92 68.5703 144.879C68.2934 144.738 67.9868 144.664 67.6757 144.664C67.3647 144.664 67.0581 144.738 66.7811 144.879C66.681 144.92 66.5953 144.99 66.5349 145.08C66.4746 145.17 66.4424 145.275 66.4424 145.383C66.4424 145.492 66.4746 145.597 66.5349 145.687C66.5953 145.777 66.681 145.847 66.7811 145.887C67.0581 146.029 67.3647 146.103 67.6757 146.103C67.9868 146.103 68.2934 146.029 68.5703 145.887Z" fill="#37474F"/>
<path id="Vector_29" d="M81.0494 177.503C81.3207 177.676 81.5481 177.909 81.7134 178.185C81.8788 178.46 81.9776 178.77 82.002 179.091C82.0139 179.199 81.9957 179.307 81.9494 179.405C81.9032 179.503 81.8306 179.586 81.7399 179.645C81.6239 179.711 81.1905 179.973 81.0695 180.038C80.9581 180.085 80.8363 180.103 80.7162 180.088C80.5961 180.074 80.4817 180.029 80.3841 179.958L67.9655 172.786C67.6912 172.618 67.4611 172.386 67.2945 172.111C67.1279 171.836 67.0297 171.524 67.008 171.203C66.9979 171.099 67.0149 170.995 67.0573 170.899C67.0996 170.804 67.166 170.721 67.2499 170.659C67.3658 170.583 67.8194 170.321 67.9403 170.256C68.0527 170.209 68.1752 170.192 68.2961 170.206C68.417 170.22 68.5323 170.265 68.6308 170.336L81.0494 177.503Z" fill="#FFA800"/>
<path id="Vector_30" opacity="0.4" d="M81.0494 177.503C81.3207 177.676 81.5481 177.909 81.7134 178.185C81.8788 178.46 81.9776 178.77 82.002 179.091C82.0139 179.199 81.9957 179.307 81.9494 179.405C81.9032 179.503 81.8306 179.586 81.7399 179.645C81.6239 179.711 81.1905 179.973 81.0695 180.038C80.9581 180.085 80.8363 180.103 80.7162 180.088C80.5961 180.074 80.4817 180.029 80.3841 179.958L67.9655 172.786C67.6912 172.618 67.4611 172.386 67.2945 172.111C67.1279 171.836 67.0297 171.524 67.008 171.203C66.9979 171.099 67.0149 170.995 67.0573 170.899C67.0996 170.804 67.166 170.721 67.2499 170.659C67.3658 170.583 67.8194 170.321 67.9403 170.256C68.0527 170.209 68.1752 170.192 68.2961 170.206C68.417 170.22 68.5323 170.265 68.6308 170.336L81.0494 177.503Z" fill="black"/>
<path id="Vector_31" d="M80.384 177.912L67.9654 170.74C67.4362 170.438 67.0078 170.655 67.0078 171.244C67.0295 171.566 67.1278 171.877 67.2944 172.152C67.461 172.427 67.6911 172.659 67.9654 172.827L80.384 179.999C80.888 180.306 81.3365 180.09 81.3365 179.495C81.313 179.175 81.2144 178.865 81.049 178.59C80.8835 178.315 80.6557 178.083 80.384 177.912Z" fill="#FFA800"/>
<path id="Vector_32" opacity="0.3" d="M80.384 177.912L67.9654 170.74C67.4362 170.438 67.0078 170.655 67.0078 171.244C67.0295 171.566 67.1278 171.877 67.2944 172.152C67.461 172.427 67.6911 172.659 67.9654 172.827L80.384 179.999C80.888 180.306 81.3365 180.09 81.3365 179.495C81.313 179.175 81.2144 178.865 81.049 178.59C80.8835 178.315 80.6557 178.083 80.384 177.912Z" fill="black"/>
<path id="Vector_33" d="M64.4223 167.907C64.6973 168.076 64.9278 168.308 65.0944 168.584C65.2611 168.861 65.3589 169.173 65.3799 169.495C65.3907 169.602 65.372 169.711 65.3258 169.808C65.2796 169.906 65.2077 169.989 65.1178 170.049L64.4475 170.437C64.3356 170.485 64.2133 170.504 64.0923 170.49C63.9713 170.477 63.8558 170.433 63.757 170.362L57.9056 166.98C57.6306 166.811 57.4001 166.579 57.2334 166.303C57.0668 166.026 56.9689 165.714 56.948 165.392C56.9373 165.289 56.954 165.185 56.9965 165.09C57.039 164.995 57.1057 164.914 57.1899 164.853C57.3058 164.777 57.7594 164.515 57.8804 164.45C57.9922 164.402 58.1146 164.384 58.2356 164.397C58.3565 164.41 58.472 164.454 58.5708 164.525L64.4223 167.907Z" fill="#FFA800"/>
<path id="Vector_34" opacity="0.4" d="M64.4223 167.907C64.6973 168.076 64.9278 168.308 65.0944 168.584C65.2611 168.861 65.3589 169.173 65.3799 169.495C65.3907 169.602 65.372 169.711 65.3258 169.808C65.2796 169.906 65.2077 169.989 65.1178 170.049L64.4475 170.437C64.3356 170.485 64.2133 170.504 64.0923 170.49C63.9713 170.477 63.8558 170.433 63.757 170.362L57.9056 166.98C57.6306 166.811 57.4001 166.579 57.2334 166.303C57.0668 166.026 56.9689 165.714 56.948 165.392C56.9373 165.289 56.954 165.185 56.9965 165.09C57.039 164.995 57.1057 164.914 57.1899 164.853C57.3058 164.777 57.7594 164.515 57.8804 164.45C57.9922 164.402 58.1146 164.384 58.2356 164.397C58.3565 164.41 58.472 164.454 58.5708 164.525L64.4223 167.907Z" fill="black"/>
<path id="Vector_35" d="M63.757 168.29L57.9056 164.914C57.3764 164.606 56.948 164.823 56.948 165.418C56.9689 165.74 57.0668 166.052 57.2335 166.328C57.4001 166.604 57.6306 166.836 57.9056 167.005L63.757 170.352C64.261 170.654 64.7146 170.437 64.7146 169.848C64.6859 169.532 64.5846 169.227 64.4184 168.957C64.2523 168.687 64.0259 168.459 63.757 168.29Z" fill="#FFA800"/>
<path id="Vector_36" opacity="0.3" d="M63.757 168.29L57.9056 164.914C57.3764 164.606 56.948 164.823 56.948 165.418C56.9689 165.74 57.0668 166.052 57.2335 166.328C57.4001 166.604 57.6306 166.836 57.9056 167.005L63.757 170.352C64.261 170.654 64.7146 170.437 64.7146 169.848C64.6859 169.532 64.5846 169.227 64.4184 168.957C64.2523 168.687 64.0259 168.459 63.757 168.29Z" fill="black"/>
</g>
<g id="freepik--Button--inject-22">
<path id="Vector_37" d="M104.893 175.134C113.965 180.356 128.607 180.356 137.653 175.134C142.189 172.519 144.447 169.086 144.437 165.664V163.295C144.437 163.295 142.104 158.759 137.653 156.204C128.612 150.983 113.965 150.983 104.893 156.204C100.423 158.785 98.1096 163.295 98.1096 163.295V165.659C98.1096 169.102 100.373 172.524 104.893 175.134Z" fill="#E0E0E0"/>
<path id="Vector_38" d="M121.273 176.688C134.066 176.688 144.437 170.701 144.437 163.316C144.437 155.932 134.066 149.945 121.273 149.945C108.48 149.945 98.1096 155.932 98.1096 163.316C98.1096 170.701 108.48 176.688 121.273 176.688Z" fill="#F0F0F0"/>
<path id="Vector_39" d="M107.761 170.912C115.221 175.216 127.322 175.216 134.786 170.912C138.52 168.754 140.385 165.927 140.38 163.1V155.036C139.044 152.64 137.119 150.626 134.786 149.184C127.322 144.88 115.221 144.88 107.761 149.184C105.424 150.623 103.496 152.638 102.162 155.036V163.1C102.162 165.932 104.027 168.754 107.761 170.912Z" fill="#FFA800"/>
<path id="Vector_40" opacity="0.15" d="M107.761 170.912C115.221 175.216 127.322 175.216 134.786 170.912C138.52 168.754 140.385 165.927 140.38 163.1V155.036C139.044 152.64 137.119 150.626 134.786 149.184C127.322 144.88 115.221 144.88 107.761 149.184C105.424 150.623 103.496 152.638 102.162 155.036V163.1C102.162 165.932 104.027 168.754 107.761 170.912Z" fill="black"/>
<path id="Vector_41" opacity="0.04" d="M110.79 172.332C114.108 173.54 117.612 174.151 121.142 174.137V145.963C117.612 145.949 114.108 146.56 110.79 147.767V172.332Z" fill="black"/>
<path id="Vector_42" opacity="0.07" d="M134.786 149.184C131.021 147.012 126.076 145.938 121.142 145.958V174.132C126.076 174.132 131.021 173.079 134.786 170.906C138.55 168.734 140.385 165.922 140.38 163.094V155.03C139.043 152.637 137.118 150.625 134.786 149.184Z" fill="black"/>
<path id="Vector_43" d="M121.273 166.073C131.826 166.073 140.38 161.133 140.38 155.04C140.38 148.947 131.826 144.008 121.273 144.008C110.721 144.008 102.167 148.947 102.167 155.04C102.167 161.133 110.721 166.073 121.273 166.073Z" fill="#FFA800"/>
</g>
<g id="freepik--Text--inject-22">
<g id="Group_2" opacity="0.2">
<path id="Vector_44" d="M138.369 191.641C138.149 191.646 137.932 191.592 137.739 191.485L132.392 188.395C132.271 188.335 132.17 188.244 132.098 188.13C132.026 188.016 131.986 187.885 131.984 187.75C131.983 187.612 132.02 187.475 132.092 187.357C132.165 187.239 132.268 187.143 132.392 187.08L135.063 185.538C135.614 185.253 136.225 185.104 136.845 185.104C137.465 185.104 138.076 185.253 138.626 185.538L139.387 185.981C139.65 186.087 139.875 186.269 140.034 186.504C140.192 186.739 140.277 187.016 140.277 187.299C140.277 187.582 140.192 187.859 140.034 188.094C139.875 188.329 139.65 188.511 139.387 188.617L137.875 189.504L139.025 190.169C139.149 190.231 139.254 190.327 139.327 190.446C139.4 190.564 139.438 190.701 139.438 190.84C139.432 190.974 139.39 191.104 139.318 191.218C139.245 191.331 139.144 191.423 139.025 191.485C138.832 191.592 138.615 191.646 138.395 191.641H138.369ZM136.076 188.496L138.122 187.312L137.351 186.868C137.194 186.794 137.021 186.756 136.847 186.756C136.673 186.756 136.501 186.794 136.343 186.868L134.806 187.755L136.076 188.496Z" fill="#FFA800"/>
<path id="Vector_45" d="M144.483 188.112C144.261 188.117 144.042 188.063 143.848 187.956L138.5 184.867C138.381 184.805 138.28 184.713 138.208 184.6C138.136 184.486 138.096 184.356 138.092 184.221C138.093 184.083 138.131 183.948 138.203 183.83C138.275 183.712 138.378 183.615 138.5 183.551L141.177 182.009C141.726 181.724 142.336 181.575 142.956 181.575C143.575 181.575 144.185 181.724 144.735 182.009L145.501 182.452C145.769 182.598 145.998 182.808 146.166 183.062C146.226 183.152 146.275 183.249 146.312 183.35C146.502 183.364 146.691 183.391 146.877 183.43C147.197 183.497 147.504 183.612 147.789 183.773L148.938 184.433C149.06 184.495 149.164 184.59 149.236 184.706C149.309 184.822 149.349 184.956 149.351 185.093C149.349 185.23 149.309 185.363 149.236 185.479C149.164 185.594 149.06 185.688 148.938 185.749C148.745 185.855 148.528 185.911 148.308 185.91C148.084 185.915 147.863 185.859 147.668 185.749L146.524 185.088C146.368 185.008 146.195 184.968 146.02 184.972C145.845 184.967 145.671 185.007 145.516 185.088L143.964 185.975L145.118 186.641C145.241 186.702 145.345 186.797 145.417 186.915C145.49 187.032 145.527 187.168 145.526 187.306C145.522 187.442 145.482 187.574 145.409 187.688C145.336 187.803 145.234 187.895 145.113 187.956C144.921 188.064 144.703 188.118 144.483 188.112ZM142.19 184.967L144.241 183.783L143.47 183.339C143.312 183.266 143.14 183.228 142.966 183.228C142.792 183.228 142.62 183.266 142.462 183.339L140.95 184.227L142.19 184.967Z" fill="#FFA800"/>
<path id="Vector_46" d="M150.591 184.584C150.371 184.589 150.154 184.535 149.961 184.428L144.614 181.339C144.493 181.279 144.391 181.187 144.319 181.073C144.248 180.959 144.208 180.828 144.206 180.694C144.205 180.555 144.242 180.419 144.314 180.3C144.387 180.182 144.49 180.086 144.614 180.023L148.434 177.821C148.626 177.713 148.844 177.659 149.064 177.664C149.288 177.659 149.508 177.713 149.704 177.821C149.828 177.88 149.933 177.973 150.006 178.089C150.079 178.204 150.118 178.339 150.118 178.476C150.118 178.613 150.079 178.747 150.006 178.863C149.933 178.979 149.828 179.072 149.704 179.131L147.023 180.683L147.925 181.187L150.344 179.791C150.539 179.685 150.758 179.63 150.979 179.63C151.201 179.63 151.419 179.685 151.614 179.791C151.737 179.852 151.839 179.945 151.911 180.061C151.983 180.177 152.021 180.31 152.021 180.447C152.021 180.583 151.983 180.716 151.911 180.832C151.839 180.948 151.737 181.041 151.614 181.102L149.699 182.211L150.601 182.715L153.787 180.875C153.979 180.769 154.197 180.715 154.417 180.719C154.639 180.715 154.858 180.77 155.052 180.88C155.175 180.939 155.28 181.032 155.353 181.148C155.426 181.264 155.465 181.398 155.465 181.535C155.465 181.672 155.426 181.807 155.353 181.923C155.28 182.039 155.175 182.131 155.052 182.19L151.231 184.398C151.039 184.505 150.822 184.559 150.601 184.554L150.591 184.584Z" fill="#FFA800"/>
<path id="Vector_47" d="M156.705 180.669C156.084 180.684 155.47 180.534 154.926 180.236C154.807 180.175 154.706 180.083 154.633 179.971C154.561 179.859 154.519 179.729 154.513 179.595C154.516 179.406 154.594 179.225 154.729 179.091C154.503 179.128 154.273 179.147 154.044 179.147C153.421 179.159 152.806 179.008 152.26 178.708L151.877 178.492C151.614 178.385 151.39 178.202 151.232 177.967C151.074 177.731 150.99 177.455 150.99 177.171C150.99 176.888 151.074 176.611 151.232 176.376C151.39 176.141 151.614 175.958 151.877 175.851L153.389 174.974C153.938 174.689 154.549 174.54 155.168 174.54C155.787 174.54 156.397 174.689 156.947 174.974C157.069 175.035 157.172 175.128 157.245 175.244C157.318 175.359 157.358 175.492 157.36 175.629C157.359 175.723 157.34 175.816 157.302 175.903C157.265 175.989 157.211 176.068 157.143 176.133C157.374 176.098 157.606 176.081 157.839 176.083C158.46 176.065 159.074 176.213 159.618 176.511L160.001 176.733C160.264 176.839 160.489 177.021 160.647 177.256C160.806 177.491 160.89 177.767 160.89 178.051C160.89 178.334 160.806 178.611 160.647 178.846C160.489 179.08 160.264 179.263 160.001 179.369L158.489 180.251C157.942 180.545 157.326 180.689 156.705 180.669ZM155.672 178.769C155.849 178.783 156.021 178.836 156.176 178.925C156.331 179.005 156.505 179.043 156.68 179.036C156.854 179.042 157.028 179.004 157.184 178.925L158.696 178.038L158.308 177.811C158.152 177.731 157.979 177.691 157.804 177.695C157.628 177.69 157.455 177.729 157.3 177.811L155.788 178.693L155.672 178.769ZM153.525 177.378C153.68 177.459 153.854 177.498 154.029 177.494C154.204 177.5 154.378 177.46 154.533 177.378L156.045 176.496L156.236 176.4C156.059 176.387 155.887 176.335 155.732 176.249C155.574 176.176 155.402 176.138 155.228 176.138C155.054 176.138 154.882 176.176 154.724 176.249L153.212 177.131L153.525 177.378Z" fill="#FFA800"/>
<path id="Vector_48" d="M162.813 177.141C162.192 177.155 161.579 177.006 161.034 176.707C160.915 176.646 160.815 176.555 160.743 176.443C160.671 176.33 160.631 176.2 160.626 176.067C160.626 175.973 160.645 175.879 160.682 175.793C160.719 175.706 160.774 175.628 160.843 175.563C160.614 175.6 160.383 175.618 160.152 175.619C159.529 175.631 158.914 175.479 158.368 175.18L157.985 174.963C157.725 174.854 157.502 174.671 157.346 174.436C157.189 174.201 157.106 173.925 157.106 173.643C157.106 173.361 157.189 173.085 157.346 172.85C157.502 172.615 157.725 172.431 157.985 172.322L159.497 171.445C160.047 171.16 160.657 171.012 161.276 171.012C161.895 171.012 162.505 171.16 163.055 171.445C163.177 171.506 163.281 171.6 163.354 171.715C163.426 171.831 163.466 171.964 163.468 172.101C163.469 172.195 163.45 172.288 163.412 172.375C163.375 172.462 163.32 172.54 163.252 172.605C163.484 172.569 163.718 172.553 163.952 172.554C164.573 172.538 165.186 172.686 165.731 172.983L166.114 173.204C166.375 173.312 166.598 173.495 166.755 173.73C166.912 173.964 166.995 174.24 166.995 174.522C166.995 174.805 166.912 175.08 166.755 175.315C166.598 175.55 166.375 175.732 166.114 175.84L164.602 176.722C164.054 177.019 163.436 177.163 162.813 177.141ZM161.78 175.241C161.958 175.254 162.13 175.308 162.284 175.397C162.443 175.468 162.614 175.504 162.788 175.504C162.962 175.504 163.133 175.468 163.292 175.397L164.829 174.51L164.436 174.283C164.281 174.201 164.107 174.161 163.932 174.167C163.757 174.162 163.584 174.202 163.428 174.283L161.916 175.165L161.78 175.241ZM159.638 173.85C159.793 173.931 159.967 173.971 160.142 173.965C160.317 173.97 160.49 173.93 160.646 173.85L162.158 172.968L162.294 172.892C162.117 172.879 161.945 172.827 161.79 172.741C161.635 172.66 161.461 172.62 161.286 172.625C161.111 172.619 160.937 172.659 160.782 172.741L159.27 173.623L159.638 173.85Z" fill="#FFA800"/>
</g>
<path id="Vector_49" d="M139.135 188.178L136.847 189.504L138.752 190.602C138.798 190.621 138.837 190.652 138.865 190.693C138.894 190.733 138.911 190.78 138.914 190.829C138.908 190.876 138.891 190.921 138.862 190.959C138.834 190.997 138.796 191.027 138.752 191.046C138.634 191.106 138.504 191.137 138.372 191.137C138.24 191.137 138.109 191.106 137.991 191.046L132.644 187.956C132.6 187.939 132.562 187.909 132.534 187.871C132.506 187.832 132.49 187.787 132.488 187.74C132.49 187.692 132.506 187.645 132.533 187.606C132.561 187.567 132.599 187.536 132.644 187.518L135.315 185.976C135.789 185.734 136.313 185.607 136.845 185.607C137.376 185.607 137.901 185.734 138.374 185.976L139.135 186.414C139.319 186.477 139.479 186.596 139.592 186.754C139.705 186.912 139.765 187.102 139.765 187.296C139.765 187.49 139.705 187.68 139.592 187.838C139.479 187.996 139.319 188.115 139.135 188.178ZM137.623 186.414C137.388 186.297 137.13 186.237 136.867 186.237C136.605 186.237 136.346 186.297 136.111 186.414L133.818 187.74L136.111 189.06L138.405 187.74C138.493 187.703 138.57 187.642 138.626 187.563C138.681 187.485 138.713 187.392 138.717 187.296C138.712 187.201 138.68 187.109 138.624 187.032C138.569 186.954 138.493 186.894 138.405 186.858L137.623 186.414Z" fill="#FFA800"/>
<path id="Vector_50" d="M145.874 183.849C146.175 183.839 146.476 183.864 146.771 183.925C147.04 183.978 147.299 184.075 147.537 184.212L148.686 184.872C148.731 184.891 148.769 184.922 148.798 184.961C148.826 185 148.843 185.046 148.848 185.094C148.848 185.18 148.792 185.25 148.686 185.311C148.568 185.374 148.437 185.407 148.303 185.407C148.169 185.411 148.036 185.378 147.92 185.311L146.776 184.651C146.541 184.524 146.277 184.461 146.01 184.469C145.745 184.462 145.482 184.524 145.249 184.651L142.956 185.976L144.866 187.075C144.972 187.14 145.027 187.211 145.022 187.302C145.017 187.392 144.967 187.458 144.861 187.518C144.745 187.581 144.615 187.613 144.483 187.609C144.35 187.612 144.218 187.581 144.1 187.518L138.752 184.429C138.709 184.411 138.672 184.381 138.644 184.342C138.616 184.304 138.6 184.259 138.596 184.212C138.599 184.164 138.615 184.118 138.643 184.079C138.67 184.04 138.708 184.009 138.752 183.99L141.429 182.448C141.901 182.206 142.425 182.08 142.956 182.08C143.487 182.08 144.01 182.206 144.483 182.448L145.249 182.887C145.45 182.992 145.623 183.144 145.753 183.33C145.852 183.484 145.894 183.668 145.874 183.849ZM143.722 182.887C143.487 182.771 143.228 182.71 142.966 182.71C142.704 182.71 142.445 182.771 142.21 182.887L139.922 184.212L142.21 185.533L144.503 184.212C144.593 184.177 144.671 184.116 144.727 184.037C144.783 183.958 144.816 183.865 144.821 183.769C144.815 183.673 144.782 183.581 144.726 183.503C144.669 183.426 144.592 183.366 144.503 183.33L143.722 182.887Z" fill="#FFA800"/>
<path id="Vector_51" d="M149.447 178.698L146.202 180.572C146.18 180.582 146.161 180.597 146.148 180.617C146.134 180.637 146.127 180.66 146.126 180.683C146.128 180.707 146.136 180.729 146.149 180.749C146.162 180.768 146.18 180.784 146.202 180.794L147.714 181.676C147.774 181.703 147.839 181.717 147.905 181.717C147.971 181.717 148.036 181.703 148.097 181.676L150.576 180.24C150.694 180.176 150.826 180.145 150.959 180.149C151.095 180.147 151.229 180.18 151.347 180.245C151.453 180.305 151.504 180.376 151.499 180.462C151.496 180.509 151.48 180.556 151.452 180.595C151.424 180.634 151.386 180.665 151.342 180.683L148.863 182.115C148.839 182.122 148.818 182.137 148.803 182.157C148.789 182.177 148.781 182.201 148.781 182.226C148.781 182.25 148.789 182.275 148.803 182.295C148.818 182.315 148.839 182.329 148.863 182.336L150.375 183.218C150.433 183.25 150.499 183.266 150.566 183.264C150.631 183.266 150.696 183.251 150.753 183.218L154.003 181.344C154.119 181.28 154.25 181.248 154.381 181.253C154.516 181.249 154.65 181.28 154.77 181.344C154.814 181.362 154.852 181.393 154.879 181.432C154.907 181.471 154.923 181.518 154.926 181.565C154.921 181.613 154.904 181.658 154.875 181.696C154.847 181.734 154.809 181.764 154.764 181.782L150.944 183.99C150.826 184.049 150.696 184.081 150.564 184.081C150.431 184.081 150.301 184.049 150.183 183.99L144.836 180.9C144.792 180.883 144.753 180.853 144.726 180.815C144.698 180.776 144.682 180.731 144.679 180.683C144.682 180.635 144.697 180.589 144.725 180.55C144.753 180.51 144.791 180.48 144.836 180.462L148.656 178.254C148.775 178.196 148.906 178.166 149.039 178.166C149.172 178.166 149.303 178.196 149.422 178.254C149.467 178.272 149.505 178.303 149.533 178.342C149.56 178.381 149.576 178.428 149.578 178.476C149.577 178.521 149.564 178.565 149.541 178.604C149.518 178.642 149.486 178.675 149.447 178.698Z" fill="#FFA800"/>
<path id="Vector_52" d="M156.866 175.608C156.862 175.656 156.844 175.702 156.816 175.741C156.788 175.78 156.749 175.811 156.705 175.83C156.586 175.89 156.455 175.921 156.322 175.921C156.189 175.921 156.058 175.89 155.939 175.83C155.705 175.704 155.443 175.641 155.178 175.648C154.911 175.64 154.646 175.703 154.412 175.83L152.9 176.707C152.809 176.74 152.73 176.799 152.675 176.878C152.619 176.957 152.59 177.051 152.59 177.148C152.59 177.244 152.619 177.338 152.675 177.417C152.73 177.496 152.809 177.556 152.9 177.589L153.283 177.811C153.517 177.93 153.776 177.993 154.039 177.993C154.302 177.993 154.561 177.93 154.795 177.811L156.307 176.934C156.78 176.695 157.303 176.571 157.834 176.571C158.364 176.571 158.887 176.695 159.361 176.934L159.744 177.155C159.921 177.229 160.074 177.351 160.186 177.507C160.298 177.662 160.365 177.846 160.379 178.037C160.366 178.226 160.301 178.408 160.193 178.563C160.085 178.719 159.937 178.842 159.764 178.919L158.252 179.801C157.778 180.04 157.255 180.164 156.725 180.164C156.195 180.164 155.672 180.04 155.198 179.801C155.154 179.782 155.116 179.751 155.088 179.712C155.06 179.673 155.042 179.627 155.037 179.58C155.04 179.533 155.056 179.487 155.084 179.449C155.111 179.411 155.149 179.381 155.193 179.363C155.311 179.302 155.443 179.269 155.576 179.269C155.709 179.269 155.841 179.302 155.959 179.363C156.194 179.479 156.453 179.539 156.715 179.539C156.977 179.539 157.236 179.479 157.471 179.363L158.983 178.481C159.074 178.448 159.152 178.388 159.208 178.309C159.263 178.231 159.293 178.136 159.293 178.04C159.293 177.943 159.263 177.849 159.208 177.77C159.152 177.691 159.074 177.632 158.983 177.599L158.6 177.377C158.365 177.26 158.106 177.2 157.844 177.2C157.582 177.2 157.323 177.26 157.088 177.377L155.576 178.259C155.113 178.514 154.592 178.641 154.064 178.627C153.537 178.637 153.016 178.511 152.552 178.259L152.169 178.037C151.985 177.974 151.825 177.855 151.712 177.697C151.6 177.539 151.539 177.35 151.539 177.155C151.539 176.961 151.6 176.772 151.712 176.613C151.825 176.455 151.985 176.336 152.169 176.273L153.681 175.396C154.154 175.154 154.677 175.028 155.208 175.028C155.739 175.028 156.262 175.154 156.735 175.396C156.772 175.418 156.804 175.449 156.827 175.486C156.85 175.523 156.863 175.565 156.866 175.608Z" fill="#FFA800"/>
<path id="Vector_53" d="M162.975 172.081C162.972 172.129 162.956 172.175 162.928 172.214C162.9 172.253 162.862 172.284 162.818 172.303C162.701 172.366 162.569 172.398 162.435 172.393C162.302 172.399 162.169 172.368 162.052 172.303C161.817 172.176 161.553 172.113 161.286 172.121C161.021 172.114 160.759 172.176 160.525 172.303L159.013 173.18C158.925 173.218 158.849 173.279 158.793 173.357C158.737 173.435 158.703 173.527 158.696 173.623C158.701 173.719 158.734 173.811 158.79 173.889C158.847 173.966 158.924 174.026 159.013 174.062L159.396 174.283C159.629 174.411 159.892 174.476 160.157 174.47C160.425 174.477 160.689 174.412 160.923 174.283L162.435 173.406C162.909 173.168 163.432 173.044 163.962 173.044C164.493 173.044 165.016 173.168 165.49 173.406L165.873 173.628C166.049 173.703 166.201 173.825 166.312 173.98C166.423 174.136 166.489 174.319 166.503 174.51C166.487 174.701 166.421 174.883 166.31 175.038C166.199 175.194 166.048 175.316 165.873 175.392L164.361 176.274C163.887 176.513 163.364 176.637 162.833 176.637C162.303 176.637 161.78 176.513 161.306 176.274C161.263 176.255 161.225 176.224 161.198 176.185C161.17 176.146 161.154 176.1 161.15 176.052C161.153 176.005 161.169 175.96 161.197 175.922C161.225 175.883 161.263 175.854 161.306 175.836C161.422 175.768 161.555 175.735 161.689 175.74C161.823 175.736 161.955 175.767 162.072 175.831C162.307 175.947 162.566 176.008 162.828 176.008C163.091 176.008 163.349 175.947 163.584 175.831L165.096 174.949C165.186 174.913 165.263 174.853 165.319 174.776C165.375 174.698 165.408 174.606 165.414 174.51C165.409 174.414 165.377 174.32 165.32 174.242C165.264 174.163 165.186 174.102 165.096 174.067L164.713 173.845C164.48 173.719 164.218 173.656 163.952 173.664C163.685 173.655 163.421 173.718 163.186 173.845L161.674 174.727C161.212 174.982 160.69 175.109 160.162 175.095C159.635 175.103 159.115 174.977 158.65 174.727L158.267 174.505C158.083 174.442 157.924 174.323 157.811 174.165C157.698 174.007 157.637 173.818 157.637 173.623C157.637 173.429 157.698 173.239 157.811 173.081C157.924 172.923 158.083 172.804 158.267 172.741L159.779 171.864C160.252 171.622 160.775 171.496 161.306 171.496C161.837 171.496 162.361 171.622 162.833 171.864C162.874 171.885 162.908 171.915 162.933 171.954C162.958 171.992 162.972 172.036 162.975 172.081Z" fill="#FFA800"/>
</g>
</g>
</g>
<g id="freepik--Hand--inject-22">
<g id="freepik--hand--inject-22">
<path id="Vector_54" d="M37.2617 41.8324C37.2617 31.5962 44.4488 19.1524 53.3141 14.0318C57.7493 11.4715 61.7612 11.2296 64.6642 12.9028L88.1909 26.5108C88.1909 36.7471 74.3612 60.7173 65.5109 65.8228L41.9792 52.2148C39.061 50.5516 37.2617 46.9531 37.2617 41.8324Z" fill="#FFA800"/>
<path id="Vector_55" d="M60.8086 55.4407C60.8086 45.2044 67.9906 32.7607 76.856 27.635C81.2811 25.0848 85.2879 24.8378 88.1909 26.501C91.094 28.1642 92.9084 31.7527 92.9084 36.8935C92.9084 47.1297 85.7213 59.5735 76.856 64.6992C72.4208 67.2595 68.4039 67.4964 65.4958 65.813C62.5877 64.1296 60.8086 60.5412 60.8086 55.4407Z" fill="#FFA800"/>
<path id="Vector_56" opacity="0.15" d="M60.8086 55.4407C60.8086 45.2044 67.9906 32.7607 76.856 27.635C81.2811 25.0848 85.2879 24.8378 88.1909 26.501C91.094 28.1642 92.9084 31.7527 92.9084 36.8935C92.9084 47.1297 85.7213 59.5735 76.856 64.6992C72.4208 67.2595 68.4039 67.4964 65.4958 65.813C62.5877 64.1296 60.8086 60.5412 60.8086 55.4407Z" fill="black"/>
<path id="Vector_57" opacity="0.15" d="M61.484 49.665C61.0426 51.5588 60.8161 53.4963 60.8086 55.4409C60.8086 60.5514 62.5978 64.145 65.4958 65.8233C68.3938 67.5016 72.4208 67.2698 76.856 64.7094C78.5309 63.7246 80.0911 62.5565 81.5079 61.2268L61.484 49.665Z" fill="black"/>
<path id="Vector_58" d="M129.524 78.7402C128.843 82.6512 128.44 84.8335 126.53 86.3002C126.167 90.9773 124.388 94.3037 123.204 95.3369C123.002 102.584 119.383 104.913 119.383 104.913C119.383 104.913 119.993 125.577 120.79 130.713C122.15 139.553 123.38 141.801 122.77 144.588C122.176 147.304 117.65 148.443 113.981 146.453C110.049 144.326 108.593 137.265 107.116 130.713C105.463 123.384 104.092 116.046 104.092 116.046C100.625 115.104 95.1107 115.29 92.0918 114.484C89.0728 113.677 88.1959 112.775 85.7313 109.373C83.2667 105.971 76.4476 98.8598 74.4417 95.599C72.4358 92.3381 71.9217 88.417 71.831 80.983C71.7655 75.8321 71.1959 71.9765 71.0447 66.8357C71.0447 66.4577 71.0195 66.0746 71.0145 65.6765C71.0145 64.5828 71.0145 63.4337 71.0145 62.1989L60.8035 56.297C60.8035 56.0249 60.8035 55.7426 60.8035 55.4604C60.8035 50.0878 62.7892 44.1053 65.9543 38.8889C68.8171 34.1765 72.6525 30.0941 76.8559 27.6598C77.6756 27.1835 78.5298 26.7691 79.4111 26.4199C83.0399 28.6123 87.7271 31.344 91.2501 33.113C91.6029 33.2894 92.122 33.5364 92.6563 33.7934C93.4929 34.1966 94.385 34.625 94.7932 34.8418C98.9563 37.0493 99.9088 40.2749 102.807 43.0166C105.115 45.199 125.21 62.965 128.44 65.5152C131.671 68.0654 130.582 72.667 129.524 78.7402Z" fill="#FFA8A7"/>
<path id="Vector_59" opacity="0.3" d="M123.204 95.3115C124.388 94.2783 126.167 90.9519 126.53 86.2748C128.445 84.8334 128.844 82.651 129.524 78.7148C129.872 76.724 130.22 74.8945 130.421 73.2363C130.335 73.7403 129.559 78.2763 128.844 78.7148C128.128 79.1533 127.584 77.7522 127.584 77.7522C127.584 77.7522 126.666 84.0522 125.568 84.8082C124.469 85.5642 124.056 84.2588 124.056 84.2588C123.511 88.6789 123.007 90.8662 121.697 91.3702C120.386 91.8742 119.252 90.0145 118.708 87.6608C118.512 90.6294 119.363 104.867 119.363 104.867C119.363 104.867 123.002 102.559 123.204 95.3115Z" fill="#F28F8F"/>
<path id="Vector_60" opacity="0.05" d="M75.6816 47.5779C74.5436 49.1069 73.6226 50.786 72.9448 52.5675C70.4904 59.054 71.0296 62.1435 71.0296 62.1435L60.8186 56.2416C60.8186 55.9695 60.8186 55.6872 60.8186 55.405C60.8186 51.1563 62.0584 46.5296 64.145 42.2002L75.6816 47.5779Z" fill="black"/>
<path id="Vector_61" d="M121.142 135.284C118.688 134.307 114.701 135.824 114.086 136.796C113.471 137.769 115.291 143.57 116.606 145.057C118.29 146.912 122.79 146.73 122.921 143.621C123.052 140.511 121.142 135.284 121.142 135.284Z" fill="#FFA8A7"/>
<path id="Vector_62" opacity="0.4" d="M121.142 135.284C118.688 134.307 114.701 135.824 114.086 136.796C113.471 137.769 115.291 143.57 116.606 145.057C118.29 146.912 122.79 146.73 122.921 143.621C123.052 140.511 121.142 135.284 121.142 135.284Z" fill="white"/>
<path id="Vector_63" d="M118.557 136.776C120.916 136.222 121.142 135.264 121.142 135.264C118.688 134.286 114.701 135.803 114.086 136.776C115.559 137.096 117.084 137.096 118.557 136.776Z" fill="#F28F8F"/>
<path id="Vector_64" d="M71.0298 62.1639C71.0298 57.4061 72.945 52.5879 72.945 52.5879C72.945 52.5879 70.3141 54.4225 69.417 61.2365L71.0298 62.1639Z" fill="#F28F8F"/>
<path id="Vector_65" d="M119.383 104.873C118.794 99.833 118.265 95.1004 118.043 91.0835C117.821 87.0667 117.897 86.5879 117.982 85.9175C118.068 85.2472 119.676 83.4479 119.56 85.9175C119.444 88.3871 119.056 90.7559 119.257 94.5964C119.459 98.4369 119.383 104.873 119.383 104.873Z" fill="#FFA8A7"/>
<path id="Vector_66" opacity="0.8" d="M119.383 104.873C118.794 99.833 118.265 95.1004 118.043 91.0835C117.821 87.0667 117.897 86.5879 117.982 85.9175C118.068 85.2472 119.676 83.4479 119.56 85.9175C119.444 88.3871 119.056 90.7559 119.257 94.5964C119.459 98.4369 119.383 104.873 119.383 104.873Z" fill="#F28F8F"/>
<g id="Group_3" opacity="0.4">
<path id="Vector_67" d="M118.481 107.272C118.48 107.215 118.468 107.159 118.446 107.106C118.395 107.013 118.326 106.931 118.244 106.864C117.453 106.167 116.45 105.755 115.397 105.695C114.588 105.62 113.773 105.664 112.978 105.826C111.708 106.083 110.291 106.531 109.707 107.796C109.681 107.837 109.665 107.884 109.66 107.932C109.655 107.98 109.66 108.028 109.676 108.074C109.752 108.215 109.964 108.174 110.115 108.114C111.376 107.625 112.71 107.349 114.061 107.297C114.724 107.282 115.387 107.308 116.047 107.373C116.74 107.499 117.444 107.554 118.149 107.539C118.255 107.535 118.356 107.49 118.431 107.413C118.46 107.372 118.478 107.323 118.481 107.272Z" fill="#F28F8F"/>
<path id="Vector_68" d="M116.924 110.725C116.42 110.896 115.916 111.133 115.356 111.279C114.93 111.388 114.495 111.46 114.056 111.496C113.628 111.521 113.199 111.521 112.771 111.496C112.519 111.496 112.267 111.496 112.02 111.496C111.873 111.471 111.725 111.454 111.576 111.445C111.496 111.445 111.415 111.445 111.33 111.445C111.244 111.445 111.158 111.687 111.239 111.763C111.819 112.33 112.574 112.685 113.381 112.771C113.869 112.819 114.36 112.819 114.847 112.771C115.795 112.68 117.03 112.418 117.705 111.692C118.083 111.234 117.342 110.588 116.924 110.725Z" fill="#F28F8F"/>
<path id="Vector_69" d="M119.993 129.876C119.637 129.477 119.145 129.224 118.612 129.166C118.486 129.166 118.355 129.136 118.229 129.126C117.919 129.108 117.607 129.108 117.297 129.126C116.666 129.159 116.041 129.269 115.437 129.453C114.5 129.73 113.421 130.26 113.043 131.232C113.043 131.283 113.003 131.343 112.983 131.399C112.953 131.483 112.937 131.571 112.937 131.661C112.938 131.705 112.95 131.748 112.971 131.786C112.992 131.825 113.022 131.858 113.058 131.882C113.123 131.906 113.193 131.914 113.261 131.905C113.329 131.897 113.395 131.871 113.451 131.832L115.034 131.046C115.343 130.907 115.663 130.796 115.991 130.713C116.321 130.603 116.658 130.515 116.999 130.451C117.333 130.401 117.671 130.383 118.007 130.396C118.645 130.464 119.286 130.498 119.928 130.496C120.195 130.471 120.089 130.033 119.993 129.876Z" fill="#F28F8F"/>
</g>
<g id="Group_4" opacity="0.4">
<path id="Vector_70" d="M91.7946 108.224C91.7236 108.172 91.6353 108.148 91.5476 108.159C91.1221 108.183 90.7017 108.264 90.2977 108.401C89.6107 108.662 88.9949 109.082 88.5002 109.625C88.0055 110.169 87.6458 110.822 87.4501 111.53C87.4479 111.542 87.4479 111.554 87.4501 111.566C87.8139 112.008 88.2153 112.417 88.6496 112.79C88.6695 112.736 88.6847 112.681 88.695 112.624C88.8652 111.649 89.3336 110.751 90.0356 110.054C90.5474 109.564 91.0858 109.103 91.6484 108.673C91.7196 108.624 91.7797 108.56 91.8248 108.486C91.8493 108.45 91.8624 108.407 91.8624 108.363C91.8624 108.319 91.8493 108.276 91.8248 108.239L91.7946 108.224Z" fill="#F28F8F"/>
<path id="Vector_71" d="M91.5376 114.287L92.0819 114.443C92.3541 114.514 92.6464 114.574 92.9538 114.635C93.0944 114.39 93.1948 114.125 93.2512 113.849C93.387 113.165 93.4428 112.468 93.4175 111.772C93.4235 111.385 93.2993 111.007 93.0647 110.699C93.0244 110.653 92.974 110.608 92.9135 110.623C92.853 110.638 92.8278 110.729 92.8228 110.799C92.746 111.938 92.3648 113.034 91.719 113.975C91.649 114.073 91.5882 114.178 91.5376 114.287Z" fill="#F28F8F"/>
</g>
<path id="Vector_72" opacity="0.4" d="M115.105 72.8285C116.838 72.1934 118.723 74.1036 119.056 75.2073C119.316 76.0018 119.387 76.846 119.263 77.6727C119.14 78.4995 118.826 79.2861 118.345 79.9701C117.962 80.4338 117.488 79.6829 117.398 78.2263C117.401 76.8046 116.883 75.431 115.941 74.3657C114.847 73.2367 114.621 73.0049 115.105 72.8285Z" fill="#F28F8F"/>
<path id="Vector_73" opacity="0.35" d="M102.928 76.0439C101.113 76.3866 100.478 78.9923 100.756 80.1111C100.939 80.927 101.311 81.6886 101.842 82.3352C102.372 82.9819 103.046 83.4957 103.81 83.8357C104.374 84.0373 104.4 83.1503 103.729 81.855C103.005 80.6441 102.745 79.2111 102.998 77.823C103.361 76.2656 103.437 75.9481 102.928 76.0439Z" fill="#F28F8F"/>
<path id="Vector_74" opacity="0.4" d="M122.654 69.6931C124.111 69.0883 125.784 70.6507 126.107 71.578C126.361 72.2447 126.454 72.9618 126.378 73.6711C126.303 74.3804 126.061 75.062 125.673 75.6604C125.361 76.0687 124.932 75.4488 124.801 74.214C124.757 73.0013 124.267 71.8475 123.425 70.9732C122.468 70.056 122.251 69.8644 122.654 69.6931Z" fill="#F28F8F"/>
<path id="Vector_75" d="M123.204 95.3117C122.886 92.5094 123.058 87.4745 123.204 84.6521C123.35 81.8297 125.104 81.0082 125.195 81.7238C125.285 82.4395 124.464 83.7046 124.076 86.4766C123.713 89.057 123.375 91.9097 123.204 95.3117Z" fill="#FFA8A7"/>
<path id="Vector_76" opacity="0.8" d="M123.204 95.3117C122.886 92.5094 123.058 87.4745 123.204 84.6521C123.35 81.8297 125.104 81.0082 125.195 81.7238C125.285 82.4395 124.464 83.7046 124.076 86.4766C123.713 89.057 123.375 91.9097 123.204 95.3117Z" fill="#F28F8F"/>
<path id="Vector_77" d="M96.517 111.737C96.1055 112.779 95.8737 113.883 95.8315 115.003C98.6086 115.386 101.653 115.764 104.092 116.011C104.092 115.401 103.744 112.629 103.744 112.629C101.844 111.097 96.517 111.737 96.517 111.737Z" fill="#FFA8A7"/>
<path id="Vector_78" opacity="0.3" d="M96.517 111.737C96.1055 112.779 95.8737 113.883 95.8315 115.003C98.6086 115.386 101.653 115.764 104.092 116.011C104.092 115.401 103.744 112.629 103.744 112.629C101.844 111.097 96.517 111.737 96.517 111.737Z" fill="white"/>
<path id="Vector_79" opacity="0.8" d="M95.8315 115.003L97.0714 115.17C97.0647 114.004 96.8777 112.846 96.517 111.737C96.1055 112.779 95.8737 113.884 95.8315 115.003Z" fill="#F28F8F"/>
<path id="Vector_80" opacity="0.4" d="M91.2503 90.8214C91.0184 90.5442 90.8017 90.2569 90.59 89.9646C90.086 89.2943 89.824 88.5534 89.3452 87.8982C88.7908 87.1354 88.2716 86.3492 87.7878 85.5395C87.6265 85.2673 86.3716 82.6213 86.4018 83.9771C86.4724 86.8398 88.0801 89.4051 89.6324 91.8092C90.0911 92.5249 90.7513 93.3212 90.5044 94.2587C90.2826 95.0701 89.4056 95.4935 88.5942 95.7203C87.7828 95.9471 86.8957 96.1285 86.3564 96.7686C86.2566 96.8617 86.1894 96.9846 86.1649 97.119C86.1403 97.2534 86.1598 97.3921 86.2204 97.5145C86.3766 97.7262 86.6941 97.7111 86.9512 97.6758C88.2167 97.4727 89.5047 97.4506 90.7765 97.6103C92.0539 97.7749 93.2465 98.3394 94.1836 99.223C95.0857 100.13 95.7661 101.526 95.504 102.781C95.3358 103.407 95.0195 103.982 94.5817 104.46C94.365 104.727 93.7652 105.316 93.987 105.578C94.2088 105.841 95.2016 105.81 95.499 105.83C97.0664 105.962 97.5805 106.042 98.6188 106.586C99.4903 106.962 100.232 107.586 100.751 108.381C101.502 109.439 101.925 110.704 102.469 112.624C102.764 113.705 102.993 114.802 103.155 115.91L104.087 116.006C104.032 114.918 103.865 113.683 103.739 112.624C103.573 111.168 103.074 110.104 102.933 108.713C102.792 107.322 102.535 106.193 102.363 104.873C102.152 103.24 101.996 102.136 101.733 100.841C101.078 97.6153 100.725 94.3595 100.075 91.1339C99.9594 90.5391 99.5713 88.7751 98.6641 88.9263C98.5214 88.9608 98.3879 89.026 98.273 89.1174C98.158 89.2088 98.0645 89.3242 97.9988 89.4555C97.8764 89.7228 97.7933 90.0062 97.7519 90.2972L97.2479 92.8172C97.2116 93.2008 97.0704 93.567 96.8396 93.8756C96.6717 94.0404 96.4652 94.1604 96.2389 94.2247C96.0126 94.289 95.7738 94.2955 95.5444 94.2435C95.0872 94.1334 94.6581 93.9291 94.2844 93.6438C93.1426 92.8536 92.1208 91.9031 91.2503 90.8214Z" fill="#F28F8F"/>
<path id="Vector_81" d="M104.092 116.006C104.057 115.2 103.911 113.894 103.744 112.624C103.175 108.219 102.232 102.459 101.492 97.842C100.448 91.4412 100.484 86.25 99.3294 86.25C98.0896 86.25 98.0341 89.0522 98.6087 92.3232C98.9615 94.3392 99.3596 96.9852 100.03 100.221C100.131 100.819 100.191 101.424 100.211 102.03C100.254 102.301 100.209 102.579 100.083 102.823C99.9571 103.067 99.7566 103.264 99.5108 103.386C99.163 103.52 98.7949 103.595 98.4222 103.608C96.8144 103.754 95.1462 103.996 93.7955 104.883C93.6594 104.962 93.541 105.068 93.4477 105.195C93.4023 105.259 93.3734 105.333 93.3637 105.41C93.354 105.488 93.3639 105.566 93.3923 105.639C93.5737 106.017 94.6069 105.906 94.9446 105.886C95.7157 105.835 96.4566 105.72 97.2378 105.644C98.9766 105.468 100.988 106.052 102.162 108.895C103.14 112.574 104.092 116.006 104.092 116.006Z" fill="#FFA8A7"/>
<path id="Vector_82" opacity="0.9" d="M104.092 116.006C104.057 115.2 103.911 113.894 103.744 112.624C103.175 108.219 102.232 102.459 101.492 97.842C100.448 91.4412 100.484 86.25 99.3294 86.25C98.0896 86.25 98.0341 89.0522 98.6087 92.3232C98.9615 94.3392 99.3596 96.9852 100.03 100.221C100.131 100.819 100.191 101.424 100.211 102.03C100.254 102.301 100.209 102.579 100.083 102.823C99.9571 103.067 99.7566 103.264 99.5108 103.386C99.163 103.52 98.7949 103.595 98.4222 103.608C96.8144 103.754 95.1462 103.996 93.7955 104.883C93.6594 104.962 93.541 105.068 93.4477 105.195C93.4023 105.259 93.3734 105.333 93.3637 105.41C93.354 105.488 93.3639 105.566 93.3923 105.639C93.5737 106.017 94.6069 105.906 94.9446 105.886C95.7157 105.835 96.4566 105.72 97.2378 105.644C98.9766 105.468 100.988 106.052 102.162 108.895C103.14 112.574 104.092 116.006 104.092 116.006Z" fill="#F28F8F"/>
</g>
</g>
</g>
</svg>
