<svg width="300" height="315" viewBox="0 0 300 315" fill="none" xmlns="http://www.w3.org/2000/svg">
<path d="M25.9678 62.9672L27.0008 63.5848L48.2344 51.3256L47.2014 50.708L25.9678 62.9672Z" fill="#FAFAFA"/>
<path d="M47.2006 50.7077L27 62.3657V41.214L47.2006 29.5615V50.7077Z" fill="white"/>
<path d="M50.1903 25.5713L25.0488 40.0878V66.9837L50.1903 52.4672V25.5713ZM48.2336 51.3249L27 63.5841V41.2137L48.2336 28.9545V51.3249Z" fill="#F0F0F0"/>
<path d="M48.2351 51.3255L47.2021 50.7079V29.5618L48.2351 28.9551V51.3255Z" fill="#E0E0E0"/>
<path d="M50.1854 25.5719L49.136 24.9707L24 39.4872L25.0494 40.0884L50.1854 25.5719Z" fill="#FAFAFA"/>
<path d="M24 39.4863L25.0494 40.0875V66.9671L24 66.3658V39.4863Z" fill="#E0E0E0"/>
<path d="M46.415 50.0729L27.7939 60.8236V55.451L32.4451 44.7002L35.3473 47.3893L34.3034 51.8929L40.7363 38.1416L46.415 44.7002V50.0729Z" fill="#F0F0F0"/>
<path d="M35.1722 39.5084C34.7716 39.7695 34.4382 40.1213 34.1989 40.5354C33.9596 40.9494 33.8212 41.4139 33.7949 41.8914C33.7949 42.7713 34.4125 43.1266 35.1722 42.6894C35.5736 42.4277 35.9075 42.075 36.1468 41.66C36.3861 41.245 36.5241 40.7793 36.5496 40.3009C36.5496 39.4264 35.9319 39.0712 35.1722 39.5084Z" fill="#F0F0F0"/>
<path d="M25.9678 98.2533L27.0008 98.871L48.2344 86.6117L47.2014 85.9941L25.9678 98.2533Z" fill="#FAFAFA"/>
<path d="M47.2026 85.9952L27.002 97.6532V76.5016L47.2026 64.8545V85.9952Z" fill="white"/>
<path d="M50.1923 60.8643L25.0508 75.3753V102.255L50.1923 87.7383V60.8643ZM48.2356 86.6124L27.002 98.8716V76.5012L48.2356 64.2474V86.6124Z" fill="#F0F0F0"/>
<path d="M48.2351 86.6136L47.2021 85.996V64.8553L48.2351 64.2432V86.6136Z" fill="#E0E0E0"/>
<path d="M50.1854 60.8649L49.136 60.2637L24 74.7747L25.0494 75.3759L50.1854 60.8649Z" fill="#FAFAFA"/>
<path d="M24 74.7744L25.0494 75.3756V102.255L24 101.654V74.7744Z" fill="#E0E0E0"/>
<path d="M46.415 85.3684L27.7939 96.1191V90.741L32.4451 79.9903L35.3473 82.6793L34.3034 87.1829L40.7363 73.4316L46.415 79.9903V85.3684Z" fill="#F0F0F0"/>
<path d="M35.1713 74.7983C34.7705 75.0606 34.4371 75.4134 34.1979 75.8283C33.9586 76.2432 33.8203 76.7085 33.7939 77.1868C33.7939 78.0612 34.4116 78.4165 35.1713 77.9793C35.5719 77.7181 35.9053 77.3663 36.1446 76.9523C36.3839 76.5383 36.5223 76.0737 36.5486 75.5963C36.5486 74.7163 35.931 74.3611 35.1713 74.7983Z" fill="#F0F0F0"/>
<path d="M192.234 102.563L265.811 145.042V74.1098L192.234 31.6426V102.563Z" fill="white"/>
<path d="M267.259 145.878L265.816 146.741L190.791 103.427L192.234 102.563L267.259 145.878Z" fill="#FAFAFA"/>
<path d="M188.07 104.995L268.539 151.452V72.5352L188.07 26.0781V104.995ZM190.803 30.7949L265.812 74.0874V146.741L190.792 103.426L190.803 30.7949Z" fill="#F0F0F0"/>
<path d="M190.791 103.426L192.234 102.563V31.6421L190.791 30.7949V103.426Z" fill="#E0E0E0"/>
<path d="M188.07 26.0784L189.535 25.2422L269.999 71.6993L268.534 72.541L188.07 26.0784Z" fill="#FAFAFA"/>
<path d="M269.999 71.6992L268.534 72.5409V151.452L269.999 150.616V71.6992Z" fill="#E0E0E0"/>
<path d="M264.614 89.9047V91.5936L190.791 48.9186L192.234 48.0605L264.614 89.9047Z" fill="#FAFAFA"/>
<path d="M230.625 53.7993L229.16 52.9521V125.589L230.625 124.747V53.7993Z" fill="#E0E0E0"/>
<path d="M226.438 51.3887L229.159 52.9518V125.589L226.438 124.009V51.3887Z" fill="#F0F0F0"/>
<path d="M190.791 48.918V52.0552L265.844 95.5499V92.4127L190.791 48.918Z" fill="#F0F0F0"/>
<path d="M229.16 71.1518L230.625 70.25L265.818 90.5927V92.4128L229.16 71.1518Z" fill="#FAFAFA"/>
<path d="M42.1074 225.22V238.015L123.276 284.931V272.141L42.1074 225.22Z" fill="#37474F"/>
<path d="M123.276 272.141L264.899 190.365V203.155L123.276 284.93V272.141Z" fill="#455A64"/>
<path d="M152.593 199.792C152.763 197.523 150.954 194.938 146.969 191.867C139.596 186.204 115.613 170.95 105.207 164.047C105.204 164.024 105.194 164.003 105.178 163.987C105.163 163.97 105.142 163.959 105.12 163.954C97.1453 158.199 95.3581 118.776 91.0184 99.9144C90.7667 98.7382 90.4529 97.576 90.0784 96.4329C90.0456 96.3455 90.0182 96.2635 89.9909 96.1815C89.9035 95.9301 89.816 95.6677 89.7176 95.4054C89.6739 95.2797 89.6302 95.143 89.581 95.0173C88.7994 92.9623 87.679 90.6941 86.1541 89.1145C85.6259 88.5408 85.023 88.0408 84.3614 87.6279C83.4596 87.0212 81.2624 85.9227 80.7924 85.5947C75.3706 81.7361 61.6138 91.5303 51.9016 95.8863C45.8895 98.6191 40.6262 101.969 37.0626 108.758C35.3519 112.01 34.0293 116.06 33.1766 121.181C31.5698 130.817 31.8868 163.173 32.7394 177.383C33.7177 201.082 37.2157 201.404 41.9871 205.738C50.1854 213.193 74.2993 228.447 82.3446 232.377C96.9267 239.482 109.344 231.65 118.477 226.955C131.649 220.189 143.75 212.636 147.838 209.947C150.216 208.389 152.129 205.935 152.243 204.159C152.282 203.415 152.533 200.535 152.593 199.792Z" fill="#263238"/>
<path d="M119.04 222.202C131.021 215.753 144.635 207.915 148.718 204.641C153.768 200.591 154.069 197.35 146.975 191.901C137.137 184.331 99.4901 160.294 99.4901 160.294C99.4901 160.294 52.47 182.927 41.3313 192.819C39.6479 194.317 39.5768 197.487 40.1671 198.219C46.2721 205.871 73.4632 223.47 82.689 227.974C97.2711 235.101 110 227.039 119.04 222.202Z" fill="#455A64"/>
<path d="M84.3554 87.6289L84.2024 87.5414C82.9923 86.7776 81.6039 86.3424 80.1743 86.2789C75.2553 85.8854 67.4669 89.3286 55.8144 96.8602C52.4913 99.0026 48.8513 101.522 45.8234 104.512L45.643 104.681C44.7169 105.566 43.8634 106.524 43.0906 107.545C42.9594 107.709 42.8337 107.879 42.708 108.054C42.5823 108.228 42.5604 108.245 42.5003 108.343C42.3363 108.573 42.1778 108.802 42.0248 109.043C41.7187 109.513 41.4181 110.01 41.1285 110.519C41.0935 110.569 41.0624 110.622 41.0356 110.677L40.7022 111.3H40.6748L37.0566 108.791C40.6202 101.96 46.0966 98.4834 51.7152 95.0237C61.4275 89.0663 72.2547 81.3216 79.1413 84.6392C79.6878 84.918 83.4536 87.0222 84.3554 87.6289Z" fill="#455A64"/>
<path d="M91.0177 99.9157C90.3946 97.4344 88.2139 86.7055 80.1686 86.2792C75.2496 85.8857 67.4612 89.3345 55.8142 96.855C50.3923 100.358 44.1343 104.851 41.0572 110.656C36.488 117.865 35.7775 137.874 36.0453 157.113C36.3131 176.351 37.5593 194.825 40.1609 198.235C44.741 185.402 98.8116 160.14 105.141 163.955C97.1446 158.2 95.3573 118.777 91.0177 99.9157Z" fill="#37474F"/>
<path d="M51.5044 157.984C48.5257 169.79 48.7716 181.027 50.0123 186.077C51.5208 192.259 55.2756 199.829 67.0648 206.77C83.8331 216.635 95.4856 223.166 95.4856 223.166L151.015 186.979L114.118 161.679L51.5044 157.984Z" fill="#FFA800"/>
<path opacity="0.1" d="M51.5044 157.984C48.5257 169.79 48.7716 181.027 50.0123 186.077C51.5208 192.259 55.2756 199.829 67.0648 206.77C83.8331 216.635 95.4856 223.166 95.4856 223.166L151.015 186.979L114.118 161.679L51.5044 157.984Z" fill="black"/>
<path opacity="0.35" d="M68.5026 195.537C68.049 195.046 67.6172 194.559 67.1964 194.067C71.3775 192.974 73.8425 187.765 73.3232 181.895C73.0226 178.529 72.6838 174.714 73.1374 171.107L72.405 171.014C71.9404 174.703 72.2848 178.561 72.5854 181.945C73.1319 187.858 70.6123 192.646 66.6553 193.422C58.6428 183.83 59.8889 174.512 63.7913 162.138L63.0863 161.919C58.8122 175.479 58.1673 185.421 67.9615 196.029C74.4054 202.992 91.9716 212.502 102.252 218.843L102.941 218.4C92.7095 212.098 74.9574 202.528 68.5026 195.537Z" fill="black"/>
<path opacity="0.35" d="M113.331 175.658C111.096 182.856 106.444 186.289 106.444 186.289C115.145 192.623 122.294 198.504 127.263 202.827L133.346 198.925L111.97 184.578C114.462 179.479 113.331 175.658 113.331 175.658Z" fill="black"/>
<path d="M123.276 267.293L38.8496 218.507L183.178 135.18L267.599 183.965L123.276 267.293Z" fill="#FFA800"/>
<path opacity="0.8" d="M123.276 267.293L38.8496 218.507L183.178 135.18L267.599 183.965L123.276 267.293Z" fill="white"/>
<path d="M38.8496 218.508V225.291L123.276 274.076V267.293L38.8496 218.508Z" fill="#FFA800"/>
<path opacity="0.5" d="M38.8496 218.508V225.291L123.276 274.076V267.293L38.8496 218.508Z" fill="white"/>
<path d="M123.273 274.075L267.602 190.748L267.596 183.965L123.273 267.292V274.075Z" fill="#FFA800"/>
<path opacity="0.65" d="M123.273 267.292L267.596 183.965L267.602 190.748L123.273 274.075V267.292Z" fill="white"/>
<path d="M115.866 89.6465C124.146 90.2477 132.875 102.961 144.112 118.51C151.856 129.233 158.186 154.976 158.186 154.976C158.186 154.976 151.589 157.998 138.952 145.297C126.442 132.726 110.739 115.498 110.739 115.498L115.866 89.6465Z" fill="#9A4A4D"/>
<path d="M105.973 86.607C112.679 85.9621 121.413 89.1212 126.66 95.0732C131.907 101.025 144.111 118.16 144.111 118.16C144.111 118.16 142.881 122.581 138.372 128.544C133.863 134.507 129.048 135.649 129.048 135.649L109.82 115.323L105.973 86.607Z" fill="#FFA800"/>
<path opacity="0.5" d="M105.973 86.607C112.679 85.9621 121.413 89.1212 126.66 95.0732C131.907 101.025 144.111 118.16 144.111 118.16C144.111 118.16 142.881 122.581 138.372 128.544C133.863 134.507 129.048 135.649 129.048 135.649L109.82 115.323L105.973 86.607Z" fill="white"/>
<path d="M119.231 90.9132C114.312 88.8855 109.781 86.2839 103.332 86.6064C96.8827 86.9289 82.2077 92.2468 74.2608 96.0017C67.888 100.56 60.7664 103.107 54.6669 127.243C51.628 139.267 47.6054 171.514 48.3651 180.286C56.6126 186.462 69.3692 187.555 81.0217 185.106C102.233 180.646 115.154 167.786 115.859 162.883C115.312 158.926 117.767 146.285 120.718 136.742C124.145 125.685 126.003 119.329 126.91 111.349C127.686 104.337 127.205 94.1871 119.231 90.9132Z" fill="#F0F0F0"/>
<path d="M136.431 87.1536C136.431 87.1536 135.836 86.8748 135.644 85.6396C135.453 84.4044 135.546 83.5409 135.355 82.1581C135.163 80.7753 134.524 78.4852 133.218 78.2612C131.911 78.0371 131.316 80.9611 131.31 83.3222C131.305 85.6834 131.31 87.0825 129.741 89.7661C128.173 92.4497 127.643 95.8875 129.348 98.8553L136.431 87.1536Z" fill="#9A4A4D"/>
<path d="M138.071 126.849C139.886 136.25 140.05 138.436 141.077 141.994C142.105 145.552 143.307 147.487 145.772 149.712C148.117 151.971 150.936 153.677 154.025 154.707C155 155.119 156.056 155.306 157.113 155.254C159.742 154.953 160.742 152.625 161.36 149.909C162.617 144.443 162.557 139.732 161.125 135.081C160.447 132.894 160.032 131.911 157.332 126.336C155.145 121.799 153.342 118.553 150.456 111.912C147.838 105.9 145.564 100.046 144.897 96.5649C144.231 93.0833 144.209 90.6949 144.744 88.7492C145.564 85.7814 146.04 85.8743 145.018 82.3927C144.263 80.0972 144.291 77.1896 144.012 75.3531C143.69 73.5505 143.12 71.8013 142.318 70.1554C141.509 68.3408 140.869 65.9579 140.192 65.7283C139.514 65.4988 138.404 66.2749 138.486 67.7014C138.486 67.7014 137.585 66.652 136.814 65.5589C136.043 64.4658 135.508 63.0885 134.447 62.8644C133.387 62.6403 132.912 64.2909 133.311 65.4332C133.71 66.5755 134.01 67.2204 134.01 67.2204C134.01 67.2204 132.988 67.7014 133.939 69.7455C134.34 70.5713 134.847 71.3412 135.448 72.0356C135.825 73.6096 135.907 74.3912 136.726 75.6756C137.213 77.1622 137.492 78.4084 138.208 79.6326C137.863 80.7258 136.994 82.0375 137.049 83.9231C137.104 85.8087 137.426 86.2459 135.262 88.5524C133.802 90.1046 131.294 91.8973 129.938 94.0179C128.583 96.1386 128.484 97.8438 129.731 100.194C130.791 102.205 133.01 103.643 134.158 107.731C135.038 110.945 135.836 115.323 138.071 126.849Z" fill="#B16668"/>
<path d="M138.47 67.6738C138.614 68.3148 138.814 68.942 139.066 69.5485C139.312 70.1497 139.613 70.7509 139.88 71.3139L139.924 71.4013V71.527C139.885 71.8718 139.869 72.2186 139.875 72.5655C139.887 72.9174 139.924 73.268 139.984 73.6149C140.099 74.3084 140.326 74.9785 140.657 75.5989L140.739 75.7519L140.678 75.8831C140.567 76.1266 140.476 76.3789 140.405 76.6373C140.325 76.9027 140.261 77.1729 140.214 77.4462C140.165 77.7209 140.132 77.9983 140.115 78.277C140.099 78.5628 140.099 78.8493 140.115 79.1351C139.907 78.5849 139.797 78.0019 139.793 77.4134C139.79 77.1152 139.812 76.8172 139.859 76.5225C139.905 76.222 139.976 75.9258 140.072 75.6371V75.9213C139.637 75.2594 139.343 74.5153 139.208 73.7351C139.135 73.3514 139.101 72.9615 139.104 72.571C139.102 72.1743 139.142 71.7784 139.225 71.3904V71.6036C138.965 70.9819 138.762 70.338 138.618 69.6797C138.463 69.0231 138.413 68.346 138.47 67.6738Z" fill="#9A4A4D"/>
<path d="M133.992 67.1943C134.209 67.5111 134.456 67.8058 134.73 68.0743C134.999 68.3259 135.286 68.5579 135.588 68.7684L135.648 68.8121L135.681 68.916C135.903 69.667 136.227 70.3842 136.643 71.0475C137.042 71.7064 137.561 72.2847 138.173 72.7528L138.365 72.9004L138.315 73.1354C138.239 73.5555 138.202 73.9819 138.206 74.4088C138.208 74.8529 138.237 75.2965 138.294 75.737C138.365 76.1797 138.441 76.6224 138.556 77.0651C138.671 77.5078 138.813 77.9396 138.949 78.3878C138.679 78.0032 138.443 77.5953 138.244 77.1689C137.836 76.3107 137.592 75.384 137.523 74.4362C137.48 73.9472 137.502 73.4546 137.589 72.9714L137.736 73.3485C137.375 73.0959 137.049 72.7984 136.763 72.4631C136.478 72.1372 136.229 71.7817 136.02 71.4028C135.813 71.0305 135.64 70.641 135.501 70.2386C135.363 69.8372 135.264 69.4236 135.206 69.0034L135.298 69.1455C135.002 68.8813 134.741 68.5801 134.522 68.2492C134.291 67.9278 134.112 67.5718 133.992 67.1943Z" fill="#9A4A4D"/>
<path d="M138.809 82.126C138.808 82.9738 138.606 83.8092 138.219 84.5636C137.84 85.3196 137.341 86.0098 136.743 86.6077C136.913 86.2197 137.12 85.8589 137.29 85.5146C137.459 85.1703 137.678 84.7932 137.836 84.4215C138.213 83.6795 138.538 82.9125 138.809 82.126Z" fill="#9A4A4D"/>
<path d="M131.688 91.7295C131.219 93.1551 131.07 94.6667 131.251 96.1566C131.356 96.8841 131.56 97.5939 131.857 98.2663C132.176 98.9606 132.541 99.6326 132.951 100.278C132.295 99.8078 131.737 99.2135 131.311 98.5286C130.666 97.4952 130.355 96.2885 130.419 95.0722C130.484 93.8559 130.921 92.6889 131.672 91.7295H131.688Z" fill="#9A4A4D"/>
<path d="M93.5227 83.2616C93.7741 78.1021 89.9646 71.8168 88.6911 66.9852C87.4668 62.3286 86.8984 58.7869 88.0134 54.9228C88.6693 52.6218 90.8336 49.7906 92.7083 49.5064C92.6154 40.4118 99.9993 37.8211 103.639 37.761C105.333 37.7828 107.025 37.6896 108.706 37.4822C110.755 37.1106 111.51 35.7005 113.308 34.7495C116.396 33.1098 120.796 34.028 121.725 37.7391C123.955 35.8808 126.289 36.4602 128.83 37.7391C129.916 38.2521 130.767 39.1579 131.211 40.2737C131.655 41.3894 131.66 42.6322 131.224 43.7512C135.307 42.5215 138.072 45.8172 137.936 48.0253C137.832 49.6649 137.203 50.9111 137.936 52.5507C138.745 54.3926 140.947 54.8517 141.898 53.7149C141.778 56.0323 140.526 57.5408 138.127 56.8849C138.402 57.5977 138.517 58.3621 138.464 59.1243C138.411 59.8864 138.192 60.6276 137.821 61.2956C137.332 62.132 136.598 62.7984 135.718 63.205C134.839 63.6115 133.856 63.7386 132.902 63.5693C132.355 64.7444 132.071 65.8539 131.065 66.7447C130.115 67.6633 128.956 68.3384 127.688 68.7123C123.627 69.6524 119.44 69.3245 115.303 69.2589L110.384 69.1933C110.1 69.1933 108.662 68.9637 108.438 69.1933L93.5227 83.2616Z" fill="#263238"/>
<path d="M88.9088 75.5007C91.9476 78.3592 94.817 76.5938 94.817 76.5938L91.4721 90.7277C93.3796 99.7841 104.748 109.644 111.121 111.847C112.367 108.114 111.984 99.2048 111.525 95.0838L112.416 92.4658C114.385 92.9448 116.382 93.3025 118.395 93.537C122.418 93.8595 126.047 91.3508 128.097 87.3664C130.234 83.2072 132.059 76.2277 132.267 70.7239C132.303 69.3172 132.536 67.9225 132.961 66.581C134.136 63.0338 133.945 60.7766 133.682 57.5246C130.152 53.1194 120.483 49.7526 109.978 53.338C109.836 59.0823 106.732 62.9792 102.261 64.1925C102.119 65.7229 101.474 69.5214 99.0419 68.9148C97.2929 68.4721 97.6645 66.2367 96.3091 63.8919C94.9536 61.5472 90.8436 60.0934 88.5535 62.6021C85.3616 66.1164 85.6021 72.3635 88.9088 75.5007Z" fill="#B16668"/>
<path d="M118.395 93.5378C120.175 93.6026 121.935 93.1365 123.45 92.1988C124.947 91.2724 126.207 90.009 127.128 88.5095C128.022 86.9881 128.754 85.3781 129.315 83.7053C129.897 82.0299 130.388 80.324 130.785 78.595C131.202 76.871 131.521 75.1247 131.741 73.3645C131.856 72.49 131.916 71.6046 131.965 70.7192C131.999 69.8128 132.113 68.9112 132.304 68.0247C132.485 67.1283 132.851 66.2812 133.07 65.4395C133.322 64.5942 133.505 63.7295 133.616 62.8543C133.793 61.0832 133.811 59.2998 133.671 57.5254C133.94 59.299 134.03 61.0954 133.939 62.8871C133.861 63.7878 133.705 64.6802 133.474 65.5543C133.25 66.4342 132.927 67.2595 132.802 68.1231C132.654 68.9887 132.567 69.8634 132.539 70.7411C132.501 71.6429 132.446 72.5447 132.337 73.4356C132.14 75.2231 131.835 76.9972 131.424 78.7481C131.003 80.5008 130.485 82.2287 129.872 83.9239C129.285 85.6363 128.5 87.2742 127.533 88.8047C126.523 90.3255 125.172 91.5889 123.587 92.4939C122.004 93.3672 120.191 93.7317 118.395 93.5378Z" fill="#9A4A4D"/>
<path d="M125.784 76.9435L119.663 78.0858L120.035 65.5752C122.221 67.1055 124.26 71.8059 125.784 76.9435Z" fill="#9A4A4D"/>
<path d="M116.558 81.4529L116.46 81.289C116.264 80.9779 116.016 80.7026 115.727 80.4746C115.468 80.2641 115.179 80.0929 114.869 79.9663C114.371 79.778 113.844 79.6728 113.312 79.6548C112.884 79.6275 112.457 79.7044 112.066 79.8789C111.988 79.91 111.917 79.9565 111.858 80.0155C111.83 80.0458 111.81 80.0829 111.8 80.1231C111.791 80.1633 111.792 80.2053 111.803 80.2451C111.847 80.3653 111.995 80.4036 112.12 80.4254C112.797 80.5471 113.461 80.73 114.104 80.972C114.712 81.1604 115.272 81.4794 115.744 81.9066C115.984 82.1416 116.198 82.3985 116.433 82.639C116.515 82.7264 116.635 82.9068 116.766 82.8576C116.897 82.8084 116.881 82.5843 116.875 82.4805C116.844 82.1193 116.736 81.7689 116.558 81.4529Z" fill="#9A4A4D"/>
<path d="M112.418 92.4923C106.406 90.399 101.836 88.6664 99.6011 83.4905C98.2019 80.2112 97.4914 75.3359 97.4914 75.3359C97.4914 75.3359 96.9175 80.9545 98.1199 85.1138C99.0436 88.3166 102.17 91.6724 111.691 94.6348L112.418 92.4923Z" fill="#9A4A4D"/>
<path d="M114.888 70.2258C114.606 70.3665 114.306 70.4676 113.997 70.5264C113.654 70.5983 113.302 70.6185 112.953 70.5866C112.62 70.5397 112.293 70.4535 111.98 70.3297C111.803 70.2667 111.632 70.1899 111.467 70.1001C111.322 70.0053 111.192 69.8913 111.078 69.7613C111.013 69.6902 110.986 69.8487 111.007 69.887C111.207 70.2109 111.48 70.4841 111.803 70.6852C112.127 70.8862 112.492 71.0096 112.871 71.0457C113.278 71.1391 113.703 71.1221 114.101 70.9965C114.445 70.8494 114.729 70.5891 114.904 70.2586C114.904 70.2586 114.915 70.2094 114.888 70.2258Z" fill="#9A4A4D"/>
<path d="M129.256 71.8999C129.174 71.9273 129.09 71.9438 129.004 71.9491C128.921 71.9659 128.839 71.9878 128.758 72.0147C128.617 72.0602 128.473 72.0949 128.326 72.1186C128.01 72.1651 127.688 72.154 127.375 72.0858C127.008 72.0185 126.652 71.897 126.321 71.725C126.034 71.5471 125.76 71.3499 125.501 71.1348C125.457 71.1348 125.435 71.1949 125.446 71.2277C125.752 71.971 126.676 72.4082 127.425 72.5449C127.786 72.6132 128.157 72.6132 128.518 72.5449C128.679 72.5247 128.834 72.4687 128.971 72.3809C129.135 72.2661 129.174 72.1186 129.283 71.9601C129.294 71.9546 129.327 71.8617 129.256 71.8999Z" fill="#9A4A4D"/>
<path d="M118.172 60.8031C118.019 60.5517 117.786 60.3591 117.511 60.2566C117.3 60.1682 117.07 60.138 116.844 60.1691C116.767 60.1691 116.729 60.1691 116.696 60.2675C116.688 60.2961 116.69 60.3265 116.701 60.3541C116.712 60.3817 116.731 60.405 116.757 60.4205C116.799 60.4572 116.853 60.4783 116.91 60.4807L117.134 60.5353C117.255 60.5632 117.372 60.6054 117.483 60.661C117.527 60.6852 117.567 60.7145 117.604 60.7485C117.624 60.7599 117.643 60.7747 117.658 60.7922L117.686 60.825C117.7 60.8423 117.712 60.8605 117.724 60.8796V60.9124C117.746 60.95 117.762 60.9905 117.773 61.0327C117.773 60.9999 117.773 61.0327 117.773 61.06C117.773 61.0873 117.773 61.1037 117.773 61.1256V61.1748C117.77 61.202 117.77 61.2295 117.773 61.2568V61.3224L117.708 61.4809C117.671 61.5709 117.629 61.6585 117.582 61.7432C117.568 61.7729 117.557 61.8041 117.549 61.8361C117.549 61.8361 117.549 61.9017 117.549 61.9126C117.549 61.9236 117.5 62.0383 117.489 62.1094C117.478 62.1804 117.538 62.3444 117.647 62.3225C117.723 62.298 117.795 62.2631 117.861 62.2187C117.921 62.1906 117.978 62.1558 118.03 62.1149L118.123 62.0165C118.168 61.9618 118.204 61.9011 118.232 61.8361C118.265 61.7815 118.291 61.7227 118.309 61.6612C118.377 61.3683 118.328 61.0604 118.172 60.8031Z" fill="#9A4A4D"/>
<path d="M115.898 67.4207C115.761 66.4369 114.805 68.0329 113.608 68.2023C112.411 68.3717 111.329 67.0491 111.46 68.0274C111.591 69.0057 112.695 69.6671 113.925 69.5031C115.155 69.3391 116.035 68.4045 115.898 67.4207Z" fill="#263238"/>
<path d="M129.49 70.1893C129.9 69.2875 128.354 70.1893 127.304 69.7193C126.255 69.2492 126.167 67.6096 125.757 68.5114C125.609 68.9886 125.64 69.5036 125.845 69.9596C126.05 70.4155 126.414 70.7809 126.869 70.987C127.324 71.1932 127.839 71.2259 128.317 71.079C128.795 70.9321 129.202 70.6157 129.463 70.1893H129.49Z" fill="#263238"/>
<path d="M126.704 62.0615L129.71 65.2534C129.511 65.457 129.272 65.618 129.009 65.7267C128.745 65.8355 128.462 65.8897 128.177 65.8861C127.892 65.8825 127.611 65.8212 127.35 65.7059C127.09 65.5906 126.855 65.4236 126.661 65.2151C126.261 64.7846 126.043 64.2168 126.051 63.6296C126.059 63.0423 126.293 62.4808 126.704 62.0615Z" fill="#263238"/>
<path d="M115.508 61.0234L111.289 62.3953C111.367 62.6737 111.501 62.9333 111.683 63.1585C111.864 63.3838 112.09 63.5699 112.345 63.7058C112.6 63.8416 112.881 63.9243 113.169 63.949C113.457 63.9736 113.747 63.9396 114.022 63.8491C114.585 63.6597 115.054 63.2603 115.331 62.7341C115.608 62.2079 115.672 61.5952 115.508 61.0234Z" fill="#263238"/>
<path d="M118.395 81.2782C117.39 81.7318 117.111 80.5676 115.663 79.6877C114.214 78.8077 112.93 79.2887 113.061 78.1573C113.143 77.2118 114.843 75.7907 117.341 77.0642C119.439 78.1683 119.27 80.8792 118.395 81.2782Z" fill="#B16668"/>
<path opacity="0.2" d="M211.922 186.906L174.019 165.044C173.687 164.852 173.31 164.751 172.926 164.751C172.542 164.751 172.165 164.852 171.833 165.044L106.082 202.997C106.009 203.039 105.947 203.101 105.905 203.175C105.862 203.248 105.84 203.332 105.84 203.417C105.84 203.503 105.862 203.586 105.905 203.66C105.947 203.734 106.009 203.796 106.082 203.838L144.341 225.93L211.922 186.906Z" fill="#FFA800"/>
<path d="M209.091 182.303V183.155C209.091 183.77 208.93 184.374 208.623 184.906C208.316 185.439 207.874 185.881 207.342 186.189L146.09 221.545C145.557 221.852 144.953 222.013 144.338 222.013C143.724 222.013 143.12 221.852 142.587 221.545L109.198 202.334C108.668 202.024 108.228 201.581 107.922 201.049C107.616 200.517 107.455 199.914 107.454 199.301V198.12C107.454 198.199 107.474 198.276 107.513 198.344C107.553 198.413 107.61 198.469 107.678 198.508L144.341 219.682L209.091 182.303Z" fill="#37474F"/>
<path d="M209.125 182.304L172.779 161.328C172.461 161.145 172.101 161.049 171.735 161.049C171.369 161.049 171.009 161.145 170.691 161.328L107.684 197.712C107.614 197.753 107.556 197.811 107.515 197.882C107.474 197.952 107.453 198.032 107.453 198.113C107.453 198.195 107.474 198.275 107.515 198.345C107.556 198.416 107.614 198.474 107.684 198.515L144.342 219.683L209.125 182.304Z" fill="#455A64"/>
<path d="M144.006 216.6L124.418 205.302L181.697 172.23L201.389 183.468L144.006 216.6Z" fill="#37474F"/>
<path d="M201.391 183.468L200.642 183.899L181.698 173.094L125.174 205.734L124.425 205.302L181.698 172.23L201.391 183.468Z" fill="#263238"/>
<path d="M134.383 185.174L134.744 185.382L144.341 190.924L161.415 181.064L161.776 180.862L151.812 175.112L134.383 185.174Z" fill="#263238"/>
<path d="M134.742 185.381L144.34 190.923L161.414 181.064L151.811 175.521L134.742 185.381Z" fill="#37474F"/>
<path d="M144.341 219.682V222.01C144.954 222.011 145.557 221.85 146.09 221.545L207.342 186.183C207.875 185.875 208.318 185.432 208.626 184.899C208.934 184.365 209.097 183.76 209.097 183.144V182.303L144.341 219.682Z" fill="#263238"/>
<path d="M62.5217 159.01C59.8272 137.662 58.4225 125.408 59.1112 113.947C59.4883 107.661 68.1129 99.7365 74.0813 97.3262C82.8699 102.109 83.881 116.718 84.5095 126.009L86.8597 157.502C86.8597 157.502 94.905 162.896 102.939 167.411C109.728 171.237 113.87 174.062 117.199 174.341C124.643 174.959 130.365 174.341 134.41 175.554C136.558 176.194 141.466 177.686 143.155 178.287C144.844 178.888 148.041 181.43 150.91 183.048C153.643 184.72 150.67 186.196 148.675 185.868C146.073 185.436 144.384 184.523 142.548 183.764C140.81 183.048 139.127 182.9 137.35 182.468C138.125 184.294 138.715 186.193 139.11 188.136C139.247 189.191 139.657 190.448 138.804 191.333C138.34 191.836 137.29 192.224 136.7 192.519C136.73 192.909 136.619 193.297 136.388 193.613C135.892 194.072 135.239 194.326 134.563 194.323C134.198 194.339 133.833 194.33 133.47 194.296C133.461 194.638 133.364 194.971 133.188 195.265C133.011 195.558 132.762 195.8 132.464 195.968C131.056 196.604 129.501 196.845 127.966 196.668C127.736 196.608 125.944 195.908 125.419 195.711C124.665 195.422 123.998 195.29 123.632 194.864C123.266 194.438 124.075 192.962 124.927 192.722C125.878 192.511 126.856 192.456 127.824 192.558C127.339 191.821 126.953 191.023 126.676 190.186C125.742 189.021 120.249 190.989 115.122 190.732C111.252 190.541 106.639 186.442 104.847 185.884C93.3364 182.293 83.7225 179.954 71.6983 175.112C63.7405 171.92 63.9646 170.422 62.5217 159.01Z" fill="#B16668"/>
<path d="M138.377 182.714C137.623 181.359 136.519 179.763 135.382 179.495C136.103 180.129 137.114 182.004 137.355 182.496C137.699 182.583 138.038 182.649 138.377 182.714Z" fill="#9A4A4D"/>
<path d="M136.703 192.547C136.75 191.494 136.658 190.439 136.43 189.41C136.224 188.38 135.963 187.362 135.649 186.36C135.357 185.342 134.95 184.361 134.435 183.436C133.933 182.49 133.176 181.704 132.249 181.168C132.649 181.493 132.989 181.885 133.255 182.327C133.545 182.747 133.799 183.192 134.014 183.655C134.432 184.592 134.783 185.559 135.064 186.546C135.381 187.53 135.67 188.525 135.966 189.514C136.272 190.509 136.518 191.522 136.703 192.547Z" fill="#9A4A4D"/>
<path d="M133.474 194.33C133.457 193.297 133.333 192.27 133.102 191.264C132.886 190.255 132.608 189.26 132.271 188.285C131.945 187.306 131.547 186.352 131.08 185.432C130.588 184.541 130.102 183.541 129.194 182.994C129.552 183.351 129.84 183.772 130.041 184.235C130.266 184.688 130.473 185.153 130.654 185.623C131.025 186.563 131.381 187.52 131.703 188.482C132.359 190.384 132.987 192.313 133.474 194.33Z" fill="#9A4A4D"/>
<path d="M124.953 192.732C125.38 192.68 125.811 192.68 126.238 192.732C126.658 192.781 126.975 192.951 127.506 193.055L127.26 192.743C127.261 192.954 127.316 193.16 127.418 193.344C127.505 193.51 127.622 193.658 127.762 193.782C128.022 194.019 128.345 194.179 128.692 194.241C128.463 194.02 128.258 193.777 128.079 193.514C128.008 193.393 127.949 193.265 127.905 193.131C127.867 193.018 127.847 192.9 127.844 192.781V192.546L127.588 192.475C127.188 192.372 126.775 192.335 126.363 192.366C125.868 192.35 125.378 192.477 124.953 192.732Z" fill="#9A4A4D"/>
<path d="M74.2602 96.0039C65.1109 99.4035 58.3227 106.099 58.0276 115.592C57.727 125.43 60.7931 151.485 60.7931 151.485C60.7931 151.485 65.9253 154.627 74.3258 153.419C84.6775 151.927 86.8583 147.834 86.8583 147.834C86.8583 147.834 85.3389 131.902 85.1804 125.709C84.929 116.09 83.8905 99.7041 74.2602 96.0039Z" fill="#FFA800"/>
<path opacity="0.5" d="M74.2602 96.0039C65.1109 99.4035 58.3227 106.099 58.0276 115.592C57.727 125.43 60.7931 151.485 60.7931 151.485C60.7931 151.485 65.9253 154.627 74.3258 153.419C84.6775 151.927 86.8583 147.834 86.8583 147.834C86.8583 147.834 85.3389 131.902 85.1804 125.709C84.929 116.09 83.8905 99.7041 74.2602 96.0039Z" fill="white"/>
<path d="M145.329 220.199C145.907 220.424 146.529 220.516 147.147 220.469C147.766 220.422 148.366 220.236 148.904 219.925L209.888 184.716C210.417 184.411 210.873 183.993 211.221 183.491C211.57 182.989 211.803 182.417 211.905 181.814L218.578 142.003C218.691 141.349 218.644 140.677 218.44 140.045C218.237 139.412 217.883 138.839 217.409 138.374L154.008 174.966C153.617 175.192 153.281 175.502 153.023 175.873C152.765 176.245 152.592 176.668 152.516 177.114L145.329 220.199Z" fill="#37474F"/>
<path d="M144.34 219.682L144.761 219.923C144.936 220.027 145.119 220.118 145.307 220.196L152.522 177.111C152.597 176.666 152.77 176.242 153.028 175.871C153.286 175.5 153.623 175.19 154.014 174.963L217.414 138.371C217.16 138.121 216.876 137.905 216.567 137.727L153.063 174.389C152.672 174.616 152.335 174.926 152.077 175.297C151.819 175.668 151.646 176.092 151.571 176.537L144.34 219.682Z" fill="#455A64"/>
<path d="M153.134 175.778L152.15 175.231C151.853 175.621 151.655 176.077 151.571 176.56L144.34 219.705L144.761 219.945C144.936 220.049 145.119 220.141 145.307 220.218L152.522 177.133C152.613 176.639 152.823 176.173 153.134 175.778Z" fill="#263238"/>
<path d="M179.674 183.447C180.122 180.78 182.877 177.239 185.823 175.539C188.769 173.839 190.797 174.621 190.348 177.282C189.9 179.944 187.151 183.491 184.205 185.191C181.259 186.891 179.226 186.131 179.674 183.447Z" fill="#FFA800"/>
<path opacity="0.2" d="M232.356 178.725C236.8 176.402 243.921 176.348 248.256 178.6C252.59 180.851 252.628 184.562 248.321 186.885C244.014 189.208 236.904 189.268 232.422 187.017C227.94 184.765 227.907 181.054 232.356 178.725Z" fill="#FFA800"/>
<path d="M233.008 163.111C237.085 161.553 243.617 161.471 247.59 162.947C251.564 164.423 251.591 166.855 247.65 168.413C243.71 169.97 237.178 170.052 233.068 168.577C228.958 167.101 228.931 164.663 233.008 163.111Z" fill="#FFA800"/>
<g opacity="0.3">
<path d="M233.008 163.111C237.085 161.553 243.617 161.471 247.59 162.947C251.564 164.423 251.591 166.855 247.65 168.413C243.71 169.97 237.178 170.052 233.068 168.577C228.958 167.101 228.931 164.663 233.008 163.111Z" fill="black"/>
</g>
<path d="M229.689 158.181L250.694 157.974L249.376 182.738C249.289 183.64 248.458 184.542 246.857 185.247C243.452 186.75 237.811 186.815 234.259 185.383C232.592 184.717 231.712 183.837 231.597 182.935L229.689 158.181Z" fill="#FAFAFA"/>
<path d="M250.694 157.974L250.426 163.002C249.882 163.386 249.298 163.708 248.683 163.964C244.163 165.893 236.659 165.975 231.953 164.15C231.751 164.068 231.576 163.98 231.406 163.898C230.947 163.688 230.503 163.445 230.078 163.171L229.701 158.181L250.694 157.974Z" fill="#EBEBEB"/>
<path d="M228.372 158.93L228.328 155.148L230.777 155.121C231.132 154.932 231.497 154.763 231.87 154.612C236.543 152.678 244.036 152.596 248.6 154.426C248.953 154.57 249.297 154.733 249.633 154.913L252.01 154.886L252.054 158.668C252.054 159.903 250.961 161.149 248.682 162.111C244.162 164.046 236.658 164.128 231.952 162.297C229.569 161.384 228.383 160.16 228.372 158.93Z" fill="#FFA800"/>
<g opacity="0.2">
<path d="M228.372 158.929L228.328 155.147L230.777 155.12C231.132 154.931 231.497 154.762 231.87 154.611C236.543 152.677 244.036 152.595 248.6 154.426C248.953 154.569 249.297 154.732 249.633 154.912L252.01 154.885L252.054 158.667C252.054 159.902 250.961 161.148 248.682 162.11C244.162 164.045 236.658 164.127 231.952 162.296C229.569 161.383 228.383 160.159 228.372 158.929Z" fill="black"/>
</g>
<path d="M231.814 151.704C236.493 149.769 243.981 149.687 248.544 151.518C253.108 153.349 253.141 156.399 248.621 158.328C244.101 160.258 236.597 160.34 231.885 158.514C227.174 156.689 227.163 153.633 231.814 151.704Z" fill="#FFA800"/>
<path d="M230.492 154.213L231.219 151.086L237.231 151.015C239.212 150.753 241.218 150.731 243.205 150.95L249.037 150.89L249.835 154C250.223 155.131 249.337 156.328 247.156 157.219C243.429 158.749 237.253 158.815 233.361 157.372C231.055 156.525 230.115 155.35 230.492 154.213Z" fill="#FFA800"/>
<path opacity="0.2" d="M230.492 154.213L231.219 151.086L237.231 151.015C239.212 150.753 241.218 150.731 243.205 150.95L249.037 150.89L249.835 154C250.223 155.131 249.337 156.328 247.156 157.219C243.429 158.749 237.253 158.815 233.361 157.372C231.055 156.525 230.115 155.35 230.492 154.213Z" fill="black"/>
<path d="M233.804 149.065C237.346 147.731 243.014 147.665 246.468 148.923C249.922 150.18 249.944 152.273 246.523 153.606C243.101 154.94 237.422 155 233.853 153.749C230.284 152.497 230.257 150.393 233.804 149.065Z" fill="#FFA800"/>
<path d="M232.396 151.425C232.396 151.474 232.495 151.638 232.795 151.862C233.246 152.172 233.74 152.415 234.26 152.583C236.191 153.187 238.207 153.469 240.229 153.42C242.22 153.432 244.199 153.107 246.082 152.458C246.587 152.282 247.059 152.025 247.481 151.698C247.766 151.463 247.848 151.288 247.848 151.244C247.848 151.201 247.531 150.616 246.055 150.08C244.159 149.473 242.174 149.192 240.185 149.249C238.161 149.242 236.15 149.569 234.233 150.217C232.763 150.769 232.402 151.31 232.396 151.425Z" fill="#FFA800"/>
<g opacity="0.5">
<path d="M232.396 151.426C232.396 151.475 232.494 151.639 232.794 151.863C233.245 152.173 233.739 152.416 234.259 152.584C236.19 153.188 238.206 153.47 240.228 153.421C242.219 153.433 244.198 153.108 246.081 152.459C246.586 152.283 247.058 152.026 247.48 151.699C247.765 151.464 247.847 151.289 247.847 151.245C247.847 151.202 247.53 150.617 246.054 150.081C244.158 149.474 242.173 149.193 240.184 149.25C238.16 149.243 236.149 149.57 234.232 150.218C232.762 150.77 232.401 151.311 232.396 151.426Z" fill="black"/>
</g>
<path d="M232.792 151.864C233.243 152.173 233.736 152.416 234.257 152.585C236.187 153.188 238.203 153.471 240.225 153.421C242.217 153.434 244.196 153.108 246.079 152.459C246.583 152.284 247.056 152.027 247.478 151.7C247.046 151.386 246.569 151.141 246.062 150.973C244.167 150.366 242.182 150.085 240.192 150.142C238.178 150.137 236.176 150.464 234.268 151.109C233.741 151.285 233.243 151.539 232.792 151.864Z" fill="#FFA800"/>
<g opacity="0.2">
<path d="M232.792 151.864C233.243 152.173 233.736 152.416 234.257 152.585C236.187 153.188 238.203 153.471 240.225 153.421C242.217 153.434 244.196 153.108 246.079 152.459C246.583 152.284 247.056 152.027 247.478 151.7C247.046 151.386 246.569 151.141 246.062 150.973C244.167 150.366 242.182 150.085 240.192 150.142C238.178 150.137 236.176 150.464 234.268 151.109C233.741 151.285 233.243 151.539 232.792 151.864Z" fill="black"/>
</g>
<g opacity="0.5">
<path d="M236.358 151.903C236.152 151.768 235.921 151.676 235.678 151.633C235.436 151.59 235.187 151.596 234.948 151.651C234.691 151.799 234.904 152.159 235.429 152.449C235.633 152.588 235.864 152.682 236.107 152.725C236.35 152.769 236.599 152.76 236.839 152.701C237.096 152.548 236.877 152.192 236.358 151.903Z" fill="black"/>
</g>
<path d="M250.119 174.731C250.119 175.666 249.206 176.606 247.348 177.338C243.637 178.798 237.483 178.863 233.613 177.486C231.679 176.797 230.706 175.879 230.689 174.95L229.995 165.872C229.995 166.861 231.039 167.839 233.094 168.572C237.204 170.031 243.735 169.96 247.676 168.408C249.649 167.631 250.628 166.631 250.617 165.647L250.119 174.731Z" fill="#FFA800"/>
<g opacity="0.35">
<path d="M250.119 174.731C250.119 175.666 249.206 176.606 247.348 177.338C243.637 178.798 237.483 178.863 233.613 177.486C231.679 176.797 230.706 175.879 230.689 174.95L229.995 165.872C229.995 166.861 231.039 167.839 233.094 168.572C237.204 170.031 243.735 169.96 247.676 168.408C249.649 167.631 250.628 166.631 250.617 165.647L250.119 174.731Z" fill="white"/>
</g>
<path d="M243.685 175.345C243.985 174.845 244.251 174.327 244.483 173.792C244.99 172.827 245.826 172.075 246.839 171.672C246.906 171.644 246.981 171.642 247.05 171.666C247.119 171.69 247.176 171.739 247.211 171.803C247.757 172.847 247.435 174.323 246.38 175.405C245.325 176.487 243.877 176.82 242.822 176.339C242.762 176.312 242.745 176.192 242.822 176.164C243.161 175.95 243.454 175.672 243.685 175.345Z" fill="#37474F"/>
<path d="M246.295 171.381C245.748 171.602 245.244 171.918 244.808 172.315C244.345 172.734 243.973 173.244 243.715 173.813C243.437 174.527 242.975 175.155 242.376 175.633C242.345 175.656 242.311 175.674 242.273 175.684C242.236 175.694 242.198 175.697 242.159 175.692C242.121 175.686 242.084 175.674 242.051 175.654C242.018 175.635 241.989 175.609 241.966 175.578C241.255 174.529 241.512 172.906 242.655 171.752C243.797 170.599 245.245 170.315 246.305 170.867C246.35 170.894 246.388 170.932 246.413 170.977C246.438 171.023 246.451 171.075 246.45 171.127C246.449 171.179 246.434 171.23 246.407 171.275C246.379 171.319 246.341 171.356 246.295 171.381Z" fill="#37474F"/>
<path opacity="0.2" d="M89.8902 205.677L58.5891 223.752C58.1409 224.009 58.1409 224.424 58.5891 224.686L96.7713 246.669C97.0249 246.799 97.306 246.867 97.5911 246.867C97.8763 246.867 98.1574 246.799 98.411 246.669L129.712 228.594C129.811 228.562 129.896 228.499 129.957 228.415C130.018 228.331 130.05 228.231 130.05 228.127C130.05 228.023 130.018 227.922 129.957 227.838C129.896 227.755 129.811 227.692 129.712 227.66L91.508 205.677C91.2572 205.55 90.9801 205.484 90.6991 205.484C90.4181 205.484 90.141 205.55 89.8902 205.677Z" fill="#FFA800"/>
<path d="M88.5188 207.279L61.6393 221.43L61.0928 222.299V223.004C61.099 223.183 61.1529 223.358 61.2489 223.51C61.345 223.661 61.4797 223.785 61.6393 223.867L97.0833 244.319C97.3679 244.47 97.685 244.549 98.007 244.549C98.329 244.549 98.6462 244.47 98.9307 244.319L125.209 229.152V228.453L88.5188 207.279Z" fill="#263238"/>
<path d="M97.9851 243.847C97.6627 243.851 97.3446 243.772 97.0615 243.617L61.6393 223.165C61.4789 223.082 61.3437 222.958 61.2476 222.805C61.1514 222.652 61.098 222.477 61.0928 222.296C61.0997 222.116 61.1538 221.941 61.2497 221.789C61.3457 221.636 61.48 221.511 61.6393 221.427L87.3274 206.594L125.176 228.456L98.8979 243.623C98.6175 243.774 98.3035 243.851 97.9851 243.847Z" fill="#FFA800"/>
<path d="M87.3326 204.544L61.9342 219.208L61.6719 219.574V222.307C61.6783 222.386 61.706 222.462 61.7523 222.526C61.7985 222.591 61.8614 222.642 61.9342 222.673L97.3564 243.125C97.5509 243.225 97.7663 243.277 97.9849 243.277C98.2035 243.277 98.4189 243.225 98.6134 243.125L124.017 228.461V225.728L87.3326 204.544Z" fill="#EBEBEB"/>
<path d="M124.022 225.723L123.7 225.909L119.568 228.292L118.797 228.74L98.6183 240.387C98.4229 240.487 98.2065 240.539 97.987 240.539C97.7676 240.539 97.5512 240.487 97.3558 240.387L61.9282 219.935C61.8516 219.91 61.785 219.861 61.7377 219.796C61.6905 219.731 61.665 219.652 61.665 219.571C61.665 219.491 61.6905 219.412 61.7377 219.347C61.785 219.282 61.8516 219.233 61.9282 219.208L62.267 219.011L87.332 204.544L123.705 225.537L123.782 225.586L124.022 225.723Z" fill="#F0F0F0"/>
<path d="M97.9849 240.541V243.274C97.7655 243.28 97.5485 243.227 97.3564 243.121L61.9288 222.663C61.8573 222.631 61.7958 222.579 61.7507 222.515C61.7055 222.451 61.6783 222.376 61.6719 222.297V219.564C61.6794 219.642 61.707 219.717 61.752 219.781C61.7971 219.846 61.8579 219.897 61.9288 219.931L97.3564 240.383C97.5479 240.491 97.765 240.546 97.9849 240.541Z" fill="#E0E0E0"/>
<path d="M124.023 225.358L119.448 227.998L118.732 228.413L98.6191 240.027C98.4227 240.124 98.2067 240.175 97.9878 240.175C97.7689 240.175 97.5529 240.124 97.3565 240.027L65.6564 221.712C65.3722 221.554 65.1099 221.401 64.8584 221.248C63.847 220.702 62.9696 219.939 62.2896 219.012C62.2715 218.98 62.2515 218.949 62.2295 218.919C62.1921 218.861 62.1661 218.796 62.153 218.728C62.1396 218.657 62.1405 218.584 62.1555 218.513C62.1706 218.442 62.1996 218.375 62.2407 218.316C62.2819 218.256 62.3345 218.206 62.3954 218.167C62.4564 218.128 62.5244 218.101 62.5957 218.089C63.4266 217.848 64.2278 217.514 64.9841 217.094H65.0169L87.3327 204.168L124.023 225.358Z" fill="white"/>
<path opacity="0.1" d="M119.284 225.04C119.212 225.064 119.15 225.11 119.107 225.172C119.063 225.233 119.039 225.306 119.039 225.382C119.039 225.457 119.063 225.531 119.107 225.592C119.15 225.653 119.212 225.699 119.284 225.723C119.467 225.815 119.669 225.863 119.874 225.863C120.079 225.863 120.281 225.815 120.464 225.723C120.792 225.532 120.792 225.226 120.464 225.04C120.282 224.946 120.08 224.896 119.874 224.896C119.669 224.896 119.466 224.946 119.284 225.04Z" fill="black"/>
<path d="M123.071 222.833C122.822 222.707 122.543 222.65 122.264 222.67C121.985 222.689 121.716 222.783 121.486 222.943C120.493 223.621 119.784 224.64 119.491 225.806C119.632 225.852 119.781 225.871 119.928 225.861C120.195 224.828 120.826 223.925 121.705 223.32C121.923 223.188 122.171 223.113 122.426 223.101C122.575 223.101 122.722 223.139 122.853 223.21C123.066 223.384 123.233 223.609 123.337 223.864C123.441 224.119 123.48 224.396 123.448 224.67C123.456 224.786 123.456 224.903 123.448 225.019L123.864 225.26C123.891 225.064 123.906 224.867 123.907 224.67C123.942 224.317 123.882 223.962 123.735 223.639C123.589 223.317 123.36 223.039 123.071 222.833Z" fill="#263238"/>
<path d="M123.806 225.483C123.806 225.517 123.806 225.555 123.806 225.588L123.729 225.539L123.806 225.483Z" fill="#263238"/>
<path opacity="0.1" d="M115.737 222.991C115.666 223.016 115.604 223.061 115.56 223.123C115.516 223.184 115.492 223.258 115.492 223.333C115.492 223.408 115.516 223.482 115.56 223.543C115.604 223.604 115.666 223.65 115.737 223.674C115.919 223.766 116.12 223.814 116.325 223.814C116.529 223.814 116.73 223.766 116.912 223.674C117.24 223.483 117.24 223.177 116.912 222.991C116.731 222.897 116.529 222.848 116.325 222.848C116.12 222.848 115.918 222.897 115.737 222.991Z" fill="black"/>
<path d="M119.521 220.782C119.271 220.656 118.992 220.6 118.713 220.619C118.434 220.638 118.166 220.732 117.936 220.892C116.945 221.571 116.237 222.59 115.946 223.756C116.085 223.802 116.232 223.82 116.378 223.81C116.649 222.779 117.279 221.878 118.154 221.269C118.374 221.136 118.624 221.061 118.881 221.05C119.029 221.049 119.174 221.087 119.302 221.16C119.519 221.33 119.689 221.555 119.794 221.81C119.9 222.066 119.937 222.344 119.903 222.619C119.911 222.735 119.911 222.852 119.903 222.969L120.319 223.209C120.346 223.014 120.361 222.816 120.362 222.619C120.396 222.266 120.336 221.91 120.188 221.588C120.04 221.265 119.81 220.987 119.521 220.782Z" fill="#263238"/>
<path opacity="0.1" d="M112.185 220.942C112.114 220.966 112.052 221.012 112.008 221.073C111.964 221.134 111.94 221.208 111.94 221.283C111.94 221.359 111.964 221.432 112.008 221.493C112.052 221.555 112.114 221.601 112.185 221.625C112.368 221.717 112.571 221.764 112.776 221.764C112.98 221.764 113.183 221.717 113.366 221.625C113.694 221.433 113.694 221.127 113.366 220.942C113.183 220.847 112.981 220.798 112.776 220.798C112.57 220.798 112.368 220.847 112.185 220.942Z" fill="black"/>
<path d="M115.973 218.734C115.723 218.607 115.444 218.551 115.165 218.57C114.886 218.589 114.617 218.684 114.388 218.843C113.395 219.522 112.685 220.54 112.393 221.707C112.534 221.75 112.682 221.769 112.83 221.761C113.097 220.728 113.727 219.826 114.606 219.22C114.823 219.085 115.072 219.01 115.328 219.001C115.477 218.999 115.624 219.036 115.754 219.111C115.968 219.284 116.134 219.509 116.239 219.764C116.343 220.019 116.381 220.296 116.35 220.57C116.358 220.686 116.358 220.803 116.35 220.92L116.765 221.16C116.793 220.965 116.807 220.768 116.809 220.57C116.843 220.217 116.784 219.862 116.638 219.539C116.491 219.217 116.261 218.939 115.973 218.734Z" fill="#263238"/>
<path opacity="0.1" d="M108.636 218.892C108.565 218.916 108.503 218.962 108.459 219.023C108.415 219.084 108.392 219.158 108.392 219.233C108.392 219.309 108.415 219.382 108.459 219.443C108.503 219.505 108.565 219.551 108.636 219.575C108.819 219.667 109.02 219.714 109.224 219.714C109.428 219.714 109.629 219.667 109.812 219.575C110.139 219.384 110.139 219.078 109.812 218.892C109.63 218.797 109.429 218.748 109.224 218.748C109.019 218.748 108.818 218.797 108.636 218.892Z" fill="black"/>
<path d="M112.421 216.684C112.172 216.558 111.893 216.501 111.614 216.52C111.335 216.54 111.066 216.634 110.836 216.793C109.845 217.473 109.138 218.491 108.847 219.657C108.986 219.703 109.132 219.722 109.278 219.712C109.547 218.679 110.177 217.777 111.055 217.17C111.273 217.038 111.521 216.963 111.776 216.952C111.925 216.95 112.072 216.988 112.203 217.061C112.42 217.232 112.589 217.456 112.695 217.712C112.8 217.967 112.838 218.246 112.804 218.52C112.804 218.635 112.804 218.755 112.804 218.87L113.219 219.11C113.245 218.915 113.258 218.718 113.257 218.52C113.292 218.168 113.232 217.812 113.085 217.49C112.939 217.168 112.71 216.889 112.421 216.684Z" fill="#263238"/>
<path opacity="0.1" d="M105.085 216.843C105.013 216.867 104.951 216.913 104.907 216.974C104.863 217.036 104.84 217.109 104.84 217.184C104.84 217.26 104.863 217.333 104.907 217.395C104.951 217.456 105.013 217.502 105.085 217.526C105.268 217.618 105.47 217.666 105.675 217.666C105.88 217.666 106.082 217.618 106.265 217.526C106.337 217.502 106.399 217.456 106.443 217.395C106.486 217.333 106.51 217.26 106.51 217.184C106.51 217.109 106.486 217.036 106.443 216.974C106.399 216.913 106.337 216.867 106.265 216.843C106.083 216.748 105.88 216.699 105.675 216.699C105.47 216.699 105.267 216.748 105.085 216.843Z" fill="black"/>
<path d="M108.874 214.635C108.624 214.509 108.345 214.452 108.066 214.471C107.787 214.491 107.519 214.585 107.289 214.744C106.296 215.423 105.586 216.442 105.294 217.608C105.435 217.654 105.583 217.673 105.731 217.663C105.998 216.629 106.629 215.727 107.507 215.121C107.726 214.989 107.974 214.914 108.229 214.903C108.378 214.903 108.525 214.94 108.655 215.012C108.869 215.186 109.036 215.41 109.14 215.665C109.244 215.92 109.282 216.198 109.251 216.471C109.259 216.588 109.259 216.705 109.251 216.821L109.666 217.062C109.694 216.866 109.709 216.669 109.71 216.471C109.745 216.119 109.686 215.763 109.539 215.441C109.392 215.118 109.163 214.84 108.874 214.635Z" fill="#263238"/>
<path opacity="0.1" d="M101.539 214.792C101.211 214.978 101.211 215.284 101.539 215.475C101.721 215.567 101.922 215.615 102.126 215.615C102.331 215.615 102.532 215.567 102.714 215.475C103.042 215.284 103.042 214.978 102.714 214.792C102.533 214.698 102.331 214.648 102.126 214.648C101.922 214.648 101.72 214.698 101.539 214.792Z" fill="black"/>
<path d="M105.321 212.584C105.072 212.458 104.793 212.401 104.514 212.421C104.235 212.44 103.966 212.534 103.736 212.693C102.747 213.375 102.038 214.393 101.741 215.557C101.883 215.6 102.031 215.619 102.178 215.612C102.445 214.579 103.076 213.676 103.955 213.071C104.172 212.936 104.421 212.861 104.676 212.852C104.825 212.851 104.972 212.889 105.103 212.961C105.316 213.135 105.483 213.36 105.587 213.615C105.691 213.87 105.73 214.147 105.698 214.421C105.698 214.535 105.698 214.656 105.698 214.77L106.108 215.011C106.139 214.816 106.153 214.618 106.152 214.421C106.187 214.068 106.129 213.713 105.983 213.391C105.837 213.068 105.609 212.79 105.321 212.584Z" fill="#263238"/>
<path opacity="0.1" d="M97.9841 212.743C97.9127 212.768 97.8507 212.813 97.8068 212.875C97.7629 212.936 97.7393 213.01 97.7393 213.085C97.7393 213.16 97.7629 213.234 97.8068 213.295C97.8507 213.356 97.9127 213.402 97.9841 213.426C98.1673 213.518 98.3694 213.566 98.5744 213.566C98.7793 213.566 98.9814 213.518 99.1646 213.426C99.236 213.402 99.298 213.356 99.3419 213.295C99.3858 213.234 99.4094 213.16 99.4094 213.085C99.4094 213.01 99.3858 212.936 99.3419 212.875C99.298 212.813 99.236 212.768 99.1646 212.743C98.9822 212.649 98.7798 212.6 98.5744 212.6C98.3689 212.6 98.1665 212.649 97.9841 212.743Z" fill="black"/>
<path d="M101.774 210.537C101.525 210.411 101.246 210.355 100.967 210.374C100.688 210.393 100.419 210.487 100.189 210.647C99.1966 211.325 98.4869 212.344 98.1943 213.511C98.334 213.554 98.4801 213.572 98.6261 213.565C98.8966 212.532 99.5288 211.63 100.408 211.024C100.625 210.888 100.874 210.813 101.129 210.805C101.279 210.802 101.426 210.84 101.556 210.914C101.77 211.088 101.936 211.313 102.04 211.568C102.144 211.823 102.183 212.1 102.151 212.374C102.16 212.49 102.16 212.607 102.151 212.724L102.567 212.964C102.595 212.768 102.609 212.571 102.61 212.374C102.644 212.021 102.585 211.666 102.438 211.344C102.291 211.021 102.062 210.743 101.774 210.537Z" fill="#263238"/>
<path opacity="0.1" d="M94.4333 210.693C94.3619 210.718 94.2999 210.764 94.256 210.825C94.2121 210.886 94.1885 210.96 94.1885 211.035C94.1885 211.11 94.2121 211.184 94.256 211.245C94.2999 211.306 94.3619 211.352 94.4333 211.377C94.6165 211.469 94.8186 211.516 95.0236 211.516C95.2285 211.516 95.4306 211.469 95.6138 211.377C95.9418 211.185 95.9418 210.879 95.6138 210.693C95.4314 210.599 95.229 210.55 95.0236 210.55C94.8182 210.55 94.6157 210.599 94.4333 210.693Z" fill="black"/>
<path d="M98.2215 208.485C97.972 208.358 97.693 208.302 97.414 208.321C97.135 208.34 96.8664 208.435 96.6365 208.594C95.6438 209.273 94.9342 210.291 94.6416 211.458C94.7832 211.501 94.9311 211.519 95.0788 211.512C95.3457 210.479 95.9764 209.577 96.8551 208.971C97.0725 208.837 97.3212 208.761 97.5766 208.752C97.7256 208.752 97.8723 208.79 98.0029 208.862C98.2168 209.035 98.3835 209.26 98.4876 209.515C98.5918 209.77 98.6299 210.047 98.5987 210.321C98.6068 210.437 98.6068 210.554 98.5987 210.671L99.014 210.911C99.0418 210.716 99.0564 210.518 99.0578 210.321C99.0925 209.968 99.0334 209.613 98.8866 209.29C98.7398 208.968 98.5103 208.69 98.2215 208.485Z" fill="#263238"/>
<path opacity="0.1" d="M90.8864 208.645C90.815 208.669 90.753 208.715 90.7091 208.776C90.6652 208.837 90.6416 208.911 90.6416 208.986C90.6416 209.062 90.6652 209.135 90.7091 209.196C90.753 209.258 90.815 209.304 90.8864 209.328C91.0687 209.42 91.2699 209.467 91.474 209.467C91.678 209.467 91.8793 209.42 92.0615 209.328C92.3894 209.137 92.3894 208.83 92.0615 208.645C91.88 208.55 91.6785 208.501 91.474 208.501C91.2694 208.501 91.0679 208.55 90.8864 208.645Z" fill="black"/>
<path d="M94.6682 206.432C94.4192 206.306 94.1407 206.25 93.8626 206.271C93.5844 206.291 93.3169 206.386 93.0887 206.546C92.096 207.225 91.3863 208.244 91.0938 209.41C91.2334 209.454 91.3795 209.472 91.5255 209.465C91.7964 208.434 92.4262 207.532 93.3018 206.924C93.5209 206.789 93.7715 206.713 94.0287 206.705C94.1765 206.701 94.3222 206.739 94.4496 206.814C94.6669 206.985 94.8364 207.209 94.9417 207.465C95.047 207.721 95.0846 207.999 95.0508 208.274C95.0588 208.39 95.0588 208.507 95.0508 208.623L95.4662 208.858C95.4941 208.665 95.5087 208.469 95.5099 208.274C95.5428 207.92 95.4824 207.564 95.3347 207.24C95.187 206.917 94.9572 206.638 94.6682 206.432Z" fill="#263238"/>
<path opacity="0.1" d="M87.3327 206.594C87.2613 206.618 87.1993 206.664 87.1554 206.725C87.1115 206.787 87.0879 206.86 87.0879 206.935C87.0879 207.011 87.1115 207.084 87.1554 207.146C87.1993 207.207 87.2613 207.253 87.3327 207.277C87.5159 207.369 87.718 207.417 87.923 207.417C88.1279 207.417 88.3301 207.369 88.5133 207.277C88.8412 207.086 88.8412 206.78 88.5133 206.594C88.3308 206.499 88.1284 206.45 87.923 206.45C87.7176 206.45 87.5152 206.499 87.3327 206.594Z" fill="black"/>
<path d="M91.119 204.381C90.869 204.255 90.5897 204.2 90.3107 204.22C90.0317 204.24 89.7633 204.335 89.534 204.495C88.5413 205.174 87.8316 206.193 87.5391 207.359C87.6806 207.403 87.8285 207.421 87.9763 207.414C88.2431 206.381 88.8738 205.478 89.7526 204.873C89.9697 204.737 90.2183 204.66 90.4741 204.649C90.6239 204.648 90.7712 204.687 90.9004 204.763C91.1143 204.937 91.281 205.162 91.3851 205.417C91.4892 205.672 91.5274 205.949 91.4961 206.223C91.5041 206.339 91.5041 206.456 91.4961 206.572L91.9115 206.807C91.9394 206.614 91.9541 206.418 91.9552 206.223C91.9893 205.869 91.9299 205.513 91.7832 205.19C91.6364 204.867 91.4074 204.588 91.119 204.381Z" fill="#263238"/>
<path d="M94.4379 236.371C94.3484 236.373 94.2607 236.346 94.1889 236.292C94.1172 236.239 94.0655 236.163 94.0421 236.076C94.0188 235.99 94.0252 235.898 94.0603 235.816C94.0954 235.733 94.1571 235.665 94.2356 235.622L113.78 224.341C113.826 224.315 113.876 224.298 113.928 224.291C113.981 224.285 114.033 224.288 114.084 224.302C114.135 224.316 114.183 224.339 114.224 224.371C114.266 224.403 114.301 224.443 114.327 224.489C114.353 224.534 114.37 224.585 114.377 224.637C114.384 224.689 114.38 224.742 114.366 224.793C114.353 224.844 114.329 224.891 114.297 224.933C114.265 224.974 114.225 225.009 114.179 225.035L94.6346 236.316C94.5754 236.353 94.5073 236.371 94.4379 236.371Z" fill="#EBEBEB"/>
<path d="M92.0726 235.004C91.9832 235.006 91.8955 234.978 91.8237 234.925C91.7519 234.871 91.7002 234.795 91.6769 234.709C91.6536 234.623 91.6599 234.531 91.695 234.448C91.7301 234.366 91.7919 234.298 91.8704 234.255L111.415 222.974C111.461 222.948 111.511 222.931 111.563 222.924C111.615 222.917 111.668 222.921 111.719 222.935C111.77 222.948 111.817 222.972 111.859 223.004C111.901 223.036 111.936 223.076 111.962 223.122C111.988 223.167 112.005 223.218 112.012 223.27C112.018 223.322 112.015 223.375 112.001 223.426C111.987 223.476 111.964 223.524 111.932 223.566C111.9 223.607 111.86 223.642 111.814 223.668L92.2694 234.949C92.2102 234.985 92.142 235.004 92.0726 235.004Z" fill="#EBEBEB"/>
<path d="M89.6998 233.638C89.6297 233.637 89.561 233.618 89.5005 233.583C89.4401 233.547 89.3901 233.496 89.3555 233.435C89.3291 233.39 89.312 233.34 89.3052 233.287C89.2983 233.235 89.3018 233.182 89.3156 233.131C89.3293 233.081 89.3529 233.033 89.3851 232.991C89.4173 232.95 89.4574 232.915 89.5031 232.889L109.048 221.608C109.093 221.582 109.144 221.565 109.196 221.558C109.248 221.551 109.301 221.555 109.352 221.569C109.402 221.582 109.45 221.606 109.492 221.638C109.533 221.67 109.568 221.71 109.594 221.755C109.621 221.801 109.638 221.851 109.644 221.903C109.651 221.956 109.647 222.009 109.634 222.059C109.62 222.11 109.597 222.158 109.564 222.199C109.532 222.241 109.492 222.276 109.447 222.302L89.9021 233.583C89.8412 233.62 89.771 233.639 89.6998 233.638Z" fill="#EBEBEB"/>
<path d="M87.3317 232.27C87.2613 232.27 87.1921 232.252 87.1315 232.216C87.0708 232.181 87.021 232.129 86.9873 232.068C86.961 232.022 86.9438 231.972 86.937 231.92C86.9301 231.867 86.9337 231.814 86.9474 231.764C86.9611 231.713 86.9847 231.665 87.0169 231.624C87.0491 231.582 87.0892 231.547 87.1349 231.521L106.674 220.24C106.766 220.187 106.876 220.172 106.979 220.199C107.082 220.226 107.17 220.293 107.223 220.385C107.277 220.477 107.292 220.587 107.265 220.69C107.238 220.793 107.171 220.881 107.079 220.934L87.5339 232.215C87.473 232.252 87.4029 232.271 87.3317 232.27Z" fill="#EBEBEB"/>
<path d="M84.9664 230.906C84.8961 230.906 84.8269 230.888 84.7663 230.852C84.7056 230.817 84.6558 230.765 84.6221 230.703C84.5957 230.658 84.5786 230.608 84.5718 230.555C84.5649 230.503 84.5684 230.45 84.5822 230.399C84.5959 230.349 84.6195 230.301 84.6517 230.259C84.6839 230.218 84.724 230.183 84.7697 230.157L104.309 218.876C104.401 218.822 104.511 218.807 104.614 218.835C104.717 218.862 104.805 218.929 104.858 219.021C104.912 219.113 104.927 219.222 104.9 219.325C104.872 219.428 104.805 219.516 104.713 219.57L85.1687 230.851C85.1075 230.887 85.0376 230.906 84.9664 230.906Z" fill="#EBEBEB"/>
<path d="M82.5992 229.539C82.5289 229.54 82.4597 229.522 82.3991 229.486C82.3384 229.45 82.2886 229.399 82.2549 229.337C82.2285 229.292 82.2114 229.241 82.2046 229.189C82.1977 229.137 82.2012 229.084 82.215 229.033C82.2287 228.982 82.2523 228.935 82.2845 228.893C82.3167 228.852 82.3568 228.817 82.4025 228.791L101.942 217.51C101.987 217.483 102.038 217.466 102.09 217.459C102.142 217.453 102.195 217.456 102.246 217.47C102.297 217.484 102.344 217.507 102.386 217.539C102.427 217.572 102.462 217.612 102.488 217.657C102.541 217.749 102.555 217.857 102.528 217.96C102.502 218.062 102.437 218.149 102.346 218.204L82.8015 229.485C82.7403 229.521 82.6704 229.54 82.5992 229.539Z" fill="#EBEBEB"/>
<path d="M80.2334 228.172C80.1631 228.173 80.0939 228.154 80.0332 228.119C79.9726 228.083 79.9228 228.031 79.8891 227.97C79.8368 227.878 79.8224 227.77 79.849 227.668C79.8755 227.565 79.9409 227.478 80.0312 227.423L99.5759 216.142C99.6213 216.112 99.6725 216.09 99.7263 216.08C99.7802 216.07 99.8356 216.071 99.889 216.083C99.9425 216.095 99.9929 216.118 100.037 216.151C100.081 216.184 100.118 216.225 100.146 216.272C100.173 216.32 100.19 216.372 100.197 216.427C100.203 216.481 100.198 216.536 100.182 216.589C100.166 216.641 100.139 216.69 100.104 216.731C100.068 216.773 100.024 216.807 99.9749 216.831L80.4356 228.117C80.3735 228.151 80.3042 228.17 80.2334 228.172Z" fill="#EBEBEB"/>
<path d="M77.8683 226.805C77.798 226.806 77.7288 226.788 77.6681 226.752C77.6075 226.716 77.5577 226.665 77.524 226.603C77.4966 226.558 77.4786 226.508 77.471 226.456C77.4633 226.404 77.4662 226.351 77.4795 226.3C77.4927 226.249 77.5161 226.201 77.5481 226.159C77.5802 226.117 77.6203 226.083 77.6661 226.057L97.2108 214.776C97.3022 214.722 97.4111 214.707 97.5136 214.734C97.6161 214.76 97.7038 214.826 97.7574 214.918C97.811 215.009 97.8262 215.118 97.7996 215.221C97.7729 215.323 97.7066 215.411 97.6153 215.464L78.0705 226.751C78.0091 226.786 77.9394 226.805 77.8683 226.805Z" fill="#EBEBEB"/>
<path d="M75.5021 225.439C75.4149 225.437 75.3307 225.407 75.2621 225.353C75.1935 225.299 75.1442 225.225 75.1214 225.141C75.0987 225.056 75.1038 224.967 75.1359 224.886C75.1681 224.805 75.2256 224.736 75.2999 224.691L94.8446 213.41C94.8897 213.382 94.9397 213.364 94.9918 213.357C95.0439 213.349 95.097 213.352 95.148 213.365C95.1989 213.378 95.2467 213.402 95.2885 213.434C95.3303 213.466 95.3652 213.506 95.3912 213.552C95.4176 213.597 95.4347 213.648 95.4415 213.7C95.4484 213.752 95.4449 213.805 95.4311 213.856C95.4174 213.907 95.3938 213.954 95.3616 213.996C95.3294 214.037 95.2893 214.072 95.2436 214.098L75.7043 225.385C75.6422 225.419 75.5729 225.437 75.5021 225.439Z" fill="#EBEBEB"/>
<path d="M73.133 224.072C73.0626 224.073 72.9934 224.054 72.9328 224.019C72.8721 223.983 72.8223 223.932 72.7886 223.87C72.7613 223.825 72.7433 223.775 72.7356 223.723C72.728 223.671 72.7309 223.617 72.7441 223.567C72.7574 223.516 72.7807 223.468 72.8128 223.426C72.8448 223.384 72.8849 223.349 72.9307 223.323L92.4755 212.042C92.5671 211.99 92.6756 211.976 92.7777 212.002C92.8798 212.029 92.9675 212.094 93.0221 212.185C93.0484 212.23 93.0655 212.28 93.0724 212.333C93.0792 212.385 93.0757 212.438 93.062 212.488C93.0483 212.539 93.0247 212.587 92.9925 212.629C92.9603 212.67 92.9202 212.705 92.8745 212.731L73.3352 224.017C73.2738 224.053 73.204 224.072 73.133 224.072Z" fill="#EBEBEB"/>
<path d="M70.7668 222.707C70.6959 222.706 70.6262 222.688 70.5649 222.652C70.5035 222.617 70.4525 222.566 70.417 222.504C70.3906 222.459 70.3735 222.408 70.3667 222.356C70.3598 222.304 70.3634 222.251 70.3771 222.2C70.3908 222.15 70.4144 222.102 70.4466 222.06C70.4788 222.019 70.5189 221.984 70.5646 221.958L90.1094 210.671C90.2014 210.619 90.3107 210.604 90.4132 210.632C90.5157 210.66 90.603 210.727 90.6559 210.819C90.7088 210.911 90.723 211.02 90.6953 211.123C90.6676 211.225 90.6004 211.313 90.5083 211.366L70.9636 222.652C70.9044 222.688 70.8362 222.707 70.7668 222.707Z" fill="#EBEBEB"/>
<path d="M68.4006 221.341C68.3298 221.34 68.2604 221.321 68.1991 221.286C68.1378 221.25 68.0867 221.2 68.0508 221.139C68.0244 221.093 68.0073 221.043 68.0005 220.991C67.9936 220.939 67.9971 220.886 68.0109 220.835C68.0246 220.784 68.0482 220.736 68.0804 220.695C68.1126 220.653 68.1527 220.618 68.1984 220.592L87.7431 209.311C87.7885 209.28 87.8397 209.259 87.8935 209.249C87.9474 209.239 88.0028 209.24 88.0562 209.252C88.1097 209.264 88.1601 209.287 88.2042 209.32C88.2483 209.352 88.2853 209.394 88.3128 209.441C88.3403 209.489 88.3577 209.541 88.3639 209.596C88.3702 209.65 88.3651 209.705 88.3491 209.758C88.3331 209.81 88.3065 209.859 88.2709 209.9C88.2352 209.942 88.1914 209.976 88.1421 210L68.5974 221.286C68.5372 221.32 68.4696 221.339 68.4006 221.341Z" fill="#EBEBEB"/>
<path d="M66.0345 219.974C65.9451 219.976 65.8574 219.948 65.7856 219.895C65.7139 219.841 65.6621 219.765 65.6388 219.679C65.6155 219.592 65.6219 219.501 65.657 219.418C65.6921 219.336 65.7538 219.268 65.8323 219.225L85.3771 207.939C85.4697 207.888 85.5781 207.875 85.6799 207.903C85.7817 207.93 85.869 207.996 85.9236 208.086C85.95 208.132 85.9671 208.182 85.974 208.234C85.9808 208.286 85.9773 208.339 85.9636 208.39C85.9499 208.441 85.9262 208.488 85.8941 208.53C85.8619 208.572 85.8218 208.607 85.7761 208.633L66.2313 219.919C66.1711 219.953 66.1036 219.972 66.0345 219.974Z" fill="#EBEBEB"/>
<path d="M96.8365 237.737C96.767 237.737 96.6986 237.719 96.6382 237.684C96.5778 237.65 96.5275 237.6 96.4922 237.54C96.4658 237.494 96.4487 237.444 96.4419 237.392C96.435 237.34 96.4386 237.287 96.4523 237.236C96.466 237.185 96.4896 237.137 96.5218 237.096C96.554 237.054 96.5941 237.019 96.6398 236.993L117.305 225.035C117.397 224.982 117.506 224.968 117.609 224.995C117.711 225.023 117.799 225.09 117.852 225.182C117.904 225.274 117.919 225.384 117.891 225.486C117.863 225.589 117.796 225.676 117.704 225.729L97.0333 237.682C96.9738 237.717 96.9058 237.736 96.8365 237.737Z" fill="#FFA800"/>
<g opacity="0.25">
<path d="M107.173 222.88C106.96 222.638 106.684 222.461 106.375 222.366C106.255 222.317 106.124 222.241 105.987 222.17C105.807 221.88 105.566 221.41 105.883 221.35C106.147 221.383 106.404 221.458 106.643 221.574C106.758 221.607 106.73 221.443 106.643 221.41C106.293 221.273 105.626 220.863 105.484 221.41C105.454 221.596 105.483 221.787 105.566 221.957C105.404 221.887 105.229 221.856 105.052 221.864C104.889 221.864 104.746 221.864 104.692 222.071C104.659 222.181 104.692 222.224 104.692 222.306C104.692 222.388 104.823 222.465 104.861 222.476H104.675C104.424 222.476 103.752 222.301 103.582 222.607C103.517 222.738 103.664 222.913 103.642 222.957C103.621 223 103.15 223.143 103.068 223.197C102.987 223.252 103.068 223.35 103.036 223.361C102.799 223.378 102.562 223.378 102.325 223.361C101.932 223.394 100.964 223.246 101.09 223.853C101.09 223.919 101.156 223.908 101.166 224.012C101.169 224.062 101.18 224.112 101.199 224.159C101.199 224.159 101.156 224.159 101.106 224.241C101.057 224.323 100.937 224.274 100.888 224.334C100.702 224.569 100.986 224.651 100.757 224.793C100.429 225.001 99.7509 224.585 99.4175 224.793C99.0841 225.001 99.5104 225.58 98.9857 225.591C98.871 225.591 98.942 225.761 99.024 225.772C99.5104 225.815 99.4612 225.722 99.5705 225.323C99.7236 224.673 100.691 225.121 101.21 224.974C101.224 224.969 101.236 224.961 101.246 224.95C101.256 224.94 101.263 224.927 101.268 224.913C101.272 224.9 101.273 224.885 101.27 224.871C101.268 224.857 101.262 224.843 101.254 224.831C101.106 224.596 101.254 224.471 101.489 224.372C101.502 224.367 101.514 224.358 101.523 224.348C101.533 224.337 101.539 224.324 101.543 224.311C101.547 224.297 101.547 224.283 101.544 224.269C101.542 224.255 101.536 224.242 101.527 224.23C101.473 224.126 101.265 223.804 101.391 223.651C101.581 223.608 101.775 223.585 101.97 223.58C102.391 223.58 102.812 223.542 103.232 223.58C103.247 223.58 103.261 223.577 103.274 223.57C103.287 223.563 103.298 223.554 103.306 223.542C103.314 223.53 103.319 223.516 103.32 223.502C103.322 223.487 103.32 223.473 103.314 223.46C103.254 223.328 103.801 223.241 103.921 223.214C103.932 223.21 103.943 223.204 103.952 223.196C103.961 223.188 103.968 223.179 103.973 223.168C103.978 223.157 103.981 223.146 103.982 223.134C103.982 223.122 103.98 223.11 103.976 223.099C103.713 222.448 104.675 222.689 105.069 222.749C105.085 222.753 105.102 222.752 105.118 222.747C105.134 222.742 105.148 222.733 105.159 222.721C105.17 222.709 105.178 222.694 105.181 222.678C105.185 222.661 105.184 222.645 105.178 222.629C105.118 222.41 104.632 222.192 105.206 222.11C105.358 222.107 105.508 222.143 105.643 222.213C105.891 222.631 106.234 222.984 106.643 223.246C107.08 223.454 107.468 223.323 107.173 222.88ZM106.993 222.995C107.113 223.159 106.736 223.028 106.692 222.995C106.478 222.862 106.304 222.673 106.189 222.448C106.304 222.509 106.413 222.569 106.49 222.602C106.69 222.685 106.864 222.821 106.993 222.995Z" fill="black"/>
<path d="M97.3962 226.995C97.3251 226.716 97.3197 226.405 97.582 226.372C97.7077 226.372 97.6148 226.181 97.5219 226.181C97.1666 226.181 97.0573 226.476 97.101 226.847C96.9617 226.78 96.815 226.728 96.6638 226.694C96.4342 226.651 96.2867 226.645 96.2101 226.88C96.1664 227.022 96.2757 227.11 96.2703 227.236C96.2648 227.361 96.4397 227.345 96.161 227.421C96.0525 227.418 95.9446 227.406 95.8385 227.383C95.5597 227.383 95.5324 227.383 95.363 227.536C95.1936 227.689 95.6199 227.749 95.1116 227.667C94.9836 227.622 94.8479 227.604 94.7126 227.613C94.5213 227.656 94.4229 227.711 94.4557 227.919C94.4557 228.012 94.6689 228.132 94.6689 228.192C94.6689 228.64 94.1824 228.263 93.9966 228.192C93.9844 228.188 93.9714 228.186 93.9586 228.188C93.9458 228.189 93.9334 228.194 93.9224 228.2C93.9115 228.207 93.9022 228.216 93.8951 228.227C93.8881 228.238 93.8836 228.25 93.8818 228.263C93.8818 228.487 94.0294 228.564 93.7069 228.585C93.6687 228.585 93.4446 228.465 93.3735 228.46C93.1658 228.46 92.9745 228.733 92.7067 228.711C92.6302 228.711 92.6084 228.771 92.6302 228.831C92.7013 229.034 92.8106 229.154 92.4061 229.329C92.4061 229.329 91.9252 229.274 91.9361 229.274C91.8159 229.274 91.8924 229.46 91.9798 229.471C92.1711 229.471 92.7996 229.75 92.9855 229.498C93.1713 229.247 92.8543 229.094 92.9199 228.952C92.8762 229.028 93.2806 228.837 93.3243 228.826C93.4252 228.781 93.532 228.752 93.6413 228.739C93.696 228.739 93.7452 228.831 93.8053 228.831C93.8654 228.831 93.9693 228.87 94.0403 228.831C94.1114 228.793 94.1278 228.7 94.1551 228.678C94.1824 228.657 94.0622 228.575 94.2043 228.525C94.3464 228.476 94.3956 228.596 94.494 228.624C94.5923 228.651 94.8766 228.788 95.0077 228.624C95.1389 228.46 94.8656 228.263 94.893 228.115C94.9585 227.798 95.4395 228.039 95.6253 227.897C95.636 227.883 95.6417 227.865 95.6417 227.848C95.6417 227.83 95.636 227.813 95.6253 227.798C95.4996 227.356 96.3031 227.706 96.5545 227.656C96.5782 227.655 96.6004 227.645 96.6167 227.627C96.6329 227.61 96.642 227.587 96.6419 227.563C96.6419 227.525 96.5381 227.29 96.5381 227.285C96.6037 227.022 96.9699 227.05 97.1393 227.093C97.2978 227.64 97.7241 228.187 98.1941 228.033C98.2114 228.028 98.2264 228.017 98.2364 228.002C98.2464 227.987 98.2508 227.969 98.2488 227.951C98.2488 227.613 97.8334 227.246 97.3962 226.995ZM97.5656 227.438C97.5424 227.397 97.5223 227.355 97.5055 227.312C97.6345 227.397 97.7459 227.507 97.8334 227.634C97.9209 227.902 97.6312 227.514 97.5656 227.438Z" fill="black"/>
<path d="M104.501 229.883C104.287 229.64 104.008 229.462 103.698 229.369C103.583 229.32 103.452 229.249 103.315 229.178C103.135 228.888 102.894 228.412 103.211 228.358C103.403 228.319 103.758 228.516 103.971 228.576C104.086 228.615 104.059 228.445 103.971 228.412C103.621 228.276 102.954 227.866 102.812 228.44C102.781 228.626 102.81 228.817 102.894 228.986C102.732 228.917 102.557 228.885 102.381 228.893C102.217 228.893 102.075 228.893 102.02 229.106C101.987 229.21 102.02 229.254 102.02 229.336C102.02 229.418 102.151 229.495 102.189 229.505H102.003C101.752 229.505 101.08 229.336 100.91 229.642C100.845 229.768 100.992 229.943 100.97 229.992C100.949 230.041 100.479 230.172 100.397 230.227C100.315 230.282 100.397 230.38 100.364 230.396C100.331 230.413 99.8173 230.396 99.6533 230.396C99.2598 230.424 98.2924 230.282 98.4181 230.883C98.4181 230.948 98.4837 230.937 98.4946 231.047C98.4987 231.097 98.5097 231.147 98.5274 231.194C98.5274 231.194 98.4837 231.194 98.4345 231.271C98.3853 231.347 98.2651 231.304 98.2159 231.364C98.03 231.599 98.3142 231.681 98.0847 231.823C97.7568 232.031 97.079 231.615 96.7456 231.823C96.4122 232.031 96.8385 232.61 96.3139 232.621C96.1991 232.621 96.2701 232.796 96.3521 232.801C96.8386 232.845 96.7894 232.752 96.8987 232.353C97.0517 231.708 97.9918 232.151 98.5383 232.003C98.5523 231.999 98.5649 231.991 98.575 231.98C98.5852 231.97 98.5925 231.957 98.5963 231.943C98.6001 231.928 98.6003 231.914 98.5968 231.899C98.5934 231.885 98.5864 231.872 98.5766 231.861C98.4345 231.632 98.6039 231.506 98.8171 231.402C98.8298 231.397 98.8413 231.389 98.8506 231.379C98.86 231.369 98.867 231.357 98.8712 231.344C98.8754 231.331 98.8766 231.317 98.8748 231.304C98.873 231.29 98.8682 231.277 98.8608 231.265C98.8007 231.156 98.593 230.834 98.7187 230.681C98.9092 230.64 99.1033 230.618 99.298 230.615C99.7186 230.593 100.14 230.593 100.561 230.615C100.575 230.614 100.588 230.61 100.6 230.603C100.612 230.596 100.623 230.586 100.631 230.575C100.638 230.563 100.644 230.55 100.646 230.536C100.648 230.522 100.647 230.508 100.643 230.495C100.582 230.358 101.129 230.271 101.249 230.243C101.261 230.24 101.271 230.234 101.28 230.226C101.289 230.218 101.296 230.208 101.3 230.197C101.305 230.186 101.307 230.175 101.307 230.163C101.307 230.151 101.304 230.139 101.298 230.129C101.042 229.478 102.003 229.719 102.392 229.784C102.408 229.789 102.426 229.788 102.443 229.783C102.459 229.778 102.474 229.768 102.485 229.755C102.497 229.742 102.504 229.726 102.507 229.709C102.51 229.692 102.508 229.674 102.501 229.659C102.441 229.44 101.954 229.221 102.501 229.139C102.653 229.137 102.803 229.173 102.938 229.243C103.185 229.662 103.528 230.016 103.938 230.276C104.408 230.456 104.791 230.325 104.501 229.883ZM104.321 230.003C104.441 230.161 104.064 230.03 104.02 230.003C103.806 229.87 103.632 229.681 103.517 229.456C103.632 229.516 103.742 229.577 103.818 229.609C104.018 229.693 104.191 229.829 104.321 230.003Z" fill="black"/>
<path d="M110.508 224.935C110.437 224.651 110.426 224.339 110.689 224.307C110.814 224.307 110.727 224.121 110.634 224.115C110.279 224.115 110.164 224.41 110.213 224.782C110.073 224.718 109.926 224.668 109.776 224.634C109.546 224.591 109.393 224.58 109.322 224.815C109.273 224.957 109.388 225.05 109.377 225.176C109.366 225.301 109.552 225.285 109.273 225.356C109.165 225.353 109.057 225.342 108.951 225.323C108.865 225.301 108.776 225.304 108.692 225.33C108.608 225.356 108.533 225.405 108.475 225.471C108.3 225.618 108.732 225.684 108.218 225.602C108.089 225.562 107.954 225.543 107.819 225.547C107.633 225.591 107.535 225.646 107.562 225.853C107.562 225.946 107.781 226.072 107.776 226.132C107.776 226.58 107.289 226.198 107.109 226.132C107.096 226.127 107.083 226.125 107.069 226.126C107.056 226.127 107.043 226.131 107.031 226.138C107.019 226.144 107.009 226.154 107.002 226.165C106.995 226.177 106.99 226.19 106.989 226.203C106.989 226.422 107.142 226.504 106.814 226.52C106.775 226.52 106.557 226.4 106.486 226.4C106.278 226.4 106.087 226.668 105.813 226.646C105.742 226.646 105.715 226.706 105.737 226.766C105.813 226.968 105.923 227.094 105.513 227.269L105.043 227.209C104.928 227.209 104.999 227.4 105.092 227.405C105.278 227.405 105.906 227.684 106.098 227.433C106.289 227.181 105.961 227.034 106.032 226.886C105.983 226.963 106.387 226.777 106.437 226.761C106.536 226.717 106.641 226.687 106.748 226.673C106.808 226.673 106.852 226.766 106.912 226.766C106.972 226.766 107.076 226.804 107.147 226.766C107.218 226.728 107.24 226.635 107.267 226.613C107.295 226.591 107.174 226.509 107.316 226.46C107.459 226.411 107.508 226.531 107.601 226.564C107.694 226.597 107.983 226.722 108.114 226.564C108.246 226.405 107.972 226.203 108.005 226.061C108.071 225.738 108.552 225.984 108.732 225.842C108.747 225.832 108.759 225.816 108.765 225.799C108.77 225.781 108.771 225.762 108.765 225.744C108.634 225.301 109.437 225.646 109.688 225.596C109.738 225.596 109.781 225.558 109.776 225.509C109.77 225.46 109.678 225.23 109.678 225.23C109.738 224.962 110.104 224.995 110.273 225.039C110.437 225.585 110.864 226.132 111.328 225.974C111.345 225.968 111.361 225.957 111.371 225.942C111.382 225.927 111.388 225.91 111.388 225.892C111.355 225.536 110.94 225.165 110.508 224.935ZM110.672 225.378C110.649 225.335 110.629 225.292 110.612 225.247C110.744 225.33 110.856 225.442 110.94 225.575C111.033 225.826 110.716 225.432 110.672 225.361V225.378Z" fill="black"/>
<path d="M92.7101 214.901C92.4968 214.659 92.2205 214.481 91.9122 214.387C91.7974 214.338 91.6662 214.261 91.5296 214.19C91.3492 213.901 91.1087 213.431 91.4257 213.37C91.6116 213.338 91.9723 213.534 92.1854 213.594C92.3002 213.627 92.2729 213.463 92.1854 213.431C91.8411 213.294 91.1743 212.884 91.0322 213.431C90.9972 213.616 91.0241 213.808 91.1087 213.977C90.9467 213.908 90.771 213.876 90.595 213.884C90.431 213.884 90.2944 213.884 90.2342 214.092C90.1741 214.3 90.2342 214.245 90.2342 214.327C90.2342 214.409 90.3654 214.485 90.3982 214.496H90.2124C89.9664 214.496 89.2942 214.321 89.1193 214.627C89.0537 214.759 89.2013 214.934 89.1849 214.977C89.1685 215.021 88.693 215.163 88.6383 215.218C88.5837 215.272 88.6383 215.371 88.6 215.382C88.3635 215.398 88.1261 215.398 87.8895 215.382C87.5015 215.414 86.5286 215.272 86.6598 215.874C86.6598 215.939 86.7254 215.928 86.7363 216.032C86.7411 216.082 86.7503 216.131 86.7636 216.18C86.7636 216.18 86.7254 216.18 86.6762 216.262C86.627 216.344 86.5067 216.294 86.4576 216.355C86.2717 216.59 86.5559 216.672 86.3209 216.814C85.9985 217.016 85.3207 216.606 84.9873 216.814C84.6539 217.021 85.0748 217.601 84.5556 217.612C84.4408 217.612 84.5064 217.781 84.5938 217.792C85.0802 217.836 85.0256 217.743 85.1404 217.344C85.2879 216.693 86.2608 217.142 86.78 216.994C86.7931 216.989 86.8049 216.98 86.8142 216.97C86.8236 216.959 86.8304 216.946 86.8341 216.932C86.8378 216.919 86.8383 216.904 86.8355 216.89C86.8328 216.876 86.8269 216.863 86.8183 216.852C86.6762 216.622 86.8183 216.491 87.0588 216.393C87.0719 216.387 87.0836 216.379 87.093 216.368C87.1023 216.358 87.1091 216.345 87.1128 216.331C87.1165 216.317 87.117 216.303 87.1143 216.289C87.1115 216.275 87.1056 216.262 87.097 216.251C87.0369 216.147 86.8347 215.824 86.9604 215.671C87.1489 215.629 87.3411 215.605 87.5343 215.6C87.9551 215.6 88.376 215.562 88.8023 215.6C88.8162 215.599 88.8298 215.595 88.8419 215.588C88.854 215.581 88.8644 215.572 88.8723 215.56C88.8802 215.548 88.8853 215.535 88.8874 215.521C88.8895 215.508 88.8884 215.493 88.8843 215.48C88.8187 215.349 89.3652 215.261 89.4909 215.234C89.5119 215.225 89.5286 215.207 89.5377 215.186C89.5468 215.165 89.5476 215.141 89.5401 215.119C89.2778 214.469 90.2397 214.709 90.6332 214.77C90.6494 214.773 90.6662 214.773 90.6821 214.768C90.6979 214.763 90.7121 214.754 90.7233 214.742C90.7344 214.729 90.7421 214.714 90.7455 214.698C90.7489 214.682 90.7479 214.665 90.7425 214.649C90.677 214.431 90.196 214.212 90.7699 214.13C90.9218 214.129 91.0718 214.165 91.2071 214.234C91.4543 214.652 91.797 215.006 92.2073 215.267C92.6391 215.475 93.0271 215.343 92.7101 214.901ZM92.5352 215.016C92.6555 215.179 92.2784 215.048 92.2292 215.016C92.0176 214.881 91.8458 214.692 91.7318 214.469C91.8466 214.529 91.9504 214.589 92.0269 214.622C92.2373 214.7 92.4212 214.837 92.5571 215.016H92.5352Z" fill="black"/>
<path d="M82.9614 219.016C82.8904 218.737 82.8795 218.425 83.1418 218.392C83.2675 218.392 83.1801 218.201 83.0872 218.201C82.7319 218.201 82.6226 218.496 82.6663 218.868C82.5263 218.802 82.3797 218.751 82.2291 218.715C81.9995 218.671 81.8519 218.666 81.7754 218.901C81.7262 219.043 81.841 219.13 81.8301 219.256C81.8191 219.382 82.005 219.365 81.7262 219.442C81.6178 219.439 81.5098 219.426 81.4038 219.404C81.3185 219.384 81.2296 219.387 81.146 219.413C81.0624 219.439 80.9872 219.486 80.9283 219.551C80.7534 219.699 81.1851 219.77 80.6714 219.688C80.5436 219.642 80.4077 219.624 80.2724 219.633C80.0866 219.677 79.9882 219.732 80.0155 219.939C80.0155 220.032 80.2341 220.152 80.2341 220.212C80.2341 220.666 79.7422 220.284 79.5619 220.212C79.5497 220.208 79.5367 220.207 79.5239 220.208C79.511 220.21 79.4987 220.214 79.4877 220.221C79.4768 220.228 79.4674 220.237 79.4604 220.248C79.4534 220.259 79.4488 220.271 79.4471 220.284C79.4471 220.508 79.5947 220.584 79.2722 220.606C79.2285 220.606 79.0099 220.486 78.9388 220.48C78.7311 220.48 78.5398 220.754 78.2666 220.732C78.1955 220.732 78.1682 220.792 78.19 220.852C78.2666 221.054 78.3759 221.174 77.9659 221.349C77.9659 221.349 77.485 221.295 77.4959 221.295C77.3811 221.295 77.4522 221.481 77.5451 221.491C77.7309 221.491 78.3649 221.77 78.5508 221.519C78.7366 221.267 78.4141 221.114 78.4852 221C78.4414 221.076 78.8459 220.89 78.8896 220.874C78.9904 220.829 79.0972 220.8 79.2066 220.786C79.2613 220.786 79.3105 220.879 79.3706 220.879C79.4307 220.879 79.5291 220.918 79.6056 220.879C79.6821 220.841 79.6931 220.748 79.7204 220.726C79.7477 220.704 79.6275 220.622 79.7696 220.573C79.9117 220.524 79.9609 220.644 80.0538 220.672C80.1467 220.699 80.4418 220.836 80.573 220.672C80.7042 220.508 80.4254 220.311 80.4582 220.163C80.5238 219.846 80.9775 220.087 81.1906 219.945C81.2056 219.934 81.2165 219.918 81.2215 219.9C81.2264 219.882 81.2252 219.863 81.2179 219.846C81.0868 219.404 81.8902 219.753 82.1471 219.704C82.1908 219.704 82.2345 219.666 82.2291 219.611C82.2236 219.557 82.1307 219.338 82.1307 219.333C82.1963 219.07 82.557 219.098 82.7264 219.141C82.8904 219.688 83.3167 220.234 83.7813 220.081C83.7996 220.077 83.8158 220.067 83.8269 220.052C83.838 220.037 83.8432 220.018 83.8414 219.999C83.8086 219.633 83.4206 219.267 82.9614 219.016ZM83.1309 219.458L83.0653 219.333C83.197 219.415 83.309 219.525 83.3932 219.655C83.4861 219.923 83.1746 219.535 83.1309 219.469V219.458Z" fill="black"/>
<path d="M90.0597 221.902C89.8476 221.66 89.5707 221.484 89.2618 221.394L88.8737 221.197C88.6933 220.907 88.4583 220.437 88.7753 220.377C88.9612 220.339 89.3219 220.536 89.535 220.596C89.6498 220.634 89.6225 220.465 89.535 220.432C89.1907 220.295 88.5239 219.885 88.3818 220.459C88.3456 220.645 88.3725 220.837 88.4583 221.006C88.2963 220.936 88.1206 220.905 87.9446 220.913C87.7806 220.913 87.644 220.913 87.5838 221.126C87.551 221.23 87.5838 221.274 87.5838 221.356C87.5838 221.438 87.715 221.514 87.7478 221.525H87.562C87.316 221.525 86.6438 221.356 86.4689 221.662C86.4033 221.787 86.5509 221.962 86.5345 222.011C86.5181 222.061 86.0426 222.192 85.9551 222.246C85.8677 222.301 85.9551 222.399 85.9223 222.416C85.6857 222.43 85.4484 222.43 85.2118 222.416C84.8237 222.449 83.8509 222.301 83.9821 222.902C83.9821 222.968 84.0476 222.957 84.0586 223.066C84.0647 223.116 84.0738 223.165 84.0859 223.214C84.0859 223.214 84.0476 223.214 83.993 223.29C83.9383 223.367 83.829 223.323 83.7798 223.383C83.594 223.618 83.8782 223.7 83.6432 223.842C83.3207 224.05 82.643 223.635 82.3096 223.842C81.9762 224.05 82.397 224.629 81.8778 224.64C81.763 224.64 81.8286 224.815 81.9161 224.821C82.4025 224.864 82.3479 224.772 82.4626 224.373C82.6102 223.728 83.5557 224.17 84.1023 224.023C84.1154 224.017 84.1271 224.009 84.1365 223.998C84.1459 223.988 84.1527 223.975 84.1564 223.961C84.1601 223.947 84.1606 223.933 84.1578 223.919C84.1551 223.905 84.1492 223.892 84.1406 223.881C83.9985 223.651 84.1405 223.525 84.381 223.422C84.3942 223.416 84.4059 223.408 84.4152 223.397C84.4246 223.386 84.4314 223.374 84.4351 223.36C84.4388 223.346 84.4393 223.332 84.4366 223.318C84.4338 223.304 84.4279 223.291 84.4193 223.279C84.3592 223.176 84.157 222.853 84.2827 222.7C84.4714 222.66 84.6636 222.638 84.8565 222.635C85.2789 222.61 85.7022 222.61 86.1245 222.635C86.1385 222.634 86.152 222.63 86.1641 222.623C86.1761 222.616 86.1863 222.606 86.1938 222.594C86.2013 222.582 86.2059 222.569 86.2071 222.555C86.2084 222.541 86.2063 222.527 86.2011 222.514C86.1409 222.378 86.6875 222.29 86.8132 222.263C86.824 222.259 86.8339 222.252 86.8423 222.244C86.8506 222.236 86.8573 222.226 86.8619 222.216C86.8665 222.205 86.8689 222.194 86.869 222.182C86.869 222.17 86.8668 222.159 86.8624 222.148C86.6 221.498 87.562 221.738 87.9555 221.804C87.9723 221.807 87.9899 221.807 88.0063 221.801C88.0227 221.796 88.0375 221.787 88.0491 221.774C88.0607 221.761 88.0688 221.746 88.0725 221.729C88.0762 221.712 88.0755 221.694 88.0703 221.678C88.0047 221.459 87.5237 221.241 88.0703 221.159C88.2222 221.158 88.3722 221.193 88.5075 221.263C88.7531 221.682 89.0962 222.037 89.5077 222.296C89.9777 222.476 90.3549 222.345 90.0597 221.902ZM89.8848 222.022C90.0051 222.181 89.628 222.05 89.5788 222.022C89.3672 221.888 89.1954 221.699 89.0814 221.476C89.1962 221.536 89.3 221.596 89.3765 221.629C89.5779 221.713 89.7533 221.848 89.8848 222.022Z" fill="black"/>
<path d="M96.068 216.94C95.997 216.656 95.9915 216.344 96.2539 216.311C96.3796 216.311 96.2867 216.126 96.1938 216.12C95.8385 216.12 95.7292 216.415 95.7784 216.787C95.6368 216.721 95.4883 216.672 95.3357 216.639C95.1061 216.596 94.9585 216.585 94.882 216.82C94.8383 216.962 94.9476 217.055 94.9421 217.18C94.9367 217.306 95.1116 217.29 94.8328 217.361C94.7247 217.357 94.617 217.346 94.5104 217.328C94.4252 217.307 94.336 217.31 94.2523 217.336C94.1686 217.362 94.0935 217.41 94.0349 217.476C93.8654 217.623 94.2917 217.689 93.7835 217.607C93.6543 217.567 93.5196 217.548 93.3845 217.552C93.1932 217.596 93.0948 217.65 93.1276 217.858C93.1276 217.951 93.3407 218.077 93.3407 218.137C93.3407 218.585 92.8543 218.202 92.6685 218.137C92.6563 218.132 92.643 218.129 92.6298 218.13C92.6165 218.131 92.6037 218.135 92.5924 218.142C92.5811 218.149 92.5717 218.159 92.565 218.17C92.5582 218.182 92.5544 218.195 92.5537 218.208C92.5537 218.427 92.7013 218.509 92.3788 218.525C92.3405 218.525 92.1165 218.405 92.0454 218.405C91.8377 218.405 91.6464 218.673 91.3786 218.651C91.3021 218.651 91.2802 218.711 91.3021 218.771C91.3731 218.973 91.4825 219.099 91.078 219.274C91.078 219.274 90.597 219.214 90.608 219.214C90.4877 219.214 90.5642 219.405 90.6517 219.41C90.843 219.41 91.4715 219.689 91.6574 219.438C91.8432 219.186 91.5262 219.039 91.5918 218.918C91.548 218.995 91.9525 218.809 91.9962 218.793C92.097 218.748 92.2038 218.719 92.3132 218.705C92.3679 218.705 92.4171 218.798 92.4772 218.798C92.5373 218.798 92.6412 218.836 92.7122 218.798C92.7833 218.76 92.7997 218.667 92.827 218.651C92.8543 218.634 92.7341 218.541 92.8762 218.498C93.0183 218.454 93.0675 218.563 93.1658 218.596C93.2642 218.629 93.5484 218.755 93.6796 218.596C93.8108 218.438 93.5375 218.235 93.5648 218.093C93.6304 217.771 94.1114 218.017 94.2972 217.875C94.3113 217.863 94.3218 217.847 94.3276 217.83C94.3334 217.813 94.3342 217.794 94.33 217.776C94.1988 217.333 95.0023 217.678 95.2537 217.629C95.2974 217.629 95.3466 217.59 95.3411 217.541C95.3357 217.492 95.2373 217.262 95.2428 217.262C95.3029 216.995 95.6691 217.027 95.8385 217.071C95.997 217.618 96.4288 218.164 96.8933 218.006C96.9106 218.001 96.9256 217.99 96.9356 217.975C96.9456 217.96 96.95 217.942 96.948 217.924C96.9207 217.558 96.5053 217.191 96.068 216.94ZM96.2375 217.383C96.2375 217.355 96.1992 217.306 96.1774 217.257C96.3076 217.341 96.4192 217.451 96.5053 217.579C96.5927 217.831 96.2812 217.454 96.2375 217.383Z" fill="black"/>
<path d="M91.5488 226.723C91.3354 226.481 91.0592 226.303 90.7508 226.209C90.6306 226.16 90.4994 226.084 90.3628 226.012C90.1824 225.723 89.9419 225.253 90.2589 225.193C90.5227 225.226 90.7793 225.301 91.0186 225.417C91.1334 225.45 91.1061 225.286 91.0186 225.253C90.6688 225.116 90.0021 224.706 89.8599 225.253C89.8301 225.439 89.8588 225.63 89.9419 225.799C89.7799 225.73 89.6042 225.698 89.4282 225.706C89.2642 225.706 89.1221 225.706 89.0674 225.914C89.0128 226.122 89.0674 226.067 89.0674 226.149C89.0674 226.231 89.1986 226.308 89.2369 226.319H89.051C88.8051 226.319 88.1274 226.144 87.9579 226.45C87.8924 226.581 88.0399 226.756 88.0181 226.8C87.9962 226.843 87.5262 226.985 87.4442 227.04C87.3622 227.095 87.4442 227.193 87.4114 227.204C87.1748 227.221 86.9374 227.221 86.7009 227.204C86.3073 227.237 85.34 227.095 85.4657 227.696C85.4657 227.761 85.5312 227.751 85.5476 227.854C85.5465 227.905 85.5558 227.955 85.575 228.002C85.575 228.002 85.5312 228.002 85.4821 228.084C85.4329 228.166 85.3126 228.117 85.2634 228.177C85.0776 228.412 85.3618 228.494 85.1323 228.636C84.8043 228.844 84.1266 228.428 83.7987 228.636C83.4707 228.844 83.8861 229.423 83.3614 229.434C83.2466 229.434 83.3177 229.603 83.4051 229.614C83.8916 229.658 83.8369 229.565 83.9517 229.166C84.1047 228.516 85.0721 228.964 85.5914 228.816C85.6049 228.811 85.6172 228.803 85.6272 228.793C85.6371 228.783 85.6445 228.77 85.6488 228.756C85.653 228.742 85.654 228.728 85.6516 228.714C85.6492 228.699 85.6436 228.686 85.6351 228.674C85.493 228.445 85.6351 228.313 85.8701 228.215C85.883 228.209 85.8945 228.201 85.9039 228.19C85.9133 228.18 85.9203 228.168 85.9244 228.154C85.9286 228.141 85.9298 228.126 85.9279 228.112C85.9261 228.098 85.9213 228.085 85.9138 228.073C85.8537 227.969 85.646 227.647 85.7717 227.494C85.9621 227.452 86.1561 227.428 86.3511 227.423C86.7716 227.401 87.193 227.401 87.6136 227.423C87.628 227.423 87.6422 227.419 87.655 227.413C87.6677 227.406 87.6787 227.396 87.6868 227.384C87.6949 227.373 87.6999 227.359 87.7015 227.345C87.703 227.33 87.701 227.316 87.6956 227.302C87.6355 227.171 88.182 227.084 88.3023 227.056C88.3136 227.053 88.3241 227.047 88.333 227.039C88.342 227.031 88.3492 227.022 88.3543 227.011C88.3594 227 88.3623 226.988 88.3628 226.976C88.3632 226.965 88.3612 226.953 88.3569 226.942C88.0946 226.291 89.0565 226.532 89.45 226.592C89.4662 226.596 89.483 226.595 89.4989 226.59C89.5147 226.585 89.5289 226.576 89.5401 226.564C89.5512 226.552 89.5589 226.537 89.5623 226.52C89.5657 226.504 89.5647 226.487 89.5593 226.472C89.4992 226.253 89.0128 226.034 89.5867 225.952C89.7405 225.951 89.8924 225.986 90.0294 226.056C90.283 226.493 90.6419 226.859 91.0733 227.122C91.4559 227.297 91.8385 227.166 91.5488 226.723ZM91.3684 226.838C91.4887 227.002 91.1116 226.871 91.0678 226.838C90.8541 226.704 90.6803 226.515 90.565 226.291C90.6852 226.357 90.7891 226.417 90.8656 226.45C91.065 226.532 91.2386 226.666 91.3684 226.838Z" fill="black"/>
<path d="M96.3031 222.203C96.232 221.919 96.2266 221.613 96.4889 221.574C96.6146 221.574 96.5217 221.389 96.4288 221.389C96.0735 221.389 95.9642 221.684 96.0134 222.05C95.8718 221.984 95.7233 221.935 95.5707 221.902C95.3411 221.859 95.1936 221.853 95.117 222.088C95.0733 222.225 95.1881 222.318 95.1772 222.444C95.1662 222.569 95.3521 222.553 95.0733 222.624C94.9631 222.626 94.853 222.615 94.7454 222.591C94.6602 222.572 94.5713 222.575 94.4878 222.601C94.4044 222.627 94.3292 222.674 94.2699 222.739C94.1005 222.886 94.5268 222.957 94.0185 222.875C93.8906 222.83 93.7548 222.811 93.6195 222.821C93.4282 222.859 93.3298 222.914 93.3626 223.121C93.3626 223.214 93.5758 223.34 93.5758 223.4C93.5758 223.848 93.0893 223.466 92.9035 223.4C92.8913 223.396 92.8783 223.394 92.8655 223.396C92.8527 223.397 92.8403 223.402 92.8294 223.408C92.8184 223.415 92.8091 223.424 92.802 223.435C92.795 223.446 92.7905 223.458 92.7887 223.471C92.7887 223.695 92.9363 223.772 92.6138 223.794C92.5756 223.794 92.3515 223.668 92.2804 223.668C92.0728 223.668 91.8869 223.936 91.6136 223.914C91.5371 223.914 91.5153 223.974 91.5371 224.034C91.6082 224.242 91.723 224.362 91.313 224.537L90.8321 224.477C90.7228 224.477 90.7993 224.668 90.8922 224.673C91.078 224.673 91.7066 224.958 91.8924 224.701C92.0782 224.444 91.7612 224.302 91.8268 224.182C91.7831 224.264 92.1875 224.072 92.2312 224.056C92.3326 224.014 92.4393 223.986 92.5482 223.974C92.6084 223.974 92.6521 224.061 92.7122 224.061C92.7723 224.061 92.8762 224.1 92.9472 224.061C93.0183 224.023 93.0347 223.93 93.0675 223.914C93.1003 223.897 92.9746 223.81 93.1112 223.761C93.2478 223.712 93.3025 223.826 93.4009 223.859C93.4992 223.892 93.7835 224.018 93.9146 223.859C94.0458 223.701 93.7725 223.498 93.7999 223.356C93.8654 223.039 94.3464 223.28 94.5322 223.138C94.5475 223.127 94.5589 223.112 94.5648 223.094C94.5707 223.076 94.5708 223.057 94.565 223.039C94.4339 222.597 95.2373 222.941 95.4887 222.897C95.5324 222.897 95.5816 222.859 95.5762 222.804C95.5707 222.75 95.4723 222.531 95.4778 222.525C95.5379 222.258 95.9041 222.29 96.0735 222.334C96.232 222.881 96.6638 223.427 97.1284 223.269C97.1457 223.263 97.1608 223.252 97.1716 223.237C97.1823 223.223 97.1883 223.205 97.1885 223.187C97.1557 222.815 96.7403 222.449 96.3031 222.203ZM96.4725 222.646C96.4493 222.605 96.4292 222.563 96.4124 222.52C96.5427 222.604 96.6544 222.714 96.7403 222.843C96.8278 223.105 96.5381 222.717 96.4725 222.64V222.646Z" fill="black"/>
<path d="M101.751 218.53C101.762 218.494 101.762 218.456 101.751 218.421C101.674 218.147 101.357 218.355 101.303 218.524C101.248 218.694 101.368 218.754 101.357 218.88C101.346 219.005 101.532 218.989 101.254 219.06C101.145 219.062 101.037 219.051 100.931 219.027C100.846 219.007 100.757 219.01 100.673 219.036C100.59 219.062 100.515 219.11 100.456 219.175C100.281 219.322 100.712 219.393 100.199 219.311C100.071 219.266 99.935 219.247 99.7997 219.257C99.6139 219.295 99.5155 219.35 99.5428 219.557C99.5428 219.65 99.7614 219.776 99.7614 219.836C99.7614 220.284 99.2695 219.902 99.0892 219.836C99.077 219.832 99.064 219.831 99.0511 219.832C99.0383 219.833 99.026 219.838 99.015 219.845C99.004 219.851 98.9947 219.86 98.9877 219.871C98.9807 219.882 98.9761 219.894 98.9744 219.907C98.9744 220.131 99.122 220.208 98.7995 220.23C98.7558 220.23 98.5371 220.104 98.4661 220.104C98.2584 220.104 98.0671 220.372 97.7938 220.35C97.7228 220.35 97.6955 220.41 97.7173 220.47C97.7938 220.678 97.9031 220.798 97.4932 220.973L97.0123 220.913C96.9084 220.913 96.9795 221.104 97.0724 221.11C97.2582 221.11 97.8922 221.394 98.078 221.137C98.2639 220.88 97.9414 220.738 98.0125 220.618C97.9687 220.7 98.3732 220.508 98.4169 220.492C98.518 220.449 98.6248 220.422 98.7339 220.41C98.7886 220.41 98.8378 220.497 98.8979 220.497C98.958 220.497 99.0564 220.536 99.1329 220.497C99.2094 220.459 99.2203 220.366 99.2477 220.35C99.275 220.333 99.1548 220.246 99.2969 220.197C99.439 220.148 99.4882 220.262 99.5811 220.295C99.674 220.328 99.9691 220.454 100.128 220.295C100.286 220.137 99.9801 219.934 100.013 219.792C100.078 219.475 100.532 219.716 100.745 219.574C100.755 219.559 100.76 219.542 100.76 219.525C100.76 219.507 100.755 219.49 100.745 219.475C100.62 219.033 101.417 219.377 101.674 219.333C101.718 219.333 101.767 219.295 101.756 219.24C101.708 219.062 101.696 218.876 101.724 218.694C101.737 218.64 101.746 218.585 101.751 218.53Z" fill="black"/>
</g>
<path opacity="0.2" d="M112.155 254.378C112.582 255.531 113.795 256.253 115.872 256.521L145.178 239.359L149.004 235.495C149.051 235.447 149.08 235.386 149.087 235.319C149.095 235.253 149.079 235.186 149.044 235.13C149.008 235.074 148.955 235.031 148.892 235.009C148.829 234.987 148.761 234.987 148.698 235.008L141.686 237.331L112.155 254.378Z" fill="#FFA800"/>
<path d="M141.947 234.717L148.189 233.498C148.229 233.488 148.271 233.491 148.31 233.507C148.348 233.523 148.38 233.551 148.401 233.587C148.422 233.622 148.431 233.664 148.426 233.705C148.421 233.746 148.403 233.785 148.375 233.815L144.139 238.603L141.947 234.717Z" fill="#FFA8A7"/>
<path d="M148.375 233.815C148.404 233.785 148.422 233.746 148.427 233.705C148.431 233.664 148.422 233.622 148.402 233.587C148.381 233.551 148.349 233.523 148.31 233.507C148.272 233.491 148.23 233.488 148.19 233.498L146.971 233.733C147.138 233.838 147.273 233.987 147.363 234.163C147.452 234.339 147.493 234.536 147.479 234.733V234.843L148.375 233.815Z" fill="#263238"/>
<path d="M120.851 251.965L121.365 251.67L121.983 251.32L144.14 238.601C144.343 237.913 144.28 237.174 143.965 236.53C143.522 235.535 142.659 234.754 141.948 234.71L119.808 247.412L118.627 248.09C119.414 247.702 121.638 251.555 120.851 251.965Z" fill="#FFA800"/>
<path d="M122.802 250.857L123.939 250.201C124.278 250.02 124.087 249.195 123.688 248.337C123.141 247.2 122.147 246.102 121.698 246.337L120.857 246.823L120.562 246.998C121.004 246.763 122.032 247.862 122.551 248.998C122.928 249.818 123.098 250.638 122.835 250.835C122.827 250.846 122.816 250.854 122.802 250.857Z" fill="#EBEBEB"/>
<path d="M123.079 250.692C123.866 250.277 121.626 246.418 120.839 246.828L119.696 247.484C120.478 247.069 122.719 250.927 121.937 251.343L123.079 250.692Z" fill="#FFA800"/>
<path d="M120.851 251.968L121.982 251.323C122.753 250.924 120.621 247.18 119.796 247.426H119.747L118.615 248.087C119.413 247.704 121.638 251.558 120.851 251.968Z" fill="#EBEBEB"/>
<path opacity="0.15" d="M148.401 233.601L148.188 233.497L143.657 235.973L120.227 249.418C120.183 249.347 120.15 249.342 120.117 249.391C120.784 250.429 121.287 251.736 120.85 251.965L121.363 251.67L121.981 251.32L144.138 238.602L148.374 233.803C148.397 233.775 148.412 233.742 148.417 233.706C148.422 233.67 148.416 233.634 148.401 233.601Z" fill="black"/>
<path d="M116.064 254.702L120.852 251.97C121.185 251.795 120.999 250.975 120.617 250.128C120.098 248.986 119.076 247.876 118.627 248.106L113.823 250.838C112.872 251.385 113.747 253.462 114.812 254.385C114.964 254.559 115.165 254.682 115.389 254.739C115.612 254.796 115.848 254.783 116.064 254.702Z" fill="#F28F8F"/>
<path opacity="0.1" d="M116.351 253.219C116.072 252.126 115.198 251.087 114.395 250.858C114.276 250.814 114.149 250.801 114.024 250.818C113.899 250.835 113.781 250.882 113.679 250.956C112.957 251.623 113.799 253.525 114.804 254.399C114.956 254.568 115.154 254.689 115.374 254.745C115.594 254.802 115.825 254.792 116.04 254.716C116.395 254.503 116.537 253.951 116.351 253.219Z" fill="black"/>
</svg>
